<?xml version="1.0" encoding="UTF-8"?>
<svg version="1.1" xmlns="http://www.w3.org/2000/svg" width="137" height="130">
<path d="M0 0 C10.89 0 21.78 0 33 0 C34.84603244 4.6150811 35.17246599 6.25625452 34.9375 10.9375 C34.83582113 15.80014263 35.34949314 18.80336414 38 23 C38 23.66 38 24.32 38 25 C37.34 25 36.68 25 36 25 C36 24.34 36 23.68 36 23 C35.34 23.33 34.68 23.66 34 24 C34.495 25.1446875 34.495 25.1446875 35 26.3125 C36 29 36 29 36 32 C34.68 31.67 33.36 31.34 32 31 C32 32.65 32 34.3 32 36 C31.01 36 30.02 36 29 36 C29.474375 36.86625 29.94875 37.7325 30.4375 38.625 C33.78121268 45.8474194 33.78121268 45.8474194 32.28125 49.98046875 C31.9821875 50.66753906 31.683125 51.35460938 31.375 52.0625 C30.47090025 54.04830376 30.47090025 54.04830376 30 56 C31.17274994 58.87391821 31.17274994 58.87391821 33 61 C33 61.66 33 62.32 33 63 C33.66 63.33 34.32 63.66 35 64 C37 66 37 66 37 69 C35.02 68.505 35.02 68.505 33 68 C32.67 68.66 32.34 69.32 32 70 C33.98 70.66 35.96 71.32 38 72 C38 72.66 38 73.32 38 74 C38.99 74 39.98 74 41 74 C41 74.66 41 75.32 41 76 C41.66 76 42.32 76 43 76 C43 76.66 43 77.32 43 78 C41.04072937 79.7143618 39.04119788 81.38405168 37 83 C35.35 82.34 33.7 81.68 32 81 C32.33 81.66 32.66 82.32 33 83 C34.01211084 94.3847135 34.42279411 106.86446499 26.9375 116.125 C25.40234375 117.8203125 25.40234375 117.8203125 24 119 C23.34 119 22.68 119 22 119 C21.773125 119.598125 21.54625 120.19625 21.3125 120.8125 C19.60021906 123.66630157 17.99195267 124.57202259 15 126 C11.93627977 126.76593006 9.74331773 127.16422944 6.6496582 126.48071289 C3.73732022 125.95234346 1.52954365 126.14218662 -1.39453125 126.55859375 C-2.42497559 126.6973291 -3.45541992 126.83606445 -4.51708984 126.97900391 C-5.6045752 127.13030762 -6.69206055 127.28161133 -7.8125 127.4375 C-16.38746775 128.55801516 -24.66321692 129.30307915 -33.3046875 129.0078125 C-36.33789737 129.00139979 -39.17455071 129.1827659 -42.18359375 129.48828125 C-48.19666462 130.07949445 -54.15047999 130.11243655 -60.1875 130.0625 C-63.755625 130.041875 -67.32375 130.02125 -71 130 C-71 117.46 -71 104.92 -71 92 C-57 91 -57 91 -54 92 C-49.22929258 90.86539355 -44.98973704 88.69260645 -42 84.75 C-38.57218223 78.57757212 -39.09182395 70.87844865 -39 64 C-38.34 64 -37.68 64 -37 64 C-31.92042003 72.97829818 -29.87680862 79.82231529 -32.33203125 89.95703125 C-33.03263682 92.09981906 -33.94146 94.01244598 -35 96 C-34.47293457 95.69368652 -33.94586914 95.38737305 -33.40283203 95.07177734 C-30.45963216 93.75897025 -27.74097256 93.33687278 -24.5546875 92.8515625 C-23.31332031 92.65046875 -22.07195313 92.449375 -20.79296875 92.2421875 C-18.17455227 91.82971511 -15.55472431 91.42610812 -12.93359375 91.03125 C-11.07541016 90.72574219 -11.07541016 90.72574219 -9.1796875 90.4140625 C-8.04257324 90.2382666 -6.90545898 90.0624707 -5.73388672 89.88134766 C-2.89986235 89.2657391 -2.89986235 89.2657391 -1.59814453 87.05615234 C-0.80018419 84.31312296 -1.23239965 82.75056791 -2 80 C-2.350625 78.741875 -2.70125 77.48375 -3.0625 76.1875 C-3.371875 75.135625 -3.68125 74.08375 -4 73 C-7.465 73.495 -7.465 73.495 -11 74 C-11.33 73.01 -11.66 72.02 -12 71 C-11.01 69.515 -11.01 69.515 -10 68 C-9.34 68 -8.68 68 -8 68 C-6.09695313 61.25150301 -5.96863705 56.08430847 -7.58984375 49.25 C-8 47 -8 47 -7 45 C-7.99 45 -8.98 45 -10 45 C-10.12375 44.030625 -10.2475 43.06125 -10.375 42.0625 C-10.58125 41.051875 -10.7875 40.04125 -11 39 C-11.99 38.505 -11.99 38.505 -13 38 C-13.8125 36.125 -13.8125 36.125 -14 34 C-12.875 32.1875 -12.875 32.1875 -11 31 C-8.3125 31.3125 -8.3125 31.3125 -6 32 C-6.680625 31.113125 -7.36125 30.22625 -8.0625 29.3125 C-10 26 -10 26 -9.75 23.125 C-9.5025 22.42375 -9.255 21.7225 -9 21 C-8.01 21.33 -7.02 21.66 -6 22 C-6.061875 20.96875 -6.12375 19.9375 -6.1875 18.875 C-6 15 -6 15 -4.4375 11.9375 C-2.72046362 8.42877348 -3.02824475 6.71033821 -4 3 C-2.68 2.67 -1.36 2.34 0 2 C0 1.34 0 0.68 0 0 Z M28 34 C29 36 29 36 29 36 Z " fill="#08080A" transform="translate(71,0)"/>
<path d="M0 0 C0.99 0 1.98 0 3 0 C3.69965443 1.26418246 4.38434763 2.53665402 5.0625 3.8125 C5.44535156 4.52019531 5.82820313 5.22789063 6.22265625 5.95703125 C7 8 7 8 6 11 C5.76897675 14.05766069 5.80964676 17.12197641 5.8125 20.1875 C5.8137085 21.5187793 5.8137085 21.5187793 5.81494141 22.87695312 C5.54242028 37.52873449 5.54242028 37.52873449 10 51 C12.0335948 52.26804566 12.0335948 52.26804566 14 53 C13.34 54.65 12.68 56.3 12 58 C11.01 58 10.02 58 9 58 C8.67 56.35 8.34 54.7 8 53 C7.34 53 6.68 53 6 53 C6.99 54.98 7.98 56.96 9 59 C11.49552484 58.21869929 11.49552484 58.21869929 14 57 C14.33 56.01 14.66 55.02 15 54 C15.66 54 16.32 54 17 54 C17.33 54.66 17.66 55.32 18 56 C18 54.35 18 52.7 18 51 C19.65 51 21.3 51 23 51 C24.11630207 54.34890621 24.16765424 56.97539261 24.1875 60.5 C24.20167969 61.6446875 24.21585937 62.789375 24.23046875 63.96875 C24 67 24 67 22 70 C21.34 70 20.68 70 20 70 C19.505 65.545 19.505 65.545 19 61 C18.67 63.31 18.34 65.62 18 68 C17.34 68 16.68 68 16 68 C15.74089844 68.72574219 15.48179688 69.45148438 15.21484375 70.19921875 C13.95525439 73.10315949 12.49198794 75.31038983 10.5625 77.8125 C9.66724609 78.99779297 9.66724609 78.99779297 8.75390625 80.20703125 C8.17511719 80.79871094 7.59632812 81.39039062 7 82 C6.01 82 5.02 82 4 82 C4 82.66 4 83.32 4 84 C1.5 85.625 1.5 85.625 -1 87 C1.17752565 87.17260089 1.17752565 87.17260089 3.375 85.5625 C6 84 6 84 8.125 83.75 C10.44503907 83.07267904 10.44503907 83.07267904 11.5625 79.5625 C12.036875 78.386875 12.51125 77.21125 13 76 C13.99 75.34 14.98 74.68 16 74 C16 75.32 16 76.64 16 78 C14.515 78.495 14.515 78.495 13 79 C13 79.66 13 80.32 13 81 C14.32 80.67 15.64 80.34 17 80 C13.43577573 86.41560368 13.43577573 86.41560368 10.109375 87.76953125 C1.74984895 89.33328875 -6.64906862 89.45008826 -15.125 89.625 C-16.66929076 89.66326676 -18.21356216 89.70232323 -19.7578125 89.7421875 C-23.50502913 89.83722467 -27.25239417 89.92159287 -31 90 C-31 90.66 -31 91.32 -31 92 C-35.455 92.495 -35.455 92.495 -40 93 C-39.67 93.66 -39.34 94.32 -39 95 C-52.01109969 96.05750593 -64.9522906 96.10264806 -78 96 C-78 89.4 -78 82.8 -78 76 C-73.89748878 74.66138017 -69.79316023 73.32889604 -65.6875 72 C-64.52025391 71.6184375 -63.35300781 71.236875 -62.15039062 70.84375 C-61.03212891 70.4828125 -59.91386719 70.121875 -58.76171875 69.75 C-57.2142395 69.24726563 -57.2142395 69.24726563 -55.63549805 68.734375 C-53 68 -53 68 -50 68 C-50 68.66 -50 69.32 -50 70 C-48.4584364 70.02741912 -46.91672526 70.04658248 -45.375 70.0625 C-44.51648437 70.07410156 -43.65796875 70.08570312 -42.7734375 70.09765625 C-39.99244408 70.06564329 -39.99244408 70.06564329 -37.265625 69.5078125 C-34.55374408 69.08610853 -32.12805019 68.92411081 -29.3984375 68.89453125 C-28.16867188 68.87229492 -28.16867188 68.87229492 -26.9140625 68.84960938 C-25.21371529 68.82475815 -23.51296904 68.81972739 -21.8125 68.83398438 C-19.40505911 68.77133016 -17.32042105 68.64996679 -15 68 C-12.50771758 65.24116578 -12.50771758 65.24116578 -11 62 C-10.20142578 61.29423828 -10.20142578 61.29423828 -9.38671875 60.57421875 C-7.14208284 58.02608277 -6.67507512 55.05459268 -5.8125 51.8125 C-5.46832031 50.54019531 -5.12414062 49.26789063 -4.76953125 47.95703125 C-4.51558594 46.98121094 -4.26164062 46.00539062 -4 45 C-2.35 44.67 -0.7 44.34 1 44 C1.99 45.98 2.98 47.96 4 50 C3.1395861 45.66770285 3.1395861 45.66770285 1 42 C0.76844319 39.55333693 0.5963353 37.1284084 0.46484375 34.67578125 C0.40037804 33.56725044 0.40037804 33.56725044 0.33460999 32.43632507 C0.24423465 30.86693597 0.15612169 29.29741523 0.07006836 27.7277832 C-0.06100707 25.33969984 -0.19880784 22.95208213 -0.33789062 20.56445312 C-0.42487896 19.03908525 -0.51147963 17.5136952 -0.59765625 15.98828125 C-0.63826675 15.27867752 -0.67887726 14.56907379 -0.72071838 13.83796692 C-1.32867433 2.65734865 -1.32867433 2.65734865 0 0 Z " fill="#5E314B" transform="translate(78,34)"/>
<path d="M0 0 C0.99 0.66 1.98 1.32 3 2 C3 2.99 3 3.98 3 5 C3.99 5.33 4.98 5.66 6 6 C6 9.96 6 13.92 6 18 C4.04783565 16.04783565 3.15173355 14.46800047 2 12 C-0.25474845 13.81380309 -0.25474845 13.81380309 -0.15112305 16.4074707 C-0.08211792 17.90153442 -0.08211792 17.90153442 -0.01171875 19.42578125 C0.03452637 20.52696289 0.08077148 21.62814453 0.12841797 22.76269531 C0.18916504 23.93413086 0.24991211 25.10556641 0.3125 26.3125 C0.36809082 27.49553711 0.42368164 28.67857422 0.48095703 29.89746094 C0.59370867 32.22894643 0.71172687 34.56018421 0.83544922 36.89111328 C0.9679576 39.39461733 1.08442164 41.89768111 1.19140625 44.40234375 C1.50251706 50.07515142 2.10101976 53.9926705 5 59 C4.67 59.99 4.34 60.98 4 62 C1 57.25 1 57.25 1 55 C-0.32 55.33 -1.64 55.66 -3 56 C-3.39832031 57.46373047 -3.39832031 57.46373047 -3.8046875 58.95703125 C-4.16117593 60.24226586 -4.51796239 61.52741784 -4.875 62.8125 C-5.22304687 64.07707031 -5.57109375 65.34164062 -5.9296875 66.64453125 C-7 70 -7 70 -9 73 C-9.66 73 -10.32 73 -11 73 C-11.28875 73.78375 -11.5775 74.5675 -11.875 75.375 C-13 78 -13 78 -15 80 C-16.84423828 80.30297852 -16.84423828 80.30297852 -19.0703125 80.37890625 C-19.885 80.41306641 -20.6996875 80.44722656 -21.5390625 80.48242188 C-22.81910156 80.52206055 -22.81910156 80.52206055 -24.125 80.5625 C-31.24952826 80.81816336 -31.24952826 80.81816336 -38.3359375 81.5546875 C-42.57094455 82.06938985 -45.82214433 81.67144109 -50 81 C-50 80.34 -50 79.68 -50 79 C-50.77714355 79.24234375 -51.55428711 79.4846875 -52.35498047 79.734375 C-55.86075446 80.82582986 -59.36785228 81.91296783 -62.875 83 C-64.09832031 83.3815625 -65.32164063 83.763125 -66.58203125 84.15625 C-67.74863281 84.5171875 -68.91523437 84.878125 -70.1171875 85.25 C-71.73536377 85.75273437 -71.73536377 85.75273437 -73.38623047 86.265625 C-76 87 -76 87 -78 87 C-78 81.06 -78 75.12 -78 69 C-64.375 67.875 -64.375 67.875 -61 69 C-56.22929258 67.86539355 -51.98973704 65.69260645 -49 61.75 C-45.57218223 55.57757212 -46.09182395 47.87844865 -46 41 C-45.34 41 -44.68 41 -44 41 C-38.92042003 49.97829818 -36.87680862 56.82231529 -39.33203125 66.95703125 C-40.03263682 69.09981906 -40.94146 71.01244598 -42 73 C-41.47293457 72.69368652 -40.94586914 72.38737305 -40.40283203 72.07177734 C-37.45963216 70.75897025 -34.74097256 70.33687278 -31.5546875 69.8515625 C-30.31332031 69.65046875 -29.07195313 69.449375 -27.79296875 69.2421875 C-25.17455227 68.82971511 -22.55472431 68.42610812 -19.93359375 68.03125 C-18.07541016 67.72574219 -18.07541016 67.72574219 -16.1796875 67.4140625 C-15.04257324 67.2382666 -13.90545898 67.0624707 -12.73388672 66.88134766 C-9.89796461 66.26643187 -9.89796461 66.26643187 -8.60205078 64.04833984 C-7.07905261 58.8666875 -10.29754828 52.91462479 -12 48 C-11.01 47.67 -10.02 47.34 -9 47 C-8.34 49.31 -7.68 51.62 -7 54 C-3.9812449 49.84921174 -3.81612519 47.05655728 -4 42 C-3.5 39.5625 -3.5 39.5625 -3 38 C-3.66 38 -4.32 38 -5 38 C-4.67 36.35 -4.34 34.7 -4 33 C-3.34 33 -2.68 33 -2 33 C-1.83912536 26.53584582 -1.83912536 26.53584582 -2.5 20.125 C-2.99683286 17.01979461 -3.1734469 14.08000491 -3.25 10.9375 C-3.27578125 9.93589844 -3.3015625 8.93429688 -3.328125 7.90234375 C-2.95310041 4.58516197 -1.89239244 2.71408916 0 0 Z " fill="#3F2536" transform="translate(78,23)"/>
<path d="M0 0 C0.99 0 1.98 0 3 0 C3.69965443 1.26418246 4.38434763 2.53665402 5.0625 3.8125 C5.44535156 4.52019531 5.82820313 5.22789063 6.22265625 5.95703125 C7 8 7 8 6 11 C5.76897675 14.05766069 5.80964676 17.12197641 5.8125 20.1875 C5.81330566 21.07501953 5.81411133 21.96253906 5.81494141 22.87695312 C5.54242028 37.52873449 5.54242028 37.52873449 10 51 C12.0335948 52.26804566 12.0335948 52.26804566 14 53 C13.34 54.65 12.68 56.3 12 58 C11.01 58 10.02 58 9 58 C8.67 56.35 8.34 54.7 8 53 C7.34 53 6.68 53 6 53 C6.99 54.98 7.98 56.96 9 59 C11.49552484 58.21869929 11.49552484 58.21869929 14 57 C14.33 56.01 14.66 55.02 15 54 C15.66 54 16.32 54 17 54 C17.33 54.66 17.66 55.32 18 56 C18 54.35 18 52.7 18 51 C19.65 51 21.3 51 23 51 C24.11630207 54.34890621 24.16765424 56.97539261 24.1875 60.5 C24.20167969 61.6446875 24.21585938 62.789375 24.23046875 63.96875 C24 67 24 67 22 70 C21.34 70 20.68 70 20 70 C19.505 65.545 19.505 65.545 19 61 C18.67 63.31 18.34 65.62 18 68 C17.34 68 16.68 68 16 68 C15.74089844 68.72574219 15.48179688 69.45148438 15.21484375 70.19921875 C13.95525439 73.10315949 12.49198794 75.31038983 10.5625 77.8125 C9.96566406 78.60269531 9.36882812 79.39289063 8.75390625 80.20703125 C8.17511719 80.79871094 7.59632812 81.39039062 7 82 C6.01 82 5.02 82 4 82 C4 82.66 4 83.32 4 84 C1.5 85.625 1.5 85.625 -1 87 C1.17752565 87.17260089 1.17752565 87.17260089 3.375 85.5625 C6 84 6 84 8.125 83.75 C10.44503907 83.07267904 10.44503907 83.07267904 11.5625 79.5625 C12.036875 78.386875 12.51125 77.21125 13 76 C13.99 75.34 14.98 74.68 16 74 C16 75.32 16 76.64 16 78 C15.01 78.33 14.02 78.66 13 79 C13 79.66 13 80.32 13 81 C14.98 80.505 14.98 80.505 17 80 C13.43577573 86.41560368 13.43577573 86.41560368 10.109375 87.76953125 C1.74984895 89.33328875 -6.64906862 89.45008826 -15.125 89.625 C-16.66929076 89.66326676 -18.21356216 89.70232323 -19.7578125 89.7421875 C-23.50502913 89.83722467 -27.25239417 89.92159287 -31 90 C-31 90.66 -31 91.32 -31 92 C-33.31 92 -35.62 92 -38 92 C-37.67 90.68 -37.34 89.36 -37 88 C-35.90558594 88.27457031 -35.90558594 88.27457031 -34.7890625 88.5546875 C-31.90696162 89.01485487 -30.18292642 88.81054725 -27.375 88.125 C-21.94210174 86.9140528 -16.54482244 86.40057653 -11 86 C-11 85.34 -11 84.68 -11 84 C-12.0725 84.04125 -13.145 84.0825 -14.25 84.125 C-17.65747485 84.0114175 -19.20739631 83.78726636 -22 82 C-20.56871715 78.36376789 -19.01099283 77.13039044 -15.5625 75.375 C-12.91431661 74.00509953 -10.48943944 72.65962629 -8 71 C-8 70.01 -8 69.02 -8 68 C-6.515 67.505 -6.515 67.505 -5 67 C-5.33 66.01 -5.66 65.02 -6 64 C-5.01 63.67 -4.02 63.34 -3 63 C-2.12203121 60.9967851 -2.12203121 60.9967851 -1.5625 58.625 C-0.62516884 55.48892926 -0.24173856 54.22792492 2.1875 51.9375 C2.785625 51.628125 3.38375 51.31875 4 51 C3.5020163 47.26512223 3.12508244 45.18762365 1 42 C0.69107351 39.46742724 0.48695519 37.0223837 0.3671875 34.48046875 C0.32562531 33.74427811 0.28406311 33.00808746 0.24124146 32.24958801 C0.1106498 29.89593268 -0.00712749 27.54182294 -0.125 25.1875 C-0.21144261 23.61388831 -0.29867348 22.04031971 -0.38671875 20.46679688 C-1.35515422 2.71030844 -1.35515422 2.71030844 0 0 Z " fill="#723A5A" transform="translate(78,34)"/>
<path d="M0 0 C0.33 0.66 0.66 1.32 1 2 C1.66 2.33 2.32 2.66 3 3 C3 3.99 3 4.98 3 6 C3.66 5.34 4.32 4.68 5 4 C6.010625 4.495 7.02125 4.99 8.0625 5.5 C11.77988188 7.11592314 14.93956657 7.24859797 19 7 C20 10.875 20 10.875 20 12 C20.66 12 21.32 12 22 12 C22.33 11.34 22.66 10.68 23 10 C24.32 10.66 25.64 11.32 27 12 C27 13.98 27 15.96 27 18 C26.34 18 25.68 18 25 18 C26.32 21.63 27.64 25.26 29 29 C28.34 29 27.68 29 27 29 C26.814375 29.9590625 26.814375 29.9590625 26.625 30.9375 C26.41875 31.618125 26.2125 32.29875 26 33 C25.01 33.495 25.01 33.495 24 34 C23.34786708 36.02463255 23.34786708 36.02463255 23 38 C20 37 20 37 18 34 C17.67 33.01 17.34 32.02 17 31 C16.34 31 15.68 31 15 31 C14.37542727 27.56484998 14 24.50935186 14 21 C13.34 20.67 12.68 20.34 12 20 C10.875 17.9375 10.875 17.9375 10 16 C7.36827903 18.64557213 6.9978907 20.02455826 6.671875 23.8203125 C6.68244659 25.25540569 6.70893969 26.69045538 6.75 28.125 C6.75515625 28.85332031 6.7603125 29.58164062 6.765625 30.33203125 C6.76484806 34.29651368 6.76484806 34.29651368 8 38 C8.13357453 41.67329964 8.1671568 44.49852959 7 48 C6.34 48 5.68 48 5 48 C4.67 49.65 4.34 51.3 4 53 C4.66 53 5.32 53 6 53 C6.44534366 59.95230941 6.67289916 64.59696035 2 70 C0.23537317 66.91190305 0 65.76687864 0 62 C-0.556875 62.66 -1.11375 63.32 -1.6875 64 C-4 66 -4 66 -6.75 66.25 C-7.4925 66.1675 -8.235 66.085 -9 66 C-9.33 65.01 -9.66 64.02 -10 63 C-9.34 62.01 -8.68 61.02 -8 60 C-7.34 60 -6.68 60 -6 60 C-4.09695313 53.25150301 -3.96863705 48.08430847 -5.58984375 41.25 C-6 39 -6 39 -5 37 C-5.99 37 -6.98 37 -8 37 C-8.12375 36.030625 -8.2475 35.06125 -8.375 34.0625 C-8.58125 33.051875 -8.7875 32.04125 -9 31 C-9.66 30.67 -10.32 30.34 -11 30 C-11.8125 28.125 -11.8125 28.125 -12 26 C-10.875 24.1875 -10.875 24.1875 -9 23 C-6.3125 23.3125 -6.3125 23.3125 -4 24 C-4.680625 23.113125 -5.36125 22.22625 -6.0625 21.3125 C-8 18 -8 18 -7.75 15.125 C-7.5025 14.42375 -7.255 13.7225 -7 13 C-6.01 13.33 -5.02 13.66 -4 14 C-4.0928125 12.453125 -4.0928125 12.453125 -4.1875 10.875 C-3.98368639 6.66285213 -3.07937852 3.07937852 0 0 Z " fill="#1F141B" transform="translate(69,8)"/>
<path d="M0 0 C0.66 0 1.32 0 2 0 C2.99 2.97 3.98 5.94 5 9 C5.66 9 6.32 9 7 9 C13.17286657 17.6420132 11.98410693 31.11959138 10.5390625 41.22265625 C9.08669917 46.75018021 6.41137679 51.2890368 2 55 C1.34 55 0.68 55 0 55 C-0.226875 55.598125 -0.45375 56.19625 -0.6875 56.8125 C-2.39978094 59.66630157 -4.00804733 60.57202259 -7 62 C-10.06179221 62.76544805 -12.25277236 63.16625815 -15.34375 62.47851562 C-18.29579307 61.94671375 -20.53775407 62.16039946 -23.5 62.59375 C-24.54679932 62.73772217 -25.59359863 62.88169434 -26.67211914 63.0300293 C-27.77031982 63.18511963 -28.86852051 63.34020996 -30 63.5 C-38.8937703 64.67716378 -47.09060139 65.47013933 -56 64 C-55.67 63.34 -55.34 62.68 -55 62 C-52.03 62 -49.06 62 -46 62 C-46 61.34 -46 60.68 -46 60 C-39.41901608 58.85713738 -32.85470247 58.7042138 -26.1875 58.5 C-21.78982999 58.36391164 -17.39514251 58.20216973 -13 58 C-11.52394287 57.94392578 -11.52394287 57.94392578 -10.01806641 57.88671875 C-9.1213623 57.83128906 -8.2246582 57.77585938 -7.30078125 57.71875 C-6.51485596 57.67685547 -5.72893066 57.63496094 -4.91918945 57.59179688 C-2.81695147 57.17206956 -2.81695147 57.17206956 -1.79370117 55.08007812 C-1.53177979 54.39365234 -1.2698584 53.70722656 -1 53 C-0.505 52.01 -0.505 52.01 0 51 C-0.66 51 -1.32 51 -2 51 C-2 50.34 -2 49.68 -2 49 C-1.01 48.34 -0.02 47.68 1 47 C0.67 46.34 0.34 45.68 0 45 C-1.78727646 47.19347565 -2.94806175 48.82254431 -3.75 51.5625 C-5.6063806 55.18244217 -8.28271135 55.67239691 -12 57 C-12.99 57.495 -12.99 57.495 -14 58 C-16.6723621 58.13415472 -19.32250488 58.04318541 -22 58 C-22.33 57.34 -22.66 56.68 -23 56 C-21.948125 56.04125 -20.89625 56.0825 -19.8125 56.125 C-16.25989827 56.00852125 -14.15133359 55.52791932 -11 54 C-11 53.34 -11 52.68 -11 52 C-10.25105469 51.58105469 -9.50210938 51.16210938 -8.73046875 50.73046875 C-5.46287676 48.65959143 -4.24565006 46.63578044 -2.3125 43.3125 C-1.25880746 41.51117639 -0.1663874 39.73048408 1 38 C1.66 38 2.32 38 3 38 C3 35.69 3 33.38 3 31 C3.66 30.67 4.32 30.34 5 30 C5 33.3 5 36.6 5 40 C5.66 40 6.32 40 7 40 C8.25433458 36.23699626 8.10695422 32.72789091 8.0625 28.8125 C8.05798828 28.06291016 8.05347656 27.31332031 8.04882812 26.54101562 C8.03706354 24.69397617 8.01912865 22.84697787 8 21 C6.68 21.33 5.36 21.66 4 22 C4 24.31 4 26.62 4 29 C2 26 2 26 2 24 C1.34 24 0.68 24 0 24 C-0.0928125 24.928125 -0.0928125 24.928125 -0.1875 25.875 C-1 28 -1 28 -3.5625 29.25 C-4.366875 29.4975 -5.17125 29.745 -6 30 C-9 26.375 -9 26.375 -9 23 C-8.34 23 -7.68 23 -7 23 C-6.505 25.475 -6.505 25.475 -6 28 C-5.01 28 -4.02 28 -3 28 C-2.67 26.35 -2.34 24.7 -2 23 C-2.804375 22.566875 -3.60875 22.13375 -4.4375 21.6875 C-7 20 -7 20 -8 17 C-8.22718496 14.43365139 -8.41608184 11.88321893 -8.5625 9.3125 C-8.60568359 8.61060547 -8.64886719 7.90871094 -8.69335938 7.18554688 C-8.7991736 5.45724794 -8.90006581 3.7286489 -9 2 C-8.34 2.33 -7.68 2.66 -7 3 C-6.375 5.0625 -6.375 5.0625 -6 7 C-5.38125 6.814375 -4.7625 6.62875 -4.125 6.4375 C-2 6 -2 6 0 7 C0 4.69 0 2.38 0 0 Z " fill="#060405" transform="translate(93,64)"/>
<path d="M0 0 C10.89 0 21.78 0 33 0 C34.84603244 4.6150811 35.17246599 6.25625452 34.9375 10.9375 C34.83582113 15.80014263 35.34949314 18.80336414 38 23 C38 23.66 38 24.32 38 25 C37.34 25 36.68 25 36 25 C36 24.34 36 23.68 36 23 C34.35 23.66 32.7 24.32 31 25 C28 19.375 28 19.375 28 16 C28.99 16 29.98 16 31 16 C31.495 16.99 31.495 16.99 32 18 C32 17.01 32 16.02 32 15 C30.68 15 29.36 15 28 15 C26.57499941 11.00999834 25.59924224 7.19469571 25 3 C21.98509443 1.99503148 19.95818308 1.89664697 16.8125 1.9375 C15.91144531 1.94652344 15.01039062 1.95554688 14.08203125 1.96484375 C13.05142578 1.98224609 13.05142578 1.98224609 12 2 C12 3.98 12 5.96 12 8 C12.99 8 13.98 8 15 8 C15 8.66 15 9.32 15 10 C15.66 10 16.32 10 17 10 C18.66666667 11.66666667 20.33333333 13.33333333 22 15 C24.16620544 16.29519995 24.16620544 16.29519995 26 17 C26 17.66 26 18.32 26 19 C23.10765685 19.82638376 21.11257569 20 18 20 C17.67 20.66 17.34 21.32 17 22 C15.95550089 18.86650268 16.06576355 18.01031744 17 15 C15.4840625 15.3403125 15.4840625 15.3403125 13.9375 15.6875 C9.1555952 16.06701625 7.19498514 15.14029854 3 13 C2.34 14.65 1.68 16.3 1 18 C0.67 18 0.34 18 0 18 C0.0825 16.96875 0.165 15.9375 0.25 14.875 C-0.03958374 10.38645204 -1.35945389 8.54823383 -4 5 C-4 4.34 -4 3.68 -4 3 C-2.68 2.67 -1.36 2.34 0 2 C0 1.34 0 0.68 0 0 Z " fill="#17162E" transform="translate(71,0)"/>
<path d="M0 0 C0.66 1.32 1.32 2.64 2 4 C-0.35545536 7.92575894 -2.62220667 8.88226553 -7 10 C-7.66 10 -8.32 10 -9 10 C-9.33 10.99 -9.66 11.98 -10 13 C-10.66 13.33 -11.32 13.66 -12 14 C-11.505 14.99 -11.505 14.99 -11 16 C-24.00930892 17.05736038 -36.95415744 17.11145896 -50 17 C-50 15.35 -50 13.7 -50 12 C-47.36 12 -44.72 12 -42 12 C-41.67 11.34 -41.34 10.68 -41 10 C-39.1746875 10.0309375 -39.1746875 10.0309375 -37.3125 10.0625 C-34.08022678 10.06824116 -31.15065259 9.78766315 -28 9 C-27.67 8.01 -27.34 7.02 -27 6 C-26.34 6 -25.68 6 -25 6 C-25.33 5.01 -25.66 4.02 -26 3 C-22.60500696 2.49418146 -19.20888518 1.99637756 -15.8125 1.5 C-14.37293945 1.28537109 -14.37293945 1.28537109 -12.90429688 1.06640625 C-11.97294922 0.93105469 -11.04160156 0.79570313 -10.08203125 0.65625 C-9.22843018 0.53056641 -8.3748291 0.40488281 -7.49536133 0.27539062 C-4.97530325 -0.00272556 -2.53314218 -0.047608 0 0 Z " fill="#763D5B" transform="translate(50,113)"/>
<path d="M0 0 C0.99 0.66 1.98 1.32 3 2 C3 2.99 3 3.98 3 5 C3.99 5.33 4.98 5.66 6 6 C6 9.96 6 13.92 6 18 C4.04783565 16.04783565 3.15173355 14.46800047 2 12 C-0.25474845 13.81380309 -0.25474845 13.81380309 -0.15112305 16.4074707 C-0.08211792 17.90153442 -0.08211792 17.90153442 -0.01171875 19.42578125 C0.03452637 20.52696289 0.08077148 21.62814453 0.12841797 22.76269531 C0.18916504 23.93413086 0.24991211 25.10556641 0.3125 26.3125 C0.36809082 27.49553711 0.42368164 28.67857422 0.48095703 29.89746094 C0.59370867 32.22894643 0.71172687 34.56018421 0.83544922 36.89111328 C0.9679576 39.39461733 1.08442164 41.89768111 1.19140625 44.40234375 C1.50251706 50.07515142 2.10101976 53.9926705 5 59 C4.67 59.99 4.34 60.98 4 62 C1 57.25 1 57.25 1 55 C-0.98 55.495 -0.98 55.495 -3 56 C-3.39832031 57.46373047 -3.39832031 57.46373047 -3.8046875 58.95703125 C-4.16117593 60.24226586 -4.51796239 61.52741784 -4.875 62.8125 C-5.39707031 64.70935547 -5.39707031 64.70935547 -5.9296875 66.64453125 C-7 70 -7 70 -9 73 C-9.66 73 -10.32 73 -11 73 C-11.268125 73.78375 -11.53625 74.5675 -11.8125 75.375 C-13 78 -13 78 -16 80 C-15.35455571 76.51460083 -13.89865603 73.97180943 -12 71 C-12.721875 71.185625 -13.44375 71.37125 -14.1875 71.5625 C-17 72 -17 72 -19.26171875 71.43359375 C-22.74641003 70.88180954 -25.22796217 71.59412324 -28.625 72.5 C-34.67898089 74.10700637 -34.67898089 74.10700637 -38 73 C-31.6966609 69.21585255 -24.88197137 68.65316001 -17.703125 67.62695312 C-16.7440625 67.47291016 -15.785 67.31886719 -14.796875 67.16015625 C-13.92385742 67.03261963 -13.05083984 66.90508301 -12.15136719 66.77368164 C-9.84701267 66.18357948 -9.84701267 66.18357948 -8.68847656 64.06420898 C-6.98309737 58.95109514 -10.30754017 52.88578028 -12 48 C-10.515 47.505 -10.515 47.505 -9 47 C-8.34 49.31 -7.68 51.62 -7 54 C-3.9812449 49.84921174 -3.81612519 47.05655728 -4 42 C-3.5 39.5625 -3.5 39.5625 -3 38 C-3.66 38 -4.32 38 -5 38 C-4.67 36.35 -4.34 34.7 -4 33 C-3.34 33 -2.68 33 -2 33 C-1.83912536 26.53584582 -1.83912536 26.53584582 -2.5 20.125 C-2.99683286 17.01979461 -3.1734469 14.08000491 -3.25 10.9375 C-3.27578125 9.93589844 -3.3015625 8.93429688 -3.328125 7.90234375 C-2.95310041 4.58516197 -1.89239244 2.71408916 0 0 Z " fill="#060506" transform="translate(78,23)"/>
<path d="M0 0 C1.175625 0.495 2.35125 0.99 3.5625 1.5 C7.59220111 3.02999347 10.72138314 3.26741355 15 3 C16 6.875 16 6.875 16 8 C16.66 8 17.32 8 18 8 C18.33 7.34 18.66 6.68 19 6 C20.32 6.66 21.64 7.32 23 8 C23 9.98 23 11.96 23 14 C22.34 14 21.68 14 21 14 C22.32 17.63 23.64 21.26 25 25 C24.34 25 23.68 25 23 25 C22.87625 25.639375 22.7525 26.27875 22.625 26.9375 C22.315625 27.9584375 22.315625 27.9584375 22 29 C21.34 29.33 20.68 29.66 20 30 C19.34786708 32.02463255 19.34786708 32.02463255 19 34 C16 33 16 33 14 30 C13.67 29.01 13.34 28.02 13 27 C12.34 27 11.68 27 11 27 C10.37542727 23.56484998 10 20.50935186 10 17 C9.34 16.67 8.68 16.34 8 16 C7.07133836 14.51132724 6.20294664 12.98445294 5.375 11.4375 C4.92898437 10.61121094 4.48296875 9.78492188 4.0234375 8.93359375 C3.68570313 8.29550781 3.34796875 7.65742188 3 7 C3 8.32 3 9.64 3 11 C2.34 11 1.68 11 1 11 C-1.03684712 6.92630576 -1.0257259 4.41062136 0 0 Z " fill="#3F3E4A" transform="translate(73,12)"/>
<path d="M0 0 C0.66 0 1.32 0 2 0 C3.28562084 8.09941131 2.90265972 14.6722212 -1 22 C-0.4225 21.649375 0.155 21.29875 0.75 20.9375 C3.35801776 19.85082593 4.39417629 20.06934867 7 21 C6.505 21.495 6.505 21.495 6 22 C7.01320312 21.77183594 8.02640625 21.54367188 9.0703125 21.30859375 C10.42175234 21.01765879 11.77332193 20.7273261 13.125 20.4375 C13.79015625 20.28603516 14.4553125 20.13457031 15.140625 19.97851562 C19.44592312 19.07102632 22.71498739 19.16162797 27 20 C27.99 19.67 28.98 19.34 30 19 C29.37498605 20.68272986 28.69822617 22.34630643 28 24 C27.6596875 24.86753906 27.319375 25.73507813 26.96875 26.62890625 C25 29 25 29 23.19848633 29.47924805 C20.89297438 29.68602865 18.62721615 29.74625753 16.3125 29.75 C14.74603291 29.78374328 13.17962151 29.82018383 11.61328125 29.859375 C10.84387207 29.87363525 10.07446289 29.88789551 9.28173828 29.90258789 C7.05656001 29.99758534 4.9042259 30.23616055 2.69921875 30.54296875 C-1.55560033 31.06864333 -4.80293965 30.67452756 -9 30 C-9 29.34 -9 28.68 -9 28 C-9.77714355 28.24234375 -10.55428711 28.4846875 -11.35498047 28.734375 C-14.86075446 29.82582986 -18.36785228 30.91296783 -21.875 32 C-23.09832031 32.3815625 -24.32164063 32.763125 -25.58203125 33.15625 C-27.33193359 33.69765625 -27.33193359 33.69765625 -29.1171875 34.25 C-30.19597168 34.58515625 -31.27475586 34.9203125 -32.38623047 35.265625 C-35 36 -35 36 -37 36 C-37 35.34 -37 34.68 -37 34 C-36.35039307 33.80889648 -35.70078613 33.61779297 -35.03149414 33.42089844 C-32.03992337 32.53691042 -29.05123666 31.64352103 -26.0625 30.75 C-25.04091797 30.44964844 -24.01933594 30.14929688 -22.96679688 29.83984375 C-11.22948438 26.96126541 -11.22948438 26.96126541 -2.5 19.5 C0.04099478 13.36696259 0 6.55057261 0 0 Z " fill="#382231" transform="translate(37,74)"/>
<path d="M0 0 C2.34653846 2.34653846 2.2696755 2.87619347 2.37890625 6.0625 C2.43014648 7.25746094 2.43014648 7.25746094 2.48242188 8.4765625 C2.50884766 9.30929688 2.53527344 10.14203125 2.5625 11 C2.62237701 12.64598081 2.68600242 14.29183079 2.75390625 15.9375 C2.77783447 16.66839844 2.8017627 17.39929688 2.82641602 18.15234375 C2.89653634 20.09439895 2.89653634 20.09439895 4 22 C4.13357453 25.67329964 4.1671568 28.49852959 3 32 C2.34 32 1.68 32 1 32 C0.505 34.475 0.505 34.475 0 37 C0.66 37 1.32 37 2 37 C2.44534366 43.95230941 2.67289916 48.59696035 -2 54 C-3.76462683 50.91190305 -4 49.76687864 -4 46 C-4.61875 46.66 -5.2375 47.32 -5.875 48 C-8 50 -8 50 -10 50 C-10.495 48.515 -10.495 48.515 -11 47 C-10.02115538 45.23807968 -9.03699935 43.47833225 -8 41.75 C-5.24238019 36.92416533 -6.30446882 33.33535097 -7.5859375 28.2265625 C-8.13016185 25.30007306 -7.73407695 22.86290009 -7 20 C-6.01 19.67 -5.02 19.34 -4 19 C-2.85480988 21.29038024 -2.92648088 22.53068537 -3 25.0625 C-3 26.361875 -3 27.66125 -3 29 C-2.67 29.33 -2.34 29.66 -2 30 C-2 26.04 -2 22.08 -2 18 C-1.34 18 -0.68 18 0 18 C-0.14230808 16.58297487 -0.28900746 15.1663904 -0.4375 13.75 C-0.51871094 12.96109375 -0.59992188 12.1721875 -0.68359375 11.359375 C-0.94211042 9.01764454 -0.94211042 9.01764454 -1.59375 6.875 C-2.18212231 4.15943551 -1.15731267 2.45077978 0 0 Z " fill="#202022" transform="translate(73,24)"/>
<path d="M0 0 C0.99 0 1.98 0 3 0 C3.69965443 1.26418246 4.38434763 2.53665402 5.0625 3.8125 C5.63677734 4.87404297 5.63677734 4.87404297 6.22265625 5.95703125 C7 8 7 8 6 11 C5.76897675 14.05766069 5.80964676 17.12197641 5.8125 20.1875 C5.81330566 21.07501953 5.81411133 21.96253906 5.81494141 22.87695312 C5.54242028 37.52873449 5.54242028 37.52873449 10 51 C12.0335948 52.26804566 12.0335948 52.26804566 14 53 C13.01 55.475 13.01 55.475 12 58 C11.01 58 10.02 58 9 58 C8.75765625 57.43152344 8.5153125 56.86304688 8.265625 56.27734375 C7.93046875 55.50519531 7.5953125 54.73304687 7.25 53.9375 C6.92515625 53.18339844 6.6003125 52.42929688 6.265625 51.65234375 C4.99364911 48.84650651 4.99364911 48.84650651 2.97265625 45.82861328 C0.79193963 42.02116492 0.31735128 38.42695831 0.171875 34.08984375 C0.1331427 33.3593129 0.0944104 32.62878204 0.05450439 31.87611389 C-0.06393904 29.56370194 -0.15721565 27.25106821 -0.25 24.9375 C-0.32649869 23.38208062 -0.40460994 21.82673967 -0.484375 20.27148438 C-1.35345407 2.70690813 -1.35345407 2.70690813 0 0 Z " fill="#A195D8" transform="translate(78,34)"/>
<path d="M0 0 C0.77923828 0.76376953 0.77923828 0.76376953 1.57421875 1.54296875 C1.57421875 2.20296875 1.57421875 2.86296875 1.57421875 3.54296875 C-2.5099283 7.39373596 -5.55885205 8.60964152 -11.11328125 8.48046875 C-13.62438344 8.28307451 -13.62438344 8.28307451 -15.42578125 10.54296875 C-20.75911458 10.87630208 -20.75911458 10.87630208 -23.42578125 9.54296875 C-23.42578125 5.91296875 -23.42578125 2.28296875 -23.42578125 -1.45703125 C-16.29660607 -4.51239204 -6.69291218 -4.02005836 0 0 Z " fill="#783D5E" transform="translate(23.42578125,115.45703125)"/>
<path d="M0 0 C3.0625 1.9375 3.0625 1.9375 5 5 C5.66317133 8.00436707 5.92637298 10.92774546 6 14 C2.74770785 15.02214896 1.41076857 15.18671298 -1.75 13.75 C-4 12 -4 12 -5 9 C-6.32 9 -7.64 9 -9 9 C-9.66 8.34 -10.32 7.68 -11 7 C-11 5.68 -11 4.36 -11 3 C-11.66 2.34 -12.32 1.68 -13 1 C-8.6393699 -0.45354337 -4.55273787 -0.61719732 0 0 Z " fill="#BDBFC9" transform="translate(93,1)"/>
<path d="M0 0 C0 1.65 0 3.3 0 5 C0.99 5 1.98 5 3 5 C3 5.66 3 6.32 3 7 C3.66 7 4.32 7 5 7 C6.66666667 8.66666667 8.33333333 10.33333333 10 12 C12.16620544 13.29519995 12.16620544 13.29519995 14 14 C14 14.66 14 15.32 14 16 C11.10765685 16.82638376 9.11257569 17 6 17 C5.67 17.66 5.34 18.32 5 19 C3.95550089 15.86650268 4.06576355 15.01031744 5 12 C3.4840625 12.3403125 3.4840625 12.3403125 1.9375 12.6875 C-2.8444048 13.06701625 -4.80501486 12.14029854 -9 10 C-8.8864371 8.35333797 -8.75882619 6.70763918 -8.625 5.0625 C-8.55539063 4.14597656 -8.48578125 3.22945313 -8.4140625 2.28515625 C-8.27742188 1.53105469 -8.14078125 0.77695312 -8 0 C-5.13822943 -1.43088528 -3.06624227 -0.59991697 0 0 Z " fill="#232035" transform="translate(83,3)"/>
<path d="M0 0 C0 0.66 0 1.32 0 2 C6.93 1.01 6.93 1.01 14 0 C14 0.66 14 1.32 14 2 C7.84629161 3.823321 2.40353322 4.2361959 -4 4 C-1.525 4.495 -1.525 4.495 1 5 C1 5.33 1 5.66 1 6 C-8.405 6.495 -8.405 6.495 -18 7 C-18 7.66 -18 8.32 -18 9 C-16.46279297 8.7834375 -16.46279297 8.7834375 -14.89453125 8.5625 C-13.53387846 8.37482375 -12.17320001 8.18733358 -10.8125 8 C-9.80219727 7.85691406 -9.80219727 7.85691406 -8.77148438 7.7109375 C-5.15335423 7.21675387 -1.65203599 6.88653869 2 7 C2 7.66 2 8.32 2 9 C-1.57350041 9.81898622 -4.85659479 10.11811958 -8.51953125 10.09765625 C-9.54111328 10.09443359 -10.56269531 10.09121094 -11.61523438 10.08789062 C-12.67033203 10.07951172 -13.72542969 10.07113281 -14.8125 10.0625 C-15.88693359 10.05798828 -16.96136719 10.05347656 -18.06835938 10.04882812 C-20.71229683 10.03707729 -23.35611952 10.02064787 -26 10 C-26 8.35 -26 6.7 -26 5 C-23.36 5 -20.72 5 -18 5 C-17.67 4.34 -17.34 3.68 -17 3 C-15.2365625 3.0928125 -15.2365625 3.0928125 -13.4375 3.1875 C-8.44143511 3.21412202 -4.65234572 0 0 0 Z " fill="#070405" transform="translate(26,120)"/>
<path d="M0 0 C1.32 0 2.64 0 4 0 C5.625 2.75 5.625 2.75 7 6 C6.1875 8.375 6.1875 8.375 5 10 C4.34 10 3.68 10 3 10 C2.87882812 10.62648438 2.75765625 11.25296875 2.6328125 11.8984375 C2.46523437 12.71570313 2.29765625 13.53296875 2.125 14.375 C1.96257812 15.18710938 1.80015625 15.99921875 1.6328125 16.8359375 C1 19 1 19 -1 21 C-1.28875 21.680625 -1.5775 22.36125 -1.875 23.0625 C-3 25 -3 25 -5.125 25.75 C-6.053125 25.87375 -6.053125 25.87375 -7 26 C-5.98857129 19.78693795 -4.72411857 13.80976968 -3 7.75 C-2.649375 6.50734375 -2.29875 5.2646875 -1.9375 3.984375 C-1 1 -1 1 0 0 Z " fill="#61324D" transform="translate(75,78)"/>
<path d="M0 0 C2.36226007 7.0867802 1.22918522 16.21910914 -1.91796875 22.96875 C-2.9375 24.625 -2.9375 24.625 -5 27 C-5.99 27 -6.98 27 -8 27 C-7.505 26.38125 -7.01 25.7625 -6.5 25.125 C-4.80777227 23.16119096 -4.80777227 23.16119096 -5 21 C-8.26818838 21.36313204 -9.1574067 22.1574067 -11.5625 24.5625 C-12.7690625 25.7690625 -12.7690625 25.7690625 -14 27 C-14.99 27 -15.98 27 -17 27 C-16.375 24.1875 -16.375 24.1875 -15 21 C-14.04996094 20.56042969 -13.09992187 20.12085937 -12.12109375 19.66796875 C-8.32238513 17.6378704 -7.47454329 15.98809628 -5.6875 12.125 C-5.19636719 11.09632812 -4.70523438 10.06765625 -4.19921875 9.0078125 C-2.92474476 6.08530007 -2.92474476 6.08530007 -2.45703125 3.1796875 C-2.30621094 2.46039063 -2.15539063 1.74109375 -2 1 C-1.34 0.67 -0.68 0.34 0 0 Z " fill="#562D45" transform="translate(37,71)"/>
<path d="M0 0 C2.34653846 2.34653846 2.2696755 2.87619347 2.37890625 6.0625 C2.41306641 6.85914063 2.44722656 7.65578125 2.48242188 8.4765625 C2.50884766 9.30929688 2.53527344 10.14203125 2.5625 11 C2.62237701 12.64598081 2.68600242 14.29183079 2.75390625 15.9375 C2.77783447 16.66839844 2.8017627 17.39929688 2.82641602 18.15234375 C2.89653634 20.09439895 2.89653634 20.09439895 4 22 C4.13357453 25.67329964 4.1671568 28.49852959 3 32 C2.34 32 1.68 32 1 32 C0.87625 33.134375 0.7525 34.26875 0.625 35.4375 C0.41875 36.613125 0.2125 37.78875 0 39 C-0.99 39.495 -0.99 39.495 -2 40 C-2 32.74 -2 25.48 -2 18 C-1.34 18 -0.68 18 0 18 C-0.14230808 16.58297487 -0.28900746 15.1663904 -0.4375 13.75 C-0.51871094 12.96109375 -0.59992188 12.1721875 -0.68359375 11.359375 C-0.94211042 9.01764454 -0.94211042 9.01764454 -1.59375 6.875 C-2.18212231 4.15943551 -1.15731267 2.45077978 0 0 Z " fill="#C9CDD7" transform="translate(73,24)"/>
<path d="M0 0 C1.32 0.66 2.64 1.32 4 2 C4 4.97 4 7.94 4 11 C3.34 11 2.68 11 2 11 C2.33 14.96 2.66 18.92 3 23 C2.34 23.33 1.68 23.66 1 24 C-0.20272819 21.59454362 -0.10071472 20.05003047 -0.0625 17.375 C-0.05347656 16.55773437 -0.04445313 15.74046875 -0.03515625 14.8984375 C-0.02355469 14.27195312 -0.01195313 13.64546875 0 13 C-1.32 13.33 -2.64 13.66 -4 14 C-4 13.34 -4 12.68 -4 12 C-4.99 11.67 -5.98 11.34 -7 11 C-6.67 9.02 -6.34 7.04 -6 5 C-6.99 5.33 -7.98 5.66 -9 6 C-8.67 5.01 -8.34 4.02 -8 3 C-5.68970915 2.25740651 -3.354248 1.588562 -1 1 C-0.67 0.67 -0.34 0.34 0 0 Z " fill="#130F13" transform="translate(69,31)"/>
<path d="M0 0 C0.66 0 1.32 0 2 0 C3.5625 2.8125 3.5625 2.8125 5 6 C4.67 6.99 4.34 7.98 4 9 C3.71382812 9.98033203 3.71382812 9.98033203 3.421875 10.98046875 C1.30362857 17.93866197 -1.08411877 24.75337479 -7.75 28.4375 C-14.70262614 31.38551784 -22.66551753 31.78322512 -30 30 C-30.66 29.34 -31.32 28.68 -32 28 C-29.72979256 27.80506805 -27.45879711 27.61929582 -25.1875 27.4375 C-23.29064453 27.28087891 -23.29064453 27.28087891 -21.35546875 27.12109375 C-18 27 -18 27 -15 28 C-10.22929258 26.86539355 -5.98973704 24.69260645 -3 20.75 C0.42781777 14.57757212 -0.09182395 6.87844865 0 0 Z " fill="#0E080C" transform="translate(32,64)"/>
<path d="M0 0 C0.66 0 1.32 0 2 0 C3.98 3.96 5.96 7.92 8 12 C8.99 12 9.98 12 11 12 C12.66666667 12 14.33333333 12 16 12 C16 12.66 16 13.32 16 14 C16.66 14 17.32 14 18 14 C18 14.66 18 15.32 18 16 C16.04072937 17.7143618 14.04119788 19.38405168 12 21 C8.31274141 20.00344362 7.20648538 19.3417689 5.1875 16 C4 13 4 13 4 11 C3.34 11 2.68 11 2 11 C-0.40240978 7.97474324 -1.05541631 6.5874129 -0.6875 2.6875 C-0.460625 1.800625 -0.23375 0.91375 0 0 Z " fill="#A598DD" transform="translate(96,62)"/>
<path d="M0 0 C1.5625 1.25 1.5625 1.25 3 3 C2.67 4.32 2.34 5.64 2 7 C5.3 7.66 8.6 8.32 12 9 C12 9.66 12 10.32 12 11 C10.69804688 11.20496094 9.39609375 11.40992187 8.0546875 11.62109375 C6.32812282 11.89321536 4.60156044 12.16535154 2.875 12.4375 C2.0190625 12.57220703 1.163125 12.70691406 0.28125 12.84570312 C-4.14924955 13.54435882 -8.57729031 14.25321459 -13 15 C-11.75 13.5 -11.75 13.5 -10 12 C-8.68 12 -7.36 12 -6 12 C-5.34 10.02 -4.68 8.04 -4 6 C-4.99 5.01 -5.98 4.02 -7 3 C-4.69 2.01 -2.38 1.02 0 0 Z " fill="#723A59" transform="translate(55,109)"/>
<path d="M0 0 C0.66 0 1.32 0 2 0 C3.34797215 8.49222456 3.14201998 15.7544264 -2 23 C-1.01 23.33 -0.02 23.66 1 24 C-6.68968983 27.25737716 -14.51266998 29.82687741 -22.5 32.25 C-23.67820312 32.61351562 -24.85640625 32.97703125 -26.0703125 33.3515625 C-34.7324953 36 -34.7324953 36 -37 36 C-37 35.34 -37 34.68 -37 34 C-36.35039307 33.80889648 -35.70078613 33.61779297 -35.03149414 33.42089844 C-32.03992337 32.53691042 -29.05123666 31.64352103 -26.0625 30.75 C-25.04091797 30.44964844 -24.01933594 30.14929688 -22.96679688 29.83984375 C-11.22948438 26.96126541 -11.22948438 26.96126541 -2.5 19.5 C0.04099478 13.36696259 0 6.55057261 0 0 Z " fill="#050204" transform="translate(37,74)"/>
<path d="M0 0 C0.53625 0.226875 1.0725 0.45375 1.625 0.6875 C0.635 1.0175 -0.355 1.3475 -1.375 1.6875 C-0.385 2.0175 0.605 2.3475 1.625 2.6875 C1.625 3.6775 1.625 4.6675 1.625 5.6875 C2.945 6.3475 4.265 7.0075 5.625 7.6875 C-0.55704709 11.55127943 -7.53065722 10.78748366 -14.375 9.6875 C-14.375 8.6975 -14.375 7.7075 -14.375 6.6875 C-11.735 5.6975 -9.095 4.7075 -6.375 3.6875 C-7.035 3.3575 -7.695 3.0275 -8.375 2.6875 C-2.95961538 -0.38942308 -2.95961538 -0.38942308 0 0 Z " fill="#4A283C" transform="translate(42.375,94.3125)"/>
<path d="M0 0 C2.97 0 5.94 0 9 0 C9.33 1.98 9.66 3.96 10 6 C9.34 5.67 8.68 5.34 8 5 C8 3.68 8 2.36 8 1 C7.01 1 6.02 1 5 1 C5.99 3.64 6.98 6.28 8 9 C8.99 9 9.98 9 11 9 C12.25664978 11.90600261 13 13.79604584 13 17 C12.38125 16.814375 11.7625 16.62875 11.125 16.4375 C8.95839822 15.76313824 8.95839822 15.76313824 7 17 C6.67 15.35 6.34 13.7 6 12 C4.68 12.33 3.36 12.66 2 13 C1.855625 11.9275 1.71125 10.855 1.5625 9.75 C1.16250558 7.08337051 0.72408076 4.58600271 0 2 C0.33 2.66 0.66 3.32 1 4 C1.66 4 2.32 4 3 4 C2.01 2.68 1.02 1.36 0 0 Z " fill="#242527" transform="translate(94,15)"/>
<path d="M0 0 C6.6 0 13.2 0 20 0 C20 0.33 20 0.66 20 1 C17.70858188 1.33503764 15.41685737 1.66798042 13.125 2 C11.21074219 2.2784375 11.21074219 2.2784375 9.2578125 2.5625 C6 3 6 3 4 3 C4 5.97 4 8.94 4 12 C3.34 12 2.68 12 2 12 C1.67 13.98 1.34 15.96 1 18 C0.67 18 0.34 18 0 18 C0.0825 16.96875 0.165 15.9375 0.25 14.875 C-0.03958374 10.38645204 -1.35945389 8.54823383 -4 5 C-4 4.34 -4 3.68 -4 3 C-2.68 2.67 -1.36 2.34 0 2 C0 1.34 0 0.68 0 0 Z " fill="#12112B" transform="translate(71,0)"/>
<path d="M0 0 C0.33 0.66 0.66 1.32 1 2 C1.66 2 2.32 2 3 2 C3.07347656 3.12148437 3.07347656 3.12148437 3.1484375 4.265625 C3.22320312 5.25046875 3.29796875 6.2353125 3.375 7.25 C3.44460937 8.22453125 3.51421875 9.1990625 3.5859375 10.203125 C3.98976544 12.93086846 4.52795045 14.68677928 6 17 C8.0335948 18.26804566 8.0335948 18.26804566 10 19 C9.01 21.475 9.01 21.475 8 24 C7.01 24 6.02 24 5 24 C4.75765625 23.43152344 4.5153125 22.86304687 4.265625 22.27734375 C2.60464792 18.45070809 0.94741767 14.8244278 -1.3125 11.3125 C-3 8 -3 8 -2.875 4.6875 C-2 2 -2 2 0 0 Z " fill="#CDCBEF" transform="translate(82,68)"/>
<path d="M0 0 C0.33 0.66 0.66 1.32 1 2 C1.66 2.33 2.32 2.66 3 3 C2.67 6.3 2.34 9.6 2 13 C1.34 12.34 0.68 11.68 0 11 C0.02320312 11.68707031 0.04640625 12.37414063 0.0703125 13.08203125 C0.08835937 13.98308594 0.10640625 14.88414063 0.125 15.8125 C0.14820312 16.70582031 0.17140625 17.59914063 0.1953125 18.51953125 C0 21 0 21 -2 24 C-6.04567308 18.52644231 -6.04567308 18.52644231 -5.92578125 14.51953125 C-4.98000839 9.51828438 -3.71535677 3.71535677 0 0 Z " fill="#212123" transform="translate(69,8)"/>
<path d="M0 0 C3.27750117 0.96436763 6.17799322 2.05147151 9 4 C10.39616013 6.94925299 10.68253224 9.77996983 11 13 C11.31171755 14.33855185 11.63837971 15.67405895 12 17 C10.171875 16.78515625 10.171875 16.78515625 8 16 C6.515625 13.93359375 6.515625 13.93359375 5.25 11.4375 C4.82203125 10.61121094 4.3940625 9.78492188 3.953125 8.93359375 C3.63859375 8.29550781 3.3240625 7.65742188 3 7 C3 8.32 3 9.64 3 11 C2.34 11 1.68 11 1 11 C-1.03684712 6.92630576 -1.0257259 4.41062136 0 0 Z " fill="#BDC2CC" transform="translate(73,12)"/>
<path d="M0 0 C0.66 1.32 1.32 2.64 2 4 C2.66 4 3.32 4 4 4 C5.20272819 6.40545638 5.10071472 7.94996953 5.0625 10.625 C5.05347656 11.44226563 5.04445313 12.25953125 5.03515625 13.1015625 C5.02355469 13.72804688 5.01195313 14.35453125 5 15 C2.69 15.33 0.38 15.66 -2 16 C-2.36220266 14.20994059 -2.71452469 12.41787943 -3.0625 10.625 C-3.25972656 9.62726563 -3.45695312 8.62953125 -3.66015625 7.6015625 C-4 5 -4 5 -3 3 C-2.01 3 -1.02 3 0 3 C0 2.01 0 1.02 0 0 Z " fill="#BDB6E8" transform="translate(88,56)"/>
<path d="M0 0 C2.475 0.495 2.475 0.495 5 1 C5.12375 1.639375 5.2475 2.27875 5.375 2.9375 C5.684375 3.9584375 5.684375 3.9584375 6 5 C6.66 5.33 7.32 5.66 8 6 C10 8 10 8 10 11 C8.68 10.67 7.36 10.34 6 10 C5.67 10.66 5.34 11.32 5 12 C6.98 12.66 8.96 13.32 11 14 C10.67 14.99 10.34 15.98 10 17 C7 17 7 17 4 15 C0.62928552 10.09611773 -0.48975968 5.87711622 0 0 Z " fill="#262629" transform="translate(98,58)"/>
<path d="M0 0 C1.72960555 3.34390406 3.04599246 5.96516962 2.875 9.8125 C3.02189507 13.55832428 4.22312027 15.74238717 6 19 C6 19.66 6 20.32 6 21 C5.34 21 4.68 21 4 21 C4 20.34 4 19.68 4 19 C2.35 19.66 0.7 20.32 -1 21 C-4 15.375 -4 15.375 -4 12 C-3.01 12 -2.02 12 -1 12 C-0.67 12.66 -0.34 13.32 0 14 C0 13.01 0 12.02 0 11 C-1.32 11 -2.64 11 -4 11 C-4 10.34 -4 9.68 -4 9 C-3.505 8.566875 -3.01 8.13375 -2.5 7.6875 C-0.48373645 5.4192035 -0.84494907 3.94596768 -1 1 C-0.67 0.67 -0.34 0.34 0 0 Z " fill="#050506" transform="translate(103,4)"/>
<path d="M0 0 C0.33 0.66 0.66 1.32 1 2 C1.66 2 2.32 2 3 2 C5.5 4.5 5.5 4.5 8 7 C10.16620544 8.29519995 10.16620544 8.29519995 12 9 C12 9.66 12 10.32 12 11 C9.10765685 11.82638376 7.11257569 12 4 12 C3.67 12.66 3.34 13.32 3 14 C1.95550089 10.86650268 2.06576355 10.01031744 3 7 C1.948125 7.20625 0.89625 7.4125 -0.1875 7.625 C-3.99624887 7.99963104 -5.66835752 7.71630067 -9 6 C-9 5.34 -9 4.68 -9 4 C-6.03 4.495 -6.03 4.495 -3 5 C-2.01 3.35 -1.02 1.7 0 0 Z " fill="#0C0A0D" transform="translate(85,8)"/>
<path d="M0 0 C0.185625 0.9590625 0.185625 0.9590625 0.375 1.9375 C0.684375 2.9584375 0.684375 2.9584375 1 4 C1.66 4.33 2.32 4.66 3 5 C3 5.66 3 6.32 3 7 C3.66 7.33 4.32 7.66 5 8 C4.690625 8.9590625 4.690625 8.9590625 4.375 9.9375 C3.99994874 13.0004186 4.30297915 14.41537775 5.125 17.3125 C6.37450799 22.36084772 5.28625573 25.45606673 3 30 C2.443125 31.155 1.88625 32.31 1.3125 33.5 C0.879375 34.325 0.44625 35.15 0 36 C-0.66 36 -1.32 36 -2 36 C-2.495 34.515 -2.495 34.515 -3 33 C-2.34 32.01 -1.68 31.02 -1 30 C-0.34 30 0.32 30 1 30 C2.90304687 23.25150301 3.03136295 18.08430847 1.41015625 11.25 C1 9 1 9 2 7 C1.01 7 0.02 7 -1 7 C-2 4 -2 4 -1.0625 1.8125 C-0.5365625 0.9153125 -0.5365625 0.9153125 0 0 Z " fill="#030303" transform="translate(62,38)"/>
<path d="M0 0 C1.65 0 3.3 0 5 0 C6.11630207 3.34890621 6.16765424 5.97539261 6.1875 9.5 C6.20167969 10.6446875 6.21585937 11.789375 6.23046875 12.96875 C6 16 6 16 4 19 C3.34 19 2.68 19 2 19 C1.93941406 18.37351562 1.87882812 17.74703125 1.81640625 17.1015625 C1.73261719 16.28429687 1.64882812 15.46703125 1.5625 14.625 C1.48128906 13.81289062 1.40007812 13.00078125 1.31640625 12.1640625 C1.10909886 9.95727195 1.10909886 9.95727195 0 8 C-0.13415472 5.3276379 -0.04318541 2.67749512 0 0 Z " fill="#6F4148" transform="translate(96,85)"/>
<path d="M0 0 C2.475 0.99 2.475 0.99 5 2 C5.3125 4.8125 5.3125 4.8125 5 8 C1.75566237 10.70361469 0.29107948 11 -4 11 C-4.99 9.02 -5.98 7.04 -7 5 C-6.01 4.34 -5.02 3.68 -4 3 C-3.34 3.33 -2.68 3.66 -2 4 C-2 3.34 -2 2.68 -2 2 C-1.34 2 -0.68 2 0 2 C0 1.34 0 0.68 0 0 Z " fill="#9381B6" transform="translate(91,18)"/>
<path d="M0 0 C7.75 0.75 7.75 0.75 10 3 C13.08347826 3.16681109 13.08347826 3.16681109 16 3 C16.33 3.99 16.66 4.98 17 6 C13.37 6.33 9.74 6.66 6 7 C6 6.01 6 5.02 6 4 C5.05898438 4.144375 4.11796875 4.28875 3.1484375 4.4375 C1.90320312 4.623125 0.65796875 4.80875 -0.625 5 C-1.85476562 5.185625 -3.08453125 5.37125 -4.3515625 5.5625 C-7.6166027 5.95402516 -10.71712451 6.08080924 -14 6 C-14 5.34 -14 4.68 -14 4 C-13.07316406 3.87882812 -12.14632813 3.75765625 -11.19140625 3.6328125 C-9.99386719 3.46523437 -8.79632813 3.29765625 -7.5625 3.125 C-6.36753906 2.96257812 -5.17257813 2.80015625 -3.94140625 2.6328125 C-2.97074219 2.42398438 -2.00007813 2.21515625 -1 2 C-0.67 1.34 -0.34 0.68 0 0 Z " fill="#3B2327" transform="translate(22,123)"/>
<path d="M0 0 C2 2 2 2 2.23046875 5.703125 C2.22647309 7.21881241 2.21169705 8.73450048 2.1875 10.25 C2.18685547 11.00152344 2.18621094 11.75304688 2.18554688 12.52734375 C2.15209167 16.787307 1.83479697 20.80598004 1 25 C0.34 25 -0.32 25 -1 25 C-1 25.66 -1 26.32 -1 27 C-1.99 27 -2.98 27 -4 27 C-3.76023437 26.31035156 -3.52046875 25.62070313 -3.2734375 24.91015625 C-1.39670579 18.96173271 -0.76392912 15.00766346 -2.5078125 9.01171875 C-3.21536258 6.11974819 -2.84648479 3.82161597 -2 1 C-1.34 0.67 -0.68 0.34 0 0 Z " fill="#A4A2AF" transform="translate(68,43)"/>
<path d="M0 0 C0.66 0.33 1.32 0.66 2 1 C0.02 1.99 0.02 1.99 -2 3 C-2 3.66 -2 4.32 -2 5 C-0.46279297 4.7834375 -0.46279297 4.7834375 1.10546875 4.5625 C2.46612154 4.37482375 3.82679999 4.18733358 5.1875 4 C6.19780273 3.85691406 6.19780273 3.85691406 7.22851562 3.7109375 C10.84664577 3.21675387 14.34796401 2.88653869 18 3 C18 3.66 18 4.32 18 5 C14.42649959 5.81898622 11.14340521 6.11811958 7.48046875 6.09765625 C6.45888672 6.09443359 5.43730469 6.09121094 4.38476562 6.08789062 C3.32966797 6.07951172 2.27457031 6.07113281 1.1875 6.0625 C0.11306641 6.05798828 -0.96136719 6.05347656 -2.06835938 6.04882812 C-4.71229683 6.03707729 -7.35611952 6.02064787 -10 6 C-10 4.35 -10 2.7 -10 1 C-7.98177083 1.03255208 -5.96354167 1.06510417 -3.9453125 1.09765625 C-1.91814596 1.12649242 -1.91814596 1.12649242 0 0 Z " fill="#11090B" transform="translate(10,124)"/>
<path d="M0 0 C0.99 0 1.98 0 3 0 C2.52852904 6.83632891 0.94057853 10.60702477 -3.625 15.875 C-5 17 -5 17 -7 17 C-7.66 18.32 -8.32 19.64 -9 21 C-9.66 21 -10.32 21 -11 21 C-9.94957886 17.53361023 -8.49962538 15.34435928 -6.0625 12.75 C-2.61244678 8.92879191 -1.27311687 4.92495211 0 0 Z " fill="#060404" transform="translate(100,102)"/>
<path d="M0 0 C0.66 0.33 1.32 0.66 2 1 C1.34 2.32 0.68 3.64 0 5 C-0.66 5 -1.32 5 -2 5 C-2 5.66 -2 6.32 -2 7 C-0.68 6.67 0.64 6.34 2 6 C-1.56535866 12.41764559 -1.56535866 12.41764559 -5.2421875 13.91015625 C-10.82750408 15.08463871 -16.31267678 15.18346204 -22 15 C-22 14.67 -22 14.34 -22 14 C-21.35933594 13.89042969 -20.71867187 13.78085938 -20.05859375 13.66796875 C-12.20615652 12.24188702 -12.20615652 12.24188702 -5 9 C-3.13016255 5.52692672 -3.13016255 5.52692672 -2 2 C-1.34 1.34 -0.68 0.68 0 0 Z " fill="#73434A" transform="translate(93,108)"/>
<path d="M0 0 C0.33 5.28 0.66 10.56 1 16 C0.01 16 -0.98 16 -2 16 C-2.66 16.66 -3.32 17.32 -4 18 C-4.77313045 12.0885256 -5.14819277 6.8685408 -4 1 C-1 0 -1 0 0 0 Z " fill="#B4AEDC" transform="translate(83,54)"/>
<path d="M0 0 C0.625 1.8125 0.625 1.8125 1 4 C-1 7 -1 7 -3 9 C-2.21869929 11.49552484 -2.21869929 11.49552484 -1 14 C-0.01 14.33 0.98 14.66 2 15 C1.34 15 0.68 15 0 15 C0.33 16.32 0.66 17.64 1 19 C0.01 18.67 -0.98 18.34 -2 18 C-3.07407228 15.69251504 -3.94125086 13.52253443 -4.75 11.125 C-4.98332031 10.48691406 -5.21664062 9.84882813 -5.45703125 9.19140625 C-7.13049267 4.391478 -7.13049267 4.391478 -6 1 C-3 0 -3 0 0 0 Z " fill="#131316" transform="translate(88,15)"/>
<path d="M0 0 C1.66666667 0 3.33333333 0 5 0 C5.33 1.65 5.66 3.3 6 5 C6.66 5 7.32 5 8 5 C7.67 3.68 7.34 2.36 7 1 C7.66 0.67 8.32 0.34 9 0 C9.6875 2.75 9.6875 2.75 10 6 C8.5625 8.375 8.5625 8.375 7 10 C6.34 9.01 5.68 8.02 5 7 C4.896875 7.639375 4.79375 8.27875 4.6875 8.9375 C4.460625 9.618125 4.23375 10.29875 4 11 C3.01 11.33 2.02 11.66 1 12 C0.67 8.04 0.34 4.08 0 0 Z " fill="#090809" transform="translate(68,18)"/>
<path d="M0 0 C3.18462224 0.94677958 4.73697662 1.66441845 6.8125 4.3125 C8.06161737 7.13944983 8.26151458 8.94899661 8 12 C7.01 12.33 6.02 12.66 5 13 C5 12.34 5 11.68 5 11 C4.34 11 3.68 11 3 11 C0.15549386 7.28026121 -0.3227506 4.62609198 0 0 Z " fill="#C180A1" transform="translate(88,1)"/>
<path d="M0 0 C0.66 0 1.32 0 2 0 C1.35891863 1.67667436 0.68528045 3.34089996 0 5 C-0.391875 6.03125 -0.78375 7.0625 -1.1875 8.125 C-3.55199958 11.87558555 -5.88138621 12.57720615 -10 14 C-10.99 14.495 -10.99 14.495 -12 15 C-14.6723621 15.13415472 -17.32250488 15.04318541 -20 15 C-20.33 14.34 -20.66 13.68 -21 13 C-19.948125 13.04125 -18.89625 13.0825 -17.8125 13.125 C-14.25989827 13.00852125 -12.15133359 12.52791932 -9 11 C-9 10.34 -9 9.68 -9 9 C-8.2575 8.5875 -7.515 8.175 -6.75 7.75 C-3.45645777 5.65410949 -2.09225516 3.24660284 0 0 Z " fill="#080405" transform="translate(91,107)"/>
<path d="M0 0 C0 0.99 0 1.98 0 3 C-5.95822705 7.25587646 -12.03398858 5.85783227 -19 5 C-18.67 4.34 -18.34 3.68 -18 3 C-15.03 3 -12.06 3 -9 3 C-9 2.34 -9 1.68 -9 1 C-2.25 0 -2.25 0 0 0 Z " fill="#251618" transform="translate(56,123)"/>
<path d="M0 0 C0 0.66 0 1.32 0 2 C-1.30195312 2.20496094 -2.60390625 2.40992187 -3.9453125 2.62109375 C-5.67187718 2.89321536 -7.39843956 3.16535154 -9.125 3.4375 C-9.9809375 3.57220703 -10.836875 3.70691406 -11.71875 3.84570312 C-16.14924955 4.54435882 -20.57729031 5.25321459 -25 6 C-18.22847359 -1.30342879 -9.23556345 -0.35022502 0 0 Z " fill="#070405" transform="translate(67,118)"/>
<path d="M0 0 C0.66 0 1.32 0 2 0 C2 0.66 2 1.32 2 2 C3.32 1.67 4.64 1.34 6 1 C6.99 3.97 7.98 6.94 9 10 C8.01 10 7.02 10 6 10 C5.67 10.99 5.34 11.98 5 13 C4.15930585 11.39967863 3.32768495 9.79458829 2.5 8.1875 C1.80390625 6.84751953 1.80390625 6.84751953 1.09375 5.48046875 C0 3 0 3 0 0 Z M5 8 C6 10 6 10 6 10 Z " fill="#020202" transform="translate(94,26)"/>
<path d="M0 0 C0 2.31 0 4.62 0 7 C-1.8125 8.0625 -1.8125 8.0625 -4 9 C-4.99 8.67 -5.98 8.34 -7 8 C-6.67 6.02 -6.34 4.04 -6 2 C-6.99 2.33 -7.98 2.66 -9 3 C-8.67 2.01 -8.34 1.02 -8 0 C-4.71303767 -0.79953138 -3.28976808 -1.09658936 0 0 Z " fill="#A74A80" transform="translate(69,34)"/>
<path d="M0 0 C2.97 0 5.94 0 9 0 C9.33 1.98 9.66 3.96 10 6 C9.34 5.67 8.68 5.34 8 5 C8 3.68 8 2.36 8 1 C7.01 1 6.02 1 5 1 C5 4.63 5 8.26 5 12 C4.01 12.33 3.02 12.66 2 13 C1.855625 11.9275 1.71125 10.855 1.5625 9.75 C1.16250558 7.08337051 0.72408076 4.58600271 0 2 C0.33 2.66 0.66 3.32 1 4 C1.66 4 2.32 4 3 4 C2.01 2.68 1.02 1.36 0 0 Z " fill="#2E2D35" transform="translate(94,15)"/>
<path d="M0 0 C0.99 0.66 1.98 1.32 3 2 C3 4 3 4 1.5 5.625 C1.005 6.07875 0.51 6.5325 0 7 C-2.475 6.01 -2.475 6.01 -5 5 C-5 4.34 -5 3.68 -5 3 C-5.99 2.67 -6.98 2.34 -8 2 C-6.16244406 -1.67511187 -3.4013821 -1.1692251 0 0 Z " fill="#804164" transform="translate(22,115)"/>
<path d="M0 0 C0.66 0 1.32 0 2 0 C3.5625 2.8125 3.5625 2.8125 5 6 C4.67 6.99 4.34 7.98 4 9 C3.32811503 11.33183607 2.66084583 13.66501142 2 16 C1.34 15.67 0.68 15.34 0 15 C0 10.05 0 5.1 0 0 Z " fill="#2A1520" transform="translate(32,64)"/>
<path d="M0 0 C0 0.66 0 1.32 0 2 C-4.95 2.33 -9.9 2.66 -15 3 C-15 3.66 -15 4.32 -15 5 C-17.31 5 -19.62 5 -22 5 C-21.67 3.68 -21.34 2.36 -21 1 C-19.91525391 1.27650391 -19.91525391 1.27650391 -18.80859375 1.55859375 C-15.8374948 2.02553976 -13.96410089 1.76383481 -11.0625 1.0625 C-7.28835802 0.22192129 -3.88748384 -0.20460441 0 0 Z " fill="#6B3D44" transform="translate(62,121)"/>
<path d="M0 0 C0.66 0.33 1.32 0.66 2 1 C2.50423019 6.29441695 1.18923033 8.81413519 -2 13 C-3.64826111 10.03312999 -4.44271087 7.34373475 -5 4 C-4.01 3.67 -3.02 3.34 -2 3 C-1.34 2.01 -0.68 1.02 0 0 Z " fill="#BEC1CB" transform="translate(73,65)"/>
<path d="M0 0 C0.99 0.66 1.98 1.32 3 2 C1.68 2.33 0.36 2.66 -1 3 C-0.21869929 5.49552484 -0.21869929 5.49552484 1 8 C1.99 8.33 2.98 8.66 4 9 C4 9.99 4 10.98 4 12 C3.34 12 2.68 12 2 12 C1.67 13.98 1.34 15.96 1 18 C0.67 18 0.34 18 0 18 C0.0825 16.96875 0.165 15.9375 0.25 14.875 C-0.03958374 10.38645204 -1.35945389 8.54823383 -4 5 C-4 4.34 -4 3.68 -4 3 C-2.68 2.67 -1.36 2.34 0 2 C0 1.34 0 0.68 0 0 Z " fill="#040407" transform="translate(71,0)"/>
<path d="M0 0 C2.475 0.99 2.475 0.99 5 2 C5 3.98 5 5.96 5 8 C4.34 8 3.68 8 3 8 C3 8.99 3 9.98 3 11 C2.34 11 1.68 11 1 11 C-1.03684712 6.92630576 -1.0257259 4.41062136 0 0 Z " fill="#CED3DD" transform="translate(73,12)"/>
<path d="M0 0 C0.66 0 1.32 0 2 0 C4.17364926 2.81769349 5.08677021 4.2190681 4.6875 7.8125 C4.460625 8.534375 4.23375 9.25625 4 10 C2.68 10.33 1.36 10.66 0 11 C-0.33 9.02 -0.66 7.04 -1 5 C-0.01 5 0.98 5 2 5 C2 4.34 2 3.68 2 3 C1.34 3 0.68 3 0 3 C0 2.01 0 1.02 0 0 Z " fill="#262339" transform="translate(98,2)"/>
<path d="M0 0 C2.4375 1.25 2.4375 1.25 5 3 C5.33 4.32 5.66 5.64 6 7 C3.03 7 0.06 7 -3 7 C-3.33 6.01 -3.66 5.02 -4 4 C-2.02 4 -0.04 4 2 4 C2 3.34 2 2.68 2 2 C1.01 1.67 0.02 1.34 -1 1 C-0.67 0.67 -0.34 0.34 0 0 Z " fill="#7D4756" transform="translate(65,116)"/>
<path d="M0 0 C1.65 0 3.3 0 5 0 C5.33 1.65 5.66 3.3 6 5 C5.01 5.33 4.02 5.66 3 6 C3 7.65 3 9.3 3 11 C2.01 10.67 1.02 10.34 0 10 C0 6.7 0 3.4 0 0 Z " fill="#271518" transform="translate(96,85)"/>
<path d="M0 0 C2.45811625 3.68717438 2.31118164 5.64345704 2 10 C1.01 11.485 1.01 11.485 0 13 C-1.98 9.535 -1.98 9.535 -4 6 C-3.34 5.34 -2.68 4.68 -2 4 C-1.30251417 2.68252676 -0.63040043 1.35085807 0 0 Z " fill="#9F4580" transform="translate(67,19)"/>
<path d="M0 0 C2.5448634 0.36355191 4.05348193 1.03667332 6.1875 2.5 C8.80130328 6.1052459 8.81362339 9.63878734 9 14 C8.01 14.495 8.01 14.495 7 15 C6.34 14.67 5.68 14.34 5 14 C5.04125 12.9275 5.0825 11.855 5.125 10.75 C4.97809203 6.34276101 4.32387221 4.42570853 1.375 1.25 C0.92125 0.8375 0.4675 0.425 0 0 Z " fill="#B2B2BC" transform="translate(90,1)"/>
<path d="M0 0 C2.475 0.99 2.475 0.99 5 2 C5 3.98 5 5.96 5 8 C3.35 8.66 1.7 9.32 0 10 C0 9.01 0 8.02 0 7 C0.66 7 1.32 7 2 7 C2 6.01 2 5.02 2 4 C0.68 3.67 -0.64 3.34 -2 3 C-1.34 2.67 -0.68 2.34 0 2 C0 1.34 0 0.68 0 0 Z " fill="#998ECD" transform="translate(91,18)"/>
<path d="M0 0 C0.99 0.33 1.98 0.66 3 1 C3.33 1.99 3.66 2.98 4 4 C2.68 4.99 1.36 5.98 0 7 C-1.32 6.34 -2.64 5.68 -4 5 C-2.25 1.125 -2.25 1.125 0 0 Z " fill="#804164" transform="translate(60,111)"/>
<path d="M0 0 C0.33 0 0.66 0 1 0 C1 1.65 1 3.3 1 5 C1.66 5 2.32 5 3 5 C3 5.66 3 6.32 3 7 C3.66 7 4.32 7 5 7 C5 7.99 5 8.98 5 10 C5.66 10.33 6.32 10.66 7 11 C4 12 4 12 1 11 C-0.28317892 7.15046324 -0.06643637 4.05261865 0 0 Z " fill="#6C3755" transform="translate(87,73)"/>
<path d="M0 0 C1.25677888 2.97056826 0.9757649 4.06866612 -0.125 7.1875 C-2 10 -2 10 -4.6875 10.875 C-5.450625 10.91625 -6.21375 10.9575 -7 11 C-7 10.34 -7 9.68 -7 9 C-6.01 8.34 -5.02 7.68 -4 7 C-3.26656572 3.93443402 -3.26656572 3.93443402 -3 1 C-2.34 1.66 -1.68 2.32 -1 3 C-0.67 2.01 -0.34 1.02 0 0 Z " fill="#321D20" transform="translate(98,104)"/>
<path d="M0 0 C0.28875 0.639375 0.5775 1.27875 0.875 1.9375 C1.82823451 4.15206079 1.82823451 4.15206079 4 5 C2.02 6.32 0.04 7.64 -2 9 C-3.0625 7.125 -3.0625 7.125 -4 5 C-3.67 4.34 -3.34 3.68 -3 3 C-2.01 3 -1.02 3 0 3 C0 2.01 0 1.02 0 0 Z " fill="#B1A7E4" transform="translate(88,56)"/>
<path d="M0 0 C0.66 0.66 1.32 1.32 2 2 C1.7578125 4.3828125 1.7578125 4.3828125 1.125 7.125 C0.92132813 8.03507812 0.71765625 8.94515625 0.5078125 9.8828125 C0.34023437 10.58148438 0.17265625 11.28015625 0 12 C-2.54448045 9.02157715 -3.02178373 8.42841328 -2.8125 4.3125 C-2.544375 3.219375 -2.27625 2.12625 -2 1 C-1.34 0.67 -0.68 0.34 0 0 Z " fill="#938E9C" transform="translate(68,43)"/>
<path d="M0 0 C3.18462224 0.94677958 4.73697662 1.66441845 6.8125 4.3125 C8.06161737 7.13944983 8.26151458 8.94899661 8 12 C7.01 12.33 6.02 12.66 5 13 C6 10 6 10 7 8 C6.34 7.67 5.68 7.34 5 7 C5 6.34 5 5.68 5 5 C4.01 5 3.02 5 2 5 C0 1.125 0 1.125 0 0 Z " fill="#B34C7B" transform="translate(88,1)"/>
<path d="M0 0 C0 0.66 0 1.32 0 2 C-4.62 2.33 -9.24 2.66 -14 3 C-14 2.34 -14 1.68 -14 1 C-9.32798795 -0.20568053 -4.78503708 -0.09382426 0 0 Z " fill="#74444B" transform="translate(22,126)"/>
<path d="M0 0 C1.98 0.99 3.96 1.98 6 3 C5.34 4.65 4.68 6.3 4 8 C3.01 8 2.02 8 1 8 C0 2.25 0 2.25 0 0 Z " fill="#C6C2EA" transform="translate(86,84)"/>
<path d="M0 0 C2 2 2 2 2.125 5.625 C2.08375 6.73875 2.0425 7.8525 2 9 C1.01 9 0.02 9 -1 9 C-2.0326802 6.21176345 -2.04509293 5.1322726 -1.0625 2.25 C-0.711875 1.5075 -0.36125 0.765 0 0 Z " fill="#CDD2DB" transform="translate(73,24)"/>
<path d="M0 0 C0.66 0.33 1.32 0.66 2 1 C2.309375 1.99 2.61875 2.98 2.9375 4 C3.288125 4.99 3.63875 5.98 4 7 C4.99 7.33 5.98 7.66 7 8 C4.6875 8.6875 4.6875 8.6875 2 9 C0.1875 7.875 0.1875 7.875 -1 6 C-1.25 3.375 -1.25 3.375 -1 1 C-0.67 0.67 -0.34 0.34 0 0 Z " fill="#4D446A" transform="translate(79,5)"/>
<path d="M0 0 C2.31 0 4.62 0 7 0 C7.33 0.66 7.66 1.32 8 2 C5.42786866 3.61949011 4.32330841 4.04408751 1.25 3.625 C0.5075 3.41875 -0.235 3.2125 -1 3 C-0.67 2.01 -0.34 1.02 0 0 Z " fill="#7E4063" transform="translate(35,116)"/>
<path d="M0 0 C0.66 0.33 1.32 0.66 2 1 C2 3.97 2 6.94 2 10 C1.34 10 0.68 10 0 10 C0 9.34 0 8.68 0 8 C-0.66 8 -1.32 8 -2 8 C-1.125 1.125 -1.125 1.125 0 0 Z " fill="#CFCEF1" transform="translate(91,61)"/>
<path d="M0 0 C2.69082872 0.17635452 5.32851446 0.61835921 8 1 C8.33 1.99 8.66 2.98 9 4 C4.545 4.495 4.545 4.495 0 5 C-0.33 3.68 -0.66 2.36 -1 1 C-0.67 0.67 -0.34 0.34 0 0 Z " fill="#532F35" transform="translate(22,123)"/>
<path d="M0 0 C0.99 0 1.98 0 3 0 C3 0.66 3 1.32 3 2 C3.66 2 4.32 2 5 2 C5 2.66 5 3.32 5 4 C3.04072937 5.7143618 1.04119788 7.38405168 -1 9 C-1.66 8.34 -2.32 7.68 -3 7 C-2.34 7 -1.68 7 -1 7 C-1 6.34 -1 5.68 -1 5 C-0.34 4.34 0.32 3.68 1 3 C0.67 2.01 0.34 1.02 0 0 Z " fill="#060608" transform="translate(109,74)"/>
<path d="M0 0 C3.96 1.98 3.96 1.98 8 4 C7.67 4.99 7.34 5.98 7 7 C4 7 4 7 1 5 C0.3125 2.375 0.3125 2.375 0 0 Z " fill="#060608" transform="translate(101,68)"/>
<path d="M0 0 C0.33 0.66 0.66 1.32 1 2 C1.66 2.33 2.32 2.66 3 3 C2.67 6.3 2.34 9.6 2 13 C-0.21279137 8.57441726 -0.60155317 5.86105133 -1 1 C-0.67 0.67 -0.34 0.34 0 0 Z " fill="#C2C7D0" transform="translate(69,8)"/>
<path d="M0 0 C1.32 1.32 2.64 2.64 4 4 C3.01 4.99 2.02 5.98 1 7 C0.01 6.67 -0.98 6.34 -2 6 C-1.49396008 3.83125748 -1.00016187 2.00032373 0 0 Z " fill="#814164" transform="translate(81,91)"/>
<path d="M0 0 C0.66 0 1.32 0 2 0 C2.33 1.65 2.66 3.3 3 5 C3.99 5 4.98 5 6 5 C6.66 3.68 7.32 2.36 8 1 C8 2.32 8 3.64 8 5 C6.35 5.66 4.7 6.32 3 7 C0 3.375 0 3.375 0 0 Z " fill="#110D11" transform="translate(84,87)"/>
<path d="M0 0 C0.33 0 0.66 0 1 0 C1.9765625 6.0546875 1.9765625 6.0546875 2 8 C1.34 8.66 0.68 9.32 0 10 C-1.125 6.6875 -1.125 6.6875 -2 3 C-1.34 2.01 -0.68 1.02 0 0 Z M-3 9 C-2.01 9.495 -2.01 9.495 -1 10 C-1.99 10.495 -1.99 10.495 -3 11 C-3 10.34 -3 9.68 -3 9 Z " fill="#C1C6CF" transform="translate(74,33)"/>
<path d="M0 0 C2.475 0.99 2.475 0.99 5 2 C5 2.66 5 3.32 5 4 C5.66 4 6.32 4 7 4 C7 4.66 7 5.32 7 6 C7.66 6.33 8.32 6.66 9 7 C8.01 7.495 8.01 7.495 7 8 C5.2925002 6.71937515 3.62626404 5.38232443 2 4 C2 3.34 2 2.68 2 2 C1.34 2 0.68 2 0 2 C0 1.34 0 0.68 0 0 Z " fill="#CBC7D2" transform="translate(86,8)"/>
<path d="M0 0 C0.66 0.33 1.32 0.66 2 1 C1.67 2.32 1.34 3.64 1 5 C1.66 5 2.32 5 3 5 C2.67 5.99 2.34 6.98 2 8 C0.68 7.67 -0.64 7.34 -2 7 C-2.6875 5.1875 -2.6875 5.1875 -3 3 C-1.5625 1.25 -1.5625 1.25 0 0 Z " fill="#0C0509" transform="translate(60,31)"/>
<path d="M0 0 C2.46278801 2.46278801 2.99771255 4.70676982 4 8 C2.68 8 1.36 8 0 8 C-0.66 6.02 -1.32 4.04 -2 2 C-1.34 1.34 -0.68 0.68 0 0 Z " fill="#888290" transform="translate(94,29)"/>
<path d="M0 0 C0.66 0.33 1.32 0.66 2 1 C2.5625 3.3125 2.5625 3.3125 3 6 C3.32483418 7.33542939 3.6550855 8.66961551 4 10 C1.4375 7.8125 1.4375 7.8125 -1 5 C-0.8125 2.1875 -0.8125 2.1875 0 0 Z " fill="#030102" transform="translate(62,21)"/>
<path d="M0 0 C2.31 0.33 4.62 0.66 7 1 C7 2.32 7 3.64 7 5 C7.66 5 8.32 5 9 5 C9 5.66 9 6.32 9 7 C7.68 6.34 6.36 5.68 5 5 C5 4.34 5 3.68 5 3 C2.525 2.01 2.525 2.01 0 1 C0 0.67 0 0.34 0 0 Z " fill="#202024" transform="translate(91,0)"/>
<path d="M0 0 C0 0.99 0 1.98 0 3 C-4.67201205 4.20568053 -9.21496292 4.09382426 -14 4 C-14 3.67 -14 3.34 -14 3 C-13.30132812 2.86722656 -12.60265625 2.73445313 -11.8828125 2.59765625 C-10.51769531 2.33275391 -10.51769531 2.33275391 -9.125 2.0625 C-8.22007813 1.88847656 -7.31515625 1.71445313 -6.3828125 1.53515625 C-4.0328149 1.0073699 -2.39804152 0 0 0 Z " fill="#653A41" transform="translate(85,119)"/>
<path d="M0 0 C1.32 0.99 2.64 1.98 4 3 C1.525 4.485 1.525 4.485 -1 6 C-1.66 5.01 -2.32 4.02 -3 3 C-2.01 2.01 -1.02 1.02 0 0 Z " fill="#874469" transform="translate(70,111)"/>
<path d="M0 0 C2.18975773 3.28463659 2.99806563 6.20696275 4 10 C2.68 9.67 1.36 9.34 0 9 C0 6.03 0 3.06 0 0 Z " fill="#95909F" transform="translate(81,19)"/>
<path d="M0 0 C0.66 0 1.32 0 2 0 C3.5625 2.8125 3.5625 2.8125 5 6 C4.67 6.99 4.34 7.98 4 9 C3.896875 8.360625 3.79375 7.72125 3.6875 7.0625 C3.460625 6.381875 3.23375 5.70125 3 5 C2.01 4.67 1.02 4.34 0 4 C0 2.68 0 1.36 0 0 Z " fill="#010001" transform="translate(32,64)"/>
<path d="M0 0 C0.33 0.99 0.66 1.98 1 3 C-0.65 4.32 -2.3 5.64 -4 7 C-4.33 5.68 -4.66 4.36 -5 3 C-3.35 2.01 -1.7 1.02 0 0 Z " fill="#2F2D39" transform="translate(93,27)"/>
<path d="M0 0 C4.29 0 8.58 0 13 0 C13 0.33 13 0.66 13 1 C8.71 1.66 4.42 2.32 0 3 C0 2.01 0 1.02 0 0 Z " fill="#040405" transform="translate(78,0)"/>
<path d="M0 0 C0.99 0.66 1.98 1.32 3 2 C3 2.66 3 3.32 3 4 C2.34 4 1.68 4 1 4 C1 4.66 1 5.32 1 6 C-0.32 5.34 -1.64 4.68 -3 4 C-2.34 3.67 -1.68 3.34 -1 3 C-0.67 2.01 -0.34 1.02 0 0 Z " fill="#834266" transform="translate(85,96)"/>
<path d="M0 0 C0.66 0.33 1.32 0.66 2 1 C2 2.98 2 4.96 2 7 C1.01 6.34 0.02 5.68 -1 5 C-3.11280345 4.36707617 -3.11280345 4.36707617 -5 4 C-4.01 3.67 -3.02 3.34 -2 3 C-1.34 2.01 -0.68 1.02 0 0 Z " fill="#908A98" transform="translate(73,65)"/>
<path d="M0 0 C1.77706209 2.66559313 2.87548273 5.0280615 4 8 C1.525 7.01 1.525 7.01 -1 6 C-0.67 4.02 -0.34 2.04 0 0 Z " fill="#8F8A97" transform="translate(99,19)"/>
<path d="M0 0 C0.33 1.32 0.66 2.64 1 4 C-0.98 4 -2.96 4 -5 4 C-5 3.01 -5 2.02 -5 1 C-3 0 -3 0 0 0 Z " fill="#C1C7D1" transform="translate(88,15)"/>
<path d="M0 0 C-0.33 1.32 -0.66 2.64 -1 4 C-2.65 3.67 -4.3 3.34 -6 3 C-6 2.34 -6 1.68 -6 1 C-4 0 -4 0 0 0 Z " fill="#6F4047" transform="translate(36,123)"/>
<path d="M0 0 C0.99 0.99 1.98 1.98 3 3 C2.67 3.99 2.34 4.98 2 6 C0.68 5.34 -0.64 4.68 -2 4 C-1.34 2.68 -0.68 1.36 0 0 Z " fill="#7E4062" transform="translate(89,101)"/>
<path d="M0 0 C1.65 0 3.3 0 5 0 C5 1.32 5 2.64 5 4 C3.68 4.33 2.36 4.66 1 5 C0.67 3.35 0.34 1.7 0 0 Z " fill="#7D4B52" transform="translate(96,85)"/>
<path d="M0 0 C0.66 0 1.32 0 2 0 C2 0.66 2 1.32 2 2 C2.99 2.33 3.98 2.66 5 3 C4.34 3 3.68 3 3 3 C3.33 4.32 3.66 5.64 4 7 C3.01 6.67 2.02 6.34 1 6 C0.67 4.02 0.34 2.04 0 0 Z " fill="#040405" transform="translate(85,27)"/>
<path d="M0 0 C0.66 0.66 1.32 1.32 2 2 C1.54545455 7.45454545 1.54545455 7.45454545 -1 10 C-1.02689216 8.52093108 -1.04634621 7.04172517 -1.0625 5.5625 C-1.07410156 4.73878906 -1.08570312 3.91507813 -1.09765625 3.06640625 C-1 1 -1 1 0 0 Z " fill="#55575B" transform="translate(76,18)"/>
<path d="M0 0 C1.98 0 3.96 0 6 0 C5.67 0.99 5.34 1.98 5 3 C3.35 3 1.7 3 0 3 C0 2.01 0 1.02 0 0 Z M-2 3 C-1.01 3.495 -1.01 3.495 0 4 C-0.99 4.495 -0.99 4.495 -2 5 C-2 4.34 -2 3.68 -2 3 Z " fill="#0B0B1B" transform="translate(72,0)"/>
<path d="M0 0 C2.125 0.9375 2.125 0.9375 4 2 C3.01 2.99 2.02 3.98 1 5 C0.01 4.34 -0.98 3.68 -2 3 C-2 2.34 -2 1.68 -2 1 C-1.34 0.67 -0.68 0.34 0 0 Z " fill="#824265" transform="translate(73,107)"/>
<path d="M0 0 C1.32 0.33 2.64 0.66 4 1 C3.34 2.32 2.68 3.64 2 5 C0.68 4.67 -0.64 4.34 -2 4 C-1.34 2.68 -0.68 1.36 0 0 Z " fill="#4A283C" transform="translate(67,96)"/>
<path d="M0 0 C1 3 1 3 0.0625 5.1875 C-0.4634375 6.0846875 -0.4634375 6.0846875 -1 7 C-1.99 6.67 -2.98 6.34 -4 6 C-2.25 1.125 -2.25 1.125 0 0 Z " fill="#CF6490" transform="translate(66,36)"/>
</svg>
