<?xml version="1.0" encoding="UTF-8"?>
<svg version="1.1" xmlns="http://www.w3.org/2000/svg" width="150" height="228">
<path d="M0 0 C2.84765625 0.3984375 2.84765625 0.3984375 6.0625 1.375 C10.11015555 2.8979726 10.11015555 2.8979726 14 2 C14.66666667 4.66666667 15.33333333 7.33333333 16 10 C16.66 10 17.32 10 18 10 C18.19335938 10.71285156 18.38671875 11.42570313 18.5859375 12.16015625 C18.97652344 13.59681641 18.97652344 13.59681641 19.375 15.0625 C19.63023438 16.00222656 19.88546875 16.94195313 20.1484375 17.91015625 C20.74387412 20.07066251 21.36590441 22.22393607 22.0078125 24.37109375 C23.24344452 28.89039354 24.05159685 33.42784129 24.85546875 38.0390625 C25.45581448 41.38292364 26.1593284 44.5562319 27.09765625 47.83203125 C28 51 28 51 27.9375 53.6875 C27.77161334 56.08189167 27.77161334 56.08189167 29.4296875 57.8125 C31.26099955 60.36358146 31.6772965 62.22947545 32.1875 65.3125 C32.34863281 66.28445312 32.50976562 67.25640625 32.67578125 68.2578125 C33 71 33 71 32.875 74.6875 C32.74574429 78.18129731 32.74574429 78.18129731 34.99609375 81.41015625 C37.90271728 87.0055993 37.39909054 92.5887703 37.1875 98.75 C37.13515876 100.97386423 37.08681199 103.19782701 37.04296875 105.421875 C37.01227295 106.39737305 36.98157715 107.37287109 36.94995117 108.37792969 C36.99627086 110.80462937 37.38639023 112.67250456 38 115 C38.0894341 116.52797319 38.13061361 118.05925703 38.1328125 119.58984375 C38.13474609 120.89018555 38.13474609 120.89018555 38.13671875 122.21679688 C38.13285156 123.11462891 38.12898438 124.01246094 38.125 124.9375 C38.13080078 126.27844727 38.13080078 126.27844727 38.13671875 127.64648438 C38.13035975 131.92927041 37.91831632 135.80611443 37 140 C36.9340265 142.10323534 36.91437755 144.20835724 36.9375 146.3125 C36.94652344 147.38113281 36.95554688 148.44976562 36.96484375 149.55078125 C36.97644531 150.35902344 36.98804688 151.16726562 37 152 C36.34 152 35.68 152 35 152 C34.97314588 154.31243792 34.95367159 156.6249627 34.9375 158.9375 C34.92589844 160.22527344 34.91429687 161.51304687 34.90234375 162.83984375 C34.63467451 165.86298403 34.63467451 165.86298403 36 167 C35.94921875 168.9609375 35.94921875 168.9609375 35.6875 171.375 C35.60886719 172.16648438 35.53023437 172.95796875 35.44921875 173.7734375 C35 176 35 176 33 179 C32.60986284 180.9896995 32.26797351 182.99019869 32 185 C31.34 185 30.68 185 30 185 C29.814375 186.36125 29.814375 186.36125 29.625 187.75 C29.07890323 190.58970323 28.42736197 192.52590591 27 195 C26.34 195 25.68 195 25 195 C25.061875 195.825 25.12375 196.65 25.1875 197.5 C24.96272708 201.69576121 23.94221507 205.267027 22 209 C21.34 209.33 20.68 209.66 20 210 C19.34444881 212.52733235 19.34444881 212.52733235 19 215 C18.34 215 17.68 215 17 215 C17 215.99 17 216.98 17 218 C16.01 218.33 15.02 218.66 14 219 C14 218.34 14 217.68 14 217 C8.555 217.99 8.555 217.99 3 219 C2.67 218.01 2.34 217.02 2 216 C0.35 216 -1.3 216 -3 216 C-3 215.01 -3 214.02 -3 213 C-3.66 213.33 -4.32 213.66 -5 214 C-5 212.68 -5 211.36 -5 210 C-5.66 209.67 -6.32 209.34 -7 209 C-7.75 206.125 -7.75 206.125 -8 203 C-7.34 202.01 -6.68 201.02 -6 200 C-5.34 200 -4.68 200 -4 200 C-4 198.02 -4 196.04 -4 194 C-3.01 194 -2.02 194 -1 194 C-1.20625 193.05125 -1.4125 192.1025 -1.625 191.125 C-1.74875 190.09375 -1.8725 189.0625 -2 188 C-1.01 187.01 -1.01 187.01 0 186 C0.16687448 183.41645782 0.16687448 183.41645782 0 181 C0.66 180.67 1.32 180.34 2 180 C2.76339785 178.34043946 3.51777932 176.67533092 4.19921875 174.98046875 C4.99225158 173.01916318 5.86743777 171.10979307 6.75 169.1875 C7.1625 168.135625 7.575 167.08375 8 166 C7.505 165.01 7.505 165.01 7 164 C6.90186801 161.50917924 6.86094452 159.05266211 6.875 156.5625 C6.86919922 155.5405957 6.86919922 155.5405957 6.86328125 154.49804688 C6.8693626 151.39351954 7.01109688 148.96670935 8 146 C8.66 146 9.32 146 10 146 C10 145.34 10 144.68 10 144 C9.01 143.67 8.02 143.34 7 143 C7.66 140.69 8.32 138.38 9 136 C9.66 136 10.32 136 11 136 C11 135.34 11 134.68 11 134 C10.34 133.67 9.68 133.34 9 133 C9.20625 132.2575 9.4125 131.515 9.625 130.75 C10.2605048 128.06504451 10.2605048 128.06504451 9.03515625 126.14453125 C7.79409289 123.57342263 7.7653728 121.77798463 7.8125 118.9375 C7.81894531 118.08027344 7.82539062 117.22304687 7.83203125 116.33984375 C8 114 8 114 9 111 C9.66 111 10.32 111 11 111 C10.484375 110.071875 9.96875 109.14375 9.4375 108.1875 C8 105 8 105 9 102 C8.9325232 93.26175405 6.7501052 84.25031559 4 76 C4.495 75.01 4.495 75.01 5 74 C4.34 74 3.68 74 3 74 C2 71 2 71 2.0625 67.125 C2.10767844 63.57526523 1.46829969 61.26288821 0 58 C-0.79619348 55.34264088 -1.41134951 52.71684841 -2 50 C-1.505 49.505 -1.505 49.505 -1 49 C-1.48082031 48.62230469 -1.96164063 48.24460938 -2.45703125 47.85546875 C-4.53662958 45.35468595 -4.49841577 43.52693196 -4.6875 40.3125 C-4.78611328 38.82169922 -4.78611328 38.82169922 -4.88671875 37.30078125 C-4.94279297 36.16189453 -4.94279297 36.16189453 -5 35 C-5.66 35 -6.32 35 -7 35 C-7.50904657 33.12743583 -8.00682455 31.25180659 -8.5 29.375 C-8.7784375 28.33085937 -9.056875 27.28671875 -9.34375 26.2109375 C-9.99230708 23.03764035 -10.03614645 20.22607059 -10 17 C-10.33 16.01 -10.66 15.02 -11 14 C-10.125 11.5 -10.125 11.5 -9 9 C-8.67 8.01 -8.34 7.02 -8 6 C-6.35666496 4.96210419 -4.68756133 3.96432076 -3 3 C-2.57589844 2.44570313 -2.15179688 1.89140625 -1.71484375 1.3203125 C-1.14894531 0.88460937 -0.58304688 0.44890625 0 0 Z " fill="#FFFFFF" transform="translate(51,0)"/>
<path d="M0 0 C2.97 0 5.94 0 9 0 C9 0.66 9 1.32 9 2 C9.78375 2.061875 10.5675 2.12375 11.375 2.1875 C14 3 14 3 15.125 5 C15.41375 5.99 15.7025 6.98 16 8 C16.47539368 9.41793723 16.95493846 10.83448614 17.4375 12.25 C18.18736638 14.51444799 18.93053781 16.77989691 19.6484375 19.0546875 C21.23779792 24.00975232 23.07784136 28.8529262 25 33.6875 C25.24919189 34.31736816 25.49838379 34.94723633 25.75512695 35.59619141 C26.95744656 38.58721264 28.23733218 41.45902202 29.71875 44.32421875 C31.18648268 47.38945316 30.82515499 47.90566878 30 51 C30.474375 51.556875 30.94875 52.11375 31.4375 52.6875 C33.52690495 55.77981932 33.19791789 58.03990713 33.0078125 61.68359375 C32.9991418 64.25445483 33.48248349 66.48366972 34 69 C34.2921957 72.27908507 34.50384586 75.55878667 34.71875 78.84375 C34.96767422 81.6372329 35.43663604 84.25829539 36 87 C36 90.11227195 35.54372951 92.94152152 35 96 C35.99 96.495 35.99 96.495 37 97 C37 98.32 37 99.64 37 101 C37.185625 101.763125 37.37125 102.52625 37.5625 103.3125 C38.11533572 106.70849087 37.48488753 109.60578727 37 113 C37.39397335 115.63804589 37.39397335 115.63804589 38 118 C38 120.54175205 37.9813168 123.08362566 37.9375 125.625 C37.9315289 128.82551112 38.1597507 131.94295024 38.5 135.125 C39.53718354 144.92563291 39.53718354 144.92563291 37 150 C36.32343075 153.6505 36 157.28553425 36 161 C35.55774726 162.82185879 35.07398203 164.63385284 34.5625 166.4375 C33.49746178 170.17421006 33.49746178 170.17421006 32.55078125 173.94140625 C31.76777351 176.86796709 30.6801004 179.66082073 29.625 182.5 C27.54778955 188.20039075 25.98224206 193.82755038 24.7734375 199.76953125 C24.39058594 200.87361328 24.39058594 200.87361328 24 202 C23.01 202.33 22.02 202.66 21 203 C21.0928125 204.85625 21.0928125 204.85625 21.1875 206.75 C21.19264393 209.66146189 21.11716507 210.79762398 19.625 213.375 C18.41666667 214.58333333 17.20833333 215.79166667 16 217 C15.34 216.67 14.68 216.34 14 216 C14 216.66 14 217.32 14 218 C10.6875 219.125 10.6875 219.125 7 220 C5.515 219.01 5.515 219.01 4 218 C3.01 218.33 2.02 218.66 1 219 C-1.68013374 217.77111772 -3.88204038 216.0415384 -6 214 C-6.875 211.5 -6.875 211.5 -7 209 C-7.3403125 207.88625 -7.3403125 207.88625 -7.6875 206.75 C-8.30368652 201.3275586 -6.59496105 196.10312805 -4.375 191.1875 C-2.73593926 187.96642978 -2.73593926 187.96642978 -3 184 C-2.39814145 182.22666677 -1.72670804 180.47593159 -1 178.75 C-0.62875 177.85796875 -0.2575 176.9659375 0.125 176.046875 C0.558125 175.03367188 0.558125 175.03367188 1 174 C1.66 174 2.32 174 3 174 C2.67 173.01 2.34 172.02 2 171 C2.66 171 3.32 171 4 171 C3.87625 169.4840625 3.87625 169.4840625 3.75 167.9375 C4.00501987 163.92093711 4.91343886 162.3293619 7.046875 159.0390625 C8.65643035 155.59566949 8.64526739 152.01067817 8.82421875 148.2578125 C9 146 9 146 10 145 C10 144.030625 10 143.06125 10 142.0625 C10 139 10 139 11 137 C10.88297041 135.55761028 10.70629588 134.11984983 10.5 132.6875 C9.88106275 127.3491662 10.30930659 122.33385018 10.8125 117 C11.03318068 113.4691091 10.61593889 110.46465625 10 107 C10.33 106.34 10.66 105.68 11 105 C10.01 105 9.02 105 8 105 C8.144375 104.443125 8.28875 103.88625 8.4375 103.3125 C9.52843134 98.82756006 10.10612685 95.12922047 9.625 90.5 C9.53476563 89.5821875 9.44453125 88.664375 9.3515625 87.71875 C9.0143334 85.11084493 8.52260952 82.57601228 8 80 C7.79290415 78.4608432 7.6046348 76.91900723 7.4375 75.375 C7.35371094 74.61960937 7.26992187 73.86421875 7.18359375 73.0859375 C6.77547771 68.44904459 6.77547771 68.44904459 8 66 C7.34 66 6.68 66 6 66 C4.05133917 62.3568515 2.45948462 59.13536158 2 55 C2.33 54.34 2.66 53.68 3 53 C2.34 53 1.68 53 1 53 C0 48.25 0 48.25 0 46 C-0.99117768 44.27343243 -1.9849888 42.54772432 -3.02734375 40.8515625 C-4.05070637 38.90347461 -4.47978252 37.13041446 -5 35 C-5.62836541 33.69974603 -6.27573383 32.40857665 -6.9375 31.125 C-10.00821202 24.34243829 -12.00219589 16.04251131 -10.1875 8.72265625 C-8.70849822 5.33165546 -7.12787344 3.93630261 -4 2 C-2.68 2 -1.36 2 0 2 C0 1.34 0 0.68 0 0 Z M35 102 C35.33 102.99 35.66 103.98 36 105 C36 104.01 36 103.02 36 102 C35.67 102 35.34 102 35 102 Z " fill="#FFFFFF" transform="translate(92,6)"/>
<path d="M0 0 C1.25 1.8125 1.25 1.8125 2.25 5.4375 C2.58 6.55125 2.91 7.665 3.25 8.8125 C4.24 9.1425 5.23 9.4725 6.25 9.8125 C5.26 10.3075 5.26 10.3075 4.25 10.8125 C4.745 11.34875 5.24 11.885 5.75 12.4375 C7.62489544 15.40608445 7.48501425 17.36562427 7.25 20.8125 C7.91 20.8125 8.57 20.8125 9.25 20.8125 C9.25 24.1125 9.25 27.4125 9.25 30.8125 C10.24 31.1425 11.23 31.4725 12.25 31.8125 C12.27694851 33.77075873 12.29637218 35.72912226 12.3125 37.6875 C12.32410156 38.77804688 12.33570313 39.86859375 12.34765625 40.9921875 C12.25 43.8125 12.25 43.8125 11.25 45.8125 C12.24 46.1425 13.23 46.4725 14.25 46.8125 C14.14300781 47.57175781 14.03601562 48.33101562 13.92578125 49.11328125 C13.80589844 50.10714844 13.68601563 51.10101563 13.5625 52.125 C13.43488281 53.11113281 13.30726562 54.09726562 13.17578125 55.11328125 C12.95535206 57.84370275 12.95535206 57.84370275 14.72265625 59.4140625 C15.22667969 59.87554687 15.73070312 60.33703125 16.25 60.8125 C16.5078125 62.72265625 16.5078125 62.72265625 16.375 64.875 C16.23374383 68.11399725 16.34242305 71.16650095 16.734375 74.3828125 C17.345265 80.1382918 17.39757626 85.84171549 17.375 91.625 C17.38080078 93.1399707 17.38080078 93.1399707 17.38671875 94.68554688 C17.38542969 95.66201172 17.38414063 96.63847656 17.3828125 97.64453125 C17.38168457 98.51827393 17.38055664 99.3920166 17.37939453 100.29223633 C17.25 102.8125 17.25 102.8125 16.71289062 105.4831543 C16.16572736 108.23657451 16.67539434 110.08104121 17.25 112.8125 C17.19140027 114.81554545 17.0633069 116.81746478 16.875 118.8125 C16.73964844 120.3284375 16.73964844 120.3284375 16.6015625 121.875 C16.27970042 124.5643365 15.78584995 127.15982132 15.25 129.8125 C15.04591554 133.55404836 15.02853714 136.23423587 16.375 139.75 C17.42372492 143.42053722 16.83466015 145.28029951 15.765625 148.84375 C15.06386626 151.52319246 15.11241942 154.06088841 15.25 156.8125 C14.26 157.1425 13.27 157.4725 12.25 157.8125 C12.600625 158.369375 12.95125 158.92625 13.3125 159.5 C14.81788183 163.21327517 13.64416396 165.83868316 12.1875 169.4375 C11.14945225 172.06722096 11.22458585 174.07125402 11.3203125 176.86328125 C11.43438265 181.58089683 11.22584831 185.42172598 9.25 189.8125 C8.59 190.1425 7.93 190.4725 7.25 190.8125 C7.146875 191.84375 7.04375 192.875 6.9375 193.9375 C6.14320326 198.41444526 4.56954524 201.6560538 1.25 204.8125 C0.26 204.8125 -0.73 204.8125 -1.75 204.8125 C-2.08 205.8025 -2.41 206.7925 -2.75 207.8125 C-3.86375 207.791875 -4.9775 207.77125 -6.125 207.75 C-9.58215921 207.54869282 -9.58215921 207.54869282 -11.75 208.8125 C-12.6471875 207.884375 -12.6471875 207.884375 -13.5625 206.9375 C-15.75811144 204.67573046 -15.75811144 204.67573046 -18.75 202.8125 C-20.04636617 198.92340149 -19.77498508 195.47430603 -19.6875 191.40625 C-19.62595392 188.6958336 -19.62595392 188.6958336 -20.75 185.8125 C-20.04296875 183.6484375 -20.04296875 183.6484375 -18.9375 181.1875 C-16.91417686 176.42673968 -15.73185081 171.88539587 -14.75 166.8125 C-15.41 166.4825 -16.07 166.1525 -16.75 165.8125 C-16.75 165.1525 -16.75 164.4925 -16.75 163.8125 C-16.09 163.4825 -15.43 163.1525 -14.75 162.8125 C-14.76160156 162.05324219 -14.77320313 161.29398438 -14.78515625 160.51171875 C-14.79417969 159.51785156 -14.80320312 158.52398437 -14.8125 157.5 C-14.82410156 156.51386719 -14.83570313 155.52773437 -14.84765625 154.51171875 C-14.75 151.8125 -14.75 151.8125 -13.75 148.8125 C-13.770625 147.69875 -13.79125 146.585 -13.8125 145.4375 C-13.7505567 141.84478875 -13.12595876 140.05005003 -11.75 136.8125 C-10.75434234 131.75602945 -10.75434234 131.75602945 -11.75 126.8125 C-12.90942029 121.13134058 -12.90942029 121.13134058 -11.75 118.8125 C-11.75 116.89058927 -11.75359628 114.96852658 -11.78515625 113.046875 C-11.74974729 110.79643902 -11.50843284 108.66371771 -11.1875 106.4375 C-10.43319343 102.98681139 -10.43319343 102.98681139 -11.75 100.8125 C-11.77011511 99.47915564 -11.74222245 98.14487279 -11.6875 96.8125 C-11.62355953 92.40771238 -12.30601694 88.449428 -13.3125 84.171875 C-13.91200298 80.93884106 -14.0818455 77.99239512 -13.1875 74.8125 C-12.60268718 72.79296049 -12.60268718 72.79296049 -13.1953125 70.6875 C-14.02379136 66.39341239 -14.10262877 62.05641247 -14.26757812 57.6953125 C-14.47029768 53.64092144 -15.1005496 50.50597521 -16.75 46.8125 C-17.00916566 44.90115326 -17.26425283 42.98869111 -17.46484375 41.0703125 C-17.89351897 37.6761443 -18.62869764 34.35461391 -19.34765625 31.01171875 C-19.75 28.8125 -19.75 28.8125 -19.75 25.8125 C-19.97921866 24.4506715 -20.25307499 23.09587303 -20.5625 21.75 C-20.78873047 20.71166016 -20.78873047 20.71166016 -21.01953125 19.65234375 C-21.69723225 17.43699359 -21.69723225 17.43699359 -24.75 15.8125 C-24.875 13.4375 -24.875 13.4375 -24.75 10.8125 C-25.04044914 9.46917272 -25.35955794 8.13024196 -25.75 6.8125 C-25.09 6.8125 -24.43 6.8125 -23.75 6.8125 C-23.481875 6.049375 -23.21375 5.28625 -22.9375 4.5 C-21.7436575 1.79814593 -21.0155256 0.63498948 -18.75 -1.1875 C-12.03830014 -3.3474662 -6.04896403 -4.10465416 0 0 Z " fill="#FFFFFF" transform="translate(30.75,8.1875)"/>
<path d="M0 0 C0.66 0.66 1.32 1.32 2 2 C1.34 2 0.68 2 0 2 C0 1.34 0 0.68 0 0 Z " fill="#FFFFFF" transform="translate(9,196)"/>
<path d="M0 0 C0.66 0.66 1.32 1.32 2 2 C1.34 2 0.68 2 0 2 C0 1.34 0 0.68 0 0 Z " fill="#FFFFFF" transform="translate(46,138)"/>
<path d="" fill="#FFFFFF" transform="translate(0,0)"/>
<path d="" fill="#FFFFFF" transform="translate(0,0)"/>
<path d="" fill="#FFFFFF" transform="translate(0,0)"/>
<path d="" fill="#FFFFFF" transform="translate(0,0)"/>
<path d="" fill="#FFFFFF" transform="translate(0,0)"/>
<path d="" fill="#FFFFFF" transform="translate(0,0)"/>
<path d="" fill="#FFFFFF" transform="translate(0,0)"/>
<path d="" fill="#FFFFFF" transform="translate(0,0)"/>
<path d="" fill="#FFFFFF" transform="translate(0,0)"/>
<path d="" fill="#FFFFFF" transform="translate(0,0)"/>
<path d="" fill="#FFFFFF" transform="translate(0,0)"/>
<path d="" fill="#FFFFFF" transform="translate(0,0)"/>
<path d="" fill="#FFFFFF" transform="translate(0,0)"/>
<path d="" fill="#FFFFFF" transform="translate(0,0)"/>
<path d="" fill="#FFFFFF" transform="translate(0,0)"/>
<path d="" fill="#FFFFFF" transform="translate(0,0)"/>
<path d="" fill="#FFFFFF" transform="translate(0,0)"/>
<path d="" fill="#FFFFFF" transform="translate(0,0)"/>
<path d="" fill="#FFFFFF" transform="translate(0,0)"/>
</svg>
