<?xml version="1.0" encoding="UTF-8"?>
<svg version="1.1" xmlns="http://www.w3.org/2000/svg" width="60" height="60">
<path d="M0 0 C9.24 0 18.48 0 28 0 C28.495 1.485 28.495 1.485 29 3 C32.45057028 4.15019009 33.30159244 3.80497206 36.625 2.625 C37.42164063 2.34914062 38.21828125 2.07328125 39.0390625 1.7890625 C40.96955674 1.16111857 40.96955674 1.16111857 42 0 C43.68608966 -0.07205511 45.37500659 -0.08386068 47.0625 -0.0625 C47.98160156 -0.05347656 48.90070312 -0.04445312 49.84765625 -0.03515625 C50.55792969 -0.02355469 51.26820312 -0.01195312 52 0 C52.09791804 3.70864574 51.74127226 5.7351145 50 9 C50 9.99 50 10.98 50 12 C50.66 12 51.32 12 52 12 C51.7215625 13.7015625 51.7215625 13.7015625 51.4375 15.4375 C51.293125 16.613125 51.14875 17.78875 51 19 C51.33 19.33 51.66 19.66 52 20 C52.08758003 21.99964982 52.10696576 24.0023611 52.09765625 26.00390625 C52.09443359 27.21884766 52.09121094 28.43378906 52.08789062 29.68554688 C52.07532227 31.60463867 52.07532227 31.60463867 52.0625 33.5625 C52.05798828 34.84576172 52.05347656 36.12902344 52.04882812 37.45117188 C52.03699545 40.63416022 52.02051068 43.81705762 52 47 C51.34 47 50.68 47 50 47 C50.495 50.96 50.495 50.96 51 55 C50.01 55 49.02 55 48 55 C48 56.65 48 58.3 48 60 C45.03 60 42.06 60 39 60 C38.67 59.34 38.34 58.68 38 58 C37.14332733 58.48797562 37.14332733 58.48797562 36.26934814 58.98580933 C33.84120402 60.07096725 32.32870504 60.24294401 29.69042969 60.22705078 C28.83819824 60.22680908 27.9859668 60.22656738 27.10791016 60.22631836 C26.22151855 60.21608643 25.33512695 60.20585449 24.421875 60.1953125 C23.18945068 60.19229126 23.18945068 60.19229126 21.93212891 60.18920898 C18.87136225 60.1787675 15.81067535 60.15084489 12.75 60.125 C5.9025 60.08375 -0.945 60.0425 -8 60 C-8 40.86 -8 21.72 -8 2 C-6.68 2.33 -5.36 2.66 -4 3 C-3.01 3 -2.02 3 -1 3 C-0.67 2.01 -0.34 1.02 0 0 Z M47 15 C47 18 47 18 47 18 Z " fill="#1F1823" transform="translate(8,0)"/>
<path d="M0 0 C9.24 0 18.48 0 28 0 C28.495 1.485 28.495 1.485 29 3 C32.45057028 4.15019009 33.30159244 3.80497206 36.625 2.625 C37.42164063 2.34914062 38.21828125 2.07328125 39.0390625 1.7890625 C40.96955674 1.16111857 40.96955674 1.16111857 42 0 C43.51928038 -0.07179964 45.04167482 -0.08392007 46.5625 -0.0625 C47.38878906 -0.05347656 48.21507812 -0.04445312 49.06640625 -0.03515625 C49.70449219 -0.02355469 50.34257813 -0.01195312 51 0 C50.21494099 2.12744999 49.4217394 4.25189674 48.625 6.375 C48.18414062 7.55835938 47.74328125 8.74171875 47.2890625 9.9609375 C46 13 46 13 44 15 C41.6541877 13.60717395 39.32171589 12.21793657 37.0625 10.6875 C32.00558106 7.224527 32.00558106 7.224527 26 7 C25.67 7.99 25.34 8.98 25 10 C20.76465304 12.45629907 15.82877057 13.8047951 11 13 C8.17695583 11.5425967 5.59551429 9.82626805 3 8 C2.01 7.34 1.02 6.68 0 6 C-0.0825 6.721875 -0.165 7.44375 -0.25 8.1875 C-1.16250417 11.60939065 -2.58171929 13.43946748 -5 16 C-5.99 16.33 -6.98 16.66 -8 17 C-8 12.05 -8 7.1 -8 2 C-6.68 2.33 -5.36 2.66 -4 3 C-3.01 3 -2.02 3 -1 3 C-0.67 2.01 -0.34 1.02 0 0 Z " fill="#09060E" transform="translate(8,0)"/>
<path d="M0 0 C0.433125 0.66 0.86625 1.32 1.3125 2 C1.869375 2.66 2.42625 3.32 3 4 C3.99 4 4.98 4 6 4 C7.68236471 4.62599617 9.3523962 5.28752268 11 6 C10.7151876 9.32281131 10.04262581 10.94405362 8 13.625 C2.07677262 18.31422167 -4.55805183 19.82688313 -12 19 C-16.56502056 17.39895861 -20.69974825 15.45673777 -23 11 C-23 10.01 -23 9.02 -23 8 C-17.72 7.34 -12.44 6.68 -7 6 C-7 5.01 -7 4.02 -7 3 C-5.5459375 2.5359375 -5.5459375 2.5359375 -4.0625 2.0625 C-1.15934208 1.30476658 -1.15934208 1.30476658 0 0 Z " fill="#A19EB1" transform="translate(36,34)"/>
<path d="M0 0 C0.66 0.33 1.32 0.66 2 1 C1.62875 2.134375 1.2575 3.26875 0.875 4.4375 C-0.93865875 12.3643302 0.45175999 22.35527997 3 30 C3.99 30.33 4.98 30.66 6 31 C5.78694807 26.27577034 5.78694807 26.27577034 3.4375 22.4375 C2 21 2 21 1.8125 17.8125 C1.874375 16.884375 1.93625 15.95625 2 15 C4 17 4 17 5 19 C4.67 16.03 4.34 13.06 4 10 C6 11 6 11 6.7109375 12.70703125 C7.03964844 13.74923828 7.03964844 13.74923828 7.375 14.8125 C8.99481818 19.33989181 10.89786686 21.85884201 15.1875 24.1875 C19.0796265 25.3118921 22.97185066 25.66651487 27 26 C27 26.33 27 26.66 27 27 C24.69 27.33 22.38 27.66 20 28 C23.78706732 28 27.26513121 27.5745952 31 27 C30.67 27.66 30.34 28.32 30 29 C29.34 29 28.68 29 28 29 C27.67 30.32 27.34 31.64 27 33 C16.11 33 5.22 33 -6 33 C-6 30.69 -6 28.38 -6 26 C-5.01 27.32 -4.02 28.64 -3 30 C-3.01160156 29.04480469 -3.02320313 28.08960937 -3.03515625 27.10546875 C-3.08939161 19.33431699 -2.90018566 11.73195186 -2 4 C-2.66 3.67 -3.32 3.34 -4 3 C-3.01 3 -2.02 3 -1 3 C-0.67 2.01 -0.34 1.02 0 0 Z " fill="#06050C" transform="translate(6,27)"/>
<path d="M0 0 C0.33 0 0.66 0 1 0 C1.20512828 3.69230905 0.72405582 5.76739533 -1 9 C-1 9.99 -1 10.98 -1 12 C-0.34 12 0.32 12 1 12 C0.814375 13.134375 0.62875 14.26875 0.4375 15.4375 C0.2209375 17.2009375 0.2209375 17.2009375 0 19 C0.33 19.33 0.66 19.66 1 20 C1.08758003 21.99964982 1.10696576 24.0023611 1.09765625 26.00390625 C1.09443359 27.21884766 1.09121094 28.43378906 1.08789062 29.68554688 C1.07951172 30.96494141 1.07113281 32.24433594 1.0625 33.5625 C1.05798828 34.84576172 1.05347656 36.12902344 1.04882812 37.45117188 C1.03699545 40.63416022 1.02051068 43.81705762 1 47 C0.34 47 -0.32 47 -1 47 C-0.67 49.64 -0.34 52.28 0 55 C-0.99 55 -1.98 55 -3 55 C-3 56.65 -3 58.3 -3 60 C-4.32 60 -5.64 60 -7 60 C-6.96970703 58.89487061 -6.93941406 57.78974121 -6.90820312 56.65112305 C-6.79597576 52.55298968 -6.68428374 48.45484186 -6.57275391 44.35668945 C-6.52439759 42.58259692 -6.47589588 40.80850834 -6.42724609 39.03442383 C-6.35736525 36.48519906 -6.28800639 33.93596055 -6.21875 31.38671875 C-6.19687622 30.59287277 -6.17500244 29.79902679 -6.15246582 28.98112488 C-5.66699724 22.92806773 -5.66699724 22.92806773 -7.5625 17.4375 C-8.2740625 16.2309375 -8.2740625 16.2309375 -9 15 C-8.67 14.34 -8.34 13.68 -8 13 C-7.34 13 -6.68 13 -6 13 C-5.47599609 11.71802734 -5.47599609 11.71802734 -4.94140625 10.41015625 C-4.25884766 8.75306641 -4.25884766 8.75306641 -3.5625 7.0625 C-3.11003906 5.96035156 -2.65757813 4.85820312 -2.19140625 3.72265625 C-1 1 -1 1 0 0 Z M-4 15 C-4 18 -4 18 -4 18 Z " fill="#09060E" transform="translate(59,0)"/>
<path d="M0 0 C7.92 0 15.84 0 24 0 C23 6 23 6 21.875 7.75 C18.18758655 10.20827563 14.38359648 10.97117507 10 11.0625 C5.67454604 9.53056839 2.71481428 6.67865367 0 3 C0 2.01 0 1.02 0 0 Z " fill="#413847" transform="translate(10,0)"/>
<path d="M0 0 C2.38672669 2.96283313 4.7353371 5.94270509 7 9 C6.01 9 5.02 9 4 9 C4 9.99 4 10.98 4 12 C0.52674819 13.1577506 -2.36067448 13.06866652 -6 13 C-6.33 13.66 -6.66 14.32 -7 15 C-7.33 14.67 -7.66 14.34 -8 14 C-9.65 14 -11.3 14 -13 14 C-13 10.7 -13 7.4 -13 4 C-10 4 -10 4 -8.3125 5.5 C-7.879375 5.995 -7.44625 6.49 -7 7 C-7 5.35 -7 3.7 -7 2 C-6.401875 2.495 -5.80375 2.99 -5.1875 3.5 C-3.02970006 5.28276418 -3.02970006 5.28276418 0 5 C0 3.35 0 1.7 0 0 Z " fill="#9692A6" transform="translate(25,28)"/>
<path d="M0 0 C0.66 0.33 1.32 0.66 2 1 C1.62875 2.134375 1.2575 3.26875 0.875 4.4375 C-0.93865875 12.3643302 0.45175999 22.35527997 3 30 C3.99 30.99 4.98 31.98 6 33 C2.04 33 -1.92 33 -6 33 C-6 30.69 -6 28.38 -6 26 C-5.01 27.32 -4.02 28.64 -3 30 C-3.01160156 29.04480469 -3.02320313 28.08960937 -3.03515625 27.10546875 C-3.08939161 19.33431699 -2.90018566 11.73195186 -2 4 C-2.66 3.67 -3.32 3.34 -4 3 C-3.01 3 -2.02 3 -1 3 C-0.67 2.01 -0.34 1.02 0 0 Z " fill="#05040B" transform="translate(6,27)"/>
<path d="M0 0 C3.465 1.485 3.465 1.485 7 3 C6.69918829 6.50946994 6.0180963 7.97788231 3.75 10.75 C0.97788231 13.0180963 -0.49053006 13.69918829 -4 14 C-3.67 12.02 -3.34 10.04 -3 8 C-5.475 7.01 -5.475 7.01 -8 6 C-8 4.68 -8 3.36 -8 2 C-6.865625 1.855625 -5.73125 1.71125 -4.5625 1.5625 C-1.19222799 1.38828522 -1.19222799 1.38828522 0 0 Z " fill="#9F9BB0" transform="translate(40,37)"/>
<path d="M0 0 C5.75 1.625 5.75 1.625 8 5 C6.35 4.67 4.7 4.34 3 4 C4.28062485 5.7074998 5.61767557 7.37373596 7 9 C7.66 9 8.32 9 9 9 C9 8.01 9 7.02 9 6 C9.66 6 10.32 6 11 6 C11 8.97 11 11.94 11 15 C7.66272214 13.82744291 5.22562513 12.81131596 3 10 C3 9.34 3 8.68 3 8 C2.34 8 1.68 8 1 8 C0.8453125 9.6396875 0.8453125 9.6396875 0.6875 11.3125 C0.02692273 14.85559629 -0.2027092 15.93243723 -3 18 C-4.9375 17.1875 -4.9375 17.1875 -7 16 C-7.33 15.01 -7.66 14.02 -8 13 C-6.02 13.99 -6.02 13.99 -4 15 C-0.98612252 10.85591846 -0.81298215 8.04948195 -1 3 C-0.67 2.01 -0.34 1.02 0 0 Z " fill="#09070E" transform="translate(37,19)"/>
<path d="M0 0 C0.33 0.66 0.66 1.32 1 2 C0.01 2.66 -0.98 3.32 -2 4 C-0.94124926 7.40312738 0.00902154 10.01353231 2 13 C0.68 12.34 -0.64 11.68 -2 11 C-2.33 12.32 -2.66 13.64 -3 15 C-4.65 14.67 -6.3 14.34 -8 14 C-8 13.34 -8 12.68 -8 12 C-8.66 12.66 -9.32 13.32 -10 14 C-10.625 12.1875 -10.625 12.1875 -11 10 C-10.34 9.01 -9.68 8.02 -9 7 C-8.34 7 -7.68 7 -7 7 C-7.66 5.68 -8.32 4.36 -9 3 C-6.03 2.01 -3.06 1.02 0 0 Z " fill="#110E17" transform="translate(21,20)"/>
<path d="M0 0 C1.32 0.33 2.64 0.66 4 1 C4.99 1 5.98 1 7 1 C8.13517413 4.40552239 8.04701353 5.6173409 7 9 C3.76470588 13.74509804 3.76470588 13.74509804 0 15 C0 10.05 0 5.1 0 0 Z " fill="#2B1624" transform="translate(0,2)"/>
<path d="M0 0 C1.66674321 2.91824244 2.2432008 4.97594379 2.1953125 8.328125 C2.18564453 9.52695312 2.18564453 9.52695312 2.17578125 10.75 C2.15902344 11.575 2.14226563 12.4 2.125 13.25 C2.11146484 14.51070312 2.11146484 14.51070312 2.09765625 15.796875 C2.07415817 17.86470604 2.03828908 19.93238995 2 22 C1.34 22 0.68 22 0 22 C-0.33 21.34 -0.66 20.68 -1 20 C-2.98 20.66 -4.96 21.32 -7 22 C-7 19.36 -7 16.72 -7 14 C-5 15 -5 15 -3 18 C-0.63019987 15.04622502 -0.63019987 15.04622502 -1 11 C-1.99 11 -2.98 11 -4 11 C-3.2884375 9.6696875 -3.2884375 9.6696875 -2.5625 8.3125 C-1.20262851 5.42957244 -0.45939614 3.12389377 0 0 Z " fill="#05030B" transform="translate(47,38)"/>
<path d="M0 0 C0.33 1.32 0.66 2.64 1 4 C-2.47325181 5.1577506 -5.36067448 5.06866652 -9 5 C-9.33 5.66 -9.66 6.32 -10 7 C-11.65 6.67 -13.3 6.34 -15 6 C-14.11888201 2.95613784 -13.58026389 1.37546487 -10.875 -0.375 C-6.96455084 -1.22509764 -3.94016692 -0.6678249 0 0 Z " fill="#0B0A12" transform="translate(28,36)"/>
<path d="M0 0 C0.33 0 0.66 0 1 0 C1.125 7.625 1.125 7.625 0 11 C0.66 11 1.32 11 2 11 C2 9.02 2 7.04 2 5 C2.66 5 3.32 5 4 5 C4.33 7.97 4.66 10.94 5 14 C4.01 14 3.02 14 2 14 C2 15.65 2 17.3 2 19 C0.68 19 -0.64 19 -2 19 C-2.09585232 12.96130397 -2.07822521 6.96351721 -1 1 C-0.67 0.67 -0.34 0.34 0 0 Z " fill="#040209" transform="translate(54,41)"/>
<path d="M0 0 C-1.32 2.97 -2.64 5.94 -4 9 C-8 7 -8 7 -11 5 C-10 2 -10 2 -7.1875 0.25 C-4 -1 -4 -1 0 0 Z " fill="#C05884" transform="translate(59,1)"/>
<path d="M0 0 C0.66 0 1.32 0 2 0 C2.4125 0.721875 2.825 1.44375 3.25 2.1875 C5.89279373 6.43484707 9.0032966 9.43571426 13.875 10.8125 C14.57625 10.874375 15.2775 10.93625 16 11 C15.34 11.66 14.68 12.32 14 13 C8.00908714 12.66717151 3.57829048 8.52176191 -1 5 C-0.67 3.35 -0.34 1.7 0 0 Z " fill="#05030B" transform="translate(8,0)"/>
<path d="M0 0 C0.99 0.66 1.98 1.32 3 2 C2.8125 4.3125 2.8125 4.3125 2 7 C-0.5625 8.8125 -0.5625 8.8125 -3 10 C-3 8.02 -3 6.04 -3 4 C-2.34 4 -1.68 4 -1 4 C-0.67 2.68 -0.34 1.36 0 0 Z " fill="#48404E" transform="translate(3,7)"/>
<path d="M0 0 C3.63 0.33 7.26 0.66 11 1 C10.67 1.99 10.34 2.98 10 4 C6.37 4 2.74 4 -1 4 C-0.67 2.68 -0.34 1.36 0 0 Z " fill="#322B37" transform="translate(21,56)"/>
<path d="M0 0 C2.64 0 5.28 0 8 0 C8.33 1.32 8.66 2.64 9 4 C6 4 3 4 0 4 C0 2.68 0 1.36 0 0 Z " fill="#08070E" transform="translate(37,34)"/>
<path d="M0 0 C2.31 0.33 4.62 0.66 7 1 C6.67 1.99 6.34 2.98 6 4 C5.34 4 4.68 4 4 4 C3.67 4.66 3.34 5.32 3 6 C1.35 5.67 -0.3 5.34 -2 5 C-1.34 3.35 -0.68 1.7 0 0 Z " fill="#13111A" transform="translate(15,37)"/>
<path d="M0 0 C0.66 2.97 1.32 5.94 2 9 C1.01 8.67 0.02 8.34 -1 8 C-1.66 8.66 -2.32 9.32 -3 10 C-4 9 -4 9 -4.25 5.5625 C-4.1675 4.386875 -4.085 3.21125 -4 2 C-1 0 -1 0 0 0 Z " fill="#07050D" transform="translate(27,22)"/>
<path d="M0 0 C2 0 2 0 4.625 2.375 C7 5 7 5 7 7 C4.36 7 1.72 7 -1 7 C-0.67 4.69 -0.34 2.38 0 0 Z " fill="#9390A3" transform="translate(38,27)"/>
<path d="M0 0 C0.33 0 0.66 0 1 0 C0.6875 3.375 0.6875 3.375 0 7 C-0.99 7.66 -1.98 8.32 -3 9 C-3.66 7.02 -4.32 5.04 -5 3 C-3.68 3 -2.36 3 -1 3 C-0.67 2.01 -0.34 1.02 0 0 Z " fill="#1F1823" transform="translate(46,48)"/>
<path d="M0 0 C-0.875 4.75 -0.875 4.75 -2 7 C-3.32 6.67 -4.64 6.34 -6 6 C-4.90218919 2.70656758 -3.7827394 0 0 0 Z " fill="#3C3541" transform="translate(39,53)"/>
<path d="M0 0 C0.66 1.32 1.32 2.64 2 4 C2.66 4 3.32 4 4 4 C4 5.65 4 7.3 4 9 C2.68 8.67 1.36 8.34 0 8 C0 5.36 0 2.72 0 0 Z " fill="#1E1722" transform="translate(55,24)"/>
<path d="M0 0 C4.83256305 0.41421969 6.82679218 2.46413986 10 6 C9.34 6.66 8.68 7.32 8 8 C7.4225 7.236875 6.845 6.47375 6.25 5.6875 C4.28296907 3.33799083 2.51523256 1.70676495 0 0 Z " fill="#453D4B" transform="translate(44,7)"/>
<path d="M0 0 C2.64 0 5.28 0 8 0 C7.67 0.99 7.34 1.98 7 3 C4.625 3.1875 4.625 3.1875 2 3 C1.34 2.01 0.68 1.02 0 0 Z " fill="#DC40A1" transform="translate(20,0)"/>
<path d="M0 0 C4.39158329 1.4638611 4.87947433 3.97831338 7 8 C5 7 3 6 1 5 C0.375 2.4375 0.375 2.4375 0 0 Z " fill="#0A070F" transform="translate(16,25)"/>
<path d="M0 0 C1.65 0 3.3 0 5 0 C4.34 1.32 3.68 2.64 3 4 C2.01 4 1.02 4 0 4 C0 2.68 0 1.36 0 0 Z " fill="#201924" transform="translate(14,53)"/>
<path d="M0 0 C1.32 0.33 2.64 0.66 4 1 C3.67 2.32 3.34 3.64 3 5 C2.01 4.67 1.02 4.34 0 4 C0 2.68 0 1.36 0 0 Z " fill="#716E7F" transform="translate(32,39)"/>
</svg>
