<?xml version="1.0" encoding="UTF-8"?>
<svg version="1.1" xmlns="http://www.w3.org/2000/svg" width="100" height="81">
<path d="M0 0 C2.51986604 1.3815055 3.94076062 2.89287133 6 5 C6.78375 5.763125 7.5675 6.52625 8.375 7.3125 C8.91125 7.869375 9.4475 8.42625 10 9 C10.94875 8.505 11.8975 8.01 12.875 7.5 C16.87520669 5.748382 20.36104044 5.82532374 24.66796875 6.08984375 C27.29571211 5.98860741 28.72194848 5.25437014 31 4 C33.99164096 3.69316503 35.71856434 3.88038984 38.5 5.0625 C41.54004616 6.20251731 42.94327343 6.01890886 46 5 C46.598125 4.484375 47.19625 3.96875 47.8125 3.4375 C51.11556686 1.26691321 54.22897252 1.40240548 58 2 C63.57790058 3.68930703 68.0304066 7.03522704 71.70703125 11.51953125 C74.26390572 16.42471338 73.9457272 21.66189538 73 27 C72.2575 28.0725 71.515 29.145 70.75 30.25 C69.88375 31.61125 69.88375 31.61125 69 33 C69.67020425 34.99690535 69.67020425 34.99690535 70.86621094 37.08374023 C73.21566942 42.0174665 73.52884746 46.00966995 73.390625 51.41015625 C73.38496521 52.26306747 73.37930542 53.1159787 73.37347412 53.99473572 C73.3513129 56.68459305 73.30115859 59.37305416 73.25 62.0625 C73.22990866 63.90037121 73.21166254 65.73826357 73.1953125 67.57617188 C73.15493755 72.05173498 73.07661634 76.52432886 73 81 C64.42 81 55.84 81 47 81 C47.99 77.7 48.98 74.4 50 71 C50 70.01 50 69.02 50 68 C49.608125 68.37511719 49.21625 68.75023438 48.8125 69.13671875 C44.24241403 73.04690006 39.671503 75.05856928 34 76.8125 C33.33613281 77.0189917 32.67226563 77.2254834 31.98828125 77.43823242 C23.07151161 80.04516127 15.80090089 80.43417943 7 77 C4.3178365 75.51970561 2.33711452 74.02549925 0 72 C0 71.34 0 70.68 0 70 C-1.485 69.505 -1.485 69.505 -3 69 C-2.71640113 70.4391134 -2.42278601 71.87625518 -2.125 73.3125 C-1.88136719 74.51326172 -1.88136719 74.51326172 -1.6328125 75.73828125 C-1.05521001 78.25301118 -1.05521001 78.25301118 1 81 C-6.59 81 -14.18 81 -22 81 C-21 72 -21 72 -20 70 C-21.98 70.495 -21.98 70.495 -24 71 C-26.68145241 68.41028148 -27.22521128 66.37542567 -27.328125 62.77734375 C-27.31753628 61.16388708 -27.29099687 59.55047049 -27.25 57.9375 C-27.24484375 57.12216797 -27.2396875 56.30683594 -27.234375 55.46679688 C-27.18874079 51.99574441 -27.10775941 49.32327823 -26 46 C-25.34 46 -24.68 46 -24 46 C-24.48984375 45.33355469 -24.9796875 44.66710938 -25.484375 43.98046875 C-27.39842845 40.21649251 -27.33231705 37.51478517 -27.25 33.3125 C-27.24484375 32.63638672 -27.2396875 31.96027344 -27.234375 31.26367188 C-27.15552736 26.31105473 -27.15552736 26.31105473 -26 24 C-25.34 24 -24.68 24 -24 24 C-24.309375 23.42507812 -24.61875 22.85015625 -24.9375 22.2578125 C-26.36619755 19.2218302 -27.005045 16.88736274 -26.98828125 13.5234375 C-24.64833115 7.54870324 -17.30680922 4.11365756 -12 1 C-7.92685817 -0.35771394 -4.25491822 -0.6557237 0 0 Z " fill="#131427" transform="translate(27,0)"/>
<path d="M0 0 C5.57790058 1.68930703 10.0304066 5.03522704 13.70703125 9.51953125 C16.26390572 14.42471338 15.9457272 19.66189538 15 25 C14.2575 26.0725 13.515 27.145 12.75 28.25 C12.1725 29.1575 11.595 30.065 11 31 C11.67020425 32.99690535 11.67020425 32.99690535 12.86621094 35.08374023 C15.21566942 40.0174665 15.52884746 44.00966995 15.390625 49.41015625 C15.38496521 50.26306747 15.37930542 51.1159787 15.37347412 51.99473572 C15.3513129 54.68459305 15.30115859 57.37305416 15.25 60.0625 C15.22990866 61.90037121 15.21166254 63.73826357 15.1953125 65.57617188 C15.15493755 70.05173498 15.07661634 74.52432886 15 79 C7.41 79 -0.18 79 -8 79 C-6 68 -6 68 -4.3125 64.125 C-2.81178257 60.55186327 -2.87219178 59.61749807 -4 56 C-5.76264972 53.14836093 -5.76264972 53.14836093 -7.9375 50.375 C-8.64777344 49.43398438 -9.35804687 48.49296875 -10.08984375 47.5234375 C-10.72019531 46.69070312 -11.35054687 45.85796875 -12 45 C-14.30854775 41.53717838 -14.17238021 40.05093501 -14 36 C-14 35.34 -14 34.68 -14 34 C-14.99 37.63 -15.98 41.26 -17 45 C-20 41 -20 41 -20 38 C-20.66 38 -21.32 38 -22 38 C-22.33 37.01 -22.66 36.02 -23 35 C-23.09796875 35.56847656 -23.1959375 36.13695312 -23.296875 36.72265625 C-24.3610677 42.21792717 -25.81706066 46.37027005 -29 51 C-30.485 51.495 -30.485 51.495 -32 52 C-32.99 51.34 -33.98 50.68 -35 50 C-35.99 50 -36.98 50 -38 50 C-42.7157374 45.50882152 -43.66672576 42.44330198 -44 36 C-44.99 37.98 -45.98 39.96 -47 42 C-49.00993705 38.98509443 -49.72623341 36.7850073 -50.625 33.3125 C-50.88539062 32.31863281 -51.14578125 31.32476562 -51.4140625 30.30078125 C-51.60742188 29.54152344 -51.80078125 28.78226563 -52 28 C-51.01 27.34 -50.02 26.68 -49 26 C-49.41084935 20.65895845 -50.21490976 18.65892057 -54 15 C-53.95703125 13.02734375 -53.95703125 13.02734375 -53 11 C-46.09986294 7.31689554 -38.6982691 6.38686352 -31 7 C-31 6.01 -31 5.02 -31 4 C-27.85157189 2.13426482 -25.64747625 1.64414866 -22 2 C-21.175 2.350625 -20.35 2.70125 -19.5 3.0625 C-16.45995384 4.20251731 -15.05672657 4.01890886 -12 3 C-11.401875 2.484375 -10.80375 1.96875 -10.1875 1.4375 C-6.88443314 -0.73308679 -3.77102748 -0.59759452 0 0 Z " fill="#C7CCDC" transform="translate(85,2)"/>
<path d="M0 0 C5.57790058 1.68930703 10.0304066 5.03522704 13.70703125 9.51953125 C16.26390572 14.42471338 15.9457272 19.66189538 15 25 C14.2575 26.0725 13.515 27.145 12.75 28.25 C12.1725 29.1575 11.595 30.065 11 31 C11.67020425 32.99690535 11.67020425 32.99690535 12.86621094 35.08374023 C15.21566942 40.0174665 15.52884746 44.00966995 15.390625 49.41015625 C15.38496521 50.26306747 15.37930542 51.1159787 15.37347412 51.99473572 C15.3513129 54.68459305 15.30115859 57.37305416 15.25 60.0625 C15.22990866 61.90037121 15.21166254 63.73826357 15.1953125 65.57617188 C15.15151514 70.05130866 15.08263308 74.52541871 15 79 C10.05 79 5.1 79 0 79 C-1.07421875 68.35546875 -1.07421875 68.35546875 -1 65 C-0.5057251 64.52393311 -0.0114502 64.04786621 0.49780273 63.55737305 C2.18686384 62.11488858 2.18686384 62.11488858 2.26464844 59.99462891 C2.2134082 59.24616699 2.16216797 58.49770508 2.109375 57.7265625 C2.05910156 56.9015625 2.00882813 56.0765625 1.95703125 55.2265625 C1.85455078 53.93878906 1.85455078 53.93878906 1.75 52.625 C1.69714844 51.77421875 1.64429688 50.9234375 1.58984375 50.046875 C1.3160616 45.95924388 0.95378009 41.99600969 0 38 C0.99 38 1.98 38 3 38 C3.66 39.32 4.32 40.64 5 42 C5.33 41.01 5.66 40.02 6 39 C6.66 39 7.32 39 8 39 C7.505 36.03 7.505 36.03 7 33 C6.09636719 32.86722656 5.19273438 32.73445313 4.26171875 32.59765625 C3.08222656 32.42105469 1.90273437 32.24445312 0.6875 32.0625 C-0.48425781 31.88847656 -1.65601563 31.71445312 -2.86328125 31.53515625 C-6 31 -6 31 -9 30 C-9.66 30.33 -10.32 30.66 -11 31 C-13.05859375 31.16796875 -13.05859375 31.16796875 -15.4375 31.1875 C-16.61119141 31.20876953 -16.61119141 31.20876953 -17.80859375 31.23046875 C-20 31 -20 31 -23 29 C-23.1875 25.375 -23.1875 25.375 -23 22 C-22.34 22 -21.68 22 -21 22 C-20.7525 21.2575 -20.505 20.515 -20.25 19.75 C-18.90095207 16.78209456 -17.31949313 15.24467077 -15 13 C-14.67 12.01 -14.34 11.02 -14 10 C-19.61854082 8.04911777 -25.21113776 6.36827653 -31 5 C-28.82479699 3.06648622 -27.48408535 2.06206222 -24.5625 1.6875 C-22 2 -22 2 -19.5 3.0625 C-16.45995384 4.20251731 -15.05672657 4.01890886 -12 3 C-11.401875 2.484375 -10.80375 1.96875 -10.1875 1.4375 C-6.88443314 -0.73308679 -3.77102748 -0.59759452 0 0 Z " fill="#4C4267" transform="translate(85,2)"/>
<path d="M0 0 C2.90137889 3.01764544 4.9732334 6.35051673 7 10 C6.01 10.66 5.02 11.32 4 12 C3.67 11.01 3.34 10.02 3 9 C-5.76574986 9.03660021 -11.20643806 11.72675541 -17.69140625 17.5078125 C-20.15755273 20.31995565 -20.11401303 23.13310092 -20.0625 26.6875 C-20.05347656 27.49574219 -20.04445313 28.30398437 -20.03515625 29.13671875 C-20.02355469 29.75160156 -20.01195312 30.36648437 -20 31 C-19.34 31.33 -18.68 31.66 -18 32 C-18.33 32.66 -18.66 33.32 -19 34 C-19.66 34 -20.32 34 -21 34 C-21 34.66 -21 35.32 -21 36 C-20.21625 35.484375 -19.4325 34.96875 -18.625 34.4375 C-17.75875 33.963125 -16.8925 33.48875 -16 33 C-15.34 33.33 -14.68 33.66 -14 34 C-14 33.34 -14 32.68 -14 32 C-12.68 32 -11.36 32 -10 32 C-10 32.66 -10 33.32 -10 34 C-11.485 34.495 -11.485 34.495 -13 35 C-13 35.33 -13 35.66 -13 36 C-12.195625 36.309375 -11.39125 36.61875 -10.5625 36.9375 C-8 38 -8 38 -7 39 C-6.95919217 40.99958364 -6.95745644 43.00045254 -7 45 C-6.67 45 -6.34 45 -6 45 C-5.59250325 40.74268432 -5.59250325 40.74268432 -7.5 37.125 C-7.995 36.75375 -8.49 36.3825 -9 36 C-8.67 35.01 -8.34 34.02 -8 33 C-7.030625 32.855625 -6.06125 32.71125 -5.0625 32.5625 C-2.13513227 32.32437659 -2.13513227 32.32437659 -1 31 C0.66617115 30.95936168 2.33388095 30.957279 4 31 C6.20927172 36.97802937 5.93213141 41.73960391 5 48 C4.34 48 3.68 48 3 48 C1.08373163 43.01770224 0.4452885 38.27315333 0 33 C-0.19401633 34.81181405 -0.38004375 36.62448532 -0.5625 38.4375 C-0.66691406 39.44683594 -0.77132813 40.45617188 -0.87890625 41.49609375 C-0.91886719 42.32238281 -0.95882813 43.14867187 -1 44 C-0.505 44.495 -0.505 44.495 0 45 C-0.34255626 50.59508558 -1.87204001 55.30806001 -5 60 C-5.99 60.66 -6.98 61.32 -8 62 C-7.34 62 -6.68 62 -6 62 C-5.95101563 62.86882813 -5.90203125 63.73765625 -5.8515625 64.6328125 C-5.77679687 65.78523438 -5.70203125 66.93765625 -5.625 68.125 C-5.55539063 69.26195313 -5.48578125 70.39890625 -5.4140625 71.5703125 C-5.05573092 75.50027466 -5.05573092 75.50027466 -3 81 C-9.27 81 -15.54 81 -22 81 C-21 72 -21 72 -20 70 C-21.98 70.495 -21.98 70.495 -24 71 C-26.68145241 68.41028148 -27.22521128 66.37542567 -27.328125 62.77734375 C-27.31753628 61.16388708 -27.29099687 59.55047049 -27.25 57.9375 C-27.24484375 57.12216797 -27.2396875 56.30683594 -27.234375 55.46679688 C-27.18874079 51.99574441 -27.10775941 49.32327823 -26 46 C-25.34 46 -24.68 46 -24 46 C-24.48984375 45.33355469 -24.9796875 44.66710938 -25.484375 43.98046875 C-27.39842845 40.21649251 -27.33231705 37.51478517 -27.25 33.3125 C-27.24484375 32.63638672 -27.2396875 31.96027344 -27.234375 31.26367188 C-27.15552736 26.31105473 -27.15552736 26.31105473 -26 24 C-25.34 24 -24.68 24 -24 24 C-24.309375 23.42507812 -24.61875 22.85015625 -24.9375 22.2578125 C-26.36619755 19.2218302 -27.005045 16.88736274 -26.98828125 13.5234375 C-24.64833115 7.54870324 -17.30680922 4.11365756 -12 1 C-7.85408703 -0.38197099 -4.27954152 -1.2661784 0 0 Z " fill="#491944" transform="translate(27,0)"/>
<path d="M0 0 C2.08954032 4.17908064 2.16552619 4.80410573 1 9 C1.45375 8.54625 1.9075 8.0925 2.375 7.625 C3.58333333 6.41666667 4.79166667 5.20833333 6 4 C6.30292969 4.53109375 6.60585938 5.0621875 6.91796875 5.609375 C9.48233857 9.93329703 11.77603273 13.1035653 16 16 C16.33 15.34 16.66 14.68 17 14 C17 14.66 17 15.32 17 16 C21.28305448 14.90824101 23.26631111 14.23128978 25.578125 10.3515625 C26.81149147 7.59420872 27.95587258 4.83406013 29 2 C30.41958822 4.81359827 31.80246051 7.63939607 33.125 10.5 C33.47820312 11.2528125 33.83140625 12.005625 34.1953125 12.78125 C35 15 35 15 35 19 C35.66 19 36.32 19 37 19 C36.67 14.71 36.34 10.42 36 6 C37.32 7.65 38.64 9.3 40 11 C40.763125 11.94875 41.52625 12.8975 42.3125 13.875 C44.43431808 17.80429274 43.95158527 19.7178663 43 24 C43 25.32 43 26.64 43 28 C38.28824845 33.38297873 31.75286977 35.42248534 25 37 C25 36.34 25 35.68 25 35 C24.01 35.33 23.02 35.66 22 36 C22 35.34 22 34.68 22 34 C21.29875 34.05800781 20.5975 34.11601563 19.875 34.17578125 C12.75538165 34.51435006 8.57461832 33.47247315 3 29 C3.33 28.34 3.66 27.68 4 27 C4.70382813 27.48855469 5.40765625 27.97710937 6.1328125 28.48046875 C11.81306565 31.49084814 19.16456732 30.7262758 25.25 29 C26.1575 28.67 27.065 28.34 28 28 C28 28.99 28 29.98 28 31 C28.66 29.35 29.32 27.7 30 26 C27.74714864 25.84840761 27.74714864 25.84840761 25.0625 27.5 C20.1135914 29.62536116 15.28775394 29.92931915 10 29 C6.3969085 27.34257791 3.20125707 25.33323726 0 23 C2.21744647 29.39885414 2.21744647 29.39885414 6.9375 34 C9.63239226 34.87996482 12.19674102 35.58775603 15 36 C15 36.33 15 36.66 15 37 C6.1694416 36.96242316 -0.55611352 34.48154654 -6.84375 28.140625 C-9.0534556 25.2021867 -10.1780276 23.27893392 -9.66015625 19.55859375 C-8.68952083 16.55010686 -7.410518 13.82103601 -6 11 C-5.34 11 -4.68 11 -4 11 C-3.67 12.65 -3.34 14.3 -3 16 C-2.34 16 -1.68 16 -1 16 C-0.67 10.72 -0.34 5.44 0 0 Z " fill="#9D99DD" transform="translate(34,40)"/>
<path d="M0 0 C1.86978516 0.41378906 1.86978516 0.41378906 3.77734375 0.8359375 C7.0625 1.625 7.0625 1.625 10.0625 2.625 C10.0625 4.605 10.0625 6.585 10.0625 8.625 C9.4025 8.625 8.7425 8.625 8.0625 8.625 C7.7325 10.275 7.4025 11.925 7.0625 13.625 C5.0625 10.625 5.0625 10.625 5.0625 7.625 C4.0725 8.12 4.0725 8.12 3.0625 8.625 C3.29803589 9.47759399 3.29803589 9.47759399 3.53833008 10.34741211 C4.43569462 14.24658018 4.52575849 18.20198095 4.75 22.1875 C4.80994141 23.05052734 4.86988281 23.91355469 4.93164062 24.80273438 C4.97869141 25.63224609 5.02574219 26.46175781 5.07421875 27.31640625 C5.12022217 28.07123291 5.16622559 28.82605957 5.21362305 29.60375977 C5.0625 31.625 5.0625 31.625 3.0625 34.625 C2.4025 34.625 1.7425 34.625 1.0625 34.625 C1.3925 35.285 1.7225 35.945 2.0625 36.625 C2.13315617 38.66555005 2.14671976 40.70834257 2.125 42.75 C2.11597656 43.84570312 2.10695313 44.94140625 2.09765625 46.0703125 C2.08605469 46.91335937 2.07445313 47.75640625 2.0625 48.625 C-0.5775 48.625 -3.2175 48.625 -5.9375 48.625 C-4.30438068 38.00011783 -4.30438068 38.00011783 -2.25 33.75 C-0.74928257 30.17686327 -0.80969178 29.24249807 -1.9375 25.625 C-3.70014972 22.77336093 -3.70014972 22.77336093 -5.875 20 C-6.58527344 19.05898438 -7.29554687 18.11796875 -8.02734375 17.1484375 C-8.65769531 16.31570312 -9.28804688 15.48296875 -9.9375 14.625 C-12.29023568 11.09589647 -12.34503493 9.78185632 -11.9375 5.625 C-8.94631078 -1.58104675 -7.38099574 -1.66053361 0 0 Z " fill="#CCD3E1" transform="translate(82.9375,32.375)"/>
<path d="M0 0 C0.66 0.33 1.32 0.66 2 1 C1.125 4.875 1.125 4.875 0 6 C0.66 6.66 1.32 7.32 2 8 C1.51789062 8.38671875 1.03578125 8.7734375 0.5390625 9.171875 C-0.09257812 9.69265625 -0.72421875 10.2134375 -1.375 10.75 C-2.00148438 11.26046875 -2.62796875 11.7709375 -3.2734375 12.296875 C-5.08312318 14.08199481 -6.00117455 15.67949644 -7 18 C-6.34 18 -5.68 18 -5 18 C-4.773125 17.2575 -4.54625 16.515 -4.3125 15.75 C-2.73176379 12.43798128 -1.04493579 11.00520162 2 9 C2.99 9 3.98 9 5 9 C8.07692308 14.41538462 8.07692308 14.41538462 7.6875 17.375 C7.3471875 18.179375 7.3471875 18.179375 7 19 C5.35 18.34 3.7 17.68 2 17 C1.67 17.99 1.34 18.98 1 20 C-1.97 20 -4.94 20 -8 20 C-8.33 22.31 -8.66 24.62 -9 27 C-8.01 27.33 -7.02 27.66 -6 28 C-4.64560332 30.70879335 -4.93498549 33.00933268 -5 36 C-5.99 36 -6.98 36 -8 36 C-7.896875 35.071875 -7.79375 34.14375 -7.6875 33.1875 C-7.8421875 31.6096875 -7.8421875 31.6096875 -8 30 C-10.39056942 28.0645852 -10.39056942 28.0645852 -13 27 C-13.33 27.99 -13.66 28.98 -14 30 C-14.33 29.34 -14.66 28.68 -15 28 C-14.34 27.01 -13.68 26.02 -13 25 C-12.01 25 -11.02 25 -10 25 C-10 24.34 -10 23.68 -10 23 C-11.32 23 -12.64 23 -14 23 C-14 23.66 -14 24.32 -14 25 C-14.598125 25.144375 -15.19625 25.28875 -15.8125 25.4375 C-17.56150404 25.8872439 -19.28677023 26.42892341 -21 27 C-21 26.34 -21 25.68 -21 25 C-20.34 25 -19.68 25 -19 25 C-19.33 24.319375 -19.66 23.63875 -20 22.9375 C-21.50442219 18.51825982 -21.74411474 14.79462967 -19.9375 10.4375 C-14.442951 3.52500287 -9.02044562 -0.50113587 0 0 Z " fill="#100F22" transform="translate(27,9)"/>
<path d="M0 0 C2.26659157 0.27095876 4.53281159 0.44487997 6.80859375 0.62109375 C9 1 9 1 12 3 C12.5 5.375 12.5 5.375 12 8 C8.80118504 11.19881496 5.15508265 13.24563177 1 15 C0.34 14.67 -0.32 14.34 -1 14 C0.32 12.02 1.64 10.04 3 8 C2.505 7.01 2.505 7.01 2 6 C0.3603125 6.99 0.3603125 6.99 -1.3125 8 C-6.51733066 10.55192755 -11.30323164 11.08435039 -17 10 C-20.59987056 8.33704244 -23.79906683 6.33300118 -27 4 C-24.78255353 10.39885414 -24.78255353 10.39885414 -20.0625 15 C-17.36760774 15.87996482 -14.80325898 16.58775603 -12 17 C-12 17.33 -12 17.66 -12 18 C-19.4889165 17.83119246 -25.54235565 16.45764435 -31 11 C-30.91062197 9.47480724 -30.75462854 7.95318071 -30.5625 6.4375 C-30.46066406 5.61121094 -30.35882812 4.78492188 -30.25390625 3.93359375 C-30.17011719 3.29550781 -30.08632813 2.65742187 -30 2 C-22.26900515 -1.26333451 -7.88112116 -3.94056058 0 0 Z " fill="#C8C7EE" transform="translate(61,59)"/>
<path d="M0 0 C0.66 0.99 1.32 1.98 2 3 C2.99 3 3.98 3 5 3 C5 15.87 5 28.74 5 42 C1.7 42 -1.6 42 -5 42 C-5.72697561 40.25766175 -6.43098244 38.50572655 -7.125 36.75 C-7.51945312 35.77546875 -7.91390625 34.8009375 -8.3203125 33.796875 C-9 31 -9 31 -8.3046875 28.703125 C-7 27 -7 27 -4 26 C-4.66 25.01 -5.32 24.02 -6 23 C-6.125 20.3125 -6.125 20.3125 -6 18 C-5.01 17.67 -4.02 17.34 -3 17 C-3 17.66 -3 18.32 -3 19 C-2.34 18.67 -1.68 18.34 -1 18 C-1.33 17.34 -1.66 16.68 -2 16 C-0.68 15.67 0.64 15.34 2 15 C1.67 14.34 1.34 13.68 1 13 C0.34 13.66 -0.32 14.32 -1 15 C-3.625 15.625 -3.625 15.625 -6 16 C-6 13.69 -6 11.38 -6 9 C-3.69 9 -1.38 9 1 9 C1 8.34 1 7.68 1 7 C0.01 7 -0.98 7 -2 7 C-1.34 4.69 -0.68 2.38 0 0 Z " fill="#0E1022" transform="translate(95,39)"/>
<path d="M0 0 C0.66 0 1.32 0 2 0 C2.64995297 1.41478135 3.29478722 2.83191487 3.9375 4.25 C4.29714844 5.03890625 4.65679687 5.8278125 5.02734375 6.640625 C7.71249192 13.15399646 7.8588748 20.05162546 7 27 C5.42737767 30.16358429 3.54403357 32.56196783 1 35 C-2 34 -2 34 -3.3515625 31.671875 C-3.77179687 30.70765625 -4.19203125 29.7434375 -4.625 28.75 C-5.05039062 27.79609375 -5.47578125 26.8421875 -5.9140625 25.859375 C-8.20344395 19.83121952 -9.15455681 13.85890257 -6.6875 7.75 C-5.26287126 5.42838279 -4.1338372 3.66995954 -2 2 C-1.34 2 -0.68 2 0 2 C0 1.34 0 0.68 0 0 Z " fill="#E7446B" transform="translate(51,9)"/>
<path d="M0 0 C1.2065625 0.0309375 1.2065625 0.0309375 2.4375 0.0625 C4.64677172 6.04052937 4.36963141 10.80210391 3.4375 17.0625 C2.7775 17.0625 2.1175 17.0625 1.4375 17.0625 C-0.47876837 12.08020224 -1.1172115 7.33565333 -1.5625 2.0625 C-1.75651633 3.87431405 -1.94254375 5.68698532 -2.125 7.5 C-2.22941406 8.50933594 -2.33382813 9.51867187 -2.44140625 10.55859375 C-2.48136719 11.38488281 -2.52132813 12.21117187 -2.5625 13.0625 C-2.2325 13.3925 -1.9025 13.7225 -1.5625 14.0625 C-1.90505626 19.65758558 -3.43454001 24.37056001 -6.5625 29.0625 C-7.5525 29.7225 -8.5425 30.3825 -9.5625 31.0625 C-8.9025 31.0625 -8.2425 31.0625 -7.5625 31.0625 C-7.51351563 31.93132813 -7.46453125 32.80015625 -7.4140625 33.6953125 C-7.33929688 34.84773438 -7.26453125 36.00015625 -7.1875 37.1875 C-7.11789063 38.32445312 -7.04828125 39.46140625 -6.9765625 40.6328125 C-6.56806124 44.01643616 -5.75282431 46.87862441 -4.5625 50.0625 C-7.2025 50.0625 -9.8425 50.0625 -12.5625 50.0625 C-12.5625 42.1425 -12.5625 34.2225 -12.5625 26.0625 C-11.9025 26.0625 -11.2425 26.0625 -10.5625 26.0625 C-10.66419161 23.11522465 -10.66419161 23.11522465 -11.5625 20.0625 C-14.02505685 18.60958727 -14.02505685 18.60958727 -16.5625 18.0625 C-16.5625 16.4125 -16.5625 14.7625 -16.5625 13.0625 C-15.99660156 13.21847656 -15.43070313 13.37445313 -14.84765625 13.53515625 C-14.11417969 13.72980469 -13.38070313 13.92445312 -12.625 14.125 C-11.89410156 14.32222656 -11.16320312 14.51945312 -10.41015625 14.72265625 C-9.49556641 14.89087891 -9.49556641 14.89087891 -8.5625 15.0625 C-7.24281822 13.95721558 -7.24281822 13.95721558 -7.3125 11.1875 C-7.26801216 8.07158112 -7.26801216 8.07158112 -9.0625 6.1875 C-9.5575 5.81625 -10.0525 5.445 -10.5625 5.0625 C-10.2325 4.0725 -9.9025 3.0825 -9.5625 2.0625 C-8.593125 1.918125 -7.62375 1.77375 -6.625 1.625 C-3.51819849 1.05436299 -3.01883152 0.07363004 0 0 Z " fill="#CBD2E1" transform="translate(28.5625,30.9375)"/>
<path d="M0 0 C5.58141436 1.69037121 10.01516321 5.0412278 13.71484375 9.5078125 C16.2099095 14.34626827 15.81510783 19.72704581 15 25 C14.34 25.99 13.68 26.98 13 28 C12.34 28 11.68 28 11 28 C11.061875 26.865625 11.12375 25.73125 11.1875 24.5625 C11.20501156 19.64175124 9.73262455 15.55150594 8 11 C7.505 9.515 7.505 9.515 7 8 C3.83754459 6.9458482 1.13051782 6.68724328 -2.1875 6.4375 C-3.27417969 6.35371094 -4.36085938 6.26992187 -5.48046875 6.18359375 C-6.31191406 6.12300781 -7.14335938 6.06242188 -8 6 C-8 6.66 -8 7.32 -8 8 C-7.34 8.04125 -6.68 8.0825 -6 8.125 C-1.0838842 9.55886711 3.68912744 12.67185725 6.23828125 17.19921875 C6.48964844 17.79347656 6.74101563 18.38773438 7 19 C5.35 19 3.7 19 2 19 C1.34 17.35 0.68 15.7 0 14 C-0.66 14 -1.32 14 -2 14 C-2.433125 13.54625 -2.86625 13.0925 -3.3125 12.625 C-5.35628817 10.65690769 -7.34530324 9.93273129 -10 9 C-10 9.66 -10 10.32 -10 11 C-9.195625 11.2475 -8.39125 11.495 -7.5625 11.75 C-5 13 -5 13 -4.1875 15.125 C-4.125625 15.74375 -4.06375 16.3625 -4 17 C-4.763125 16.360625 -5.52625 15.72125 -6.3125 15.0625 C-8.88246713 12.85767219 -8.88246713 12.85767219 -12 12 C-12 12.66 -12 13.32 -12 14 C-12.66 14 -13.32 14 -14 14 C-14 12.68 -14 11.36 -14 10 C-19.61854082 8.04911777 -25.21113776 6.36827653 -31 5 C-28.82479699 3.06648622 -27.48408535 2.06206222 -24.5625 1.6875 C-22 2 -22 2 -19.5 3.0625 C-16.45995384 4.20251731 -15.05672657 4.01890886 -12 3 C-11.401875 2.484375 -10.80375 1.96875 -10.1875 1.4375 C-6.88443314 -0.73308679 -3.77102748 -0.59759452 0 0 Z " fill="#13132C" transform="translate(85,2)"/>
<path d="M0 0 C3 1 3 1 4.9375 3.3125 C8.82241418 7.46284309 14.70259412 8.48766244 20 10 C18.78955868 5.39257135 18.78955868 5.39257135 17 1 C17.639375 1.165 18.27875 1.33 18.9375 1.5 C20.80826821 2.03926667 20.80826821 2.03926667 22 2 C22 1.34 22 0.68 22 0 C22.66 0 23.32 0 24 0 C24.81391255 2.58289592 25.62617929 5.16628997 26.4375 7.75 C26.66759766 8.47960938 26.89769531 9.20921875 27.13476562 9.9609375 C27.35712891 10.66992188 27.57949219 11.37890625 27.80859375 12.109375 C28.01282959 12.75874023 28.21706543 13.40810547 28.42749023 14.07714844 C29.01169727 16.03928688 29.51810648 18.01049584 30 20 C29.01 20.33 28.02 20.66 27 21 C26.505 20.01 26.505 20.01 26 19 C25.34 20.65 24.68 22.3 24 24 C24.99 24 25.98 24 27 24 C27 24.66 27 25.32 27 26 C24.69 26 22.38 26 20 26 C20.33 27.98 20.66 29.96 21 32 C24.54518884 30.60240095 24.54518884 30.60240095 28 29 C28 29.99 28 30.98 28 32 C27.01 32.66 26.02 33.32 25 34 C25 34.99 25 35.98 25 37 C23.35 36.34 21.7 35.68 20 35 C20.4640625 36.3921875 20.4640625 36.3921875 20.9375 37.8125 C21.625 39.875 22.3125 41.9375 23 44 C22.360625 44.103125 21.72125 44.20625 21.0625 44.3125 C20.381875 44.539375 19.70125 44.76625 19 45 C17.86807969 48.39576093 18.10279053 48.86788179 19.4375 52 C20.56692836 54.67416223 21 56.02545489 21 59 C19.35 59 17.7 59 16 59 C15.75124439 56.73122896 15.52660754 54.45980265 15.3125 52.1875 C15.18488281 50.92292969 15.05726562 49.65835938 14.92578125 48.35546875 C15 45 15 45 16.49780273 43.55737305 C18.18686384 42.11488858 18.18686384 42.11488858 18.26464844 39.99462891 C18.2134082 39.24616699 18.16216797 38.49770508 18.109375 37.7265625 C18.05910156 36.9015625 18.00882813 36.0765625 17.95703125 35.2265625 C17.85455078 33.93878906 17.85455078 33.93878906 17.75 32.625 C17.69714844 31.77421875 17.64429687 30.9234375 17.58984375 30.046875 C17.3160616 25.95924388 16.95378009 21.99600969 16 18 C16.99 18 17.98 18 19 18 C19.66 19.32 20.32 20.64 21 22 C21.33 21.01 21.66 20.02 22 19 C22.66 19 23.32 19 24 19 C23.67 17.02 23.34 15.04 23 13 C22.09636719 12.86722656 21.19273438 12.73445313 20.26171875 12.59765625 C19.08222656 12.42105469 17.90273437 12.24445312 16.6875 12.0625 C14.92986328 11.80146484 14.92986328 11.80146484 13.13671875 11.53515625 C10 11 10 11 7 10 C6.01 10.495 6.01 10.495 5 11 C2.94140625 11.16796875 2.94140625 11.16796875 0.5625 11.1875 C-0.61119141 11.20876953 -0.61119141 11.20876953 -1.80859375 11.23046875 C-4 11 -4 11 -7 9 C-7 7.68 -7 6.36 -7 5 C-6.34 5 -5.68 5 -5 5 C-4.67 5.99 -4.34 6.98 -4 8 C0.53140653 8.93380961 0.53140653 8.93380961 5 8 C3.7625 6.576875 3.7625 6.576875 2.5 5.125 C0 2.25 0 2.25 0 0 Z " fill="#121325" transform="translate(69,22)"/>
<path d="M0 0 C1.21236328 0.01353516 1.21236328 0.01353516 2.44921875 0.02734375 C3.37154297 0.04474609 3.37154297 0.04474609 4.3125 0.0625 C4.3125 1.7125 4.3125 3.3625 4.3125 5.0625 C3.08273438 5.55169922 3.08273438 5.55169922 1.828125 6.05078125 C0.75046875 6.48777344 -0.3271875 6.92476563 -1.4375 7.375 C-2.50484375 7.80425781 -3.5721875 8.23351563 -4.671875 8.67578125 C-7.35986635 9.91183945 -9.3609785 11.27568957 -11.6875 13.0625 C-12.3475 13.0625 -13.0075 13.0625 -13.6875 13.0625 C-14.0175 14.0525 -14.3475 15.0425 -14.6875 16.0625 C-15.3475 16.0625 -16.0075 16.0625 -16.6875 16.0625 C-17.0175 18.7025 -17.3475 21.3425 -17.6875 24.0625 C-18.3475 24.0625 -19.0075 24.0625 -19.6875 24.0625 C-21.59389866 20.51977582 -22.69596508 17.63616012 -22.67578125 13.5859375 C-20.33583115 7.61120324 -12.99430922 4.17615756 -7.6875 1.0625 C-4.80538698 0.10179566 -2.98899956 -0.04331883 0 0 Z " fill="#23213B" transform="translate(22.6875,-0.0625)"/>
<path d="M0 0 C0 0.66 0 1.32 0 2 C0.99 2.33 1.98 2.66 3 3 C2.51789062 3.38671875 2.03578125 3.7734375 1.5390625 4.171875 C0.90742188 4.69265625 0.27578125 5.2134375 -0.375 5.75 C-1.00148438 6.26046875 -1.62796875 6.7709375 -2.2734375 7.296875 C-4.08312318 9.08199481 -5.00117455 10.67949644 -6 13 C-5.34 13 -4.68 13 -4 13 C-3.773125 12.2575 -3.54625 11.515 -3.3125 10.75 C-1.73176379 7.43798128 -0.04493579 6.00520162 3 4 C3.99 4 4.98 4 6 4 C9.07692308 9.41538462 9.07692308 9.41538462 8.6875 12.375 C8.460625 12.91125 8.23375 13.4475 8 14 C6.35 13.34 4.7 12.68 3 12 C2.67 12.99 2.34 13.98 2 15 C-2.95 15 -7.9 15 -13 15 C-11.68 12.69 -10.36 10.38 -9 8 C-10.47736982 7.88361269 -10.47736982 7.88361269 -12.5625 10.5 C-13.7690625 11.7375 -13.7690625 11.7375 -15 13 C-14.51696726 8.68986172 -13.3982201 6.9764837 -10.0625 4.25 C-9.35222656 3.65703125 -8.64195313 3.0640625 -7.91015625 2.453125 C-4.8449397 0.12130382 -4.08781528 0 0 0 Z " fill="#373150" transform="translate(26,14)"/>
<path d="M0 0 C12.66970387 1.74259681 12.66970387 1.74259681 18 5 C16.68 7.31 15.36 9.62 14 12 C13.34 12 12.68 12 12 12 C11.34 13.65 10.68 15.3 10 17 C9.34 17 8.68 17 8 17 C8 18.65 8 20.3 8 22 C6.68 21.67 5.36 21.34 4 21 C3.80664062 20.13117187 3.61328125 19.26234375 3.4140625 18.3671875 C3.15367188 17.21476562 2.89328125 16.06234375 2.625 14.875 C2.36976562 13.73804688 2.11453125 12.60109375 1.8515625 11.4296875 C1.05496009 7.98877102 1.05496009 7.98877102 -0.1640625 4.6953125 C-1 2 -1 2 0 0 Z " fill="#ACADC6" transform="translate(54,7)"/>
<path d="M0 0 C0.99 0 1.98 0 3 0 C3.02911321 3.0833134 3.04683682 6.16659125 3.0625 9.25 C3.07087891 10.12269531 3.07925781 10.99539062 3.08789062 11.89453125 C3.09272461 13.16103516 3.09272461 13.16103516 3.09765625 14.453125 C3.10551147 15.61569824 3.10551147 15.61569824 3.11352539 16.80175781 C3 19 3 19 2 23 C-1.63 23 -5.26 23 -9 23 C-8.125 14.25 -8.125 14.25 -7 12 C-8.32 12.33 -9.64 12.66 -11 13 C-13.09749995 10.64031256 -13.96905704 9.45383006 -14.1875 6.25 C-14.125625 5.5075 -14.06375 4.765 -14 4 C-13.01 5.485 -13.01 5.485 -12 7 C-10.02 6.34 -8.04 5.68 -6 5 C-4.4375 6.4375 -4.4375 6.4375 -3 9 C-3.03153676 12.05380927 -3.46733371 14.99653222 -4 18 C-3.34 17.67 -2.68 17.34 -2 17 C-1.26924352 14.6859378 -0.59861742 12.35171131 0 10 C-0.66 10 -1.32 10 -2 10 C-2 9.34 -2 8.68 -2 8 C-1.34 7.67 -0.68 7.34 0 7 C0 4.69 0 2.38 0 0 Z " fill="#282A3E" transform="translate(14,58)"/>
<path d="M0 0 C0.66 0.99 1.32 1.98 2 3 C2.99 3 3.98 3 5 3 C5 14.55 5 26.1 5 38 C4.01 38 3.02 38 2 38 C1.67 36.68 1.34 35.36 1 34 C1.66 34 2.32 34 3 34 C2.67 33.34 2.34 32.68 2 32 C1.84932786 30.5534758 1.75138964 29.1012066 1.68359375 27.6484375 C1.64169922 26.79765625 1.59980469 25.946875 1.55664062 25.0703125 C1.51732422 24.18085937 1.47800781 23.29140625 1.4375 22.375 C1.39431641 21.4778125 1.35113281 20.580625 1.30664062 19.65625 C1.20043139 17.43765717 1.09838806 15.2189512 1 13 C0.34 13.66 -0.32 14.32 -1 15 C-3.625 15.625 -3.625 15.625 -6 16 C-6 13.69 -6 11.38 -6 9 C-3.69 9 -1.38 9 1 9 C1 8.34 1 7.68 1 7 C0.01 7 -0.98 7 -2 7 C-1.34 4.69 -0.68 2.38 0 0 Z " fill="#52536E" transform="translate(95,39)"/>
<path d="M0 0 C3 1 3 1 4.9375 3.3125 C8.82241418 7.46284309 14.70259412 8.48766244 20 10 C18.78955868 5.39257135 18.78955868 5.39257135 17 1 C17.639375 1.165 18.27875 1.33 18.9375 1.5 C20.80826821 2.03926667 20.80826821 2.03926667 22 2 C22 1.34 22 0.68 22 0 C22.66 0 23.32 0 24 0 C24.81391255 2.58289592 25.62617929 5.16628997 26.4375 7.75 C26.66759766 8.47960938 26.89769531 9.20921875 27.13476562 9.9609375 C27.35712891 10.66992188 27.57949219 11.37890625 27.80859375 12.109375 C28.01282959 12.75874023 28.21706543 13.40810547 28.42749023 14.07714844 C29.01169727 16.03928688 29.51810648 18.01049584 30 20 C29.01 20.33 28.02 20.66 27 21 C26.7525 20.05125 26.505 19.1025 26.25 18.125 C25.34505669 15.00763417 25.34505669 15.00763417 23.3671875 13.91015625 C20.25199866 12.71240212 17.13798503 12.01073792 13.875 11.3125 C12.63492188 11.04050781 11.39484375 10.76851562 10.1171875 10.48828125 C7.10216087 9.70715179 7.10216087 9.70715179 5 11 C2.94140625 11.16796875 2.94140625 11.16796875 0.5625 11.1875 C-0.61119141 11.20876953 -0.61119141 11.20876953 -1.80859375 11.23046875 C-4 11 -4 11 -7 9 C-7 7.68 -7 6.36 -7 5 C-6.34 5 -5.68 5 -5 5 C-4.67 5.99 -4.34 6.98 -4 8 C0.53140653 8.93380961 0.53140653 8.93380961 5 8 C3.7625 6.576875 3.7625 6.576875 2.5 5.125 C0 2.25 0 2.25 0 0 Z " fill="#0C0E20" transform="translate(69,22)"/>
<path d="M0 0 C0.66 0.66 1.32 1.32 2 2 C0.35 3.65 -1.3 5.3 -3 7 C-1.845 7.20625 -0.69 7.4125 0.5 7.625 C5.48109656 8.86584256 9.34898119 11.41754492 13 15 C14.2265625 17.1953125 14.2265625 17.1953125 15 19 C13.35 19 11.7 19 10 19 C9.34 17.35 8.68 15.7 8 14 C7.34 14 6.68 14 6 14 C5.566875 13.54625 5.13375 13.0925 4.6875 12.625 C2.64371183 10.65690769 0.65469676 9.93273129 -2 9 C-2 9.66 -2 10.32 -2 11 C-1.195625 11.2475 -0.39125 11.495 0.4375 11.75 C3 13 3 13 3.8125 15.125 C3.874375 15.74375 3.93625 16.3625 4 17 C3.236875 16.360625 2.47375 15.72125 1.6875 15.0625 C-0.88246713 12.85767219 -0.88246713 12.85767219 -4 12 C-4 12.66 -4 13.32 -4 14 C-4.66 14 -5.32 14 -6 14 C-6 12.68 -6 11.36 -6 10 C-11.61854082 8.04911777 -17.21113776 6.36827653 -23 5 C-20.82479699 3.06648622 -19.48408535 2.06206222 -16.5625 1.6875 C-14 2 -14 2 -11.5 3.0625 C-8.45995384 4.20251731 -7.05672657 4.01890886 -4 3 C-1.73545927 1.53228729 -1.73545927 1.53228729 0 0 Z " fill="#0B0C20" transform="translate(77,2)"/>
<path d="M0 0 C0 0.66 0 1.32 0 2 C-0.78375 2.598125 -1.5675 3.19625 -2.375 3.8125 C-5.33275103 6.27729252 -6.11286583 7.29016618 -7 11 C-7.14882674 14.34090382 -7.11678805 17.65856426 -7 21 C-9 19 -9 19 -9.125 15.375 C-9.08375 14.26125 -9.0425 13.1475 -9 12 C-9.886875 12.268125 -10.77375 12.53625 -11.6875 12.8125 C-15 13 -15 13 -17.9375 10.8125 C-20 8 -20 8 -19.98046875 5.96484375 C-19 4 -19 4 -16.5234375 2.734375 C-10.85064527 0.96074765 -5.95914177 -0.54174016 0 0 Z " fill="#B5B3CA" transform="translate(51,9)"/>
<path d="M0 0 C0.99 0.33 1.98 0.66 3 1 C1.46522858 5.60431427 -1.91106372 7.57447216 -6 10 C-9.28210733 11.25697728 -12.57943817 12.20093433 -16 13 C-16 12.34 -16 11.68 -16 11 C-16.99 11.33 -17.98 11.66 -19 12 C-19 11.34 -19 10.68 -19 10 C-19.70125 10.05800781 -20.4025 10.11601563 -21.125 10.17578125 C-28.24461835 10.51435006 -32.42538168 9.47247315 -38 5 C-37.67 4.34 -37.34 3.68 -37 3 C-35.94425781 3.73283203 -35.94425781 3.73283203 -34.8671875 4.48046875 C-29.18693435 7.49084814 -21.83543268 6.7262758 -15.75 5 C-14.8425 4.67 -13.935 4.34 -13 4 C-13.33 5.65 -13.66 7.3 -14 9 C-5.7776322 6.01004711 -5.7776322 6.01004711 0 0 Z " fill="#595A73" transform="translate(75,64)"/>
<path d="M0 0 C4.02550319 1.3418344 4.88285636 3.4227573 7 7 C7 7.66 7 8.32 7 9 C11.12857737 11.11822497 15.38219348 12.93292644 19.63671875 14.78125 C22 16 22 16 23 18 C16.45655831 17.643085 11.28862405 16.0040786 6 12 C5.67 11.01 5.34 10.02 5 9 C4.01 8.67 3.02 8.34 2 8 C2.28359887 9.4391134 2.57721399 10.87625518 2.875 12.3125 C3.11863281 13.51326172 3.11863281 13.51326172 3.3671875 14.73828125 C3.94478999 17.25301118 3.94478999 17.25301118 6 20 C3.625 19.8125 3.625 19.8125 1 19 C-1.11909228 15.0850668 -1.24219159 11.64521537 -1.1875 7.25 C-1.18105469 6.10015625 -1.17460937 4.9503125 -1.16796875 3.765625 C-1 1 -1 1 0 0 Z " fill="#292B3F" transform="translate(22,61)"/>
<path d="M0 0 C1.9375 0.75 1.9375 0.75 4 2 C4.75 4.125 4.75 4.125 5 6 C5.99 5.67 6.98 5.34 8 5 C8.33 4.34 8.66 3.68 9 3 C9.66 3 10.32 3 11 3 C10.67 4.32 10.34 5.64 10 7 C9.34 7 8.68 7 8 7 C8.66 9.31 9.32 11.62 10 14 C9.01 14 8.02 14 7 14 C6.67 12.35 6.34 10.7 6 9 C5.34 9 4.68 9 4 9 C4 10.65 4 12.3 4 14 C4.66 14 5.32 14 6 14 C5 16 5 16 1.9375 17.125 C0.4834375 17.558125 0.4834375 17.558125 -1 18 C-3.60018816 14.09971775 -3.15085514 10.52565431 -3 6 C-2.34 6 -1.68 6 -1 6 C0.15811388 3.05270463 0.15811388 3.05270463 0 0 Z " fill="#943175" transform="translate(3,48)"/>
<path d="M0 0 C2.08954032 4.17908064 2.16552619 4.80410573 1 9 C1.45375 8.54625 1.9075 8.0925 2.375 7.625 C3.58333333 6.41666667 4.79166667 5.20833333 6 4 C7.32 6.64 8.64 9.28 10 12 C3.78576097 16.90834822 -1.04675198 18.96679228 -9 19 C-7.125 13.25 -7.125 13.25 -6 11 C-5.34 11 -4.68 11 -4 11 C-3.67 12.65 -3.34 14.3 -3 16 C-2.34 16 -1.68 16 -1 16 C-0.67 10.72 -0.34 5.44 0 0 Z " fill="#7972C0" transform="translate(34,40)"/>
<path d="M0 0 C-0.375 1.9375 -0.375 1.9375 -1 4 C-3 5 -3 5 -5.625 5.125 C-10.55314091 6.40266616 -13.71285377 9.16248295 -17 13 C-18.14420508 15.42440175 -18.56325437 17.32493302 -19 20 C-19.99 19.34 -20.98 18.68 -22 18 C-21.45135549 12.96142801 -20.74533439 9.11770757 -16.8125 5.6875 C-15.56428904 4.76040555 -14.29290117 3.86367892 -13 3 C-12.40445312 2.57460937 -11.80890625 2.14921875 -11.1953125 1.7109375 C-7.14205813 -0.93718869 -4.62590364 -1.35392302 0 0 Z " fill="#302C4B" transform="translate(29,10)"/>
<path d="M0 0 C0 0.33 0 0.66 0 1 C-0.86882813 1.04898438 -1.73765625 1.09796875 -2.6328125 1.1484375 C-3.78523438 1.22320312 -4.93765625 1.29796875 -6.125 1.375 C-7.83042969 1.47941406 -7.83042969 1.47941406 -9.5703125 1.5859375 C-12.98175336 1.9977971 -15.82651867 2.69105666 -19 4 C-19.33 4.66 -19.66 5.32 -20 6 C-20.66 5.67 -21.32 5.34 -22 5 C-19.78255353 11.39885414 -19.78255353 11.39885414 -15.0625 16 C-12.36760774 16.87996482 -9.80325898 17.58775603 -7 18 C-7 18.33 -7 18.66 -7 19 C-14.4889165 18.83119246 -20.54235565 17.45764435 -26 12 C-25.91062197 10.47480724 -25.75462854 8.95318071 -25.5625 7.4375 C-25.46066406 6.61121094 -25.35882812 5.78492188 -25.25390625 4.93359375 C-25.17011719 4.29550781 -25.08632813 3.65742187 -25 3 C-16.56247415 -0.33530434 -8.93824669 -0.32177688 0 0 Z " fill="#BBB8EA" transform="translate(56,58)"/>
<path d="M0 0 C3.07692308 5.41538462 3.07692308 5.41538462 2.6875 8.375 C2.460625 8.91125 2.23375 9.4475 2 10 C-0.475 9.01 -0.475 9.01 -3 8 C-3.33 8.99 -3.66 9.98 -4 11 C-7.375 11.125 -7.375 11.125 -11 11 C-11.66 10.34 -12.32 9.68 -13 9 C-12.01 9 -11.02 9 -10 9 C-9.773125 8.2575 -9.54625 7.515 -9.3125 6.75 C-7.29817262 2.52950454 -4.78175657 0 0 0 Z " fill="#4B4364" transform="translate(32,18)"/>
<path d="M0 0 C0.66 0.33 1.32 0.66 2 1 C0.625 2.5 0.625 2.5 -1 4 C-1.66 4 -2.32 4 -3 4 C-2.67 6.31 -2.34 8.62 -2 11 C-2.99 11.33 -3.98 11.66 -5 12 C-5 12.66 -5 13.32 -5 14 C-4.34 14 -3.68 14 -3 14 C-3.25 17.375 -3.25 17.375 -4 21 C-6.046875 22.2265625 -6.046875 22.2265625 -8 23 C-7.87431641 22.00419922 -7.87431641 22.00419922 -7.74609375 20.98828125 C-6.94574958 14.45279152 -6.94574958 14.45279152 -8 8 C-8.66 8 -9.32 8 -10 8 C-10 6.35 -10 4.7 -10 3 C-9.34 3 -8.68 3 -8 3 C-6.375 5 -6.375 5 -5 7 C-5.33 5.02 -5.66 3.04 -6 1 C-4.7934375 1.0309375 -4.7934375 1.0309375 -3.5625 1.0625 C-1.06645115 1.29633621 -1.06645115 1.29633621 0 0 Z " fill="#492148" transform="translate(17,54)"/>
<path d="M0 0 C2.39256506 1.19628253 2.79843378 2.12565265 4.0625 4.4375 C4.57490234 5.36369141 4.57490234 5.36369141 5.09765625 6.30859375 C5.74921553 7.52991482 6.38094352 8.76188703 7 10 C6.01 10.33 5.02 10.66 4 11 C3.67 10.01 3.34 9.02 3 8 C-4.99667955 8.03338906 -9.75573009 10.11634922 -16 15 C-17.33277973 16.00073772 -18.66594914 17.00095742 -20 18 C-19.42304114 14.6536386 -18.5245366 13.23345921 -16 11 C-14.40486807 9.9131474 -12.77658375 8.87398227 -11.125 7.875 C-10.28195313 7.35679688 -9.43890625 6.83859375 -8.5703125 6.3046875 C-6.00531367 5.00269721 -3.83247112 4.41624128 -1 4 C-0.67 2.68 -0.34 1.36 0 0 Z " fill="#443C61" transform="translate(27,1)"/>
<path d="M0 0 C6.875 0.875 6.875 0.875 8 2 C8.375 4.3125 8.375 4.3125 8 7 C4.80118504 10.19881496 1.15508265 12.24563177 -3 14 C-3.66 13.67 -4.32 13.34 -5 13 C-4.360625 12.154375 -3.72125 11.30875 -3.0625 10.4375 C-0.8033727 7.09271435 -0.32208241 4.02603008 0 0 Z " fill="#BFBCEB" transform="translate(65,60)"/>
<path d="M0 0 C3.58629842 2.39086561 5.70000679 5.83126018 8.0625 9.375 C7.7325 10.365 7.4025 11.355 7.0625 12.375 C-3.0570757 8.38657184 -3.0570757 8.38657184 -4.9375 4.375 C-4.9375 3.055 -4.9375 1.735 -4.9375 0.375 C-1.9375 -0.625 -1.9375 -0.625 0 0 Z " fill="#5D5178" transform="translate(75.9375,18.625)"/>
<path d="M0 0 C0.66 0 1.32 0 2 0 C5.07692308 6.4 5.07692308 6.4 4.6875 9.4375 C4.460625 9.953125 4.23375 10.46875 4 11 C2.63875 10.938125 2.63875 10.938125 1.25 10.875 C-1.8782046 10.99531556 -3.38614006 11.3914708 -6 13 C-6.48951049 6.63636364 -6.48951049 6.63636364 -4.125 3.5625 C-2 2 -2 2 0 2 C0 1.34 0 0.68 0 0 Z " fill="#DB5378" transform="translate(51,9)"/>
<path d="M0 0 C1.9375 0.8125 1.9375 0.8125 4 2 C4.33 2.99 4.66 3.98 5 5 C5.66 5.33 6.32 5.66 7 6 C6.67 6.66 6.34 7.32 6 8 C5.34 8 4.68 8 4 8 C3.67 9.32 3.34 10.64 3 12 C3.99 12 4.98 12 6 12 C6.33 12.66 6.66 13.32 7 14 C7.66 14 8.32 14 9 14 C8.67 15.32 8.34 16.64 8 18 C6.68 18 5.36 18 4 18 C4 17.34 4 16.68 4 16 C3.360625 15.773125 2.72125 15.54625 2.0625 15.3125 C-0 14 -0 14 -0.875 11.75 C-1.02536216 8.44203239 -0.08020369 6.10558561 1 3 C0.67 2.01 0.34 1.02 0 0 Z " fill="#96358D" transform="translate(2,26)"/>
<path d="M0 0 C1.1875 1.5625 1.1875 1.5625 2 4 C0.625 7.75 0.625 7.75 -1 11 C-0.01 11 0.98 11 2 11 C2 11.66 2 12.32 2 13 C-0.31 13 -2.62 13 -5 13 C-5.33 16.3 -5.66 19.6 -6 23 C-6.33 23 -6.66 23 -7 23 C-7.06058594 22.11957031 -7.12117188 21.23914063 -7.18359375 20.33203125 C-7.26738281 19.17058594 -7.35117188 18.00914063 -7.4375 16.8125 C-7.51871094 15.66394531 -7.59992188 14.51539063 -7.68359375 13.33203125 C-7.95403812 10.48401829 -8.37521747 7.78789518 -9 5 C-8.01 5 -7.02 5 -6 5 C-5.34 6.32 -4.68 7.64 -4 9 C-3.67 8.01 -3.34 7.02 -3 6 C-2.34 6 -1.68 6 -1 6 C-0.67 4.02 -0.34 2.04 0 0 Z " fill="#191B2C" transform="translate(94,35)"/>
<path d="M0 0 C3.5625 0.125 3.5625 0.125 5.5625 1.125 C5.5625 3.105 5.5625 5.085 5.5625 7.125 C-0.4921875 8.1015625 -0.4921875 8.1015625 -2.4375 8.125 C-4.4375 6.125 -4.4375 6.125 -4.625 3.5625 C-4.33122533 -0.25657073 -3.97596384 0.1445805 0 0 Z " fill="#BEBCD1" transform="translate(50.4375,21.875)"/>
<path d="M0 0 C2.90292752 3.27672915 3.58029064 5.95282609 4.1875 10.25 C4.34605469 11.32765625 4.50460938 12.4053125 4.66796875 13.515625 C4.83232422 14.74539062 4.83232422 14.74539062 5 16 C3.68 16 2.36 16 1 16 C0.27302439 14.25766175 -0.43098244 12.50572655 -1.125 10.75 C-1.51945312 9.77546875 -1.91390625 8.8009375 -2.3203125 7.796875 C-3 5 -3 5 -2.1796875 2.703125 C-1 1 -1 1 0 0 Z " fill="#9D9EBC" transform="translate(89,65)"/>
<path d="M0 0 C1.11375 0.7425 1.11375 0.7425 2.25 1.5 C8.17794925 4.47101495 16.01935708 3.76386836 22.25 2 C23.1575 1.67 24.065 1.34 25 1 C21.05916699 5.15385101 18.56498101 7.11028406 12.8125 7.375 C7.66214535 7.34122718 3.81401728 5.42949783 0 2 C0 1.34 0 0.68 0 0 Z " fill="#F6F6F7" transform="translate(37,67)"/>
<path d="M0 0 C1.41047468 2.63288608 2.63856763 5.01818295 3 8 C2.05219877 11.06212707 1.27795022 12.72204978 -1 15 C-3.625 15.625 -3.625 15.625 -6 16 C-6 13.69 -6 11.38 -6 9 C-3.69 9 -1.38 9 1 9 C1 8.34 1 7.68 1 7 C0.01 7 -0.98 7 -2 7 C-1.34 4.69 -0.68 2.38 0 0 Z " fill="#9A9BB9" transform="translate(95,39)"/>
<path d="M0 0 C1.21236328 0.01353516 1.21236328 0.01353516 2.44921875 0.02734375 C3.37154297 0.04474609 3.37154297 0.04474609 4.3125 0.0625 C4.3125 0.7225 4.3125 1.3825 4.3125 2.0625 C3.054375 2.083125 1.79625 2.10375 0.5 2.125 C-6.71228216 2.8895932 -12.32097237 7.41950673 -17.88671875 11.7890625 C-19.6875 13.0625 -19.6875 13.0625 -21.6875 13.0625 C-20.34606219 9.03818657 -17.69184786 7.69525396 -14.3125 5.4375 C-13.42691406 4.82648437 -13.42691406 4.82648437 -12.5234375 4.203125 C-8.20536855 1.26606008 -5.19992943 -0.0753613 0 0 Z " fill="#090A1C" transform="translate(22.6875,-0.0625)"/>
<path d="M0 0 C0.99 0 1.98 0 3 0 C3.05451714 2.04136395 3.09302485 4.08315856 3.125 6.125 C3.14820313 7.26195313 3.17140625 8.39890625 3.1953125 9.5703125 C2.99672109 13.05757767 2.2524801 15.7553862 1 19 C0.34 19 -0.32 19 -1 19 C-0.505 14.545 -0.505 14.545 0 10 C-0.66 10 -1.32 10 -2 10 C-2 9.34 -2 8.68 -2 8 C-1.34 7.67 -0.68 7.34 0 7 C0 4.69 0 2.38 0 0 Z " fill="#0F1122" transform="translate(14,58)"/>
<path d="M0 0 C4 7.71428571 4 7.71428571 4 12 C1.36 12 -1.28 12 -4 12 C-3.33501617 7.61110675 -1.81242323 4.0188515 0 0 Z " fill="#7C75C4" transform="translate(63,42)"/>
<path d="M0 0 C2.97454134 0.32157204 4.59335278 0.62139742 6.8125 2.6875 C8.3082321 5.60024146 8.22022756 7.76999584 8 11 C5.6875 10.875 5.6875 10.875 3 10 C0.63898051 6.33634907 0 4.40218532 0 0 Z " fill="#282543" transform="translate(81,21)"/>
<path d="M0 0 C0.99 0 1.98 0 3 0 C4.0024305 5.34629602 3.84888195 9.62374766 3 15 C2.34 15 1.68 15 1 15 C-0.97153141 10.07117148 -1.26582874 6.2279653 -1 1 C-0.67 0.67 -0.34 0.34 0 0 Z " fill="#CAD1E0" transform="translate(29,33)"/>
<path d="M0 0 C1.216875 0.495 2.43375 0.99 3.6875 1.5 C2.6975 2.985 2.6975 2.985 1.6875 4.5 C-0.43886813 4.21848084 -2.56358528 3.92446737 -4.6875 3.625 C-5.87085938 3.46257813 -7.05421875 3.30015625 -8.2734375 3.1328125 C-11.3125 2.5 -11.3125 2.5 -13.3125 0.5 C-8.51336547 -2.34393157 -5.07627706 -1.88905548 0 0 Z " fill="#908EB2" transform="translate(67.3125,5.5)"/>
<path d="M0 0 C0.66 0 1.32 0 2 0 C2.33 1.65 2.66 3.3 3 5 C4.0725 4.484375 5.145 3.96875 6.25 3.4375 C8.71477612 2.36759718 9.72132303 1.96427218 12.4375 2.3125 C12.953125 2.539375 13.46875 2.76625 14 3 C8.34724339 6.80946641 3.77386385 7.72740991 -3 8 C-1.125 2.25 -1.125 2.25 0 0 Z " fill="#8984CF" transform="translate(28,51)"/>
<path d="M0 0 C-0.53069061 3.82097239 -1.49701566 6.06171403 -4 9 C-4.99 8.67 -5.98 8.34 -7 8 C-8.1875 4.4375 -8.1875 4.4375 -9 1 C-5.94152152 0.45627049 -3.11227195 0 0 0 Z " fill="#CCC9D9" transform="translate(56,31)"/>
<path d="M0 0 C1.33804688 0.04060547 1.33804688 0.04060547 2.703125 0.08203125 C3.37859375 0.11683594 4.0540625 0.15164062 4.75 0.1875 C5.08 2.1675 5.41 4.1475 5.75 6.1875 C0.47684667 5.7422115 -4.26770224 5.10376837 -9.25 3.1875 C-6.10408067 0.38704377 -4.182936 -0.16511589 0 0 Z " fill="#9893DD" transform="translate(63.25,52.8125)"/>
<path d="M0 0 C-1 3 -1 3 -2.671875 3.95703125 C-3.35765625 4.23933594 -4.0434375 4.52164062 -4.75 4.8125 C-9.08500735 6.81627138 -11.21047041 9.16439682 -14 13 C-14.69921875 11.2265625 -14.69921875 11.2265625 -15 9 C-13.70703125 7.1484375 -13.70703125 7.1484375 -11.8125 5.375 C-11.20019531 4.78460937 -10.58789062 4.19421875 -9.95703125 3.5859375 C-6.44684874 0.74135846 -4.6077577 0 0 0 Z " fill="#554A6F" transform="translate(26,14)"/>
<path d="M0 0 C0 0.66 0 1.32 0 2 C-1.76949612 2.50471197 -3.54065223 3.00360685 -5.3125 3.5 C-6.79169922 3.91765625 -6.79169922 3.91765625 -8.30078125 4.34375 C-11 5 -11 5 -14 5 C-14.33 4.01 -14.66 3.02 -15 2 C-9.52548516 -0.57624228 -5.96182528 -1.98727509 0 0 Z " fill="#0F1024" transform="translate(59,75)"/>
<path d="M0 0 C10.86386139 -0.77970297 10.86386139 -0.77970297 15.1875 2.1875 C16.95732976 4.93378755 17.72298223 6.76812607 18 10 C16.85373678 9.02133662 15.70800212 8.04205413 14.5625 7.0625 C13.92441406 6.51722656 13.28632812 5.97195312 12.62890625 5.41015625 C11.73008851 4.63204305 10.84063472 3.84063472 10 3 C8.88625 3 7.7725 3 6.625 3 C3 3 3 3 0 2 C0 1.34 0 0.68 0 0 Z " fill="#3F385B" transform="translate(77,8)"/>
<path d="M0 0 C0.33 0 0.66 0 1 0 C1.33885038 2.52019972 1.67120335 5.04098516 2 7.5625 C2.09539062 8.26697266 2.19078125 8.97144531 2.2890625 9.69726562 C2.86666417 14.17367855 3.09489383 18.48661238 3 23 C2.01 23 1.02 23 0 23 C-0.33 21.68 -0.66 20.36 -1 19 C-0.34 19 0.32 19 1 19 C0.67 18.34 0.34 17.68 0 17 C-0.25861731 14.4942856 -0.46536319 12.01193223 -0.625 9.5 C-0.6765625 8.81035156 -0.728125 8.12070312 -0.78125 7.41015625 C-1.12345364 2.24690727 -1.12345364 2.24690727 0 0 Z " fill="#131527" transform="translate(97,54)"/>
<path d="M0 0 C0.99 1.485 0.99 1.485 2 3 C3.98 2.34 5.96 1.68 8 1 C8.66 2.32 9.32 3.64 10 5 C7.6875 7.0625 7.6875 7.0625 5 9 C2 8 2 8 0 5 C-0.125 2.3125 -0.125 2.3125 0 0 Z " fill="#060819" transform="translate(0,62)"/>
<path d="M0 0 C0.33 0 0.66 0 1 0 C1.28875 1.093125 1.5775 2.18625 1.875 3.3125 C2.81893204 7.04013845 2.81893204 7.04013845 5 10 C1.37673261 11.2077558 0.35853631 10.54311128 -3 9 C-3 8.01 -3 7.02 -3 6 C-3.66 6 -4.32 6 -5 6 C-4.67 5.01 -4.34 4.02 -4 3 C-4 3.66 -4 4.32 -4 5 C-3.34 5 -2.68 5 -2 5 C-1.34 3.35 -0.68 1.7 0 0 Z " fill="#594E74" transform="translate(67,21)"/>
<path d="M0 0 C0.99 0.33 1.98 0.66 3 1 C4.1875 4.5625 4.1875 4.5625 5 8 C6.98 7.67 8.96 7.34 11 7 C9.02 9.97 9.02 9.97 7 13 C4 12 4 12 2.83203125 10.29296875 C2.49558594 9.59816406 2.15914062 8.90335938 1.8125 8.1875 C1.46832031 7.50042969 1.12414063 6.81335937 0.76953125 6.10546875 C0 4 0 4 0 0 Z " fill="#E84D72" transform="translate(45,31)"/>
<path d="M0 0 C0 0.66 0 1.32 0 2 C-0.64066406 2.06058594 -1.28132813 2.12117187 -1.94140625 2.18359375 C-6.98423313 2.67209412 -11.9912102 3.23779286 -17 4 C-13.68554312 -2.62891377 -6.02874148 -0.98890424 0 0 Z " fill="#2D2E43" transform="translate(54,7)"/>
<path d="M0 0 C0.66 0 1.32 0 2 0 C1.67 1.32 1.34 2.64 1 4 C1.99 4.33 2.98 4.66 4 5 C5.35439668 7.70879335 5.06501451 10.00933268 5 13 C4.01 13 3.02 13 2 13 C2.1546875 11.6078125 2.1546875 11.6078125 2.3125 10.1875 C2.209375 9.135625 2.10625 8.08375 2 7 C-0.39056942 5.0645852 -0.39056942 5.0645852 -3 4 C-3.33 4.99 -3.66 5.98 -4 7 C-4.33 6.34 -4.66 5.68 -5 5 C-4.34 4.01 -3.68 3.02 -3 2 C-2.01 2 -1.02 2 0 2 C0 1.34 0 0.68 0 0 Z " fill="#471A42" transform="translate(17,32)"/>
<path d="M0 0 C1.2065625 0.0309375 1.2065625 0.0309375 2.4375 0.0625 C2.7675 0.7225 3.0975 1.3825 3.4375 2.0625 C1.5 2.625 1.5 2.625 -0.5625 3.0625 C-0.8925 2.7325 -1.2225 2.4025 -1.5625 2.0625 C-1.8925 3.0525 -2.2225 4.0425 -2.5625 5.0625 C-4.9375 6.375 -4.9375 6.375 -7.5625 7.0625 C-8.5525 6.4025 -9.5425 5.7425 -10.5625 5.0625 C-10.2325 4.0725 -9.9025 3.0825 -9.5625 2.0625 C-8.593125 1.918125 -7.62375 1.77375 -6.625 1.625 C-3.51819849 1.05436299 -3.01883152 0.07363004 0 0 Z " fill="#8D8CAF" transform="translate(28.5625,30.9375)"/>
<path d="M0 0 C4.23394447 1.56812758 6.47032152 4.34601998 9 8 C9.3125 11.375 9.3125 11.375 9 14 C7 11 7 11 6 9 C3.98330173 7.86649466 3.98330173 7.86649466 2 7 C2 5.35 2 3.7 2 2 C1.34 2 0.68 2 0 2 C0 1.34 0 0.68 0 0 Z " fill="#080A1C" transform="translate(91,6)"/>
<path d="M0 0 C3.14958831 3.42346555 3.56179109 6.44262737 4 11 C2.35 11 0.7 11 -1 11 C-1.0270043 9.54176788 -1.04639787 8.08339325 -1.0625 6.625 C-1.07410156 5.81289062 -1.08570312 5.00078125 -1.09765625 4.1640625 C-1 2 -1 2 0 0 Z " fill="#1A1C2E" transform="translate(86,70)"/>
<path d="M0 0 C4.455 0.99 4.455 0.99 9 2 C8.34 4.64 7.68 7.28 7 10 C6.5875 9.360625 6.175 8.72125 5.75 8.0625 C3.82189513 5.79009069 2.88575819 5.39803561 0 5 C0 3.35 0 1.7 0 0 Z " fill="#A8AAC4" transform="translate(12,44)"/>
<path d="M0 0 C4.875 1.875 4.875 1.875 6 3 C6.04063832 4.66617115 6.042721 6.33388095 6 8 C1.25 7.125 1.25 7.125 -1 6 C-0.67 4.02 -0.34 2.04 0 0 Z " fill="#AA4688" transform="translate(14,36)"/>
<path d="M0 0 C-0.57621094 0.43183594 -1.15242188 0.86367187 -1.74609375 1.30859375 C-3.17704761 2.38242914 -4.60687092 3.45777404 -6.03515625 4.53515625 C-7.03869141 5.29119141 -7.03869141 5.29119141 -8.0625 6.0625 C-8.73410156 6.56910156 -9.40570313 7.07570313 -10.09765625 7.59765625 C-11.69875045 8.77792898 -13.344963 9.896642 -15 11 C-14.17206264 6.19796334 -11.91518626 4.69633737 -8.125 1.8125 C-4.96824199 -0.01841965 -3.5516285 -0.41783865 0 0 Z " fill="#574B72" transform="translate(22,8)"/>
<path d="M0 0 C0.66 0 1.32 0 2 0 C3.3271261 3.9813783 3.06915913 7.85045227 3 12 C1.68 12 0.36 12 -1 12 C-0.67 8.04 -0.34 4.08 0 0 Z " fill="#A7AAC5" transform="translate(17,69)"/>
<path d="M0 0 C0.33 6.27 0.66 12.54 1 19 C-1 18 -1 18 -2 15 C-2.30540669 11.90775724 -2.50832311 8.81488281 -2.71875 5.71484375 C-2.83496737 3.03617684 -2.83496737 3.03617684 -4 1 C-2 0 -2 0 0 0 Z " fill="#9293B2" transform="translate(97,54)"/>
<path d="M0 0 C0.66 0 1.32 0 2 0 C2.66 2.64 3.32 5.28 4 8 C1.36 8 -1.28 8 -4 8 C-1.125 1.125 -1.125 1.125 0 0 Z " fill="#B0A6C1" transform="translate(51,12)"/>
<path d="M0 0 C2 1 2 1 2.78125 2.9609375 C3.0184375 3.75757812 3.255625 4.55421875 3.5 5.375 C4.41441035 8.42634757 5.19642993 10.2946449 7 13 C4.625 12.8125 4.625 12.8125 2 12 C-0.38038888 8.14603706 -0.17371424 4.4297131 0 0 Z " fill="#0C0E1F" transform="translate(21,68)"/>
<path d="M0 0 C0.66 0 1.32 0 2 0 C2.53341184 1.57914015 3.05125763 3.16354387 3.5625 4.75 C3.85253906 5.63171875 4.14257812 6.5134375 4.44140625 7.421875 C5.01697435 10.07834316 4.89248371 11.47031106 4 14 C3.34 14 2.68 14 2 14 C2 12.35 2 10.7 2 9 C1.34 9 0.68 9 0 9 C0 6.03 0 3.06 0 0 Z " fill="#0C0D20" transform="translate(33,35)"/>
<path d="M0 0 C3.63 0.66 7.26 1.32 11 2 C10.67 2.66 10.34 3.32 10 4 C7.71484375 4.4140625 7.71484375 4.4140625 4.9375 4.625 C4.01839844 4.69976563 3.09929688 4.77453125 2.15234375 4.8515625 C1.08693359 4.92503906 1.08693359 4.92503906 0 5 C-0.33 4.01 -0.66 3.02 -1 2 C-0.67 1.34 -0.34 0.68 0 0 Z " fill="#BEC3D5" transform="translate(54,7)"/>
<path d="M0 0 C0.66 0.99 1.32 1.98 2 3 C2.99 3 3.98 3 5 3 C4.67 3.99 4.34 4.98 4 6 C2.35 6.33 0.7 6.66 -1 7 C-1 6.34 -1 5.68 -1 5 C-1.99 5.33 -2.98 5.66 -4 6 C-4 5.34 -4 4.68 -4 4 C-4.66 3.67 -5.32 3.34 -6 3 C-4.02 2.01 -2.04 1.02 0 0 Z " fill="#373850" transform="translate(60,70)"/>
<path d="M0 0 C0.66 0 1.32 0 2 0 C1.34 3.63 0.68 7.26 0 11 C-0.99 11 -1.98 11 -3 11 C-2.88590407 9.54077307 -2.75834456 8.08259402 -2.625 6.625 C-2.55539063 5.81289062 -2.48578125 5.00078125 -2.4140625 4.1640625 C-2 2 -2 2 0 0 Z " fill="#303148" transform="translate(9,67)"/>
<path d="M0 0 C1.32 0 2.64 0 4 0 C4 0.66 4 1.32 4 2 C3.01 2.33 2.02 2.66 1 3 C0.26676204 5.01508358 0.26676204 5.01508358 0 7 C-1.32 7 -2.64 7 -4 7 C-4 6.34 -4 5.68 -4 5 C-4.99 4.67 -5.98 4.34 -7 4 C-4.625 2.4375 -4.625 2.4375 -2 1 C-1.34 1.33 -0.68 1.66 0 2 C0 1.34 0 0.68 0 0 Z " fill="#9C3B76" transform="translate(13,32)"/>
<path d="M0 0 C2.97 0.495 2.97 0.495 6 1 C6 1.66 6 2.32 6 3 C6.804375 3.2475 7.60875 3.495 8.4375 3.75 C11 5 11 5 11.8125 7.125 C11.874375 7.74375 11.93625 8.3625 12 9 C11.236875 8.360625 10.47375 7.72125 9.6875 7.0625 C7.11753287 4.85767219 7.11753287 4.85767219 4 4 C4 4.66 4 5.32 4 6 C3.34 6 2.68 6 2 6 C2 4.68 2 3.36 2 2 C1.34 1.34 0.68 0.68 0 0 Z " fill="#15152A" transform="translate(69,10)"/>
<path d="M0 0 C1.1875 1.5625 1.1875 1.5625 2 4 C0.625 7.75 0.625 7.75 -1 11 C-0.01 11 0.98 11 2 11 C2 11.66 2 12.32 2 13 C0.02 12.34 -1.96 11.68 -4 11 C-3.67 9.35 -3.34 7.7 -3 6 C-2.34 6 -1.68 6 -1 6 C-0.67 4.02 -0.34 2.04 0 0 Z " fill="#212334" transform="translate(94,35)"/>
<path d="M0 0 C0.76183594 0.41572266 0.76183594 0.41572266 1.5390625 0.83984375 C5.7077298 3.0334683 9.24131553 4.52413155 14 5 C11 7 11 7 8.1875 6.875 C4.52756572 5.87031216 2.03790949 4.24226653 -1 2 C-0.67 1.34 -0.34 0.68 0 0 Z " fill="#1C1D2F" transform="translate(37,69)"/>
<path d="M0 0 C1.9375 0.8125 1.9375 0.8125 4 2 C4.33 2.99 4.66 3.98 5 5 C5.66 5.33 6.32 5.66 7 6 C6.67 6.66 6.34 7.32 6 8 C5.34 8 4.68 8 4 8 C4 8.66 4 9.32 4 10 C3.34 10 2.68 10 2 10 C1.855625 8.906875 1.71125 7.81375 1.5625 6.6875 C1.11711896 3.06877013 1.11711896 3.06877013 0 0 Z " fill="#812D75" transform="translate(2,26)"/>
<path d="M0 0 C0.33 0 0.66 0 1 0 C1.33 4.29 1.66 8.58 2 13 C0.68 12.67 -0.64 12.34 -2 12 C-1.85962479 10.18706911 -1.71255111 8.3746557 -1.5625 6.5625 C-1.48128906 5.55316406 -1.40007813 4.54382812 -1.31640625 3.50390625 C-1 1 -1 1 0 0 Z " fill="#1C1E2F" transform="translate(27,32)"/>
<path d="M0 0 C2 2 2 2 2.1953125 3.9453125 C2.13020833 5.96354167 2.06510417 7.98177083 2 10 C-1.93846154 6.67692308 -1.93846154 6.67692308 -2.25 3.25 C-2.1675 2.5075 -2.085 1.765 -2 1 C-1.34 0.67 -0.68 0.34 0 0 Z " fill="#8D8DAE" transform="translate(91,56)"/>
<path d="M0 0 C2.375 -0.125 2.375 -0.125 5 0 C5.66 0.66 6.32 1.32 7 2 C6.625 4.125 6.625 4.125 6 6 C4.68 6 3.36 6 2 6 C2 4.68 2 3.36 2 2 C1.34 1.34 0.68 0.68 0 0 Z " fill="#53214E" transform="translate(11,49)"/>
<path d="M0 0 C1.84765625 0.33984375 1.84765625 0.33984375 4.0625 0.9375 C5.16271484 1.22947266 5.16271484 1.22947266 6.28515625 1.52734375 C7.13400391 1.76130859 7.13400391 1.76130859 8 2 C7.67 2.99 7.34 3.98 7 5 C7.66 5 8.32 5 9 5 C8.67 6.32 8.34 7.64 8 9 C8 8.34 8 7.68 8 7 C7.34 7 6.68 7 6 7 C6 6.01 6 5.02 6 4 C4.824375 3.814375 4.824375 3.814375 3.625 3.625 C1 3 1 3 -1 1 C-0.67 0.67 -0.34 0.34 0 0 Z " fill="#101127" transform="translate(84,3)"/>
<path d="M0 0 C2.6168821 0.50324656 4.53734125 1.27438702 6.9375 2.5 C9.7172827 3.86152622 11.96160412 4.55317708 15 5 C15 5.33 15 5.66 15 6 C13.41590006 5.88512252 11.83271037 5.75765492 10.25 5.625 C9.36828125 5.55539063 8.4865625 5.48578125 7.578125 5.4140625 C4.95499911 4.99277258 3.21138132 4.46429303 1 3 C0.67 2.01 0.34 1.02 0 0 Z " fill="#B3B0E3" transform="translate(34,71)"/>
<path d="M0 0 C0.99 0 1.98 0 3 0 C2.75 3.375 2.75 3.375 2 7 C0.02 7.99 0.02 7.99 -2 9 C-1.34 6.03 -0.68 3.06 0 0 Z " fill="#9E9FBC" transform="translate(11,68)"/>
<path d="M0 0 C-0.598125 0.28875 -1.19625 0.5775 -1.8125 0.875 C-4.19327792 2.04742026 -4.19327792 2.04742026 -7 4 C-9.04296875 4.1953125 -9.04296875 4.1953125 -11.1875 4.125 C-13.0746875 4.063125 -13.0746875 4.063125 -15 4 C-10.7923604 -0.2076396 -5.6868542 -0.22747417 0 0 Z " fill="#C1C7D8" transform="translate(51,9)"/>
<path d="M0 0 C-0.33 1.32 -0.66 2.64 -1 4 C-1.66 4 -2.32 4 -3 4 C-2.34 6.31 -1.68 8.62 -1 11 C-1.99 11 -2.98 11 -4 11 C-5.125 7.25 -5.125 7.25 -4 5 C-4.66 5 -5.32 5 -6 5 C-4.61551018 2.23102035 -3.26099808 0 0 0 Z " fill="#B74A86" transform="translate(14,51)"/>
<path d="M0 0 C0.99 0.495 0.99 0.495 2 1 C2 1.66 2 2.32 2 3 C2.99 3 3.98 3 5 3 C5 4.32 5 5.64 5 7 C3.35 6.67 1.7 6.34 0 6 C0 4.02 0 2.04 0 0 Z " fill="#8C8BAF" transform="translate(95,74)"/>
<path d="M0 0 C0.99 0.33 1.98 0.66 3 1 C3 2.65 3 4.3 3 6 C1.02 6 -0.96 6 -3 6 C-2.01 4.02 -1.02 2.04 0 0 Z " fill="#2E2A47" transform="translate(16,23)"/>
<path d="M0 0 C1.87184371 3.74368742 2.23999767 4.8400791 2.125 8.75 C2.10695313 9.54921875 2.08890625 10.3484375 2.0703125 11.171875 C2.04710938 11.77515625 2.02390625 12.3784375 2 13 C1.01 12.67 0.02 12.34 -1 12 C-0.67 8.04 -0.34 4.08 0 0 Z " fill="#3B3557" transform="translate(95,18)"/>
<path d="M0 0 C1.32 0.33 2.64 0.66 4 1 C3.67 1.99 3.34 2.98 3 4 C1.02 4.33 -0.96 4.66 -3 5 C-3.33 4.01 -3.66 3.02 -4 2 C-3.34 1.67 -2.68 1.34 -2 1 C-1.34 1.33 -0.68 1.66 0 2 C0 1.34 0 0.68 0 0 Z " fill="#463F62" transform="translate(73,14)"/>
<path d="M0 0 C-1 3 -1 3 -4 5 C-6.1875 4.625 -6.1875 4.625 -8 4 C-4.5 0 -4.5 0 0 0 Z " fill="#5C5077" transform="translate(26,14)"/>
<path d="M0 0 C2.97 0.495 2.97 0.495 6 1 C6 1.99 6 2.98 6 4 C3.36 4 0.72 4 -2 4 C-1.34 2.68 -0.68 1.36 0 0 Z " fill="#23213C" transform="translate(23,9)"/>
<path d="M0 0 C3.3 0.33 6.6 0.66 10 1 C10.33 1.99 10.66 2.98 11 4 C7.37 3.34 3.74 2.68 0 2 C0 1.34 0 0.68 0 0 Z " fill="#0A0C1D" transform="translate(57,6)"/>
<path d="M0 0 C0.99 0.33 1.98 0.66 3 1 C1.75453595 4.73639216 0.36595047 5.18756513 -3 7 C-3 3 -3 3 -1.5 1.25 C-1.005 0.8375 -0.51 0.425 0 0 Z " fill="#3D3E54" transform="translate(75,64)"/>
<path d="M0 0 C0.33 0.66 0.66 1.32 1 2 C0.22265625 4.1640625 0.22265625 4.1640625 -0.9375 6.625 C-1.31777344 7.44226562 -1.69804687 8.25953125 -2.08984375 9.1015625 C-2.39019531 9.72804688 -2.69054687 10.35453125 -3 11 C-3.33 11 -3.66 11 -4 11 C-4.49230769 4.6 -4.49230769 4.6 -2 1.5625 C-1.34 1.046875 -0.68 0.53125 0 0 Z " fill="#B8BBDC" transform="translate(26,48)"/>
<path d="M0 0 C1.40416706 2.62111184 2.6169847 5.03163146 3 8 C2.01 9.485 2.01 9.485 1 11 C1 9.68 1 8.36 1 7 C0.01 7 -0.98 7 -2 7 C-1.34 4.69 -0.68 2.38 0 0 Z " fill="#B2B7CC" transform="translate(95,39)"/>
<path d="M0 0 C4.95 0.33 9.9 0.66 15 1 C14.67 1.66 14.34 2.32 14 3 C10.04 2.67 6.08 2.34 2 2 C1.67 2.66 1.34 3.32 1 4 C0.34 3.67 -0.32 3.34 -1 3 C-0.67 2.01 -0.34 1.02 0 0 Z " fill="#201E3A" transform="translate(75,6)"/>
<path d="M0 0 C1.21816406 0.03480469 1.21816406 0.03480469 2.4609375 0.0703125 C3.68683594 0.09738281 3.68683594 0.09738281 4.9375 0.125 C5.87722656 0.15980469 5.87722656 0.15980469 6.8359375 0.1953125 C5.8459375 1.6803125 5.8459375 1.6803125 4.8359375 3.1953125 C1.8659375 2.8653125 -1.1040625 2.5353125 -4.1640625 2.1953125 C-2.1640625 0.1953125 -2.1640625 0.1953125 0 0 Z " fill="#1A1A33" transform="translate(20.1640625,1.8046875)"/>
<path d="M0 0 C0.66 0.33 1.32 0.66 2 1 C2 3.31 2 5.62 2 8 C1.01 8 0.02 8 -1 8 C-1.33 6.68 -1.66 5.36 -2 4 C-1.34 4 -0.68 4 0 4 C0 2.68 0 1.36 0 0 Z " fill="#0D0F21" transform="translate(98,69)"/>
<path d="M0 0 C1 3 1 3 0 6 C0.66 6 1.32 6 2 6 C2 6.66 2 7.32 2 8 C2.66 8.33 3.32 8.66 4 9 C3.67 9.66 3.34 10.32 3 11 C2.01 10.67 1.02 10.34 0 10 C-1.125 2.25 -1.125 2.25 0 0 Z " fill="#9A3792" transform="translate(1,55)"/>
<path d="M0 0 C2.31 0 4.62 0 7 0 C6.01 0.33 5.02 0.66 4 1 C4 1.66 4 2.32 4 3 C3.401875 3.144375 2.80375 3.28875 2.1875 3.4375 C0.43849596 3.8872439 -1.28677023 4.42892341 -3 5 C-3 4.34 -3 3.68 -3 3 C-2.34 3 -1.68 3 -1 3 C-0.67 2.01 -0.34 1.02 0 0 Z " fill="#4E1C47" transform="translate(9,31)"/>
<path d="M0 0 C0.66 0.33 1.32 0.66 2 1 C1.01 2.485 1.01 2.485 0 4 C-0.66 3.67 -1.32 3.34 -2 3 C-2.2165625 3.928125 -2.2165625 3.928125 -2.4375 4.875 C-3 7 -3 7 -4 9 C-4.66 9 -5.32 9 -6 9 C-4.68775452 5.06326356 -3.08089673 2.77280706 0 0 Z " fill="#101123" transform="translate(69,17)"/>
<path d="M0 0 C0.33 0.66 0.66 1.32 1 2 C2.32 2 3.64 2 5 2 C5 2.66 5 3.32 5 4 C5.99 4 6.98 4 8 4 C7.67 4.66 7.34 5.32 7 6 C4.9375 6.625 4.9375 6.625 3 7 C2.67 5.68 2.34 4.36 2 3 C1.34 3 0.68 3 0 3 C0 2.01 0 1.02 0 0 Z " fill="#772963" transform="translate(1,58)"/>
<path d="M0 0 C0.66 0 1.32 0 2 0 C2.433125 1.423125 2.433125 1.423125 2.875 2.875 C3.76825109 6.05211578 3.76825109 6.05211578 6 8 C4.68 8 3.36 8 2 8 C2 7.01 2 6.02 2 5 C1.34 5 0.68 5 0 5 C0 3.35 0 1.7 0 0 Z " fill="#41163D" transform="translate(7,57)"/>
<path d="M0 0 C0.66 0.33 1.32 0.66 2 1 C2 3.64 2 6.28 2 9 C1.34 9 0.68 9 0 9 C-1.125 2.25 -1.125 2.25 0 0 Z " fill="#0D0E22" transform="translate(69,50)"/>
<path d="M0 0 C0.66 0 1.32 0 2 0 C2.66 1.98 3.32 3.96 4 6 C1.03 5.505 1.03 5.505 -2 5 C-1.34 3.35 -0.68 1.7 0 0 Z " fill="#7872BF" transform="translate(28,51)"/>
<path d="M0 0 C4.6875 3.61328125 4.6875 3.61328125 6 5 C6 5.99 6 6.98 6 8 C5.01 8 4.02 8 3 8 C0 2.25 0 2.25 0 0 Z " fill="#413A5D" transform="translate(81,23)"/>
<path d="M0 0 C0 3.34419152 -0.47519394 4.06840321 -2.375 6.6875 C-2.81585937 7.31011719 -3.25671875 7.93273437 -3.7109375 8.57421875 C-4.13632813 9.04472656 -4.56171875 9.51523437 -5 10 C-5.66 10 -6.32 10 -7 10 C-5.33248852 6.05860922 -2.77289351 3.2107188 0 0 Z " fill="#0D0E21" transform="translate(18,19)"/>
<path d="M0 0 C1.65 0 3.3 0 5 0 C5.33 0.99 5.66 1.98 6 3 C3.36 3.33 0.72 3.66 -2 4 C-1.34 2.68 -0.68 1.36 0 0 Z " fill="#07091A" transform="translate(7,77)"/>
<path d="M0 0 C0.66 0.99 1.32 1.98 2 3 C1.67 3.33 1.34 3.66 1 4 C0.95907063 6.33297433 0.95758277 8.66705225 1 11 C0.34 11 -0.32 11 -1 11 C-2.26264601 6.70700357 -1.62950412 4.12168689 0 0 Z " fill="#282A3E" transform="translate(95,70)"/>
<path d="M0 0 C0.66 0.99 1.32 1.98 2 3 C0.515 5.475 0.515 5.475 -1 8 C-1.185625 7.071875 -1.185625 7.071875 -1.375 6.125 C-1.87197356 3.80879168 -1.87197356 3.80879168 -4 2 C-2.68 1.34 -1.36 0.68 0 0 Z " fill="#222336" transform="translate(63,64)"/>
<path d="M0 0 C0.99 1.485 0.99 1.485 2 3 C3.98 2.34 5.96 1.68 8 1 C7 4 7 4 4 6 C1.8125 5.625 1.8125 5.625 0 5 C0 3.35 0 1.7 0 0 Z " fill="#41163D" transform="translate(0,62)"/>
<path d="M0 0 C0.66 0 1.32 0 2 0 C1.8125 2.375 1.8125 2.375 1 5 C-1.5625 6.3125 -1.5625 6.3125 -4 7 C-4 6.01 -4 5.02 -4 4 C-3.01 3.67 -2.02 3.34 -1 3 C-0.67 2.01 -0.34 1.02 0 0 Z " fill="#1C1E30" transform="translate(23,56)"/>
<path d="M0 0 C2.31 0.66 4.62 1.32 7 2 C7 2.99 7 3.98 7 5 C1.25 3.25 1.25 3.25 -1 1 C-0.67 0.67 -0.34 0.34 0 0 Z " fill="#50234D" transform="translate(13,42)"/>
<path d="M0 0 C0.99 0.33 1.98 0.66 3 1 C1.35 2.65 -0.3 4.3 -2 6 C-2.66 5.34 -3.32 4.68 -4 4 C-2.68 2.68 -1.36 1.36 0 0 Z " fill="#E75679" transform="translate(53,38)"/>
<path d="M0 0 C1.32 0.33 2.64 0.66 4 1 C3.67 2.98 3.34 4.96 3 7 C2.34 6.67 1.68 6.34 1 6 C0.375 2.9375 0.375 2.9375 0 0 Z " fill="#111325" transform="translate(34,63)"/>
<path d="M0 0 C0.99 0.99 1.98 1.98 3 3 C2.34 3.66 1.68 4.32 1 5 C-1.125 4.625 -1.125 4.625 -3 4 C-3 3.34 -3 2.68 -3 2 C-2.01 1.34 -1.02 0.68 0 0 Z " fill="#1E2035" transform="translate(50,51)"/>
<path d="M0 0 C3.875 4.75 3.875 4.75 5 7 C3.68 7 2.36 7 1 7 C0.67 4.69 0.34 2.38 0 0 Z " fill="#7A73C2" transform="translate(70,46)"/>
<path d="M0 0 C0.99 0.33 1.98 0.66 3 1 C3 2.65 3 4.3 3 6 C2.01 6 1.02 6 0 6 C0 4.02 0 2.04 0 0 Z " fill="#DE6A9C" transform="translate(17,38)"/>
<path d="M0 0 C0.33 0 0.66 0 1 0 C0.67 2.97 0.34 5.94 0 9 C-0.66 8.34 -1.32 7.68 -2 7 C-1.6730244 4.38419521 -1.17960932 2.35921863 0 0 Z " fill="#373151" transform="translate(6,16)"/>
</svg>
