<?xml version="1.0" encoding="UTF-8"?>
<svg version="1.1" xmlns="http://www.w3.org/2000/svg" width="250" height="87">
<path d="M0 0 C0.08226668 3.04386724 -0.02391783 5.07175348 -1 8 C-0.7201859 10.46615819 -0.39448654 11.62820995 1.42578125 13.34375 C6.49485826 16.45026511 11.56207752 18.27786627 17.23828125 20.015625 C19.69029896 20.88961151 21.29022101 21.72937543 23.3125 23.3125 C25.92101438 25.28250182 25.92101438 25.28250182 29.1875 25 C32.36383335 24.16686338 35.25528226 23.17121581 38.3125 22 C46.73401454 18.83185157 54.17333045 18.71870926 63 20 C63.17015625 19.13181641 63.17015625 19.13181641 63.34375 18.24609375 C64.96274144 12.70490282 69.15053562 8.17679502 73.875 5 C81.44844936 1.25797527 90.71336339 1.59286494 98.59375 4.1796875 C103.91760791 6.67363065 107.41398947 8.55877279 110 14 C110.6875 16.8125 110.6875 16.8125 111 19 C111.65226563 18.855625 112.30453125 18.71125 112.9765625 18.5625 C117.75430276 17.54775871 122.09458446 16.87736461 127 17 C129.35785318 16.10664203 129.35785318 16.10664203 130.125 12.9375 C130.41375 11.968125 130.7025 10.99875 131 10 C133.64 10.33 136.28 10.66 139 11 C139 11.66 139 12.32 139 13 C139.61875 13.144375 140.2375 13.28875 140.875 13.4375 C143 14 143 14 145 15 C145 15.66 145 16.32 145 17 C145.95261719 16.83242188 146.90523437 16.66484375 147.88671875 16.4921875 C149.14097656 16.28851562 150.39523438 16.08484375 151.6875 15.875 C153.54955078 15.56175781 153.54955078 15.56175781 155.44921875 15.2421875 C159.03701724 14.99747517 160.84813727 15.37284333 164 17 C164 17.66 164 18.32 164 19 C164.99 19.33 165.98 19.66 167 20 C169 23 169 23 168.6875 26 C168 29 168 29 167 32 C168.65697379 32.69040574 170.3255761 33.3530635 172 34 C172.56332031 34.23332031 173.12664062 34.46664062 173.70703125 34.70703125 C179.31094509 35.42303387 186.38517615 32.13548343 191 29 C193.03678427 26.22293068 194.09760858 23.85222575 195.140625 20.5859375 C196.03545056 17.89332603 197.19204092 16.16345665 199 14 C200.65 14.33 202.3 14.66 204 15 C203.814375 15.495 203.62875 15.99 203.4375 16.5 C202.79860704 20.15081689 203.45094709 23.33964724 204 27 C205.485 26.7215625 205.485 26.7215625 207 26.4375 C211 26 211 26 219 27 C219 41.85 219 56.7 219 72 C201.58928571 72 201.58928571 72 192 67 C192 67.99 192 68.98 192 70 C188.34543185 70.75241109 184.68266103 71.40049704 181 72 C181.20625 72.78375 181.4125 73.5675 181.625 74.375 C181.74875 75.24125 181.8725 76.1075 182 77 C180 79 180 79 176.375 79.125 C175.26125 79.08375 174.1475 79.0425 173 79 C171.875 75.25 171.875 75.25 173 73 C168.73163879 72.45675403 164.46226399 71.92804669 160.1875 71.4375 C159.45917969 71.35371094 158.73085937 71.26992187 157.98046875 71.18359375 C155.83362806 70.9538468 155.83362806 70.9538468 153 71 C152.7525 71.556875 152.505 72.11375 152.25 72.6875 C150.15311495 76.56673733 148.5588186 79.46858457 144.25 80.9375 C141.37652138 80.9927592 139.74359036 80.72575094 137.0625 79.9375 C132.74923701 78.68258148 130.15799776 79.44075084 126 81 C126 81.66 126 82.32 126 83 C125.071875 83.185625 125.071875 83.185625 124.125 83.375 C121.80879168 83.87197356 121.80879168 83.87197356 120 86 C118.68 86 117.36 86 116 86 C116 84.02 116 82.04 116 80 C115.11248047 80.39832031 115.11248047 80.39832031 114.20703125 80.8046875 C112.57422811 81.53452121 110.9386775 82.25823164 109.30078125 82.9765625 C107.68299021 83.69619111 106.08369522 84.45815239 104.5 85.25 C97.21427484 87.43571755 91.83380753 85.9108823 85.26171875 82.38671875 C83.0647709 81.03971273 81.03064068 79.58455028 79 78 C78.60167969 78.48855469 78.20335938 78.97710937 77.79296875 79.48046875 C74.92566848 81.91049011 72.25039273 81.33710943 68.6328125 81.2421875 C66.19673462 81.01809725 64.0393072 80.59028299 61.6875 79.9375 C58.16603691 79.04221277 56.40579807 78.9356881 53 80 C51 77 51 77 51 71 C46.71 71 42.42 71 38 71 C38 70.34 38 69.68 38 69 C37.154375 68.99742188 36.30875 68.99484375 35.4375 68.9921875 C28.3602892 68.75091895 23.77764801 68.07526338 18.29296875 63.47265625 C17 62 17 62 17 60 C14.37795075 58.21700651 12.96638043 58.00129306 9.75 58.125 C5.98606419 59.00325169 3.27397645 60.34404734 -0.08984375 62.15234375 C-2.76552504 63.33971152 -5.10761059 63.12575606 -8 63 C-8.86625 63.309375 -9.7325 63.61875 -10.625 63.9375 C-17.29368021 66.03689933 -24.17972923 66.4801072 -31 65 C-31.05787784 61.37506666 -31.0935542 57.75025143 -31.125 54.125 C-31.14175781 53.09246094 -31.15851562 52.05992188 -31.17578125 50.99609375 C-31.18222656 50.00996094 -31.18867188 49.02382813 -31.1953125 48.0078125 C-31.20578613 47.09660645 -31.21625977 46.18540039 -31.22705078 45.24658203 C-31 43 -31 43 -29 41 C-29.66 40.67 -30.32 40.34 -31 40 C-31 28.45 -31 16.9 -31 5 C-23.125 1.625 -23.125 1.625 -20 1 C-19.64808594 1.93585938 -19.64808594 1.93585938 -19.2890625 2.890625 C-17.63176925 5.60255941 -16.3858401 5.88975997 -13.375 6.75 C-12.55773437 6.99234375 -11.74046875 7.2346875 -10.8984375 7.484375 C-10.27195312 7.65453125 -9.64546875 7.8246875 -9 8 C-8.773125 7.236875 -8.54625 6.47375 -8.3125 5.6875 C-6.58459606 2.14941098 -4.0788835 0 0 0 Z M144 48 C144 48.99 144 49.98 144 51 C144.99 50.67 145.98 50.34 147 50 C146.01 49.34 145.02 48.68 144 48 Z M32 49 C32 49.66 32 50.32 32 51 C32.66 50.67 33.32 50.34 34 50 C33.34 49.67 32.68 49.34 32 49 Z " fill="#5F306F" transform="translate(31,1)"/>
<path d="M0 0 C0.08226668 3.04386724 -0.02391783 5.07175348 -1 8 C-0.7201859 10.46615819 -0.39448654 11.62820995 1.42578125 13.34375 C6.49485826 16.45026511 11.56207752 18.27786627 17.23828125 20.015625 C19.69029896 20.88961151 21.29022101 21.72937543 23.3125 23.3125 C25.92101438 25.28250182 25.92101438 25.28250182 29.1875 25 C32.36383335 24.16686338 35.25528226 23.17121581 38.3125 22 C46.73401454 18.83185157 54.17333045 18.71870926 63 20 C63.495 21.98 63.495 21.98 64 24 C65.98 24.495 65.98 24.495 68 25 C66 28 66 28 62.25 28.9375 C58.99969603 30.01305513 58.09802511 30.84718356 56.2109375 33.7890625 C55.17195081 35.93357198 54.17515338 38.09915772 53.2265625 40.28515625 C52 43 52 43 50 45 C46.875 45.125 46.875 45.125 44 45 C44.19471111 46.94999129 44.19471111 46.94999129 45 49 C47.77599941 50.63585679 50.69319197 51.6360327 53.75 52.625 C54.54921875 52.88539062 55.3484375 53.14578125 56.171875 53.4140625 C56.77515625 53.60742188 57.3784375 53.80078125 58 54 C57.38125 54.721875 56.7625 55.44375 56.125 56.1875 C52.53945089 60.9330797 51.6904989 65.13075938 51 71 C46.71 71 42.42 71 38 71 C38 70.34 38 69.68 38 69 C37.154375 68.99742188 36.30875 68.99484375 35.4375 68.9921875 C28.3602892 68.75091895 23.77764801 68.07526338 18.29296875 63.47265625 C17 62 17 62 17 60 C14.37795075 58.21700651 12.96638043 58.00129306 9.75 58.125 C5.98606419 59.00325169 3.27397645 60.34404734 -0.08984375 62.15234375 C-2.76552504 63.33971152 -5.10761059 63.12575606 -8 63 C-8.86625 63.309375 -9.7325 63.61875 -10.625 63.9375 C-17.29368021 66.03689933 -24.17972923 66.4801072 -31 65 C-31.05787784 61.37506666 -31.0935542 57.75025143 -31.125 54.125 C-31.14175781 53.09246094 -31.15851562 52.05992188 -31.17578125 50.99609375 C-31.18222656 50.00996094 -31.18867188 49.02382813 -31.1953125 48.0078125 C-31.20578613 47.09660645 -31.21625977 46.18540039 -31.22705078 45.24658203 C-31 43 -31 43 -29 41 C-29.66 40.67 -30.32 40.34 -31 40 C-31 28.45 -31 16.9 -31 5 C-23.125 1.625 -23.125 1.625 -20 1 C-19.64808594 1.93585938 -19.64808594 1.93585938 -19.2890625 2.890625 C-17.63176925 5.60255941 -16.3858401 5.88975997 -13.375 6.75 C-12.55773437 6.99234375 -11.74046875 7.2346875 -10.8984375 7.484375 C-10.27195312 7.65453125 -9.64546875 7.8246875 -9 8 C-8.773125 7.236875 -8.54625 6.47375 -8.3125 5.6875 C-6.58459606 2.14941098 -4.0788835 0 0 0 Z M32 49 C32 49.66 32 50.32 32 51 C32.66 50.67 33.32 50.34 34 50 C33.34 49.67 32.68 49.34 32 49 Z " fill="#658A2D" transform="translate(31,1)"/>
<path d="M0 0 C1.65 0.33 3.3 0.66 5 1 C4.7215625 1.7425 4.7215625 1.7425 4.4375 2.5 C3.79860704 6.15081689 4.45094709 9.33964724 5 13 C5.99 12.814375 6.98 12.62875 8 12.4375 C12 12 12 12 20 13 C20 27.85 20 42.7 20 58 C2.58928571 58 2.58928571 58 -7 53 C-7 53.99 -7 54.98 -7 56 C-10.65456815 56.75241109 -14.31733897 57.40049704 -18 58 C-17.690625 59.175625 -17.690625 59.175625 -17.375 60.375 C-17.25125 61.24125 -17.1275 62.1075 -17 63 C-19 65 -19 65 -22.625 65.125 C-23.73875 65.08375 -24.8525 65.0425 -26 65 C-27.125 61.25 -27.125 61.25 -26 59 C-30.26836121 58.45675403 -34.53773601 57.92804669 -38.8125 57.4375 C-39.54082031 57.35371094 -40.26914063 57.26992187 -41.01953125 57.18359375 C-43.16637194 56.9538468 -43.16637194 56.9538468 -46 57 C-46.2475 57.556875 -46.495 58.11375 -46.75 58.6875 C-48.84688505 62.56673733 -50.4411814 65.46858457 -54.75 66.9375 C-57.62347862 66.9927592 -59.25640964 66.72575094 -61.9375 65.9375 C-66.25076299 64.68258148 -68.84200224 65.44075084 -73 67 C-73 67.66 -73 68.32 -73 69 C-73.61875 69.12375 -74.2375 69.2475 -74.875 69.375 C-77.19120832 69.87197356 -77.19120832 69.87197356 -79 72 C-80.32 72 -81.64 72 -83 72 C-83 70.02 -83 68.04 -83 66 C-83.99 65.67 -84.98 65.34 -86 65 C-85.34 64.34 -84.68 63.68 -84 63 C-83.896875 62.01 -83.79375 61.02 -83.6875 60 C-83.460625 59.01 -83.23375 58.02 -83 57 C-79.11347351 54.83607316 -75.81198339 54.84074691 -71.4375 55 C-61.65965107 55.10238585 -53.31958842 54.87594778 -45.42578125 48.6328125 C-43.80368454 46.77517845 -43.39122212 45.40992825 -43 43 C-44.0725 42.896875 -45.145 42.79375 -46.25 42.6875 C-49.84739269 42.02797801 -51.45776191 41.54223809 -54 39 C-54 38.34 -54 37.68 -54 37 C-52.906875 37.04125 -51.81375 37.0825 -50.6875 37.125 C-46.39077383 36.97934827 -44.98683086 35.98683086 -42 33 C-40.68 33.66 -39.36 34.32 -38 35 C-38 33.68 -38 32.36 -38 31 C-36.68 30.34 -35.36 29.68 -34 29 C-34.2475 27.9790625 -34.2475 27.9790625 -34.5 26.9375 C-35.07089059 23.5835178 -35.06659023 20.39610195 -35 17 C-34.01 16.67 -33.02 16.34 -32 16 C-32 16.66 -32 17.32 -32 18 C-30.34302621 18.69040574 -28.6744239 19.3530635 -27 20 C-26.43667969 20.23332031 -25.87335938 20.46664062 -25.29296875 20.70703125 C-19.68905491 21.42303387 -12.61482385 18.13548343 -8 15 C-5.96321573 12.22293068 -4.90239142 9.85222575 -3.859375 6.5859375 C-2.96454944 3.89332603 -1.80795908 2.16345665 0 0 Z " fill="#364225" transform="translate(230,15)"/>
<path d="M0 0 C0.08226668 3.04386724 -0.02391783 5.07175348 -1 8 C-0.7201859 10.46615819 -0.39448654 11.62820995 1.42578125 13.34375 C6.49485826 16.45026511 11.56207752 18.27786627 17.23828125 20.015625 C19.69029896 20.88961151 21.29022101 21.72937543 23.3125 23.3125 C25.92101438 25.28250182 25.92101438 25.28250182 29.1875 25 C32.36383335 24.16686338 35.25528226 23.17121581 38.3125 22 C46.73401454 18.83185157 54.17333045 18.71870926 63 20 C63.495 21.98 63.495 21.98 64 24 C65.98 24.495 65.98 24.495 68 25 C66 28 66 28 64.0546875 28.51171875 C63.33539063 28.56972656 62.61609375 28.62773437 61.875 28.6875 C60.59625 28.790625 59.3175 28.89375 58 29 C57.505 27.515 57.505 27.515 57 26 C56.34 26 55.68 26 55 26 C55 25.01 55 24.02 55 23 C53.22992286 22.91885894 51.45877902 22.86074495 49.6875 22.8125 C48.70136719 22.77769531 47.71523437 22.74289063 46.69921875 22.70703125 C43.56352148 23.04737466 42.96952948 23.65504701 41 26 C36.74401295 28.21665992 33.05560957 29.21558479 28.3125 29.9375 C23.82912555 30.65826047 22.01983387 31.53278333 19 35 C15.75 35.75 15.75 35.75 13 36 C13 36.66 13 37.32 13 38 C4.28411248 40.30484317 -4.25001754 42.38414835 -13.23046875 43.41015625 C-16.09568034 43.8480361 -16.09568034 43.8480361 -18.53125 45.640625 C-21 47 -21 47 -23.67578125 46.63671875 C-24.54589844 46.32347656 -25.41601562 46.01023438 -26.3125 45.6875 C-27.19550781 45.38199219 -28.07851563 45.07648437 -28.98828125 44.76171875 C-29.98408203 44.38466797 -29.98408203 44.38466797 -31 44 C-30.34 43.01 -29.68 42.02 -29 41 C-29.66 40.67 -30.32 40.34 -31 40 C-31 28.45 -31 16.9 -31 5 C-23.125 1.625 -23.125 1.625 -20 1 C-19.64808594 1.93585938 -19.64808594 1.93585938 -19.2890625 2.890625 C-17.63176925 5.60255941 -16.3858401 5.88975997 -13.375 6.75 C-12.55773437 6.99234375 -11.74046875 7.2346875 -10.8984375 7.484375 C-10.27195312 7.65453125 -9.64546875 7.8246875 -9 8 C-8.773125 7.236875 -8.54625 6.47375 -8.3125 5.6875 C-6.58459606 2.14941098 -4.0788835 0 0 0 Z " fill="#374225" transform="translate(31,1)"/>
<path d="M0 0 C4.06688261 3.30434212 6.70508951 6.38793564 7.30078125 11.6640625 C7.32760046 18.44038207 6.85350441 24.75632292 4 31 C2 32 2 32 0 32 C1.2375 32.680625 1.2375 32.680625 2.5 33.375 C3.325 33.91125 4.15 34.4475 5 35 C5 35.66 5 36.32 5 37 C9.22454142 37.21905079 9.22454142 37.21905079 13.19140625 35.96484375 C19.23556171 33.8884788 26.88849652 35.36730259 33 37 C36.6364918 38.77946274 39.65092797 40.66043606 42 44 C42.27734375 46.66796875 42.27734375 46.66796875 42 49 C40.19142312 50.80857688 37.63564081 50.34166531 35.1875 50.4375 C28.64616494 50.41607641 24.62075778 48.64396034 19.01171875 45.46875 C14.21860078 43.13125018 9.26185639 42.54111289 4 42 C5.00738866 46.41083844 5.00738866 46.41083844 8.1875 49.3125 C10 51 10 51 10.140625 52.96875 C9.55835789 59.68721668 7.23782289 64.75317165 3 70 C-0.25 70 -0.25 70 -4 69 C-7.76431257 65.0404205 -8.29856879 60.07570249 -8.5 54.8125 C-8.34673571 49.94482626 -7.6503658 47.42913151 -4 44 C-3.67 43.01 -3.34 42.02 -3 41 C-1.02 41 0.96 41 3 41 C3 40.34 3 39.68 3 39 C0.43851555 38.92884765 -1.71212955 38.9177513 -4.1875 39.625 C-4.785625 39.74875 -5.38375 39.8725 -6 40 C-6.66 39.34 -7.32 38.68 -8 38 C-6.515 37.505 -6.515 37.505 -5 37 C-5 36.34 -5 35.68 -5 35 C-5.66 34.67 -6.32 34.34 -7 34 C-7 33.34 -7 32.68 -7 32 C-7.598125 31.505 -8.19625 31.01 -8.8125 30.5 C-11.18813323 27.78499059 -11.51206369 26.37437342 -12.3125 22.9375 C-13.19014928 19.32265348 -13.19014928 19.32265348 -15.671875 16.75390625 C-17.79099819 15.87375364 -17.79099819 15.87375364 -21 15 C-21.66 14.34 -22.32 13.68 -23 13 C-22.85273779 9.0239204 -22.56417723 6.70977135 -20.0625 3.5625 C-18 2 -18 2 -16 2 C-16 1.34 -16 0.68 -16 0 C-10.2740989 -4.06840342 -5.98710375 -2.788651 0 0 Z " fill="#C4255C" transform="translate(129,11)"/>
<path d="M0 0 C4.0042343 3.49087093 5.62671065 5.64951939 6 11 C5.34 11 4.68 11 4 11 C4.83333333 13.16666667 4.83333333 13.16666667 7 14 C4.53606281 15.55136786 3.31910854 16.03039129 0.375 15.75 C-2 15 -2 15 -4 13 C-3.66334085 15.48248124 -3.66334085 15.48248124 -2 18 C0.90755893 19.36075884 3.89287788 20.21362959 7 21 C7 23.79859125 6.44351522 25.50301993 4.57421875 27.59765625 C-3.9820871 34.80762826 -14.60041996 34.24064518 -25.26171875 33.97265625 C-27.91296488 33.67962791 -27.91296488 33.67962791 -29 35 C-30.3921875 34.9071875 -30.3921875 34.9071875 -31.8125 34.8125 C-35.01865939 34.72326321 -35.01865939 34.72326321 -37.25 36.5625 C-39.41170818 39.57345068 -40.17171046 42.41074531 -41 46 C-48.32779895 47.93643356 -55.15466964 48.97182414 -62 45 C-66.65450524 39.25702471 -65.63569896 31.9557293 -65 25 C-64.00587682 20.6192305 -62.44618351 18.10122231 -58.87109375 15.37890625 C-53.03111253 11.82873645 -53.03111253 11.82873645 -49.71875 12.37890625 C-49.1515625 12.58386719 -48.584375 12.78882813 -48 13 C-48 13.66 -48 14.32 -48 15 C-49.98 15 -51.96 15 -54 15 C-54.1546875 15.86625 -54.1546875 15.86625 -54.3125 16.75 C-55 19 -55 19 -56.51953125 20.76953125 C-58.42606571 23.64190902 -58.40090176 25.51415035 -58.375 28.9375 C-58.38273437 29.95714844 -58.39046875 30.97679688 -58.3984375 32.02734375 C-57.95095461 35.36591709 -56.7952883 37.19308099 -55 40 C-55 40.99 -55 41.98 -55 43 C-52.69 43 -50.38 43 -48 43 C-42.77668438 34.59944485 -42.77668438 34.59944485 -42 25 C-43.64639965 23.64172029 -45.31295807 22.30745749 -47 21 C-47.3125 18.25 -47.3125 18.25 -47 16 C-42.11481652 14.37160551 -37.74950625 16.33735911 -33 18 C-31.35981864 18.86772546 -29.73397558 19.76319488 -28.125 20.6875 C-22.24800367 23.8534948 -16.51550579 23.45955762 -10 23 C-9.67 21.35 -9.34 19.7 -9 18 C-9.556875 17.7525 -10.11375 17.505 -10.6875 17.25 C-13 16 -13 16 -15 13.9375 C-19.64199229 10.93954665 -24.57822635 11.17294334 -30 11 C-30.495 9.02 -30.495 9.02 -31 7 C-25.46656517 4.23328259 -18.60710027 6.39797135 -13 8 C-13 8.66 -13 9.32 -13 10 C-11.68 10 -10.36 10 -9 10 C-9.66 9.34 -10.32 8.68 -11 8 C-9.68 8 -8.36 8 -7 8 C-7 7.34 -7 6.68 -7 6 C-7.99 6 -8.98 6 -10 6 C-10.495 4.02 -10.495 4.02 -11 2 C-9.02 1.67 -7.04 1.34 -5 1 C-5 1.99 -5 2.98 -5 4 C-3.35 2.68 -1.7 1.36 0 0 Z " fill="#5A356A" transform="translate(180,37)"/>
<path d="M0 0 C-1.125 1.5 -1.125 1.5 -3 3 C-6.1875 3.1875 -6.1875 3.1875 -9 3 C-8.80528889 4.94999129 -8.80528889 4.94999129 -8 7 C-5.22400059 8.63585679 -2.30680803 9.6360327 0.75 10.625 C1.54921875 10.88539062 2.3484375 11.14578125 3.171875 11.4140625 C3.77515625 11.60742188 4.3784375 11.80078125 5 12 C4.38125 12.721875 3.7625 13.44375 3.125 14.1875 C-0.46054911 18.9330797 -1.3095011 23.13075938 -2 29 C-6.29 29 -10.58 29 -15 29 C-15 28.34 -15 27.68 -15 27 C-15.845625 26.99742188 -16.69125 26.99484375 -17.5625 26.9921875 C-24.6397108 26.75091895 -29.22235199 26.07526338 -34.70703125 21.47265625 C-36 20 -36 20 -36 18 C-38.62204925 16.21700651 -40.03361957 16.00129306 -43.25 16.125 C-47.01393581 17.00325169 -49.72602355 18.34404734 -53.08984375 20.15234375 C-55.76552504 21.33971152 -58.10761059 21.12575606 -61 21 C-62.299375 21.4640625 -62.299375 21.4640625 -63.625 21.9375 C-70.18900017 24.0039445 -77.28611839 24.63843349 -84 23 C-84 22.34 -84 21.68 -84 21 C-77.73 21 -71.46 21 -65 21 C-65 20.34 -65 19.68 -65 19 C-61.7 18.34 -58.4 17.68 -55 17 C-56.299375 16.236875 -57.59875 15.47375 -58.9375 14.6875 C-62.875 12.375 -62.875 12.375 -64 9 C-63.01 8.34 -62.02 7.68 -61 7 C-61 6.34 -61 5.68 -61 5 C-58.6875 5.25 -58.6875 5.25 -56 6 C-55.566875 6.680625 -55.13375 7.36125 -54.6875 8.0625 C-53.20790691 10.19198529 -53.20790691 10.19198529 -51.0390625 10.26171875 C-49.02418008 10.25111411 -47.01059227 10.13184212 -45 10 C-45 10.66 -45 11.32 -45 12 C-40.68314188 12.35650893 -38.461497 11.37799962 -34.8125 9.125 C-28.02408515 5.24067085 -21.77897295 3.86256232 -14 4 C-14 3.34 -14 2.68 -14 2 C-12.04396149 1.47061343 -10.08507711 0.95173199 -8.125 0.4375 C-7.03445312 0.14746094 -5.94390625 -0.14257812 -4.8203125 -0.44140625 C-2 -1 -2 -1 0 0 Z M-21 7 C-21 7.66 -21 8.32 -21 9 C-20.34 8.67 -19.68 8.34 -19 8 C-19.66 7.67 -20.32 7.34 -21 7 Z " fill="#3B4B25" transform="translate(84,43)"/>
<path d="M0 0 C0.33 0 0.66 0 1 0 C2.19287411 3.87684087 3 6.91621923 3 11 C3.69480469 10.83628906 4.38960937 10.67257813 5.10546875 10.50390625 C8.2352816 9.95904004 11.13798083 9.90261517 14.3125 9.9375 C16.189375 9.958125 18.06625 9.97875 20 10 C20 14.29 20 18.58 20 23 C13.66666667 23 7.33333333 23 1 23 C-0.34789347 23.98028616 -1.68212715 24.97971135 -3 26 C-3.66 26 -4.32 26 -5 26 C-5.66 25.01 -6.32 24.02 -7 23 C-9.05925139 22.27617533 -9.05925139 22.27617533 -11 22 C-11 22.99 -11 23.98 -11 25 C-10.21625 25.309375 -9.4325 25.61875 -8.625 25.9375 C-6 27 -6 27 -4 28 C-4 28.99 -4 29.98 -4 31 C-7.37462715 30.45276317 -9.08235 29.9451 -12 28 C-12.99 28.33 -13.98 28.66 -15 29 C-14.67 29.66 -14.34 30.32 -14 31 C-14.33 31.99 -14.66 32.98 -15 34 C-18.78213981 34.77361951 -21.29873524 34.92531619 -25 34 C-25.66 34.66 -26.32 35.32 -27 36 C-30.5 37.1875 -30.5 37.1875 -34 38 C-34.66 37.67 -35.32 37.34 -36 37 C-36 36.34 -36 35.68 -36 35 C-36.99 34.67 -37.98 34.34 -39 34 C-36.6875 31.5 -36.6875 31.5 -34 29 C-33.01 29 -32.02 29 -31 29 C-31 28.01 -31 27.02 -31 26 C-27.78234809 22.07848674 -24.42319124 19.9958394 -19.9140625 17.91015625 C-17.82743266 16.96766755 -17.82743266 16.96766755 -15.375 15.3125 C-12.49578618 13.72135552 -10.28126392 13.205079 -7 13 C-5.88625 13.495 -5.88625 13.495 -4.75 14 C-0.48374457 15.55136561 3.57589448 14.63569671 8 14 C7.505 13.505 7.505 13.505 7 13 C6.2575 13.165 5.515 13.33 4.75 13.5 C1.81393569 14.03382988 -0.13588733 13.73648612 -3 13 C-3.0270043 11.54176788 -3.04639787 10.08339325 -3.0625 8.625 C-3.07410156 7.81289063 -3.08570313 7.00078125 -3.09765625 6.1640625 C-3 4 -3 4 -2 2 C-1.34 2 -0.68 2 0 2 C0 1.34 0 0.68 0 0 Z " fill="#60852B" transform="translate(230,20)"/>
<path d="M0 0 C4.06688261 3.30434212 6.70508951 6.38793564 7.30078125 11.6640625 C7.32760046 18.44038207 6.85350441 24.75632292 4 31 C1.50241818 32.24879091 -0.22404523 32.06609416 -3 32 C-4.32 32 -5.64 32 -7 32 C-10.64652266 29.56898489 -11.33797142 27.00793949 -12.3125 22.9375 C-13.19014928 19.32265348 -13.19014928 19.32265348 -15.671875 16.75390625 C-17.79099819 15.87375364 -17.79099819 15.87375364 -21 15 C-21.66 14.34 -22.32 13.68 -23 13 C-22.85273779 9.0239204 -22.56417723 6.70977135 -20.0625 3.5625 C-18 2 -18 2 -16 2 C-16 1.34 -16 0.68 -16 0 C-10.2740989 -4.06840342 -5.98710375 -2.788651 0 0 Z " fill="#BF245E" transform="translate(129,11)"/>
<path d="M0 0 C0.75410156 0.00257812 1.50820312 0.00515625 2.28515625 0.0078125 C3.20377529 4.69276958 3.81771081 7.84480065 1.28515625 12.0078125 C-1.23087581 13.18692338 -3.3900853 14.00861992 -6.02734375 14.7578125 C-6.69185547 14.96535156 -7.35636719 15.17289063 -8.04101562 15.38671875 C-10.83421819 16.24319036 -13.58293018 16.98551461 -16.46484375 17.47265625 C-19.09315049 18.09779171 -20.3627445 19.07271662 -22.40234375 20.8203125 C-26.79376292 24.30489941 -31.45449833 26.17531512 -36.71484375 28.0078125 C-38.21484375 26.73046875 -38.21484375 26.73046875 -39.71484375 25.0078125 C-39.71484375 16.89442584 -36.45870022 9.52476017 -30.7578125 3.7578125 C-26.02291306 -0.12669205 -21.05272504 0.1177701 -15.15234375 0.1328125 C-14.13720703 0.1121875 -13.12207031 0.0915625 -12.07617188 0.0703125 C-8.05055037 -0.00331088 -4.0261851 0.00846727 0 0 Z " fill="#CA275D" transform="translate(173.71484375,19.9921875)"/>
<path d="M0 0 C0 -0.66 0 -1.32 0 -2 C1.88671875 -1.80859375 1.88671875 -1.80859375 4 -1 C5.08203125 1.21484375 5.08203125 1.21484375 5.8125 3.9375 C6.06644531 4.83339844 6.32039063 5.72929688 6.58203125 6.65234375 C7 9 7 9 6 11 C8.475 11.495 8.475 11.495 11 12 C9 15 9 15 7.125 15.4765625 C6.073125 15.55003906 6.073125 15.55003906 5 15.625 C1.88561456 15.86279979 1.88561456 15.86279979 -1 17 C-10.85488979 19.26942257 -20.04777799 18.94539721 -30 18 C-29.21882813 17.10667969 -28.43765625 16.21335937 -27.6328125 15.29296875 C-25.51646318 12.75379699 -24.07694286 10.41481198 -22.875 7.3125 C-21.66848744 4.22147887 -20.6519038 2.06122453 -18 0 C-12.02509664 -2.01563005 -5.80956281 -2.90478141 0 0 Z " fill="#C5255C" transform="translate(110,31)"/>
<path d="M0 0 C2.31 0 4.62 0 7 0 C6.67 1.98 6.34 3.96 6 6 C5.01 6.33 4.02 6.66 3 7 C2.64587656 8.32796291 2.31478446 9.66216607 2 11 C1.54625 11.433125 1.0925 11.86625 0.625 12.3125 C-1.28010888 14.08709205 -1.28010888 14.08709205 -2.4375 17.4375 C-3.98088917 20.95642731 -5.17370647 22.50621159 -8 25 C-8.825 25.886875 -9.65 26.77375 -10.5 27.6875 C-14.10320234 31.02046216 -16.96159483 31.13291772 -21.75 31.0625 C-22.54921875 31.05347656 -23.3484375 31.04445313 -24.171875 31.03515625 C-24.77515625 31.02355469 -25.3784375 31.01195313 -26 31 C-27.02971768 18.15304606 -27.02971768 18.15304606 -24.96875 13.84375 C-19.99052569 9.06871852 -8.88236039 5 -2 5 C-1.34 3.35 -0.68 1.7 0 0 Z " fill="#CA295D" transform="translate(113,47)"/>
<path d="M0 0 C0.66 0.33 1.32 0.66 2 1 C1.67 3.31 1.34 5.62 1 8 C3.84083641 9.42041821 5.85477278 9.31452272 9 9 C11.37719693 7.12498069 11.37719693 7.12498069 13 5 C11.68 4.67 10.36 4.34 9 4 C11.78823655 2.9673198 12.8677274 2.95490707 15.75 3.9375 C16.4925 4.288125 17.235 4.63875 18 5 C17.67 5.66 17.34 6.32 17 7 C16.34 7 15.68 7 15 7 C15.95646474 9.39116185 16.60713381 10.74266407 18.7890625 12.171875 C21.44967023 13.16842772 22.85670441 12.90701772 25.625 12.375 C31.63133359 11.62531079 35.65891325 13.42649059 41 16 C42.70689574 16.75326603 44.41515674 17.50344872 46.125 18.25 C47.41753112 18.83141538 48.70954304 19.41399539 50 20 C49.67 20.66 49.34 21.32 49 22 C46.4375 22.625 46.4375 22.625 44 23 C43.505 25.475 43.505 25.475 43 28 C40.69 28.66 38.38 29.32 36 30 C35.34 29.01 34.68 28.02 34 27 C31.94074861 26.27617533 31.94074861 26.27617533 30 26 C30 24.68 30 23.36 30 22 C29.34 22 28.68 22 28 22 C27.67 22.99 27.34 23.98 27 25 C26.58878906 24.53464844 26.17757813 24.06929687 25.75390625 23.58984375 C23.80747858 21.82548727 22.44108989 21.29403897 19.9375 20.5625 C16.46757412 19.50912964 13.24458255 18.23512503 9.9375 16.75 C5.14058139 14.76817447 2.02690943 14.88290902 -3 16 C-3.08075665 13.70890403 -3.13907731 11.41700733 -3.1875 9.125 C-3.22230469 7.84882813 -3.25710937 6.57265625 -3.29296875 5.2578125 C-3.19628906 4.18273437 -3.09960938 3.10765625 -3 2 C-2.01 1.34 -1.02 0.68 0 0 Z " fill="#62872C" transform="translate(3,7)"/>
<path d="M0 0 C0 0.66 0 1.32 0 2 C-1.98 2 -3.96 2 -6 2 C-6.1546875 2.86625 -6.1546875 2.86625 -6.3125 3.75 C-7 6 -7 6 -8.51953125 7.76953125 C-10.42606571 10.64190902 -10.40090176 12.51415035 -10.375 15.9375 C-10.38273437 16.95714844 -10.39046875 17.97679688 -10.3984375 19.02734375 C-9.95095461 22.36591709 -8.7952883 24.19308099 -7 27 C-7 27.99 -7 28.98 -7 30 C-4.69 30 -2.38 30 0 30 C5.22331562 21.59944485 5.22331562 21.59944485 6 12 C4.35360035 10.64172029 2.68704193 9.30745749 1 8 C0.84375 5.37890625 0.84375 5.37890625 1 3 C2.60785777 3.59427388 4.21117709 4.20083588 5.8125 4.8125 C6.70582031 5.14894531 7.59914062 5.48539063 8.51953125 5.83203125 C10.94106533 6.97224966 12.37318204 7.88953346 14 10 C13.6875 12.1875 13.6875 12.1875 13 14 C13.66 14 14.32 14 15 14 C13.73431609 18.60248696 11.79901384 22.0868909 9.12109375 25.97265625 C7.83532756 28.29778744 7.40301985 30.38716341 7 33 C-0.32779895 34.93643356 -7.15466964 35.97182414 -14 32 C-18.65175731 26.26041525 -17.64281772 18.95277553 -17 12 C-15.75761759 6.8351272 -13.38637398 3.95358601 -9.0625 0.9375 C-5.73914823 -0.92606174 -3.67777875 -1.49409762 0 0 Z " fill="#AC1D5B" transform="translate(132,50)"/>
<path d="M0 0 C0 8.91 0 17.82 0 27 C-21.02505695 25.51936219 -21.02505695 25.51936219 -29 19 C-27.20287108 14.81821924 -25.20697425 13.75290594 -21 12 C-20.34 12 -19.68 12 -19 12 C-19 12.66 -19 13.32 -19 14 C-19.66 14 -20.32 14 -21 14 C-20.67 14.99 -20.34 15.98 -20 17 C-19.34 17.33 -18.68 17.66 -18 18 C-17.67 16.68 -17.34 15.36 -17 14 C-16.34 14 -15.68 14 -15 14 C-14.731875 13.360625 -14.46375 12.72125 -14.1875 12.0625 C-13 10 -13 10 -10 9 C-9.67 9.99 -9.34 10.98 -9 12 C-9 10.35 -9 8.7 -9 7 C-8.34 7 -7.68 7 -7 7 C-7.99 5.02 -8.98 3.04 -10 1 C-3.375 0 -3.375 0 0 0 Z " fill="#404B28" transform="translate(250,44)"/>
<path d="M0 0 C0 0.66 0 1.32 0 2 C0.99 2.33 1.98 2.66 3 3 C5 6 5 6 4.875 9.0625 C4 12 4 12 1.9375 13.375 C1.298125 13.58125 0.65875 13.7875 0 14 C0.4555206 17.31879295 0.9131492 20.6004863 1.625 23.875 C1.74875 24.57625 1.8725 25.2775 2 26 C1.67 26.33 1.34 26.66 1 27 C-1.93543086 26.90530868 -4.22999309 26.82487127 -7 26 C-9.14771875 23.36731249 -9.92951275 21.21146175 -11 18 C-10.67 17.01 -10.34 16.02 -10 15 C-10.99 15 -11.98 15 -13 15 C-13.33 15.99 -13.66 16.98 -14 18 C-14.99 18 -15.98 18 -17 18 C-17 17.34 -17 16.68 -17 16 C-16.01 16 -15.02 16 -14 16 C-14 13.69 -14 11.38 -14 9 C-14.66 9 -15.32 9 -16 9 C-15.67 7.68 -15.34 6.36 -15 5 C-15.66 4.67 -16.32 4.34 -17 4 C-16.67 2.68 -16.34 1.36 -16 0 C-5.62642369 -2.66514806 -5.62642369 -2.66514806 0 0 Z " fill="#75346D" transform="translate(195,18)"/>
<path d="M0 0 C1.9375 0.6875 1.9375 0.6875 3.9375 1.6875 C3.9375 2.3475 3.9375 3.0075 3.9375 3.6875 C4.9275 3.6875 5.9175 3.6875 6.9375 3.6875 C6.6075 5.0075 6.2775 6.3275 5.9375 7.6875 C7.2575 8.0175 8.5775 8.3475 9.9375 8.6875 C9.2775 8.6875 8.6175 8.6875 7.9375 8.6875 C7.6075 10.0075 7.2775 11.3275 6.9375 12.6875 C7.5975 12.6875 8.2575 12.6875 8.9375 12.6875 C8.9375 14.9975 8.9375 17.3075 8.9375 19.6875 C7.9475 19.6875 6.9575 19.6875 5.9375 19.6875 C5.9375 20.3475 5.9375 21.0075 5.9375 21.6875 C6.9275 21.3575 7.9175 21.0275 8.9375 20.6875 C9.2675 20.0275 9.5975 19.3675 9.9375 18.6875 C10.9275 18.6875 11.9175 18.6875 12.9375 18.6875 C13.06125 19.595 13.185 20.5025 13.3125 21.4375 C13.98110051 25.36913893 13.98110051 25.36913893 15.9375 28.6875 C19.48338501 29.98670746 19.48338501 29.98670746 22.9375 30.6875 C21.9475 31.0175 20.9575 31.3475 19.9375 31.6875 C19.9375 33.0075 19.9375 34.3275 19.9375 35.6875 C19.195 35.48125 18.4525 35.275 17.6875 35.0625 C14.61419159 34.64341249 13.50963134 35.06800989 10.9375 36.6875 C11.2675 35.6975 11.5975 34.7075 11.9375 33.6875 C12.5975 33.6875 13.2575 33.6875 13.9375 33.6875 C11.84158851 28.08417783 11.84158851 28.08417783 7.9375 23.6875 C7.48375 24.1825 7.03 24.6775 6.5625 25.1875 C4.9375 26.6875 4.9375 26.6875 2.9375 26.6875 C2.9375 25.6975 2.9375 24.7075 2.9375 23.6875 C0.93766466 24.47867904 0.93766466 24.47867904 -1.0625 25.6875 C-1.3925 26.6775 -1.7225 27.6675 -2.0625 28.6875 C-1.0725 28.6875 -0.0825 28.6875 0.9375 28.6875 C0.2775 30.6675 -0.3825 32.6475 -1.0625 34.6875 C-2.3825 34.0275 -3.7025 33.3675 -5.0625 32.6875 C-5.0625 32.0275 -5.0625 31.3675 -5.0625 30.6875 C-7.64546017 30.49227627 -10.22854079 30.30605597 -12.8125 30.125 C-13.54210937 30.06892578 -14.27171875 30.01285156 -15.0234375 29.95507812 C-18.61203651 29.71040092 -21.61277225 29.69083741 -25.0625 30.6875 C-23.54647692 26.44263537 -20.90160839 24.86058022 -17.0625 22.6875 C-14.68912549 21.86408436 -12.49806881 21.24260314 -10.0625 20.6875 C-8.96164063 20.42839844 -7.86078125 20.16929688 -6.7265625 19.90234375 C-3.50786018 19.15177867 -0.28654321 18.41472779 2.9375 17.6875 C3.10538373 16.06262529 3.27176787 14.43759558 3.4375 12.8125 C3.57671875 11.45511719 3.57671875 11.45511719 3.71875 10.0703125 C3.96797295 7.75436789 3.96797295 7.75436789 3.9375 5.6875 C1.2975 6.0175 -1.3425 6.3475 -4.0625 6.6875 C-4.0625 6.0275 -4.0625 5.3675 -4.0625 4.6875 C-2.0825 4.6875 -0.1025 4.6875 1.9375 4.6875 C1.9375 4.0275 1.9375 3.3675 1.9375 2.6875 C-0.3725 2.3575 -2.6825 2.0275 -5.0625 1.6875 C-2.0625 -0.3125 -2.0625 -0.3125 0 0 Z " fill="#5B3270" transform="translate(172.0625,14.3125)"/>
<path d="M0 0 C10.43672173 -0.93618434 17.71831268 1.3421153 27 6 C27.87785156 6.42539062 28.75570313 6.85078125 29.66015625 7.2890625 C31.45250669 8.1678516 33.22894317 9.07905045 35 10 C34.34 10.33 33.68 10.66 33 11 C33 11.66 33 12.32 33 13 C31.25364835 13.53293835 29.50272348 14.05090663 27.75 14.5625 C26.77546875 14.85253906 25.8009375 15.14257812 24.796875 15.44140625 C21.97376225 16.00524022 20.67641118 15.86354292 18 15 C17.01 15 16.02 15 15 15 C14.01 15 13.02 15 12 15 C11.67 14.67 11.34 14.34 11 14 C10.195625 14.165 9.39125 14.33 8.5625 14.5 C6 15 6 15 4 14 C3.67 14.66 3.34 15.32 3 16 C2.01 15.34 1.02 14.68 0 14 C-0.29296875 10.7421875 -0.29296875 10.7421875 -0.1875 6.875 C-0.16042969 5.59367187 -0.13335938 4.31234375 -0.10546875 2.9921875 C-0.07066406 2.00476563 -0.03585937 1.01734375 0 0 Z " fill="#63872B" transform="translate(0,27)"/>
<path d="M0 0 C0.61875 1.3921875 0.61875 1.3921875 1.25 2.8125 C2.68544038 6.07518604 2.68544038 6.07518604 5.25 7.3125 C7 9 7 9 7.13671875 10.96875 C6.5656406 17.68731644 4.23599719 22.75543205 0 28 C-3.25 28 -3.25 28 -7 27 C-10.66632239 23.14349374 -11.36957753 18.06997942 -11.75 12.9375 C-11.6462676 9.37902782 -11.41486803 7.57008424 -9.30859375 4.67578125 C-4.15859533 0 -4.15859533 0 0 0 Z " fill="#D62B5D" transform="translate(132,53)"/>
<path d="M0 0 C0 0.66 0 1.32 0 2 C0.60457031 2.26039062 1.20914063 2.52078125 1.83203125 2.7890625 C4.16657343 4.09304101 5.13116028 5.23444868 6.6875 7.375 C10.07426675 11.54533746 14.0238822 13.21965563 19 15 C10.26167869 20.82554754 -2.04172874 22.55762217 -12.375 20.53515625 C-16.60091272 19.39063822 -18.49266376 18.81173798 -20.875 15 C-21.24625 14.01 -21.6175 13.02 -22 12 C-23.56102491 10.18445841 -23.56102491 10.18445841 -25 9 C-21.27348455 9.5707867 -18.71501812 10.63018603 -15.5 12.5625 C-9.42276644 15.75717867 -3.71418494 15.47357104 3 15 C3.33 13.35 3.66 11.7 4 10 C3.443125 9.7525 2.88625 9.505 2.3125 9.25 C0 8 0 8 -2 5.9375 C-6.64199229 2.93954665 -11.57822635 3.17294334 -17 3 C-17.33 1.68 -17.66 0.36 -18 -1 C-12.46656517 -3.76671741 -5.60710027 -1.60202865 0 0 Z " fill="#A81E5B" transform="translate(167,45)"/>
<path d="M0 0 C0.91861904 4.68495708 1.53255456 7.83698815 -1 12 C-3.51603206 13.17911088 -5.67524155 14.00080742 -8.3125 14.75 C-8.97701172 14.95753906 -9.64152344 15.16507813 -10.32617188 15.37890625 C-13.1120205 16.23312294 -15.85076605 16.97519894 -18.7265625 17.453125 C-21.45359021 18.10911105 -22.91174821 19.22124703 -25.0625 21 C-27.7005101 23.17309347 -29.61287926 24.3965041 -33 25 C-32.49332769 21.25062489 -31.91526833 19.4244852 -29 17 C-27.03881836 16.14038086 -27.03881836 16.14038086 -24.83984375 15.46484375 C-23.6497168 15.08682617 -23.6497168 15.08682617 -22.43554688 14.70117188 C-21.19901367 14.3231543 -21.19901367 14.3231543 -19.9375 13.9375 C-18.29906411 13.43130619 -16.66225112 12.91982053 -15.02734375 12.40234375 C-14.30281006 12.18054443 -13.57827637 11.95874512 -12.83178711 11.73022461 C-10.794506 11.05783715 -10.794506 11.05783715 -9 9 C-7.68 9 -6.36 9 -5 9 C-4.67 7.02 -4.34 5.04 -4 3 C-5.155 3.33 -6.31 3.66 -7.5 4 C-14.56258306 5.60977014 -21.80367946 5.15893714 -29 5 C-29.2578125 5.55171875 -29.515625 6.1034375 -29.78125 6.671875 C-31.17963125 9.34314175 -32.78763305 11.76851909 -34.5 14.25 C-35.1084375 15.14203125 -35.716875 16.0340625 -36.34375 16.953125 C-36.8903125 17.62859375 -37.436875 18.3040625 -38 19 C-38.66 19 -39.32 19 -40 19 C-40.33 19.66 -40.66 20.32 -41 21 C-40.53150511 13.50408176 -37.54987049 8.79310138 -32.54296875 3.30859375 C-28.13087528 -0.24497053 -22.92712236 0.21837491 -17.5 0.1875 C-16.48035156 0.16236328 -15.46070313 0.13722656 -14.41015625 0.11132812 C-9.60731799 0.00203077 -4.80403746 -0.02467827 0 0 Z " fill="#922162" transform="translate(176,20)"/>
<path d="M0 0 C0 0.66 0 1.32 0 2 C0.99 2 1.98 2 3 2 C3 2.66 3 3.32 3 4 C2.67 4.33 2.34 4.66 2 5 C2 5.99 2 6.98 2 8 C-0.75924185 9.80411967 -1.88972103 10.0127245 -5.25 9.625 C-6.61125 9.315625 -6.61125 9.315625 -8 9 C-8.33 7.68 -8.66 6.36 -9 5 C-9.33 5.99 -9.66 6.98 -10 8 C-12.75119451 11.34073619 -14.69385411 12.52153935 -19 13 C-19 13.66 -19 14.32 -19 15 C-19.61875 15.12375 -20.2375 15.2475 -20.875 15.375 C-23.19120832 15.87197356 -23.19120832 15.87197356 -25 18 C-26.32 18 -27.64 18 -29 18 C-29 16.02 -29 14.04 -29 12 C-29.99 11.67 -30.98 11.34 -32 11 C-31.34 10.34 -30.68 9.68 -30 9 C-29.896875 8.01 -29.79375 7.02 -29.6875 6 C-29.460625 5.01 -29.23375 4.02 -29 3 C-25.06597604 0.80072092 -21.62100131 0.81529765 -17.1875 0.9375 C-11.37577246 1.02897525 -5.73936495 0 0 0 Z " fill="#4C5E2B" transform="translate(176,69)"/>
<path d="M0 0 C2.64 0.99 5.28 1.98 8 3 C8.33 2.34 8.66 1.68 9 1 C11.64 1.33 14.28 1.66 17 2 C17.33 2.99 17.66 3.98 18 5 C19.32 3.35 20.64 1.7 22 0 C22.99 0.66 23.98 1.32 25 2 C24.38125 2.556875 23.7625 3.11375 23.125 3.6875 C19.20300031 7.95555848 18.66450537 12.35170437 18 18 C15.03 17.67 12.06 17.34 9 17 C9.99 15.68 10.98 14.36 12 13 C11.01 13.66 10.02 14.32 9 15 C5.18311893 14.67515906 2.3571876 13.76923062 -1 12 C-1.02698189 10.37509046 -1.04638757 8.75005367 -1.0625 7.125 C-1.07410156 6.22007813 -1.08570313 5.31515625 -1.09765625 4.3828125 C-1 2 -1 2 0 0 Z " fill="#557828" transform="translate(64,54)"/>
<path d="M0 0 C0.08226668 3.04386724 -0.02391783 5.07175348 -1 8 C-1.66 8 -2.32 8 -3 8 C-3.66 10.97 -4.32 13.94 -5 17 C-5.94875 16.67 -6.8975 16.34 -7.875 16 C-10.77062452 14.89840809 -10.77062452 14.89840809 -13 15 C-13 14.34 -13 13.68 -13 13 C-12.34 12.67 -11.68 12.34 -11 12 C-13.64738916 10.5393715 -14.89448334 10 -18 10 C-17.01 10.33 -16.02 10.66 -15 11 C-16.75 14.875 -16.75 14.875 -19 16 C-23.05142119 16.25860135 -24.54337669 16.30441554 -28 14 C-27.67 11.69 -27.34 9.38 -27 7 C-28.32 7.33 -29.64 7.66 -31 8 C-30.875 6.125 -30.875 6.125 -30 4 C-27.1875 2.8125 -27.1875 2.8125 -24 2 C-23.21625 1.79375 -22.4325 1.5875 -21.625 1.375 C-21.08875 1.25125 -20.5525 1.1275 -20 1 C-19.64808594 1.93585938 -19.64808594 1.93585938 -19.2890625 2.890625 C-17.63176925 5.60255941 -16.3858401 5.88975997 -13.375 6.75 C-12.55773437 6.99234375 -11.74046875 7.2346875 -10.8984375 7.484375 C-10.27195312 7.65453125 -9.64546875 7.8246875 -9 8 C-8.773125 7.236875 -8.54625 6.47375 -8.3125 5.6875 C-6.58459606 2.14941098 -4.0788835 0 0 0 Z " fill="#3E4826" transform="translate(31,1)"/>
<path d="M0 0 C0 -0.66 0 -1.32 0 -2 C1.88671875 -1.80859375 1.88671875 -1.80859375 4 -1 C5.08203125 1.21484375 5.08203125 1.21484375 5.8125 3.9375 C6.06644531 4.83339844 6.32039063 5.72929688 6.58203125 6.65234375 C7 9 7 9 6 11 C8.475 11.495 8.475 11.495 11 12 C9 15 9 15 7.125 15.4765625 C6.073125 15.55003906 6.073125 15.55003906 5 15.625 C1.88561456 15.86279979 1.88561456 15.86279979 -1 17 C-10.85488979 19.26942257 -20.04777799 18.94539721 -30 18 C-29.21882813 17.10667969 -28.43765625 16.21335937 -27.6328125 15.29296875 C-25.51646318 12.75379699 -24.07694286 10.41481198 -22.875 7.3125 C-21.66848744 4.22147887 -20.6519038 2.06122453 -18 0 C-12.02509664 -2.01563005 -5.80956281 -2.90478141 0 0 Z M-21 8 C-22.7805801 11.48022473 -23 12.99150945 -23 17 C-21.741875 16.87625 -20.48375 16.7525 -19.1875 16.625 C-18.47980469 16.55539063 -17.77210937 16.48578125 -17.04296875 16.4140625 C-14.70011858 16.07334609 -14.70011858 16.07334609 -12 14 C-8.40116068 13.8615831 -4.84879387 14.0050402 -1.25 14.125 C2.14945409 14.27758933 2.14945409 14.27758933 5 12 C4.61402985 9.20171644 4.19863427 8.1794116 2.0625 6.25 C0.11688783 4.82723276 0.11688783 4.82723276 -2 5 C-2 4.34 -2 3.68 -2 3 C-10.69562439 -1.3478122 -16.01255065 0.12507998 -21 8 Z " fill="#AB1F5C" transform="translate(110,31)"/>
<path d="M0 0 C4.31687378 0.35001679 6.19275066 1.77686187 9 5 C8.360625 5.28875 7.72125 5.5775 7.0625 5.875 C4.84793921 6.82823451 4.84793921 6.82823451 4 9 C3.34 9 2.68 9 2 9 C2 9.66 2 10.32 2 11 C0.66666667 12.33333333 -0.66666667 13.66666667 -2 15 C-3.23512079 17.13309192 -3.23512079 17.13309192 -4 19 C-3.34 19.33 -2.68 19.66 -2 20 C-2 20.66 -2 21.32 -2 22 C1.56553155 21.38876602 4.66981698 20.40218232 8 19 C8.99 18.67 9.98 18.34 11 18 C11.99 18.99 12.98 19.98 14 21 C13.443125 21.103125 12.88625 21.20625 12.3125 21.3125 C9.9078793 21.89858266 9.9078793 21.89858266 7.8125 23.5 C4.08812011 25.48633594 0.23640708 26.36493394 -4 26 C-5.01181753 25.01195886 -6.01161923 24.01148577 -7 23 C-9.14093299 22.53562327 -9.14093299 22.53562327 -11.4375 22.5 C-15.11181963 22.20677254 -17.39686988 21.82948926 -20 19 C-20 18.34 -20 17.68 -20 17 C-18.906875 17.04125 -17.81375 17.0825 -16.6875 17.125 C-12.39077383 16.97934827 -10.98683086 15.98683086 -8 13 C-6.68 13.66 -5.36 14.32 -4 15 C-4 13.68 -4 12.36 -4 11 C-2.68 10.34 -1.36 9.68 0 9 C-0.185625 7.700625 -0.37125 6.40125 -0.5625 5.0625 C-0.87890625 2.84765625 -0.87890625 2.84765625 -1 1 C-0.67 0.67 -0.34 0.34 0 0 Z " fill="#353F25" transform="translate(196,35)"/>
<path d="M0 0 C-4.9265384 4.19279864 -7.79258598 5.5546903 -14.27734375 5.17578125 C-14.84582031 5.11777344 -15.41429688 5.05976562 -16 5 C-16.309375 5.969375 -16.61875 6.93875 -16.9375 7.9375 C-18 11 -18 11 -19 12 C-19.23075082 13.34747084 -19.41153063 14.70377565 -19.5625 16.0625 C-19.706875 17.361875 -19.85125 18.66125 -20 20 C-16.8813291 20.7252723 -14.47740099 21.08881879 -11.3125 20.5 C-7.99349682 18.34713307 -7.4351457 15.61906308 -6 12 C-3.9375 9.5625 -3.9375 9.5625 -2 8 C-1.34 8 -0.68 8 0 8 C-1.17742391 12.87789904 -2.30987557 15.51488248 -6 19 C-6.825 19.886875 -7.65 20.77375 -8.5 21.6875 C-12.10320234 25.02046216 -14.96159483 25.13291772 -19.75 25.0625 C-20.54921875 25.05347656 -21.3484375 25.04445313 -22.171875 25.03515625 C-22.77515625 25.02355469 -23.3784375 25.01195313 -24 25 C-25.02971768 12.15304606 -25.02971768 12.15304606 -22.96875 7.84375 C-18.85974137 3.90245601 -5.35545406 -2.67772703 0 0 Z " fill="#B9235D" transform="translate(111,53)"/>
<path d="M0 0 C-1.125 1.5 -1.125 1.5 -3 3 C-6.1875 3.1875 -6.1875 3.1875 -9 3 C-8.80528889 4.94999129 -8.80528889 4.94999129 -8 7 C-6.23470405 8.21690533 -6.23470405 8.21690533 -4 9 C-3.0925 9.37125 -2.185 9.7425 -1.25 10.125 C-0.13625 10.558125 -0.13625 10.558125 1 11 C0.6875 12.875 0.6875 12.875 0 15 C-0.99 15.66 -1.98 16.32 -3 17 C-3 15.68 -3 14.36 -3 13 C-5.64 12.67 -8.28 12.34 -11 12 C-11.33 12.99 -11.66 13.98 -12 15 C-17.28 13.02 -22.56 11.04 -28 9 C-26.49587218 5.99174436 -24.13951699 5.69337029 -21.078125 4.59765625 C-18.64864679 3.89895293 -16.51431136 3.76428331 -14 4 C-14 3.34 -14 2.68 -14 2 C-12.04396149 1.47061343 -10.08507711 0.95173199 -8.125 0.4375 C-6.48917969 0.00244141 -6.48917969 0.00244141 -4.8203125 -0.44140625 C-2 -1 -2 -1 0 0 Z M-21 7 C-21 7.66 -21 8.32 -21 9 C-20.34 8.67 -19.68 8.34 -19 8 C-19.66 7.67 -20.32 7.34 -21 7 Z " fill="#343E25" transform="translate(84,43)"/>
<path d="M0 0 C1.9453125 0.77734375 1.9453125 0.77734375 4.125 1.9375 C5.21167969 2.50791016 5.21167969 2.50791016 6.3203125 3.08984375 C6.87460938 3.39019531 7.42890625 3.69054687 8 4 C8 4.66 8 5.32 8 6 C8.66 6.33 9.32 6.66 10 7 C2.08 8.485 2.08 8.485 -6 10 C-6.4125 11.36125 -6.825 12.7225 -7.25 14.125 C-8.65706779 18.33292913 -10.22712595 21.53390744 -13 25 C-13.99 25.33 -14.98 25.66 -16 26 C-16.66 25.67 -17.32 25.34 -18 25 C-15.6070317 27.7708054 -13.4796809 28.8910907 -10 30 C-6.41569055 30.24082874 -6.41569055 30.24082874 -2.6875 30.125 C-1.43324219 30.10695313 -0.17898437 30.08890625 1.11328125 30.0703125 C2.06589844 30.04710938 3.01851562 30.02390625 4 30 C4 30.66 4 31.32 4 32 C0.52674819 33.1577506 -2.36067448 33.06866652 -6 33 C-6.33 33.99 -6.66 34.98 -7 36 C-7.66 36 -8.32 36 -9 36 C-11.13391403 42.25948114 -11.58955515 48.42208127 -12 55 C-12.66 54.67 -13.32 54.34 -14 54 C-14.50538108 46.36313031 -13.85599853 41.62749748 -10 35 C-10 34.34 -10 33.68 -10 33 C-11.60875 32.38125 -11.60875 32.38125 -13.25 31.75 C-16.51869948 30.35102314 -18.73504443 28.80854491 -21 26 C-21 25.34 -21 24.68 -21 24 C-19.37384766 23.70416016 -19.37384766 23.70416016 -17.71484375 23.40234375 C-13.81635258 22.34574511 -13.81635258 22.34574511 -12.06640625 19.06640625 C-11.32197266 17.33197266 -11.32197266 17.33197266 -10.5625 15.5625 C-7.02268115 8.27369118 -7.02268115 8.27369118 -2.5625 6.6875 C-1.386875 6.460625 -0.21125 6.23375 1 6 C1 5.34 1 4.68 1 4 C0.01 3.67 -0.98 3.34 -2 3 C-2 2.34 -2 1.68 -2 1 C-1.34 0.67 -0.68 0.34 0 0 Z " fill="#57356B" transform="translate(96,22)"/>
<path d="M0 0 C0.99 0 1.98 0 3 0 C7.53574091 6.23664375 7.44701413 11.43801103 7 19 C6.01 19.33 5.02 19.66 4 20 C2.78130071 22.50447516 2.78130071 22.50447516 2 25 C1.01 25 0.02 25 -1 25 C-1.50642925 21.93852743 -2.00399322 18.87567701 -2.5 15.8125 C-2.64308594 14.94818359 -2.78617187 14.08386719 -2.93359375 13.19335938 C-3.59314262 9.09473423 -4.20709266 5.16773976 -4 1 C-3.01 1.33 -2.02 1.66 -1 2 C-0.67 1.34 -0.34 0.68 0 0 Z " fill="#DD2D91" transform="translate(125,16)"/>
<path d="M0 0 C0 0.66 0 1.32 0 2 C0.99 2.33 1.98 2.66 3 3 C3 3.33 3 3.66 3 4 C0.36 4.33 -2.28 4.66 -5 5 C-5 5.66 -5 6.32 -5 7 C-4.34 7 -3.68 7 -3 7 C-4.875 12.875 -4.875 12.875 -6 14 C-8.67058851 14.14115161 -11.32432238 14.04247107 -14 14 C-14 12.35 -14 10.7 -14 9 C-14.66 9 -15.32 9 -16 9 C-15.67 7.68 -15.34 6.36 -15 5 C-15.66 4.67 -16.32 4.34 -17 4 C-16.67 2.68 -16.34 1.36 -16 0 C-5.62642369 -2.66514806 -5.62642369 -2.66514806 0 0 Z " fill="#772D70" transform="translate(195,18)"/>
<path d="M0 0 C0.66 0.33 1.32 0.66 2 1 C4.71262116 1.2322646 7.40773126 1.41936235 10.125 1.5625 C11.25615234 1.62727539 11.25615234 1.62727539 12.41015625 1.69335938 C14.27321888 1.7994832 16.13658524 1.90025001 18 2 C14.81237635 4.12508244 12.73487777 4.5020163 9 5 C9.33 6.32 9.66 7.64 10 9 C9.278125 9.0825 8.55625 9.165 7.8125 9.25 C4.44686746 10.14750201 2.58387184 11.7114278 0 14 C-3 12 -3 12 -4 9 C-4.99 9.495 -4.99 9.495 -6 10 C-6 9.01 -6 8.02 -6 7 C-6.78375 6.690625 -7.5675 6.38125 -8.375 6.0625 C-11 5 -11 5 -13 4 C-13 3.01 -13 2.02 -13 1 C-10.525 1.495 -10.525 1.495 -8 2 C-7.67 2.99 -7.34 3.98 -7 5 C-3.32159111 2.72692336 -3.32159111 2.72692336 0 0 Z " fill="#364124" transform="translate(232,41)"/>
<path d="M0 0 C0 0.66 0 1.32 0 2 C-1.98 2 -3.96 2 -6 2 C-6.1546875 2.86625 -6.1546875 2.86625 -6.3125 3.75 C-7 6 -7 6 -8.5 7.78125 C-10.36040942 10.5331056 -10.49150104 12.45721746 -10.6875 15.75 C-10.75324219 16.73484375 -10.81898437 17.7196875 -10.88671875 18.734375 C-10.92410156 19.48203125 -10.96148437 20.2296875 -11 21 C-11.33 21 -11.66 21 -12 21 C-12.33 19.35 -12.66 17.7 -13 16 C-13.04125 17.27875 -13.0825 18.5575 -13.125 19.875 C-13.14820312 20.59429687 -13.17140625 21.31359375 -13.1953125 22.0546875 C-13.18331689 24.23863645 -13.18331689 24.23863645 -11 26 C-10.875 29.125 -10.875 29.125 -11 32 C-12.875 31.75 -12.875 31.75 -15 31 C-18.68809783 25.70160593 -17.50438014 18.14309149 -17 12 C-15.76742393 6.8356623 -13.38218402 3.95066333 -9.0625 0.9375 C-5.73914823 -0.92606174 -3.67777875 -1.49409762 0 0 Z " fill="#A42560" transform="translate(132,50)"/>
<path d="M0 0 C4.0042343 3.49087093 5.62671065 5.64951939 6 11 C5.34 11 4.68 11 4 11 C4.83333333 13.16666667 4.83333333 13.16666667 7 14 C4.66552322 15.46985575 3.28599403 16.00714985 0.5 15.9375 C-2.7714769 14.71069616 -3.84483646 12.69395442 -6 10 C-8.63460948 9.12056596 -8.63460948 9.12056596 -11 9 C-9.68 8.67 -8.36 8.34 -7 8 C-7 7.34 -7 6.68 -7 6 C-7.99 6 -8.98 6 -10 6 C-10.33 4.68 -10.66 3.36 -11 2 C-9.02 1.67 -7.04 1.34 -5 1 C-5 1.99 -5 2.98 -5 4 C-3.35 2.68 -1.7 1.36 0 0 Z " fill="#7F2969" transform="translate(180,37)"/>
<path d="M0 0 C5.923038 -0.295624 10.31931101 1.37190614 15 5 C18.10581298 9.54539098 21 14.39884415 21 20 C20.34 20 19.68 20 19 20 C18.566875 21.2065625 18.566875 21.2065625 18.125 22.4375 C17 25 17 25 15 26 C14.97421875 25.35933594 14.9484375 24.71867187 14.921875 24.05859375 C14.52192666 17.9593816 13.62387469 13.9698853 10 9 C6.79942036 6.68233888 2.78718014 6.01962542 -1 5 C-0.01 4.34 0.98 3.68 2 3 C1.34 3 0.68 3 0 3 C0 2.01 0 1.02 0 0 Z " fill="#872064" transform="translate(121,4)"/>
<path d="M0 0 C0.495 1.98 0.495 1.98 1 4 C2.32 4.33 3.64 4.66 5 5 C3 8 3 8 1.0546875 8.51171875 C0.33539063 8.56972656 -0.38390625 8.62773437 -1.125 8.6875 C-2.40375 8.790625 -3.6825 8.89375 -5 9 C-5.33 8.01 -5.66 7.02 -6 6 C-6.66 6 -7.32 6 -8 6 C-8 5.01 -8 4.02 -8 3 C-9.77007714 2.91885894 -11.54122098 2.86074495 -13.3125 2.8125 C-14.29863281 2.77769531 -15.28476563 2.74289063 -16.30078125 2.70703125 C-19.44837052 3.0486654 -20.00754794 3.66402172 -22 6 C-26.01800663 7.97247598 -28.4896156 9 -33 9 C-33 7.68 -33 6.36 -33 5 C-32.32453125 4.80664062 -31.6490625 4.61328125 -30.953125 4.4140625 C-29.61507812 4.02347656 -29.61507812 4.02347656 -28.25 3.625 C-27.36828125 3.36976562 -26.4865625 3.11453125 -25.578125 2.8515625 C-23.03491717 2.08446629 -23.03491717 2.08446629 -20.9296875 0.94140625 C-14.55772297 -2.16718373 -6.76859202 -0.9184937 0 0 Z " fill="#384325" transform="translate(94,21)"/>
<path d="M0 0 C0.89203125 0.29648437 1.7840625 0.59296875 2.703125 0.8984375 C3.37859375 1.13820312 4.0540625 1.37796875 4.75 1.625 C4.75 4.265 4.75 6.905 4.75 9.625 C1.62278205 9.37665948 -1.50092917 9.09752658 -4.625 8.8125 C-5.95917969 8.70711914 -5.95917969 8.70711914 -7.3203125 8.59960938 C-8.59648437 8.47875977 -8.59648437 8.47875977 -9.8984375 8.35546875 C-10.68395996 8.28739014 -11.46948242 8.21931152 -12.27880859 8.14916992 C-14.25 7.625 -14.25 7.625 -16.25 4.625 C-11.171875 1.6953125 -11.171875 1.6953125 -9.25 0.625 C-8.6209375 0.2228125 -7.991875 -0.179375 -7.34375 -0.59375 C-4.44942871 -1.67372063 -2.88538014 -0.98710373 0 0 Z " fill="#63872C" transform="translate(245.25,61.375)"/>
<path d="M0 0 C0.33 0.66 0.66 1.32 1 2 C1.804375 1.690625 1.804375 1.690625 2.625 1.375 C5.94282253 0.85113328 7.96997134 1.61672604 11 3 C12.25 5 12.25 5 13 7 C13.66 7.66 14.32 8.32 15 9 C13.68 9 12.36 9 11 9 C10.67 10.65 10.34 12.3 10 14 C9.01 13.67 8.02 13.34 7 13 C6.67 12.01 6.34 11.02 6 10 C3.30964974 8.79942024 0.71151241 7.77191505 -2.0625 6.8125 C-2.82111328 6.53986328 -3.57972656 6.26722656 -4.36132812 5.98632812 C-6.2371992 5.31384604 -8.11815203 4.65557049 -10 4 C-10 3.34 -10 2.68 -10 2 C-6.7 1.34 -3.4 0.68 0 0 Z " fill="#46522A" transform="translate(199,62)"/>
<path d="M0 0 C1.98 0 3.96 0 6 0 C6.91861904 4.68495708 7.53255456 7.83698815 5 12 C2.48396794 13.17911088 0.32475845 14.00080742 -2.3125 14.75 C-2.97701172 14.95753906 -3.64152344 15.16507813 -4.32617188 15.37890625 C-7.1120205 16.23312294 -9.85076605 16.97519894 -12.7265625 17.453125 C-15.45359021 18.10911105 -16.91174821 19.22124703 -19.0625 21 C-21.7005101 23.17309347 -23.61287926 24.3965041 -27 25 C-26.49203099 21.24102933 -26.00246024 19.35511255 -23 17 C-20.61938364 16.03804831 -18.31602995 15.20379649 -15.875 14.4375 C-15.20573486 14.21916504 -14.53646973 14.00083008 -13.84692383 13.77587891 C-10.15619098 12.59537896 -6.48984048 11.61313787 -2.6875 10.875 C1.2343143 10.38682347 1.2343143 10.38682347 3 7 C3.39013716 5.0103005 3.73202649 3.00980131 4 1 C2.68 0.67 1.36 0.34 0 0 Z " fill="#8D2166" transform="translate(170,20)"/>
<path d="M0 0 C0.99 0.66 1.98 1.32 3 2 C2.67 2.66 2.34 3.32 2 4 C0.78763672 3.85691406 0.78763672 3.85691406 -0.44921875 3.7109375 C-2.05216797 3.54464844 -2.05216797 3.54464844 -3.6875 3.375 C-4.74324219 3.25898438 -5.79898438 3.14296875 -6.88671875 3.0234375 C-10.18242086 2.99862669 -12.09006302 3.50171371 -15 5 C-17.28930236 6.88138759 -17.28930236 6.88138759 -17.375 9.9375 C-17.31961569 13.10182098 -17.31961569 13.10182098 -15 14.875 C-14.34 15.24625 -13.68 15.6175 -13 16 C-13.33 16.66 -13.66 17.32 -14 18 C-20.75 15.25 -20.75 15.25 -23 13 C-22.85273779 9.0239204 -22.56417723 6.70977135 -20.0625 3.5625 C-18 2 -18 2 -16 2 C-16 1.34 -16 0.68 -16 0 C-10.24235257 -4.09096001 -6.06562656 -2.55779433 0 0 Z " fill="#A91E5C" transform="translate(129,11)"/>
<path d="M0 0 C1.25425781 0.11085938 2.50851563 0.22171875 3.80078125 0.3359375 C4.75339844 0.43132812 5.70601562 0.52671875 6.6875 0.625 C6.375 2.5625 6.375 2.5625 5.6875 4.625 C4.6975 4.955 3.7075 5.285 2.6875 5.625 C2.3575 6.615 2.0275 7.605 1.6875 8.625 C-0.625 9.6875 -0.625 9.6875 -3.3125 10.625 C-4.65340759 11.27629797 -5.98842331 11.94013275 -7.3125 12.625 C-8.3025 13.12 -8.3025 13.12 -9.3125 13.625 C-9.6425 11.315 -9.9725 9.005 -10.3125 6.625 C-9.3225 6.625 -8.3325 6.625 -7.3125 6.625 C-7.76625 6.17125 -8.22 5.7175 -8.6875 5.25 C-9.89583333 4.04166667 -11.10416667 2.83333333 -12.3125 1.625 C-7.99663875 -0.53705669 -4.76006775 -0.44486614 0 0 Z " fill="#668A2D" transform="translate(159.3125,70.375)"/>
<path d="M0 0 C5.61093977 1.80691281 9.14444605 3.32660128 13 8 C13.33 8.99 13.66 9.98 14 11 C20.56124775 13.37615281 26.61436703 13.07681319 33.5 12.625 C34.51320312 12.56828125 35.52640625 12.5115625 36.5703125 12.453125 C39.04771836 12.31289448 41.52391344 12.16162278 44 12 C40.57932478 15.78717613 38.5720593 16.86030349 33.5546875 17.1328125 C16.8974359 17.08424908 16.8974359 17.08424908 11.9375 14.25 C9.76945326 11.7322683 9.42607407 10.23816292 9 7 C6.90217213 4.90217213 5.6200793 4.3490604 2.875 3.375 C2.15054688 3.11460938 1.42609375 2.85421875 0.6796875 2.5859375 C0.12539062 2.39257812 -0.42890625 2.19921875 -1 2 C-0.67 1.34 -0.34 0.68 0 0 Z " fill="#633172" transform="translate(135,52)"/>
<path d="M0 0 C0.66 0.33 1.32 0.66 2 1 C1.01 2.485 1.01 2.485 0 4 C0.66 4 1.32 4 2 4 C2.33 4.99 2.66 5.98 3 7 C2.01 7.33 1.02 7.66 0 8 C0 7.01 0 6.02 0 5 C-1.99983534 5.79117904 -1.99983534 5.79117904 -4 7 C-4.33 7.99 -4.66 8.98 -5 10 C-4.01 10 -3.02 10 -2 10 C-2.66 11.98 -3.32 13.96 -4 16 C-5.32 15.34 -6.64 14.68 -8 14 C-8 13.34 -8 12.68 -8 12 C-9.299375 11.87625 -10.59875 11.7525 -11.9375 11.625 C-14.15234375 11.4140625 -14.15234375 11.4140625 -16 11 C-16.33 10.34 -16.66 9.68 -17 9 C-17.99 8.34 -18.98 7.68 -20 7 C-18.9171875 6.8453125 -18.9171875 6.8453125 -17.8125 6.6875 C-14.97437156 6.15413386 -14.97437156 6.15413386 -12.75 4.5625 C-9.50487848 2.71868095 -6.531207 2.11681722 -2.890625 1.4296875 C-0.99865328 1.1762577 -0.99865328 1.1762577 0 0 Z " fill="#5D326F" transform="translate(175,33)"/>
<path d="M0 0 C-0.33 0.66 -0.66 1.32 -1 2 C-2.6875 2.5625 -2.6875 2.5625 -5 3 C-6.03125 3.20625 -7.0625 3.4125 -8.125 3.625 C-11 4 -11 4 -13 3 C-13.3403125 3.8971875 -13.3403125 3.8971875 -13.6875 4.8125 C-15.35609042 7.59348403 -17.1283832 8.5641916 -20 10 C-20.66 10 -21.32 10 -22 10 C-22.66 11.32 -23.32 12.64 -24 14 C-24.99 14 -25.98 14 -27 14 C-25.54299985 7.20066595 -21.56072875 4.36671192 -16.04296875 0.69921875 C-10.61842574 -2.41427635 -5.7995115 -2.89975575 0 0 Z " fill="#753180" transform="translate(123,7)"/>
<path d="M0 0 C0.66 0 1.32 0 2 0 C3.125 6.75 3.125 6.75 2 9 C8.20124547 10.90753903 8.20124547 10.90753903 14.375 10.0625 C14.91125 9.711875 15.4475 9.36125 16 9 C14.74874616 12.75376152 13.4347596 13.24073289 10 15 C9.34 15 8.68 15 8 15 C8 14.34 8 13.68 8 13 C7.154375 12.99742188 6.30875 12.99484375 5.4375 12.9921875 C-1.6397108 12.75091895 -6.22235199 12.07526338 -11.70703125 7.47265625 C-13 6 -13 6 -13 4 C-14.32 3.34 -15.64 2.68 -17 2 C-14 1 -14 1 -12.203125 1.70703125 C-11.23632812 2.25423828 -11.23632812 2.25423828 -10.25 2.8125 C-6.54429198 4.79574003 -3.07108134 5.98222966 1 7 C0.67 4.69 0.34 2.38 0 0 Z " fill="#394725" transform="translate(61,57)"/>
<path d="M0 0 C0.90105469 0.02707031 1.80210938 0.05414063 2.73046875 0.08203125 C3.76107422 0.13423828 3.76107422 0.13423828 4.8125 0.1875 C3.8225 0.5175 2.8325 0.8475 1.8125 1.1875 C1.4825 2.1775 1.1525 3.1675 0.8125 4.1875 C-0.1775 3.5275 -1.1675 2.8675 -2.1875 2.1875 C-1.9709375 3.16589844 -1.754375 4.14429688 -1.53125 5.15234375 C-0.01135956 12.23161953 1.19561431 18.90832811 0.8125 26.1875 C-0.1775 25.8575 -1.1675 25.5275 -2.1875 25.1875 C-2.33445312 23.84945312 -2.33445312 23.84945312 -2.484375 22.484375 C-2.63390625 21.31390625 -2.7834375 20.1434375 -2.9375 18.9375 C-3.07671875 17.77734375 -3.2159375 16.6171875 -3.359375 15.421875 C-4.28761107 11.79650017 -5.45144766 10.62746651 -8.1875 8.1875 C-8.625 5.625 -8.625 5.625 -8.1875 3.1875 C-5.79964426 -0.06866692 -3.91281916 -0.1524475 0 0 Z " fill="#D0295F" transform="translate(123.1875,14.8125)"/>
<path d="M0 0 C1.65 0.33 3.3 0.66 5 1 C4.814375 1.495 4.62875 1.99 4.4375 2.5 C3.79860704 6.15081689 4.45094709 9.33964724 5 13 C5.99 12.814375 6.98 12.62875 8 12.4375 C12.17087678 11.82338317 15.85034269 12.34479095 20 13 C20 13.66 20 14.32 20 15 C11.585 15.495 11.585 15.495 3 16 C2.01 13.03 1.02 10.06 0 7 C-0.66 7 -1.32 7 -2 7 C-2.33 8.32 -2.66 9.64 -3 11 C-3.66 11 -4.32 11 -5 11 C-4.54663921 6.12637153 -3.2910841 3.60957611 0 0 Z " fill="#535C2D" transform="translate(230,15)"/>
<path d="M0 0 C1.48484412 0.39595843 2.9628831 0.81750706 4.4375 1.25 C5.26121094 1.48203125 6.08492187 1.7140625 6.93359375 1.953125 C9 3 9 3 9.78515625 5.109375 C9.85605469 5.73328125 9.92695312 6.3571875 10 7 C9.26394531 7.09796875 8.52789062 7.1959375 7.76953125 7.296875 C0.13205407 8.45493542 0.13205407 8.45493542 -6 13 C-6.66 12.67 -7.32 12.34 -8 12 C-7.84595887 6.91664275 -4.97931568 4.64245282 -1.49609375 1.35546875 C-1.00238281 0.90816406 -0.50867188 0.46085937 0 0 Z " fill="#CE285D" transform="translate(97,35)"/>
<path d="M0 0 C0 4.29 0 8.58 0 13 C-2.97 13 -5.94 13 -9 13 C-9 11.02 -9 9.04 -9 7 C-8.34 7 -7.68 7 -7 7 C-7.99 5.02 -8.98 3.04 -10 1 C-3.375 0 -3.375 0 0 0 Z " fill="#425728" transform="translate(250,44)"/>
<path d="M0 0 C2.64 0.99 5.28 1.98 8 3 C-0.43873458 8.62582305 -10.97562031 9.69133653 -21 9 C-23.72080318 8.45395645 -26.32747004 7.76357999 -29 7 C-28.67 6.34 -28.34 5.68 -28 5 C-27.43079834 5.01047363 -26.86159668 5.02094727 -26.27514648 5.03173828 C-23.6626437 5.07365718 -21.05021201 5.09943888 -18.4375 5.125 C-17.09461914 5.15013672 -17.09461914 5.15013672 -15.72460938 5.17578125 C-10.43996229 5.21449661 -5.93083953 4.99881012 -1 3 C-0.67 2.01 -0.34 1.02 0 0 Z " fill="#73245C" transform="translate(178,57)"/>
<path d="M0 0 C2.64 0.33 5.28 0.66 8 1 C8 2.32 8 3.64 8 5 C9.32 5.33 10.64 5.66 12 6 C12 6.66 12 7.32 12 8 C10.02 8 8.04 8 6 8 C6 8.66 6 9.32 6 10 C2.37 10 -1.26 10 -5 10 C-4.67 9.01 -4.34 8.02 -4 7 C-3.34 6.67 -2.68 6.34 -2 6 C-1.27306096 4.02111039 -0.60183749 2.02045442 0 0 Z " fill="#523560" transform="translate(162,11)"/>
<path d="M0 0 C0.66 0.66 1.32 1.32 2 2 C3.85400404 2.91865065 5.73240533 3.78873724 7.625 4.625 C8.62789062 5.07101563 9.63078125 5.51703125 10.6640625 5.9765625 C11.43492187 6.31429687 12.20578125 6.65203125 13 7 C12.67 7.66 12.34 8.32 12 9 C11.34 8.67 10.68 8.34 10 8 C9.67 8.99 9.34 9.98 9 11 C5.6875 11.3125 5.6875 11.3125 2 11 C0.375 8.5625 0.375 8.5625 -1 6 C-3.59122743 5.11341534 -3.59122743 5.11341534 -6 5 C-6 4.01 -6 3.02 -6 2 C-2.25 0 -2.25 0 0 0 Z " fill="#3C5025" transform="translate(210,59)"/>
<path d="M0 0 C-0.55011562 3.76745848 -2.02377592 5.30609364 -4.875 7.75 C-5.92300781 8.67039062 -5.92300781 8.67039062 -6.9921875 9.609375 C-9 11 -9 11 -12 11 C-12.33 10.34 -12.66 9.68 -13 9 C-13.99 9.66 -14.98 10.32 -16 11 C-15.27466085 7.22823643 -14.23664062 4.14527588 -12 1 C-8.05119977 -0.14191051 -4.07865401 0 0 0 Z " fill="#D42A5F" transform="translate(107,57)"/>
<path d="M0 0 C-1.125 1.5 -1.125 1.5 -3 3 C-6.1875 3.1875 -6.1875 3.1875 -9 3 C-8.80528889 4.94999129 -8.80528889 4.94999129 -8 7 C-6.0162233 8.28436734 -6.0162233 8.28436734 -4 9 C-4 9.33 -4 9.66 -4 10 C-9.0302076 9.47462276 -14.01885239 8.89405214 -19 8 C-19 7.34 -19 6.68 -19 6 C-20.32 5.67 -21.64 5.34 -23 5 C-18.545 4.505 -18.545 4.505 -14 4 C-14 3.34 -14 2.68 -14 2 C-12.04396149 1.47061343 -10.08507711 0.95173199 -8.125 0.4375 C-7.03445312 0.14746094 -5.94390625 -0.14257812 -4.8203125 -0.44140625 C-2 -1 -2 -1 0 0 Z " fill="#37501D" transform="translate(84,43)"/>
<path d="M0 0 C-0.53625 0.226875 -1.0725 0.45375 -1.625 0.6875 C-7.31430721 3.69624141 -7.31430721 3.69624141 -10.57958984 8.9074707 C-10.81243051 11.05985788 -10.8827378 13.14785003 -10.875 15.3125 C-10.895625 16.05306641 -10.91625 16.79363281 -10.9375 17.55664062 C-10.9843121 19.37060942 -10.99573545 21.18543229 -11 23 C-12.32 23 -13.64 23 -15 23 C-15 14.43323797 -14.22694183 7.4348494 -9.8125 0 C-6.63780586 -1.75155539 -3.47246279 -0.62618182 0 0 Z " fill="#742268" transform="translate(98,56)"/>
<path d="M0 0 C0 0.33 0 0.66 0 1 C-5.28 1 -10.56 1 -16 1 C-16.66 2.32 -17.32 3.64 -18 5 C-19.13679996 6.76954711 -20.30544925 8.51891375 -21.5 10.25 C-22.1084375 11.14203125 -22.716875 12.0340625 -23.34375 12.953125 C-23.8903125 13.62859375 -24.436875 14.3040625 -25 15 C-25.66 15 -26.32 15 -27 15 C-27.33 15.66 -27.66 16.32 -28 17 C-27.53640488 12.27132978 -26.9200845 8.81857204 -24 5 C-23.01 4.67 -22.02 4.34 -21 4 C-20.4225 3.34 -19.845 2.68 -19.25 2 C-13.99956485 -2.66705347 -6.46186071 -0.84511257 0 0 Z " fill="#AC1F5D" transform="translate(163,24)"/>
<path d="M0 0 C2.475 0.99 2.475 0.99 5 2 C5 2.66 5 3.32 5 4 C4.01 4.495 4.01 4.495 3 5 C3.33 6.65 3.66 8.3 4 10 C4.66 8.02 5.32 6.04 6 4 C6.33 5.32 6.66 6.64 7 8 C9.31 7.34 11.62 6.68 14 6 C13.01 7.485 13.01 7.485 12 9 C11.34 9 10.68 9 10 9 C10 9.66 10 10.32 10 11 C9.38125 11.12375 8.7625 11.2475 8.125 11.375 C5.80879168 11.87197356 5.80879168 11.87197356 4 14 C2.68 14 1.36 14 0 14 C0 12.02 0 10.04 0 8 C-0.99 7.67 -1.98 7.34 -3 7 C-2.34 6.34 -1.68 5.68 -1 5 C-0.35232207 2.42938689 -0.35232207 2.42938689 0 0 Z " fill="#3B4426" transform="translate(147,73)"/>
<path d="M0 0 C0.66 0 1.32 0 2 0 C2 0.66 2 1.32 2 2 C4.58340384 2.02703562 7.16652308 2.04685611 9.75 2.0625 C10.47960937 2.07087891 11.20921875 2.07925781 11.9609375 2.08789062 C16.01935881 2.13397041 16.01935881 2.13397041 20.00878906 1.49780273 C22.9995535 0.75011162 25.93375647 0.94103378 29 1 C23.69104812 5.67187766 17.3516159 6.44068325 10.51171875 6.3359375 C6.43540422 5.79073836 3.51757983 4.08449175 0 2 C0 1.34 0 0.68 0 0 Z " fill="#6C216D" transform="translate(78,47)"/>
<path d="M0 0 C0.33 0 0.66 0 1 0 C1.04898438 0.98742188 1.09796875 1.97484375 1.1484375 2.9921875 C1.22320312 4.27351563 1.29796875 5.55484375 1.375 6.875 C1.44460937 8.15117188 1.51421875 9.42734375 1.5859375 10.7421875 C1.67241106 14.08061699 1.67241106 14.08061699 4 16 C4.125 19.125 4.125 19.125 4 22 C2.125 21.75 2.125 21.75 0 21 C-2.53783001 17.43284033 -2.29832414 13.57919991 -2.25 9.375 C-2.25773437 8.694375 -2.26546875 8.01375 -2.2734375 7.3125 C-2.25344122 2.25344122 -2.25344122 2.25344122 0 0 Z " fill="#7D1E67" transform="translate(117,60)"/>
<path d="M0 0 C7.07142857 3.14285714 7.07142857 3.14285714 9 7 C9.41508447 11.5659292 9.00007696 14.87484127 7 19 C6.34 19 5.68 19 5 19 C4.67 19.99 4.34 20.98 4 22 C3.67 21.34 3.34 20.68 3 20 C3.4640625 18.88625 3.4640625 18.88625 3.9375 17.75 C5.18949576 14.50954037 5.51280083 12.44309132 5 9 C3.35360035 7.64172029 1.68704193 6.30745749 0 5 C-0.3125 2.25 -0.3125 2.25 0 0 Z " fill="#B6205B" transform="translate(133,53)"/>
<path d="M0 0 C0.33 1.32 0.66 2.64 1 4 C-0.0828125 4.12375 -0.0828125 4.12375 -1.1875 4.25 C-4.55313254 5.14750201 -6.41612816 6.7114278 -9 9 C-9.99 8.34 -10.98 7.68 -12 7 C-11.67 4.69 -11.34 2.38 -11 0 C-6.94952424 -1.35015859 -4.2079832 -0.62084998 0 0 Z " fill="#2E4518" transform="translate(241,46)"/>
<path d="M0 0 C0.84114171 1.43294498 1.67265687 2.87154405 2.5 4.3125 C3.19609375 5.51326172 3.19609375 5.51326172 3.90625 6.73828125 C5 9 5 9 5 12 C4.34 12 3.68 12 3 12 C2.566875 13.2065625 2.566875 13.2065625 2.125 14.4375 C1 17 1 17 -1 18 C-1.03738281 17.33613281 -1.07476562 16.67226563 -1.11328125 15.98828125 C-1.4985448 10.81366298 -1.998513 7.36579927 -5 3 C-3.7124791 0.4249582 -2.85933002 0 0 0 Z " fill="#872A6C" transform="translate(137,12)"/>
<path d="M0 0 C3 1 3 1 5 2 C5 2.66 5 3.32 5 4 C8.56553155 3.38876602 11.66981698 2.40218232 15 1 C15.99 0.67 16.98 0.34 18 0 C18.99 0.99 19.98 1.98 21 3 C20.443125 3.103125 19.88625 3.20625 19.3125 3.3125 C16.9078793 3.89858266 16.9078793 3.89858266 14.8125 5.5 C11.08812011 7.48633594 7.23640708 8.36493394 3 8 C1.3515625 6.6328125 1.3515625 6.6328125 0 5 C-0.66 4.34 -1.32 3.68 -2 3 C-1.34 2.01 -0.68 1.02 0 0 Z " fill="#557928" transform="translate(189,53)"/>
<path d="M0 0 C-1.134375 0.495 -2.26875 0.99 -3.4375 1.5 C-7.9100891 3.71650433 -11.24344619 6.72782911 -14.89453125 10.08984375 C-17.50385703 12.45711705 -19.89023112 14.33663525 -23 16 C-25.375 15.75 -25.375 15.75 -27 15 C-26.01 15 -25.02 15 -24 15 C-24 14.01 -24 13.02 -24 12 C-20.78375356 8.08019965 -17.42540235 6.00107966 -12.921875 3.91015625 C-10.81607517 2.95520602 -10.81607517 2.95520602 -8.25 1.3125 C-5.2501493 -0.43741291 -3.21888618 -1.60944309 0 0 Z " fill="#577C28" transform="translate(223,34)"/>
<path d="M0 0 C3.16595501 0.56534911 6.0410416 1.76710066 9 3 C8.34 5.64 7.68 8.28 7 11 C5.68 11.33 4.36 11.66 3 12 C2.67 10.35 2.34 8.7 2 7 C1.34 7 0.68 7 0 7 C-0.38133299 5.0085944 -0.71325582 3.00720923 -1 1 C-0.67 0.67 -0.34 0.34 0 0 Z " fill="#3A4525" transform="translate(31,22)"/>
<path d="M0 0 C4.57622244 0.49472675 4.57622244 0.49472675 6.625 2.9375 C7.07875 3.618125 7.5325 4.29875 8 5 C8.99 5.66 9.98 6.32 11 7 C10.67 7.99 10.34 8.98 10 10 C1.80743982 9.64989059 1.80743982 9.64989059 -1.5625 6.9375 C-2.036875 6.298125 -2.51125 5.65875 -3 5 C-2.505 4.54625 -2.01 4.0925 -1.5 3.625 C0.22609337 2.12364481 0.22609337 2.12364481 0 0 Z " fill="#3B4726" transform="translate(23,48)"/>
<path d="M0 0 C0.33 0.66 0.66 1.32 1 2 C1.99 2 2.98 2 4 2 C4.66 4.31 5.32 6.62 6 9 C4.08191891 8.54762239 2.16557967 8.08785537 0.25 7.625 C-0.81734375 7.36976562 -1.8846875 7.11453125 -2.984375 6.8515625 C-5.55852722 6.12466459 -7.67600186 5.2973776 -10 4 C-10 3.34 -10 2.68 -10 2 C-6.7 1.34 -3.4 0.68 0 0 Z " fill="#495E2B" transform="translate(199,62)"/>
<path d="M0 0 C0.66 0 1.32 0 2 0 C1.34 2.64 0.68 5.28 0 8 C-0.66 8 -1.32 8 -2 8 C-2 8.99 -2 9.98 -2 11 C-4.25 13.4375 -4.25 13.4375 -7 16 C-7.61875 16.78375 -8.2375 17.5675 -8.875 18.375 C-11 20 -11 20 -14.6875 19.875 C-15.780625 19.58625 -16.87375 19.2975 -18 19 C-18.33 18.34 -18.66 17.68 -19 17 C-18.113125 17.103125 -17.22625 17.20625 -16.3125 17.3125 C-11.91928194 16.89804547 -10.7896435 15.31741389 -8 12 C-7.443125 11.236875 -6.88625 10.47375 -6.3125 9.6875 C-5.6628125 8.8521875 -5.6628125 8.8521875 -5 8 C-4.34 8 -3.68 8 -3 8 C-2.87625 7.4225 -2.7525 6.845 -2.625 6.25 C-1.99351176 3.97664233 -1.11141809 2.0746471 0 0 Z " fill="#831F66" transform="translate(112,60)"/>
<path d="M0 0 C-4.77714012 5.32309899 -11.43756998 8.29203672 -18.4921875 9.38671875 C-20.625 9.4375 -20.625 9.4375 -24 9 C-24.66 8.34 -25.32 7.68 -26 7 C-25.34 7 -24.68 7 -24 7 C-23.67 6.01 -23.34 5.02 -23 4 C-22.34 4 -21.68 4 -21 4 C-21 4.66 -21 5.32 -21 6 C-16.58597578 6.38382819 -14.24656139 5.27319455 -10.5 3 C-6.75343861 0.72680545 -4.41402422 -0.38382819 0 0 Z " fill="#394824" transform="translate(60,49)"/>
<path d="M0 0 C-0.59167969 0.24234375 -1.18335938 0.4846875 -1.79296875 0.734375 C-6.44659147 2.70817909 -10.1113302 4.72533069 -14 8 C-16.2963717 9.41166429 -18.63589543 10.70206024 -21 12 C-22 9 -22 9 -21.390625 6.9453125 C-19.51049677 4.31524548 -17.80100745 3.86699422 -14.75 2.875 C-13.27273437 2.38580078 -13.27273437 2.38580078 -11.765625 1.88671875 C-10.85296875 1.59410156 -9.9403125 1.30148438 -9 1 C-7.845 0.566875 -6.69 0.13375 -5.5 -0.3125 C-3 -1 -3 -1 0 0 Z " fill="#9E1F60" transform="translate(165,33)"/>
<path d="M0 0 C1.41702513 0.14230808 2.8336096 0.28900746 4.25 0.4375 C5.43335938 0.55931641 5.43335938 0.55931641 6.640625 0.68359375 C10.82748704 1.2450769 13.16922124 1.74460442 16 5 C15.67 5.99 15.34 6.98 15 8 C3.77723971 6.14769976 3.77723971 6.14769976 0 3 C0 2.01 0 1.02 0 0 Z " fill="#DB2D86" transform="translate(151,50)"/>
<path d="M0 0 C0.99 0.33 1.98 0.66 3 1 C4.62866069 5.37166817 5.51724057 9.34483487 5 14 C3.625 16.375 3.625 16.375 2 18 C1.34 18 0.68 18 0 18 C0 12.06 0 6.12 0 0 Z " fill="#E731BD" transform="translate(125,21)"/>
<path d="M0 0 C0.66 0.33 1.32 0.66 2 1 C2.32120156 5.60388896 1.99179956 8.38920743 -1 12 C-3.6875 12.8125 -3.6875 12.8125 -6 13 C-6.50341475 7.7141451 -5.26910671 5.13445849 -2 1 C-1.34 0.67 -0.68 0.34 0 0 Z " fill="#5F3578" transform="translate(145,71)"/>
<path d="M0 0 C4.31687378 0.35001679 6.19275066 1.77686187 9 5 C8.360625 5.28875 7.72125 5.5775 7.0625 5.875 C4.84793921 6.82823451 4.84793921 6.82823451 4 9 C3.34 9 2.68 9 2 9 C2 9.66 2 10.32 2 11 C-1.46153846 14 -1.46153846 14 -4 14 C-4 13.01 -4 12.02 -4 11 C-2.68 10.34 -1.36 9.68 0 9 C-0.185625 7.700625 -0.37125 6.40125 -0.5625 5.0625 C-0.87890625 2.84765625 -0.87890625 2.84765625 -1 1 C-0.67 0.67 -0.34 0.34 0 0 Z " fill="#597A2C" transform="translate(196,35)"/>
<path d="M0 0 C0 0.66 0 1.32 0 2 C-0.66 2 -1.32 2 -2 2 C-1.0022242 4.99332739 -0.2477975 5.94766315 2 8 C-0.475 9.485 -0.475 9.485 -3 11 C-6.465 9.02 -6.465 9.02 -10 7 C-8.89184175 3.78634109 -8.01470446 3.0085776 -5 1.25 C-2 0 -2 0 0 0 Z " fill="#475B2B" transform="translate(231,56)"/>
<path d="M0 0 C2.1875 1.3125 2.1875 1.3125 3.1875 4.3125 C2.5275 4.3125 1.8675 4.3125 1.1875 4.3125 C1.1875 4.9725 1.1875 5.6325 1.1875 6.3125 C0.445 6.291875 -0.2975 6.27125 -1.0625 6.25 C-3.75076222 6.19516896 -3.75076222 6.19516896 -6 6.9375 C-6.598125 7.06125 -7.19625 7.185 -7.8125 7.3125 C-8.4725 6.6525 -9.1325 5.9925 -9.8125 5.3125 C-8.8225 4.9825 -7.8325 4.6525 -6.8125 4.3125 C-6.8125 3.6525 -6.8125 2.9925 -6.8125 2.3125 C-7.4725 1.9825 -8.1325 1.6525 -8.8125 1.3125 C-5.48893635 -0.0787592 -3.55467647 -0.86892092 0 0 Z " fill="#DB607B" transform="translate(130.8125,43.6875)"/>
<path d="M0 0 C0.33 0 0.66 0 1 0 C2.19287411 3.87684087 3 6.91621923 3 11 C3.66 11 4.32 11 5 11 C5 11.66 5 12.32 5 13 C1.71023192 14.09658936 0.28696233 13.79953138 -3 13 C-3.0270043 11.54176788 -3.04639787 10.08339325 -3.0625 8.625 C-3.07410156 7.81289063 -3.08570313 7.00078125 -3.09765625 6.1640625 C-3 4 -3 4 -2 2 C-1.34 2 -0.68 2 0 2 C0 1.34 0 0.68 0 0 Z " fill="#899C32" transform="translate(230,20)"/>
<path d="M0 0 C1.03253906 0.01353516 1.03253906 0.01353516 2.0859375 0.02734375 C3.76577838 0.05067487 5.44543746 0.08653674 7.125 0.125 C4.30054408 2.00797062 2.89104728 2.5479435 -0.32421875 3.1953125 C-1.59555664 3.45634766 -1.59555664 3.45634766 -2.89257812 3.72265625 C-3.77365234 3.89667969 -4.65472656 4.07070313 -5.5625 4.25 C-6.45517578 4.43175781 -7.34785156 4.61351562 -8.26757812 4.80078125 C-10.46892657 5.24811409 -12.67132949 5.6892764 -14.875 6.125 C-14.53564453 4.20263672 -14.53564453 4.20263672 -13.875 2.125 C-9.34505613 -0.06424339 -4.93411506 -0.1243091 0 0 Z " fill="#D92C79" transform="translate(161.875,26.875)"/>
<path d="M0 0 C1.32 0 2.64 0 4 0 C5.32229189 2.64458379 5.09677194 4.67761301 5.0625 7.625 C5.05347656 8.62789062 5.04445312 9.63078125 5.03515625 10.6640625 C5.02355469 11.43492188 5.01195312 12.20578125 5 13 C3.0625 12.625 3.0625 12.625 1 12 C-0.26237731 9.47524538 -0.09856404 7.68799534 -0.0625 4.875 C-0.05347656 3.96492188 -0.04445313 3.05484375 -0.03515625 2.1171875 C-0.02355469 1.41851562 -0.01195313 0.71984375 0 0 Z " fill="#E43092" transform="translate(127,59)"/>
<path d="M0 0 C0 0.66 0 1.32 0 2 C-1.093125 1.87625 -2.18625 1.7525 -3.3125 1.625 C-9.35016451 1.61423767 -14.13514732 4.67059197 -19 8 C-21.52858116 10.54763843 -21.52858116 10.54763843 -23 13 C-23.66 13.66 -24.32 14.32 -25 15 C-25.33 14.34 -25.66 13.68 -26 13 C-19.39370021 2.55945563 -12.32837635 -1.03696623 0 0 Z " fill="#583371" transform="translate(121,4)"/>
<path d="M0 0 C0.66 0.33 1.32 0.66 2 1 C-0.22421992 4.33632988 -0.78255461 4.51222834 -4.4375 5.5625 C-7.49011868 6.45263757 -9.29289991 7.19526661 -12 9 C-14.73990408 8.96856707 -17.28417854 8.44521663 -20 8 C-19.67 7.34 -19.34 6.68 -19 6 C-17.35 6 -15.7 6 -14 6 C-13.67 5.34 -13.34 4.68 -13 4 C-10.3125 3.18359375 -10.3125 3.18359375 -7 2.4375 C-3.18994327 1.84426216 -3.18994327 1.84426216 0 0 Z " fill="#6F3B90" transform="translate(175,33)"/>
<path d="M0 0 C1.32 0.33 2.64 0.66 4 1 C4.625 4.375 4.625 4.375 5 8 C4.34 8.66 3.68 9.32 3 10 C-0.125 9.625 -0.125 9.625 -3 9 C-3 5.85331714 -2.47264871 4.68541824 -1 2 C-0.67 1.34 -0.34 0.68 0 0 Z " fill="#3C4626" transform="translate(6,32)"/>
<path d="M0 0 C-1.875 5.875 -1.875 5.875 -3 7 C-5.67058851 7.14115161 -8.32432238 7.04247107 -11 7 C-11 5.35 -11 3.7 -11 2 C-7.12315913 0.80712589 -4.08378077 0 0 0 Z " fill="#B3275E" transform="translate(192,25)"/>
<path d="M0 0 C2 1.625 2 1.625 4 4 C4.25 7.25 4.25 7.25 4 10 C2.68 10.33 1.36 10.66 0 11 C-0.45375 10.21625 -0.9075 9.4325 -1.375 8.625 C-2.88428742 5.96301969 -2.88428742 5.96301969 -5 4 C-3.35 2.68 -1.7 1.36 0 0 Z " fill="#AB275B" transform="translate(180,37)"/>
<path d="M0 0 C-0.33 1.98 -0.66 3.96 -1 6 C-1.33 5.01 -1.66 4.02 -2 3 C-5.3764736 3.02294167 -8.74961905 3.1004366 -12.125 3.1875 C-13.07632813 3.19330078 -14.02765625 3.19910156 -15.0078125 3.20507812 C-21.43002168 3.40577216 -24.54455957 4.2970351 -29 9 C-27.79618552 6.50638429 -26.54571278 4.31856917 -25 2 C-22.31227038 1.63966702 -19.82090283 1.44180113 -17.125 1.375 C-11.33962222 1.16800974 -5.73922623 -0.15942295 0 0 Z " fill="#BC235C" transform="translate(172,23)"/>
<path d="M0 0 C2.35964273 0.40683495 3.85934088 0.89814339 5.8125 2.3125 C7 4 7 4 6.6875 6.1875 C6.460625 6.785625 6.23375 7.38375 6 8 C6.66 8 7.32 8 8 8 C7.34 9.98 6.68 11.96 6 14 C5.01 14 4.02 14 3 14 C2.92652344 12.98679687 2.92652344 12.98679687 2.8515625 11.953125 C2.77679688 11.06109375 2.70203125 10.1690625 2.625 9.25 C2.55539063 8.36828125 2.48578125 7.4865625 2.4140625 6.578125 C2.00149945 4.00933618 1.28839043 2.24158985 0 0 Z " fill="#921E61" transform="translate(139,56)"/>
<path d="M0 0 C0.99 0.66 1.98 1.32 3 2 C5.50896686 2.45601261 5.50896686 2.45601261 8.1875 2.625 C9.08855469 2.69976562 9.98960937 2.77453125 10.91796875 2.8515625 C11.60503906 2.90054688 12.29210937 2.94953125 13 3 C12.67 3.66 12.34 4.32 12 5 C9.67284 5.37400786 7.33882138 5.70764733 5 6 C4.67 6.33 4.34 6.66 4 7 C1.32941149 7.14115161 -1.32432238 7.04247107 -4 7 C-2.68 4.69 -1.36 2.38 0 0 Z " fill="#50395A" transform="translate(147,65)"/>
<path d="M0 0 C0 0.99 0 1.98 0 3 C-0.66 3 -1.32 3 -2 3 C-2 3.66 -2 4.32 -2 5 C-2.66 5 -3.32 5 -4 5 C-4 5.66 -4 6.32 -4 7 C-4.66 7 -5.32 7 -6 7 C-6.66 8.32 -7.32 9.64 -8 11 C-8.99 11 -9.98 11 -11 11 C-9.38688629 4.69419186 -6.97004455 0 0 0 Z " fill="#653085" transform="translate(107,10)"/>
<path d="M0 0 C0.33 0 0.66 0 1 0 C1.0825 1.03125 1.165 2.0625 1.25 3.125 C2.06358982 7.32854741 3.564505 9.54316838 6 13 C6 13.99 6 14.98 6 16 C6.66 16.33 7.32 16.66 8 17 C6.35 17 4.7 17 3 17 C2.525625 16.030625 2.05125 15.06125 1.5625 14.0625 C0.29806053 11.19522563 0.29806053 11.19522563 -1 10 C-1.23880597 2.47761194 -1.23880597 2.47761194 0 0 Z " fill="#AB1E5C" transform="translate(119,64)"/>
<path d="M0 0 C0.33 0.66 0.66 1.32 1 2 C1.90298828 2.43699219 1.90298828 2.43699219 2.82421875 2.8828125 C5.39062382 4.20057166 6.89123763 5.73127568 8.8125 7.875 C9.43769531 8.55304687 10.06289062 9.23109375 10.70703125 9.9296875 C12 12 12 12 11.69921875 14.2578125 C11.46847656 14.83273438 11.23773438 15.40765625 11 16 C10.67 15.34 10.34 14.68 10 14 C9.38125 13.938125 8.7625 13.87625 8.125 13.8125 C6 13 6 13 4.4375 9.625 C3.963125 8.42875 3.48875 7.2325 3 6 C2.01834406 4.98198643 1.02408568 3.9753197 0 3 C0 2.01 0 1.02 0 0 Z " fill="#93205E" transform="translate(166,45)"/>
<path d="M0 0 C1.32 0 2.64 0 4 0 C4.33 1.32 4.66 2.64 5 4 C6.32 4.33 7.64 4.66 9 5 C8.01 6.485 8.01 6.485 7 8 C3.92078868 8.25660094 1.78863007 8.39431504 -1 7 C-0.67 4.69 -0.34 2.38 0 0 Z " fill="#63822D" transform="translate(90,21)"/>
<path d="M0 0 C2 2 2 2 2 5 C-1.3 5 -4.6 5 -8 5 C-8 3.68 -8 2.36 -8 1 C-5.23749964 -0.38125018 -3.05268901 -0.19079306 0 0 Z " fill="#DC2D95" transform="translate(105,37)"/>
<path d="M0 0 C0.33 0 0.66 0 1 0 C1.226875 1.2375 1.45375 2.475 1.6875 3.75 C2.7005094 7.92034525 4.31959133 9.67553136 8 12 C7.67 12.66 7.34 13.32 7 14 C0.25 11.25 0.25 11.25 -2 9 C-1.45652174 2.91304348 -1.45652174 2.91304348 0 0 Z " fill="#8D2267" transform="translate(108,15)"/>
<path d="M0 0 C1.28432364 3.85297092 0.58019149 5.31288651 -1 9 C-2.875 11.4375 -2.875 11.4375 -5 13 C-7.25 12.75 -7.25 12.75 -9 12 C-8.67 11.01 -8.34 10.02 -8 9 C-7.34 9 -6.68 9 -6 9 C-5.7525 8.443125 -5.505 7.88625 -5.25 7.3125 C-3.78393985 4.60028873 -1.97010529 2.36412635 0 0 Z " fill="#652E6C" transform="translate(112,69)"/>
<path d="M0 0 C-0.56398996 3.50588356 -1.66963773 4.98982392 -4.375 7.25 C-4.98085937 7.77078125 -5.58671875 8.2915625 -6.2109375 8.828125 C-8 10 -8 10 -11 10 C-10.43601004 6.49411644 -9.33036227 5.01017608 -6.625 2.75 C-6.01914063 2.22921875 -5.41328125 1.7084375 -4.7890625 1.171875 C-3 0 -3 0 0 0 Z " fill="#E4309F" transform="translate(107,57)"/>
<path d="M0 0 C0.66 0.66 1.32 1.32 2 2 C1.625 5.125 1.625 5.125 1 8 C-1 7 -1 7 -3 4 C-5.56282742 3.27034634 -5.56282742 3.27034634 -8 3 C-8 2.34 -8 1.68 -8 1 C-5.23749964 -0.38125018 -3.05268901 -0.19079306 0 0 Z " fill="#714A54" transform="translate(198,22)"/>
<path d="M0 0 C-2.66695909 3.45135883 -5.90226024 3.95693897 -10 5 C-10.99 5.495 -10.99 5.495 -12 6 C-13.99960012 6.039992 -16.00047242 6.04346799 -18 6 C-17.67 5.34 -17.34 4.68 -17 4 C-16.01 4 -15.02 4 -14 4 C-14 3.34 -14 2.68 -14 2 C-12.04396149 1.47061343 -10.08507711 0.95173199 -8.125 0.4375 C-7.03445312 0.14746094 -5.94390625 -0.14257812 -4.8203125 -0.44140625 C-2 -1 -2 -1 0 0 Z " fill="#353F24" transform="translate(84,43)"/>
<path d="M0 0 C1.4606285 2.64738916 2 3.89448334 2 7 C-0.31 6.67 -2.62 6.34 -5 6 C-5.66 4.35 -6.32 2.7 -7 1 C-4.50935112 0.31292445 -2.62113708 0 0 0 Z " fill="#992559" transform="translate(191,35)"/>
<path d="M0 0 C0.99 0.33 1.98 0.66 3 1 C3.20625 2.093125 3.4125 3.18625 3.625 4.3125 C4.59318999 8.04126677 4.59318999 8.04126677 7.125 9.3515625 C9.39357884 10.33697644 11.65260305 11.22236439 14 12 C14 12.66 14 13.32 14 14 C7.83786566 12.56216865 4.00452047 10.6720123 -0.1015625 5.81640625 C-1 4 -1 4 -0.6484375 1.77734375 C-0.43445313 1.19082031 -0.22046875 0.60429688 0 0 Z " fill="#513659" transform="translate(172,46)"/>
<path d="M0 0 C0.66 0 1.32 0 2 0 C2.99 1.98 3.98 3.96 5 6 C6.65 6 8.3 6 10 6 C9.34 7.65 8.68 9.3 8 11 C6.35 10.67 4.7 10.34 3 10 C2.01 6.7 1.02 3.4 0 0 Z " fill="#3A4625" transform="translate(57,34)"/>
<path d="M0 0 C0 0.66 0 1.32 0 2 C-8.415 2.495 -8.415 2.495 -17 3 C-16.67 2.01 -16.34 1.02 -16 0 C-10.49983036 -1.30267176 -5.52967941 -0.71033431 0 0 Z " fill="#354025" transform="translate(250,28)"/>
<path d="M0 0 C1.98 0 3.96 0 6 0 C6.47877076 4.11742854 6.32165374 5.58006317 3.75 8.9375 C1 11 1 11 -1.3125 10.8125 C-1.869375 10.544375 -2.42625 10.27625 -3 10 C-2.34 9.34 -1.68 8.68 -1 8 C0.32 8 1.64 8 3 8 C3.33 6.02 3.66 4.04 4 2 C2.68 2 1.36 2 0 2 C0 1.34 0 0.68 0 0 Z " fill="#A4215E" transform="translate(168,21)"/>
<path d="M0 0 C5.28 0.66 10.56 1.32 16 2 C12.68759039 4.20827308 10.93650463 4.69719195 7 5 C3.125 4.0625 3.125 4.0625 0 3 C0 2.01 0 1.02 0 0 Z " fill="#941F62" transform="translate(121,80)"/>
<path d="M0 0 C0.33 0 0.66 0 1 0 C1.09796875 0.90363281 1.1959375 1.80726562 1.296875 2.73828125 C1.44640625 3.91777344 1.5959375 5.09726562 1.75 6.3125 C1.88921875 7.48425781 2.0284375 8.65601563 2.171875 9.86328125 C2.72297532 13.08899366 2.72297532 13.08899366 5.078125 14.91796875 C5.71234375 15.27503906 6.3465625 15.63210937 7 16 C3 16 3 16 0.734375 14.390625 C-1.5616465 11.22583861 -1.24879341 9.57408282 -0.75 5.75 C-0.62109375 4.67234375 -0.4921875 3.5946875 -0.359375 2.484375 C-0.24078125 1.66453125 -0.1221875 0.8446875 0 0 Z " fill="#B9245D" transform="translate(119,27)"/>
<path d="M0 0 C1.98 0 3.96 0 6 0 C6.92470553 4.71599818 7.22923777 7.67265609 5 12 C4.34 11.67 3.68 11.34 3 11 C3.33 7.7 3.66 4.4 4 1 C2.68 0.67 1.36 0.34 0 0 Z " fill="#7D2566" transform="translate(170,20)"/>
<path d="M0 0 C1.65 0.33 3.3 0.66 5 1 C5 1.66 5 2.32 5 3 C5.99 3.33 6.98 3.66 8 4 C8 4.33 8 4.66 8 5 C3.545 5.495 3.545 5.495 -1 6 C-1.33 4.68 -1.66 3.36 -2 2 C-1.34 2 -0.68 2 0 2 C0 1.34 0 0.68 0 0 Z " fill="#8E2466" transform="translate(190,17)"/>
<path d="M0 0 C2.31 0 4.62 0 7 0 C7 0.66 7 1.32 7 2 C8.32 2.33 9.64 2.66 11 3 C11 3.66 11 4.32 11 5 C7.7 5 4.4 5 1 5 C0.67 3.35 0.34 1.7 0 0 Z " fill="#8C1F58" transform="translate(163,14)"/>
<path d="M0 0 C0.70125 0.09023437 1.4025 0.18046875 2.125 0.2734375 C4 0.625 4 0.625 6 1.625 C5.67 2.285 5.34 2.945 5 3.625 C3.1875 4.1875 3.1875 4.1875 1 4.625 C-0.11375 4.9034375 -0.11375 4.9034375 -1.25 5.1875 C-1.8275 5.331875 -2.405 5.47625 -3 5.625 C-3 4.305 -3 2.985 -3 1.625 C-3.99 1.295 -4.98 0.965 -6 0.625 C-3.6150282 -0.5674859 -2.60431911 -0.354264 0 0 Z " fill="#712E74" transform="translate(117,5.375)"/>
<path d="M0 0 C0.66 0 1.32 0 2 0 C2 0.66 2 1.32 2 2 C7.28 2.33 12.56 2.66 18 3 C18 3.33 18 3.66 18 4 C15.9399629 4.25034126 13.87672534 4.47443346 11.8125 4.6875 C10.08966797 4.87892578 10.08966797 4.87892578 8.33203125 5.07421875 C4.59744406 4.99103334 2.90417945 4.30256035 0 2 C0 1.34 0 0.68 0 0 Z " fill="#7A2065" transform="translate(78,47)"/>
<path d="M0 0 C6.41991126 0.57065878 12.01589463 2.67344909 18 5 C17.67 6.32 17.34 7.64 17 9 C16.59523438 8.53722656 16.19046875 8.07445312 15.7734375 7.59765625 C13.75584432 5.78004477 12.21274687 5.2102913 9.625 4.4375 C6.34795623 3.42177681 3.16738882 2.32825983 0 1 C0 0.67 0 0.34 0 0 Z " fill="#577C28" transform="translate(13,23)"/>
<path d="M0 0 C0.1953125 6.0546875 0.1953125 6.0546875 0 8 C-0.66 8.66 -1.32 9.32 -2 10 C-2.99 9.34 -3.98 8.68 -5 8 C-3.91891892 0 -3.91891892 0 0 0 Z " fill="#86962F" transform="translate(27,8)"/>
<path d="M0 0 C3.40312738 1.05875074 6.01353231 2.00902154 9 4 C9 4.99 9 5.98 9 7 C5.2241456 6.47557578 2.77627845 5.67345333 0 3 C0 2.01 0 1.02 0 0 Z " fill="#85962F" transform="translate(217,44)"/>
<path d="M0 0 C3.48746762 0.0827319 6.82471633 0.50244327 10.25 1.1875 C9.92 1.8475 9.59 2.5075 9.25 3.1875 C4.09828377 3.27788099 -0.66913204 3.03431133 -5.75 2.1875 C-3.75 0.1875 -3.75 0.1875 0 0 Z " fill="#901F63" transform="translate(154.75,42.8125)"/>
<path d="M0 0 C0.66 0 1.32 0 2 0 C2.66 1.32 3.32 2.64 4 4 C3.01 5.485 3.01 5.485 2 7 C-1.125 7.1875 -1.125 7.1875 -4 7 C-2.79618552 4.50638429 -1.54571278 2.31856917 0 0 Z " fill="#5D6A2A" transform="translate(86,27)"/>
<path d="M0 0 C0.33 0 0.66 0 1 0 C1.28571429 7.42857143 1.28571429 7.42857143 -1 11 C-1.66 11 -2.32 11 -3 11 C-3.125 4.25 -3.125 4.25 -2 2 C-1.34 2 -0.68 2 0 2 C0 1.34 0 0.68 0 0 Z " fill="#B6BC4C" transform="translate(230,20)"/>
<path d="M0 0 C2.31 0 4.62 0 7 0 C7 0.99 7 1.98 7 3 C4.64561267 4.42944945 3.51967567 5.08661261 0.75 4.625 C0.1725 4.41875 -0.405 4.2125 -1 4 C-0.67 2.68 -0.34 1.36 0 0 Z " fill="#567928" transform="translate(171,74)"/>
<path d="M0 0 C0.99 0.33 1.98 0.66 3 1 C0.78071806 3.90802461 -0.92969143 5.95312762 -4 8 C-6.04296875 8.1953125 -6.04296875 8.1953125 -8.1875 8.125 C-10.0746875 8.063125 -10.0746875 8.063125 -12 8 C-11.67 7.34 -11.34 6.68 -11 6 C-8.98232882 5.54439683 -6.96452688 5.08933931 -4.9453125 4.640625 C-2.31092919 3.77307708 -1.28456659 2.40856236 0 0 Z " fill="#AB1D5C" transform="translate(103,70)"/>
<path d="M0 0 C-0.98828125 1.51953125 -0.98828125 1.51953125 -3 3 C-5.83056579 3.05538697 -8.39069365 2.9635167 -11.1875 2.6875 C-11.93708984 2.62626953 -12.68667969 2.56503906 -13.45898438 2.50195312 C-15.30722745 2.34891389 -17.1538335 2.17633121 -19 2 C-19 1.67 -19 1.34 -19 1 C-16.95857606 0.83038614 -14.91684689 0.66444404 -12.875 0.5 C-11.16957031 0.36078125 -11.16957031 0.36078125 -9.4296875 0.21875 C-6.27402851 0.0174779 -3.16078835 -0.03842904 0 0 Z " fill="#7E1E5C" transform="translate(176,62)"/>
<path d="M0 0 C-1.62339805 1.70884005 -3.29319053 3.37446717 -5 5 C-5.66 5 -6.32 5 -7 5 C-7.33 3.35 -7.66 1.7 -8 0 C-4.71023192 -1.09658936 -3.28696233 -0.79953138 0 0 Z " fill="#537727" transform="translate(232,41)"/>
<path d="M0 0 C0.66 0 1.32 0 2 0 C2 0.99 2 1.98 2 3 C2.33 2.01 2.66 1.02 3 0 C3.66 0 4.32 0 5 0 C5 1.98 5 3.96 5 6 C2.6568787 5.74438677 0.32156597 5.40729228 -2 5 C-2.33 4.34 -2.66 3.68 -3 3 C-2.01 3 -1.02 3 0 3 C0 2.01 0 1.02 0 0 Z " fill="#70852C" transform="translate(57,58)"/>
<path d="M0 0 C1.125 1.5 1.125 1.5 2 4 C1.57598348 6.7773082 0.81108065 9.29639783 0 12 C-0.33 12 -0.66 12 -1 12 C-1.144375 11.21625 -1.28875 10.4325 -1.4375 9.625 C-1.87798925 7.03578982 -1.87798925 7.03578982 -3 5 C-1.5625 2.375 -1.5625 2.375 0 0 Z " fill="#931E60" transform="translate(119,54)"/>
<path d="M0 0 C0.99 0.33 1.98 0.66 3 1 C2.34 2.32 1.68 3.64 1 5 C-1.64 4.67 -4.28 4.34 -7 4 C-6.67 3.34 -6.34 2.68 -6 2 C-4.35 2 -2.7 2 -1 2 C-0.67 1.34 -0.34 0.68 0 0 Z " fill="#673F9A" transform="translate(162,37)"/>
<path d="M0 0 C0.99 0.33 1.98 0.66 3 1 C3.75 3.25 3.75 3.25 4 6 C2.0625 8.3125 2.0625 8.3125 0 10 C0 6.7 0 3.4 0 0 Z " fill="#9C296E" transform="translate(136,20)"/>
<path d="M0 0 C5.09448798 0.43173627 8.84512277 0.75400216 13 4 C13 4.66 13 5.32 13 6 C12.34 5.731875 11.68 5.46375 11 5.1875 C7.35060933 3.74294953 3.67754567 2.37128822 0 1 C0 0.67 0 0.34 0 0 Z " fill="#5D316F" transform="translate(122,5)"/>
<path d="M0 0 C3.6875 0.875 3.6875 0.875 7 2 C3.5980513 4.09350689 0.94727588 4.17942163 -3 4 C-3 3.34 -3 2.68 -3 2 C-2.01 1.34 -1.02 0.68 0 0 Z " fill="#3C4F25" transform="translate(181,66)"/>
<path d="M0 0 C0.66 0 1.32 0 2 0 C1.34 2.64 0.68 5.28 0 8 C-0.66 8 -1.32 8 -2 8 C-2.33 8.99 -2.66 9.98 -3 11 C-3.3227506 6.37390802 -2.84450614 3.71973879 0 0 Z " fill="#892F7A" transform="translate(112,60)"/>
<path d="M0 0 C3 1 3 1 5 2 C5 2.99 5 3.98 5 5 C3.1875 5.6875 3.1875 5.6875 1 6 C-0.75 4.5625 -0.75 4.5625 -2 3 C-1.34 2.01 -0.68 1.02 0 0 Z " fill="#505E28" transform="translate(189,53)"/>
<path d="M0 0 C2 3 2 3 2 6 C-1.375 5.6875 -1.375 5.6875 -5 5 C-5.66 4.01 -6.32 3.02 -7 2 C-4.69 2.33 -2.38 2.66 0 3 C0 2.01 0 1.02 0 0 Z " fill="#8C346D" transform="translate(193,39)"/>
<path d="M0 0 C2.97 0.33 5.94 0.66 9 1 C9 1.66 9 2.32 9 3 C7.35 3 5.7 3 4 3 C4 3.66 4 4.32 4 5 C2.68 4.67 1.36 4.34 0 4 C0 2.68 0 1.36 0 0 Z " fill="#465C27" transform="translate(0,23)"/>
<path d="M0 0 C0.66 0.33 1.32 0.66 2 1 C2.484375 2.77734375 2.484375 2.77734375 2.75 4.9375 C2.84796875 5.64777344 2.9459375 6.35804687 3.046875 7.08984375 C3 9 3 9 1 11 C-1.03684712 6.92630576 -1.0257259 4.41062136 0 0 Z " fill="#596529" transform="translate(232,19)"/>
<path d="M0 0 C0.66 0 1.32 0 2 0 C2 1.65 2 3.3 2 5 C0.35 5.66 -1.3 6.32 -3 7 C-2.25 2.25 -2.25 2.25 0 0 Z " fill="#A4A850" transform="translate(237,54)"/>
<path d="M0 0 C0.66 0 1.32 0 2 0 C2 0.99 2 1.98 2 3 C2.66 3 3.32 3 4 3 C3.34 4.98 2.68 6.96 2 9 C1.34 8.67 0.68 8.34 0 8 C0 5.36 0 2.72 0 0 Z " fill="#7F2064" transform="translate(143,61)"/>
<path d="M0 0 C0.33 0.66 0.66 1.32 1 2 C3.52733235 2.65555119 3.52733235 2.65555119 6 3 C5.01 4.485 5.01 4.485 4 6 C1.69 5.67 -0.62 5.34 -3 5 C-2.01 3.35 -1.02 1.7 0 0 Z " fill="#B2215C" transform="translate(115,40)"/>
<path d="M0 0 C1.32 0.33 2.64 0.66 4 1 C4.33 2.65 4.66 4.3 5 6 C2.03 5.01 -0.94 4.02 -4 3 C-4 2.34 -4 1.68 -4 1 C-2.68 1.33 -1.36 1.66 0 2 C0 1.34 0 0.68 0 0 Z " fill="#8C1E63" transform="translate(110,29)"/>
<path d="M0 0 C2.97 0 5.94 0 9 0 C9 0.99 9 1.98 9 3 C4.94568308 4.15837626 2.78187881 3.83691257 -1 2 C-0.67 1.34 -0.34 0.68 0 0 Z " fill="#425626" transform="translate(21,29)"/>
<path d="M0 0 C2.475 0.99 2.475 0.99 5 2 C4.67 3.98 4.34 5.96 4 8 C3.01 8 2.02 8 1 8 C1.020625 7.05125 1.04125 6.1025 1.0625 5.125 C1.22551826 2.09333717 1.22551826 2.09333717 0 0 Z " fill="#8C9C30" transform="translate(32,25)"/>
<path d="M0 0 C0.99 0 1.98 0 3 0 C4.75 2.375 4.75 2.375 6 5 C5.67 5.66 5.34 6.32 5 7 C4.01 6.67 3.02 6.34 2 6 C2 5.34 2 4.68 2 4 C1.01 3.67 0.02 3.34 -1 3 C-0.67 2.01 -0.34 1.02 0 0 Z " fill="#D52B88" transform="translate(125,16)"/>
<path d="M0 0 C0.33 0.99 0.66 1.98 1 3 C1.66 3.33 2.32 3.66 3 4 C1.68 6.31 0.36 8.62 -1 11 C-3 7.25 -3 7.25 -3 5 C-2.34 4.67 -1.68 4.34 -1 4 C-0.34786708 1.97536745 -0.34786708 1.97536745 0 0 Z " fill="#9F2158" transform="translate(141,67)"/>
<path d="M0 0 C2.64 0.33 5.28 0.66 8 1 C7.01 1.33 6.02 1.66 5 2 C5 3.32 5 4.64 5 6 C3 5 3 5 0 3 C0 2.01 0 1.02 0 0 Z " fill="#6F2E66" transform="translate(187,44)"/>
<path d="M0 0 C0.99 0.66 1.98 1.32 3 2 C3.1875 5.125 3.1875 5.125 3 8 C1.68 8.33 0.36 8.66 -1 9 C-1.33 8.34 -1.66 7.68 -2 7 C-1.34 6.67 -0.68 6.34 0 6 C0 4.02 0 2.04 0 0 Z " fill="#9D255A" transform="translate(181,39)"/>
<path d="M0 0 C0.66 0 1.32 0 2 0 C2.66 1.98 3.32 3.96 4 6 C1.625 6.625 1.625 6.625 -1 7 C-1.66 6.34 -2.32 5.68 -3 5 C-2.01 4.67 -1.02 4.34 0 4 C0 2.68 0 1.36 0 0 Z " fill="#7D8C2E" transform="translate(7,35)"/>
<path d="M0 0 C0.33 0.66 0.66 1.32 1 2 C2.64363134 2.72159424 4.31050386 3.39351421 6 4 C5.34 4.66 4.68 5.32 4 6 C0.875 5.625 0.875 5.625 -2 5 C-2 3.68 -2 2.36 -2 1 C-1.34 0.67 -0.68 0.34 0 0 Z " fill="#3D4629" transform="translate(197,31)"/>
<path d="M0 0 C1.32 0 2.64 0 4 0 C4.1875 2.375 4.1875 2.375 4 5 C3.01 5.66 2.02 6.32 1 7 C0.67 4.69 0.34 2.38 0 0 Z " fill="#86962F" transform="translate(149,77)"/>
<path d="M0 0 C0.33 0.99 0.66 1.98 1 3 C-0.21484375 4.82421875 -0.21484375 4.82421875 -1.9375 6.6875 C-2.50339844 7.31011719 -3.06929688 7.93273437 -3.65234375 8.57421875 C-4.09707031 9.04472656 -4.54179688 9.51523438 -5 10 C-5.66 9.67 -6.32 9.34 -7 9 C-4.69 6.03 -2.38 3.06 0 0 Z " fill="#663890" transform="translate(112,69)"/>
<path d="M0 0 C2.64 1.65 5.28 3.3 8 5 C5 6 5 6 1.8125 4.5625 C0.884375 4.046875 -0.04375 3.53125 -1 3 C-0.67 2.01 -0.34 1.02 0 0 Z " fill="#889930" transform="translate(25,52)"/>
<path d="M0 0 C0.33 0.66 0.66 1.32 1 2 C-1.39509338 4.89932357 -3.31245243 5.50168276 -7 6 C-5.9024777 3.00675737 -5.32317108 2.15389099 -2.375 0.75 C-1.59125 0.5025 -0.8075 0.255 0 0 Z " fill="#792C77" transform="translate(111,48)"/>
<path d="M0 0 C-1 1.5 -1 1.5 -3 3 C-5.71846235 3.27345479 -8.25677199 3.13491285 -11 3 C-10 1 -10 1 -8.22265625 0.33203125 C-7.15337891 0.07486328 -7.15337891 0.07486328 -6.0625 -0.1875 C-5.35222656 -0.36667969 -4.64195313 -0.54585937 -3.91015625 -0.73046875 C-2 -1 -2 -1 0 0 Z " fill="#486426" transform="translate(84,43)"/>
<path d="M0 0 C2.64 0.33 5.28 0.66 8 1 C8 1.66 8 2.32 8 3 C4.71303767 3.79953138 3.28976808 4.09658936 0 3 C0 2.01 0 1.02 0 0 Z " fill="#672C6A" transform="translate(162,11)"/>
<path d="M0 0 C0.66 0 1.32 0 2 0 C2.33 1.65 2.66 3.3 3 5 C0.03 4.505 0.03 4.505 -3 4 C-2.34 3.67 -1.68 3.34 -1 3 C-0.67 2.01 -0.34 1.02 0 0 Z " fill="#4D6828" transform="translate(37,53)"/>
<path d="M0 0 C0.99 0.33 1.98 0.66 3 1 C2.34 2.65 1.68 4.3 1 6 C-1.475 5.01 -1.475 5.01 -4 4 C-2.68 2.68 -1.36 1.36 0 0 Z " fill="#3E4C26" transform="translate(70,34)"/>
<path d="M0 0 C1.5 1.3125 1.5 1.3125 3 3 C3 3.99 3 4.98 3 6 C3.66 6.33 4.32 6.66 5 7 C3.35 7 1.7 7 0 7 C0 4.69 0 2.38 0 0 Z " fill="#BD245C" transform="translate(122,74)"/>
<path d="M0 0 C2.64 0.33 5.28 0.66 8 1 C8 1.66 8 2.32 8 3 C8.66 3.33 9.32 3.66 10 4 C3.47692308 3.38461538 3.47692308 3.38461538 1.0625 1.4375 C0.711875 0.963125 0.36125 0.48875 0 0 Z " fill="#4C612A" transform="translate(177,54)"/>
<path d="M0 0 C1.32 0 2.64 0 4 0 C3.67 1.32 3.34 2.64 3 4 C1.68 4 0.36 4 -1 4 C-0.67 2.68 -0.34 1.36 0 0 Z " fill="#F79C9B" transform="translate(126,45)"/>
<path d="M0 0 C0.99 0 1.98 0 3 0 C3 0.66 3 1.32 3 2 C4.32 2 5.64 2 7 2 C7 2.66 7 3.32 7 4 C2.44615385 4.36923077 2.44615385 4.36923077 0.1875 2.5 C-0.4003125 1.7575 -0.4003125 1.7575 -1 1 C-0.67 0.67 -0.34 0.34 0 0 Z " fill="#6B398A" transform="translate(166,41)"/>
<path d="M0 0 C2.475 0.495 2.475 0.495 5 1 C5 1.99 5 2.98 5 4 C3.35 3.67 1.7 3.34 0 3 C0 2.01 0 1.02 0 0 Z " fill="#B0315A" transform="translate(188,38)"/>
<path d="M0 0 C0.99 0.33 1.98 0.66 3 1 C2.67 2.32 2.34 3.64 2 5 C0.35 4.67 -1.3 4.34 -3 4 C-2.67 3.01 -2.34 2.02 -2 1 C-1.34 0.67 -0.68 0.34 0 0 Z " fill="#81296D" transform="translate(103,16)"/>
<path d="M0 0 C0.99 0 1.98 0 3 0 C3 1.98 3 3.96 3 6 C2.01 5.67 1.02 5.34 0 5 C0 3.35 0 1.7 0 0 Z " fill="#9DA545" transform="translate(206,70)"/>
<path d="M0 0 C-0.33 1.32 -0.66 2.64 -1 4 C-2.98 4 -4.96 4 -7 4 C-3.375 0 -3.375 0 0 0 Z " fill="#DC2D89" transform="translate(107,57)"/>
<path d="M0 0 C2.475 0.99 2.475 0.99 5 2 C2.23776722 4.76223278 -0.20706617 4.57856291 -4 5 C-3.525625 4.54625 -3.05125 4.0925 -2.5625 3.625 C-0.90972192 2.06741796 -0.90972192 2.06741796 0 0 Z " fill="#4A5130" transform="translate(187,48)"/>
<path d="M0 0 C0.33 0 0.66 0 1 0 C1 1.98 1 3.96 1 6 C-0.98 6 -2.96 6 -5 6 C-3.35830472 3.97945196 -1.69088222 1.97956942 0 0 Z " fill="#A81D5B" transform="translate(85,43)"/>
<path d="M0 0 C-0.33 1.32 -0.66 2.64 -1 4 C-2.9375 3.625 -2.9375 3.625 -5 3 C-5.33 2.34 -5.66 1.68 -6 1 C-3 0 -3 0 0 0 Z " fill="#9B225B" transform="translate(175,38)"/>
</svg>
