<?xml version="1.0" encoding="UTF-8"?>
<svg version="1.1" xmlns="http://www.w3.org/2000/svg" width="40" height="60">
<path d="M0 0 C0.99 0 1.98 0 3 0 C7.22323462 9.41002278 7.22323462 9.41002278 9 14 C9.66 14 10.32 14 11 14 C13 17 13 17 13 20 C7.25 20.125 7.25 20.125 5 19 C5.82302534 32.64894391 5.82302534 32.64894391 12 44 C12.268125 44.804375 12.53625 45.60875 12.8125 46.4375 C14.4260418 49.91935337 16.7505677 51.09272452 20 53 C18.5625 55.0625 18.5625 55.0625 16 57 C10.41929844 57.39564675 6.70510321 55.82306192 2 53 C-0.04836882 53.56362302 -0.04836882 53.56362302 -2 55 C-7.03745009 57.97667505 -10.29347156 58.29516526 -16 58 C-16.66 56.68 -17.32 55.36 -18 54 C-17.34 53.01 -16.68 52.02 -16 51 C-14.35 51.33 -12.7 51.66 -11 52 C-10.7525 51.319375 -10.505 50.63875 -10.25 49.9375 C-9 47 -9 47 -7 43.625 C-2.52443898 35.82188432 -2.46575764 27.83713837 -2 19 C-3.0725 19.66 -4.145 20.32 -5.25 21 C-8.30980686 22.88295807 -9.1335864 23 -13 23 C-12.38435076 19.9974109 -11.4271389 17.79576202 -9.78515625 15.21484375 C-9.34623047 14.51939453 -8.90730469 13.82394531 -8.45507812 13.10742188 C-7.99552734 12.39134766 -7.53597656 11.67527344 -7.0625 10.9375 C-6.60681641 10.21755859 -6.15113281 9.49761719 -5.68164062 8.75585938 C-3.81723073 5.81593337 -1.93116135 2.89674203 0 0 Z " fill="#E7EAEC" transform="translate(20,0)"/>
<path d="M0 0 C0.66 0 1.32 0 2 0 C2.24234375 0.53109375 2.4846875 1.0621875 2.734375 1.609375 C4.69412559 5.73992624 6.46628972 8.97110547 10 12 C9.67 12.99 9.34 13.98 9 15 C7.02 14.01 5.04 13.02 3 12 C3.15002596 20.36053736 4.25761147 28.10318675 6.3125 36.1875 C6.61353638 37.42560425 6.61353638 37.42560425 6.9206543 38.6887207 C8.11755104 43.26886714 8.11755104 43.26886714 10.98046875 46.92578125 C11.64691406 47.28027344 12.31335938 47.63476562 13 48 C13.99 48.66 14.98 49.32 16 50 C14.68 50.66 13.36 51.32 12 52 C12 51.34 12 50.68 12 50 C11.113125 49.896875 10.22625 49.79375 9.3125 49.6875 C5.92184732 48.98377963 3.8908377 47.83693775 1 46 C0.33613281 46.433125 -0.32773437 46.86625 -1.01171875 47.3125 C-1.89472656 47.869375 -2.77773438 48.42625 -3.6875 49 C-4.55761719 49.556875 -5.42773438 50.11375 -6.32421875 50.6875 C-9.16973337 52.08325608 -10.8788594 52.26993648 -14 52 C-14 51.34 -14 50.68 -14 50 C-12.68 50 -11.36 50 -10 50 C-9.773125 49.34 -9.54625 48.68 -9.3125 48 C-8.1999591 45.45704936 -7.04254583 43.52514134 -5.5 41.25 C0.15041035 32.24934635 -0.77371525 22.24567074 -1 12 C-1.83144531 12.55880859 -1.83144531 12.55880859 -2.6796875 13.12890625 C-3.40414063 13.60199219 -4.12859375 14.07507812 -4.875 14.5625 C-5.59429687 15.03816406 -6.31359375 15.51382812 -7.0546875 16.00390625 C-7.69664063 16.33261719 -8.33859375 16.66132813 -9 17 C-9.66 16.67 -10.32 16.34 -11 16 C-10.41476563 15.29488281 -9.82953125 14.58976562 -9.2265625 13.86328125 C-6.35357473 10.16871978 -4.00601506 6.23046594 -1.5859375 2.23046875 C-1.06257813 1.49441406 -0.53921875 0.75835937 0 0 Z " fill="#3E81AF" transform="translate(20,4)"/>
<path d="M0 0 C1.0725 0.639375 2.145 1.27875 3.25 1.9375 C5.80822182 3.40601273 8.05340886 4.52854542 11 5 C11 5.66 11 6.32 11 7 C3.11735941 6.24205379 3.11735941 6.24205379 0 3 C0 2.01 0 1.02 0 0 Z " fill="#D7E0E6" transform="translate(21,49)"/>
</svg>
