<?xml version="1.0" encoding="UTF-8"?>
<svg version="1.1" xmlns="http://www.w3.org/2000/svg" width="38" height="58">
<path d="M0 0 C0.99 0 1.98 0 3 0 C3.21914063 0.556875 3.43828125 1.11375 3.6640625 1.6875 C5.8019946 6.8324423 8.26455202 10.98656505 11.828125 15.2734375 C13 17 13 17 13 20 C10.36 20 7.72 20 5 20 C5.96354742 33.12490202 5.96354742 33.12490202 12 44 C12.28875 44.804375 12.5775 45.60875 12.875 46.4375 C14.28477464 49.64865334 16.17714301 50.99428583 19 53 C18.67 53.99 18.34 54.98 18 56 C16.375 56.625 16.375 56.625 14 57 C12.865625 57.28875 11.73125 57.5775 10.5625 57.875 C7 58 7 58 4.0625 55.5625 C3.381875 54.716875 2.70125 53.87125 2 53 C1.46375 53.268125 0.9275 53.53625 0.375 53.8125 C-0.40875 54.204375 -1.1925 54.59625 -2 55 C-2.9075 55.53625 -3.815 56.0725 -4.75 56.625 C-8.8362213 58.35378593 -11.59940452 58.22761701 -16 58 C-16.66 56.68 -17.32 55.36 -18 54 C-17.34 53.01 -16.68 52.02 -16 51 C-14.35 51.33 -12.7 51.66 -11 52 C-10.7525 51.319375 -10.505 50.63875 -10.25 49.9375 C-9 47 -9 47 -7 43.625 C-2.60998207 35.95884928 -2.76649077 28.62686872 -3 20 C-3.41894531 20.49113281 -3.83789062 20.98226563 -4.26953125 21.48828125 C-6.96397985 23.84212235 -9.5667097 23.19433719 -13 23 C-12.46669906 18.59031758 -10.88106526 16.11314202 -8.1875 12.625 C-5.10454229 8.53468447 -2.40802459 4.51504611 0 0 Z " fill="#030509" transform="translate(19,0)"/>
<path d="M0 0 C0.66 0 1.32 0 2 0 C2.24234375 0.53109375 2.4846875 1.0621875 2.734375 1.609375 C4.69412559 5.73992624 6.46628972 8.97110547 10 12 C9.67 12.99 9.34 13.98 9 15 C7.02 14.01 5.04 13.02 3 12 C3.15002596 20.36053736 4.25761147 28.10318675 6.3125 36.1875 C6.61353638 37.42560425 6.61353638 37.42560425 6.9206543 38.6887207 C8.11755104 43.26886714 8.11755104 43.26886714 10.98046875 46.92578125 C11.64691406 47.28027344 12.31335938 47.63476562 13 48 C13.99 48.66 14.98 49.32 16 50 C12.87725512 51.37400775 11.79099641 50.92162365 8.5 49.6875 C5 48 5 48 3.08984375 46.71484375 C0.91598993 45.70186143 0.91598993 45.70186143 -1.40234375 47.1171875 C-2.65724609 47.98730469 -2.65724609 47.98730469 -3.9375 48.875 C-7.52583631 51.34856723 -9.60621887 52.39300368 -14 52 C-14 51.34 -14 50.68 -14 50 C-12.68 50 -11.36 50 -10 50 C-9.7215625 49.43796875 -9.443125 48.8759375 -9.15625 48.296875 C-8.38115945 46.75716811 -7.58921908 45.22583595 -6.78125 43.703125 C-1.10344907 32.83221347 -0.73833295 23.97853598 -1 12 C-1.66 12 -2.32 12 -3 12 C-3.12375 12.78375 -3.2475 13.5675 -3.375 14.375 C-4 17 -4 17 -6 19 C-6.99 18.67 -7.98 18.34 -9 18 C-8.34 18 -7.68 18 -7 18 C-7 17.34 -7 16.68 -7 16 C-8.32 16.33 -9.64 16.66 -11 17 C-9.27674105 14.27957436 -7.54983822 11.5616154 -5.81640625 8.84765625 C-4.77473993 7.21459227 -3.73781549 5.5784328 -2.71484375 3.93359375 C-1.86203249 2.58790298 -0.93912075 1.28694325 0 0 Z " fill="#304789" transform="translate(19,4)"/>
<path d="M0 0 C0.99 0.33 1.98 0.66 3 1 C1.6875 2.96875 1.6875 2.96875 0.375 4.9375 C-0.16640625 5.75089844 -0.7078125 6.56429688 -1.265625 7.40234375 C-2.41706901 9.12691643 -3.57328787 10.84831111 -4.734375 12.56640625 C-5.27578125 13.36949219 -5.8171875 14.17257812 -6.375 15 C-7.12910156 16.11375 -7.12910156 16.11375 -7.8984375 17.25 C-9.08878551 18.79641022 -9.08878551 18.79641022 -9 20 C-8.34 20 -7.68 20 -7 20 C-7 20.66 -7 21.32 -7 22 C-8.98 22.33 -10.96 22.66 -13 23 C-12.46669906 18.59031758 -10.88106526 16.11314202 -8.1875 12.625 C-5.10454229 8.53468447 -2.40802459 4.51504611 0 0 Z " fill="#020407" transform="translate(19,0)"/>
<path d="M0 0 C1.32 0.33 2.64 0.66 4 1 C3.01 1.33 2.02 1.66 1 2 C1 2.99 1 3.98 1 5 C5.98590216 3.90141139 9.67834658 2.79636398 14 0 C14.66 0 15.32 0 16 0 C14.97386916 2.97577944 14.03368909 3.97754061 11.375 5.75 C7.25131983 7.27728895 4.36676486 7.22586715 0 7 C-0.66 5.68 -1.32 4.36 -2 3 C-1.34 2.01 -0.68 1.02 0 0 Z " fill="#000102" transform="translate(3,51)"/>
<path d="M0 0 C2.76921611 1.38460805 2.96692585 3.32534593 4.0703125 6.078125 C5.56635429 9.17078282 7.70610383 11.45811506 10 14 C9.34 15.32 8.68 16.64 8 18 C7.38125 16.9171875 7.38125 16.9171875 6.75 15.8125 C5.06865391 12.95634723 5.06865391 12.95634723 2.875 10.5 C0.89707572 7.86276763 0.53109485 6.1865691 0 3 C-0.66 2.67 -1.32 2.34 -2 2 C-1.34 1.34 -0.68 0.68 0 0 Z " fill="#0C0F19" transform="translate(21,1)"/>
<path d="M0 0 C2.4750171 1.11431765 4.67883419 2.58150978 7 4 C6.67 4.99 6.34 5.98 6 7 C6.99 7.33 7.98 7.66 9 8 C5 8 5 8 2.9375 6.1875 C2.298125 5.465625 1.65875 4.74375 1 4 C0.4225 3.4225 -0.155 2.845 -0.75 2.25 C-1.1625 1.8375 -1.575 1.425 -2 1 C-1.34 0.67 -0.68 0.34 0 0 Z " fill="#101933" transform="translate(20,49)"/>
</svg>
