<?xml version="1.0" encoding="UTF-8"?>
<svg version="1.1" xmlns="http://www.w3.org/2000/svg" width="40" height="60">
<path d="M0 0 C5.2033639 -0.71770537 7.86597066 -0.37628983 12.1875 2.625 C14.12409798 4.01009949 14.12409798 4.01009949 16 5 C18.59867226 4.54488317 18.59867226 4.54488317 21 3 C25.42015221 1.53265439 29.48545658 0.27385105 34 2 C34.66 2.99 35.32 3.98 36 5 C34.88625 5.70125 33.7725 6.4025 32.625 7.125 C29.03718442 9.66096603 28.11751053 11.71620965 27 16 C26.51273438 16.46019531 26.02546875 16.92039062 25.5234375 17.39453125 C23.60453316 19.41676121 23.35663366 20.83470211 22.875 23.5625 C22.7203125 24.43777344 22.565625 25.31304688 22.40625 26.21484375 C21.78641146 30.46431377 21.34603216 34.7201285 21 39 C21.99 38.505 21.99 38.505 23 38 C24.99960012 37.960008 27.00047242 37.95653201 29 38 C28.49396008 40.16874252 28.00016187 41.99967627 27 44 C26.34 44 25.68 44 25 44 C24.7525 44.639375 24.505 45.27875 24.25 45.9375 C22.59188428 49.99988351 20.7964416 53.99724906 19 58 C17.21484375 57.8515625 17.21484375 57.8515625 15 57 C13.25390625 54.5234375 13.25390625 54.5234375 11.5625 51.375 C9.55314734 47.7330483 7.57378709 44.25496732 5.0625 40.9375 C3 38 3 38 3 35 C7.67312888 35.44933932 10.38775335 36.01909734 14 39 C13.65607901 27.22070612 11.93120831 17.654183 5 8 C5 7.34 5 6.68 5 6 C3.35 6.33 1.7 6.66 0 7 C-0.66 5.68 -1.32 4.36 -2 3 C-1.34 2.01 -0.68 1.02 0 0 Z " fill="#E7EAEC" transform="translate(4,2)"/>
<path d="M0 0 C4.89839668 -0.34884724 7.65895937 0.53207378 11.875 3 C12.84179688 3.556875 13.80859375 4.11375 14.8046875 4.6875 C15.52914063 5.120625 16.25359375 5.55375 17 6 C17.9075 5.34 18.815 4.68 19.75 4 C23 2 23 2 27 2 C27.33 1.34 27.66 0.68 28 0 C28.99 0.99 29.98 1.98 31 3 C30.071875 3.37125 29.14375 3.7425 28.1875 4.125 C23.63016015 6.80578815 22.5282095 10.17609711 21.0859375 15.15625 C19.31692948 23.47641959 18.37436503 31.50578656 18 40 C20.31 39.01 22.62 38.02 25 37 C24.49912282 41.34093558 21.71735302 43.75243176 19 47 C17.6950516 49.7124618 17.6950516 49.7124618 17 52 C12.98539439 50.66179813 11.95851326 48.10459241 9.9375 44.625 C9.23859828 43.45033215 8.53938936 42.27584701 7.83984375 41.1015625 C6.92912109 39.56628906 6.92912109 39.56628906 6 38 C5.34 37.01 4.68 36.02 4 35 C7.59943736 36.33693388 10.73125918 37.99480605 14 40 C14.43603751 27.12881856 14.19656965 16.52725795 6.20703125 5.77734375 C5 4 5 4 5 2 C3.35 2.33 1.7 2.66 0 3 C0 2.01 0 1.02 0 0 Z " fill="#3F81AF" transform="translate(5,4)"/>
<path d="M0 0 C0 0.66 0 1.32 0 2 C-1.0725 2.45375 -2.145 2.9075 -3.25 3.375 C-5.88062317 4.50088537 -8.46000396 5.67920206 -11 7 C-11.66 6.34 -12.32 5.68 -13 5 C-4.738041 -0.74031891 -4.738041 -0.74031891 0 0 Z " fill="#D8E1E6" transform="translate(32,4)"/>
<path d="M0 0 C0.66 0.33 1.32 0.66 2 1 C1.34 3.64 0.68 6.28 0 9 C-0.66 9 -1.32 9 -2 9 C-1.125 1.125 -1.125 1.125 0 0 Z " fill="#EFEFEF" transform="translate(26,22)"/>
</svg>
