<?xml version="1.0" encoding="UTF-8"?>
<svg version="1.1" xmlns="http://www.w3.org/2000/svg" width="38" height="58">
<path d="M0 0 C1.75 1.625 1.75 1.625 3 3 C3.53625 2.731875 4.0725 2.46375 4.625 2.1875 C5.40875 1.795625 6.1925 1.40375 7 1 C7.9075 0.46375 8.815 -0.0725 9.75 -0.625 C13.8362213 -2.35378593 16.59940452 -2.22761701 21 -2 C21.66 -0.68 22.32 0.64 23 2 C22.34 2.99 21.68 3.98 21 5 C18.525 4.505 18.525 4.505 16 4 C15.7525 4.680625 15.505 5.36125 15.25 6.0625 C14 9 14 9 12 12.375 C7.60998207 20.04115072 7.76649077 27.37313128 8 36 C8.62841797 35.26330078 8.62841797 35.26330078 9.26953125 34.51171875 C11.96397985 32.15787765 14.5667097 32.80566281 18 33 C17.46669906 37.40968242 15.88106526 39.88685798 13.1875 43.375 C10.10454229 47.46531553 7.40802459 51.48495389 5 56 C4.01 56 3.02 56 2 56 C1.78085938 55.443125 1.56171875 54.88625 1.3359375 54.3125 C-0.8019946 49.1675577 -3.26455202 45.01343495 -6.828125 40.7265625 C-8 39 -8 39 -8 36 C-5.36 36 -2.72 36 0 36 C-0.96354742 22.87509798 -0.96354742 22.87509798 -7 12 C-7.28875 11.195625 -7.5775 10.39125 -7.875 9.5625 C-9.28477464 6.35134666 -11.17714301 5.00571417 -14 3 C-13.67 2.01 -13.34 1.02 -13 0 C-11.25 -0.625 -11.25 -0.625 -9 -1 C-8.175 -1.226875 -7.35 -1.45375 -6.5 -1.6875 C-3.52714693 -2.05910663 -2.46536996 -1.64357997 0 0 Z " fill="#020407" transform="translate(14,2)"/>
<path d="M0 0 C0 0.66 0 1.32 0 2 C-1.65 2 -3.3 2 -5 2 C-5.2784375 2.57363281 -5.556875 3.14726563 -5.84375 3.73828125 C-6.97543802 5.95195478 -8.2252468 8.05384296 -9.5 10.1875 C-14.75500351 19.7674179 -14.23489709 29.36438175 -14 40 C-13.44570313 39.62746094 -12.89140625 39.25492188 -12.3203125 38.87109375 C-11.59585937 38.39800781 -10.87140625 37.92492188 -10.125 37.4375 C-9.04605469 36.72400391 -9.04605469 36.72400391 -7.9453125 35.99609375 C-6.98238281 35.50302734 -6.98238281 35.50302734 -6 35 C-5.34 35.33 -4.68 35.66 -4 36 C-4.58523437 36.70511719 -5.17046875 37.41023438 -5.7734375 38.13671875 C-8.64642527 41.83128022 -10.99398494 45.76953406 -13.4140625 49.76953125 C-13.93742187 50.50558594 -14.46078125 51.24164063 -15 52 C-15.66 52 -16.32 52 -17 52 C-17.24234375 51.46890625 -17.4846875 50.9378125 -17.734375 50.390625 C-19.69412559 46.26007376 -21.46628972 43.02889453 -25 40 C-24.67 39.01 -24.34 38.02 -24 37 C-22.02 37.99 -20.04 38.98 -18 40 C-18.77520728 22.32102747 -18.77520728 22.32102747 -25 6 C-28.05039221 4.09793151 -28.05039221 4.09793151 -31 3 C-30.67 2.34 -30.34 1.68 -30 1 C-28.60190528 1.25890643 -27.20657858 1.53277461 -25.8125 1.8125 C-25.03519531 1.96332031 -24.25789063 2.11414063 -23.45703125 2.26953125 C-20.64016966 3.10697659 -18.45741449 4.4068272 -16 6 C-15.34773438 5.566875 -14.69546875 5.13375 -14.0234375 4.6875 C-5.3427065 -0.84358524 -5.3427065 -0.84358524 0 0 Z " fill="#30478B" transform="translate(34,2)"/>
<path d="M0 0 C0.33 0 0.66 0 1 0 C1 2.31 1 4.62 1 7 C-1.16874252 6.49396008 -2.99967627 6.00016187 -5 5 C-3.88323912 7.51271199 -2.72986081 9.3192554 -0.9375 11.4375 C1.06707735 14.08871521 1.62776506 15.74294429 2 19 C4.78993417 16.47536632 6.63500313 13.61726096 8.625 10.4375 C9.23601563 9.46683594 9.84703125 8.49617188 10.4765625 7.49609375 C11.97618958 5.11781413 11.97618958 5.11781413 13 3 C10.03 4.65 7.06 6.3 4 8 C4.33 6.35 4.66 4.7 5 3 C7 1.75 7 1.75 9 1 C9.33 0.67 9.66 0.34 10 0 C12.33297433 -0.04092937 14.66705225 -0.04241723 17 0 C16.46669906 4.40968242 14.88106526 6.88685798 12.1875 10.375 C9.10454229 14.46531553 6.40802459 18.48495389 4 23 C3.01 23 2.02 23 1 23 C0.78085938 22.443125 0.56171875 21.88625 0.3359375 21.3125 C-1.8019946 16.1675577 -4.26455202 12.01343495 -7.828125 7.7265625 C-9 6 -9 6 -9 3 C-6.36 3 -3.72 3 -1 3 C-0.67 2.01 -0.34 1.02 0 0 Z " fill="#010103" transform="translate(15,35)"/>
<path d="M0 0 C0 0.33 0 0.66 0 1 C-1.65 1.33 -3.3 1.66 -5 2 C-4.071875 2.53625 -3.14375 3.0725 -2.1875 3.625 C3.11915289 7.57897666 4.37112367 12.63421653 5.6875 18.9375 C5.93886719 20.10152344 6.19023437 21.26554687 6.44921875 22.46484375 C7.26525165 27.70250175 7.96374221 32.3691528 5 37 C4.87882813 36.0821875 4.75765625 35.164375 4.6328125 34.21875 C3.76695884 22.03834607 3.76695884 22.03834607 -2 12 C-2.28875 11.195625 -2.5775 10.39125 -2.875 9.5625 C-4.28477464 6.35134666 -6.17714301 5.00571417 -9 3 C-8.67 2.01 -8.34 1.02 -8 0 C-5.13822943 -1.43088528 -3.06624227 -0.59991697 0 0 Z " fill="#010205" transform="translate(9,2)"/>
<path d="M0 0 C1.134375 0.020625 2.26875 0.04125 3.4375 0.0625 C3.25 2.375 3.25 2.375 2.4375 5.0625 C-0.125 6.875 -0.125 6.875 -2.5625 8.0625 C-1.9025 6.7425 -1.2425 5.4225 -0.5625 4.0625 C-3.744298 5.12309933 -6.5798094 6.53801369 -9.5625 8.0625 C-9.3125 5.6875 -9.3125 5.6875 -8.5625 3.0625 C-6.5625 1.8125 -6.5625 1.8125 -4.5625 1.0625 C-3.5625 0.0625 -3.5625 0.0625 0 0 Z " fill="#04060C" transform="translate(28.5625,34.9375)"/>
<path d="M0 0 C0.33 0 0.66 0 1 0 C1 2.31 1 4.62 1 7 C-1.16874252 6.49396008 -2.99967627 6.00016187 -5 5 C-4.67 7.31 -4.34 9.62 -4 12 C-7.2542015 9.16569547 -8.5206753 7.31392226 -9 3 C-6.36 3 -3.72 3 -1 3 C-0.67 2.01 -0.34 1.02 0 0 Z " fill="#10131B" transform="translate(15,35)"/>
<path d="M0 0 C3.62765884 3.25559127 5.3283732 5.16428704 6 10 C6.66 10.33 7.32 10.66 8 11 C7.01 11.66 6.02 12.32 5 13 C0.59225513 4.738041 0.59225513 4.738041 0 0 Z " fill="#05080F" transform="translate(11,44)"/>
<path d="M0 0 C0.99 0.33 1.98 0.66 3 1 C0.53058944 3.59937954 -2.18060883 5.79020692 -5 8 C-5.33 6.68 -5.66 5.36 -6 4 C-5.195625 3.525625 -4.39125 3.05125 -3.5625 2.5625 C-1.15246512 1.23099846 -1.15246512 1.23099846 0 0 Z " fill="#1C2232" transform="translate(25,35)"/>
<path d="M0 0 C1.32 0.66 2.64 1.32 4 2 C4 2.66 4 3.32 4 4 C1 5 1 5 -1.1875 4.0625 C-1.785625 3.711875 -2.38375 3.36125 -3 3 C-2.34 3 -1.68 3 -1 3 C-0.67 2.01 -0.34 1.02 0 0 Z " fill="#162244" transform="translate(10,0)"/>
<path d="M0 0 C3.68754757 0.49831724 5.60490662 1.10067643 8 4 C7.01 4.33 6.02 4.66 5 5 C3.35 3.35 1.7 1.7 0 0 Z " fill="#04060C" transform="translate(12,4)"/>
</svg>
