<?xml version="1.0" encoding="UTF-8"?>
<svg version="1.1" xmlns="http://www.w3.org/2000/svg" width="188" height="188">
<path d="M0 0 C1.73241669 0.01005239 3.46483904 0.01917424 5.19726562 0.02734375 C9.40248586 0.04917251 13.607429 0.08357701 17.8125 0.125 C17.8125 2.105 17.8125 4.085 17.8125 6.125 C22.1025 5.135 26.3925 4.145 30.8125 3.125 C31.8025 6.425 32.7925 9.725 33.8125 13.125 C35.441875 13.33125 37.07125 13.5375 38.75 13.75 C44.98162664 14.91694155 48.90669299 17.2066238 53.8125 21.125 C54.84632813 21.93453125 55.88015625 22.7440625 56.9453125 23.578125 C69.29352758 33.48197119 78.74617026 44.92601077 83.8125 60.125 C85.01049855 79.52864869 81.73479237 97.89958493 76.125 116.4375 C75.68994141 117.99549316 75.68994141 117.99549316 75.24609375 119.58496094 C74.32833673 122.40365063 73.51108928 124.6935493 71.8125 127.125 C68.83202557 128.56951657 66.10572553 129.01305776 62.8125 129.125 C63.43396808 130.56403046 64.05982059 132.00116793 64.6875 133.4375 C65.20957031 134.63826172 65.20957031 134.63826172 65.7421875 135.86328125 C66.83821894 138.3211834 66.83821894 138.3211834 68.8125 141.125 C71.38929229 141.82855115 73.81739097 142.37017532 76.4375 142.8125 C77.14390625 142.94205078 77.8503125 143.07160156 78.578125 143.20507812 C80.32089354 143.52301563 82.06646874 143.82549829 83.8125 144.125 C83.63557336 145.52516086 83.41914718 146.92034589 83.1875 148.3125 C83.07148438 149.08980469 82.95546875 149.86710938 82.8359375 150.66796875 C80.82535177 155.4949093 76.88203067 157.6399385 72.32421875 159.70703125 C71.05693926 160.139688 69.78154344 160.54912447 68.5 160.9375 C67.81284912 161.14761719 67.12569824 161.35773438 66.41772461 161.57421875 C52.04316224 165.57771391 39.36657182 163.38800351 26.46484375 156.30859375 C19.98251619 153.41589088 13.92536313 152.82284594 6.9375 152.9375 C5.82955078 152.9384668 5.82955078 152.9384668 4.69921875 152.93945312 C0.79642236 152.96989088 -3.02723192 153.18508935 -6.90625 153.6171875 C-28.90122382 155.96544316 -51.13442518 155.45346018 -70.1875 143.125 C-80.45372553 134.74788384 -88.4143262 119.47987425 -90.00439453 106.29541016 C-92.83932475 72.69203733 -84.01221913 44.87972953 -62.4140625 19 C-54.03948445 9.84924154 -41.97653037 5.12466735 -30.1875 2.125 C-29.07918823 1.84027832 -29.07918823 1.84027832 -27.94848633 1.54980469 C-18.71786705 -0.47310038 -9.39309601 -0.09534312 0 0 Z M-41.1875 15.125 C-42.1671875 15.60453125 -43.146875 16.0840625 -44.15625 16.578125 C-62.94799358 26.55518474 -73.13704803 43.93482478 -79.41015625 63.71630859 C-85.04422762 82.7062962 -85.24672565 102.22224455 -76.1875 120.125 C-72.30013034 126.67664009 -67.44308163 133.64670512 -61.1875 138.125 C-55.4514747 139.50519664 -49.58291434 139.30467012 -43.71875 139.328125 C-42.60624878 139.33382507 -41.49374756 139.33952515 -40.34753418 139.34539795 C-37.99406885 139.35482828 -35.64059043 139.3613741 -33.28710938 139.36523438 C-29.72762246 139.37489115 -26.1687254 139.40591397 -22.609375 139.4375 C-5.68632263 139.52508159 -5.68632263 139.52508159 10.8125 136.125 C11.77833008 135.82706543 12.74416016 135.52913086 13.73925781 135.22216797 C16.41182256 134.3475357 19.04954447 133.41098282 21.6875 132.4375 C22.57824219 132.11716797 23.46898438 131.79683594 24.38671875 131.46679688 C26.53168146 130.69414902 28.67338417 129.91365738 30.8125 129.125 C30.5959375 130.16140625 30.379375 131.1978125 30.15625 132.265625 C29.87479463 133.63537448 29.593556 135.00516851 29.3125 136.375 C29.16941406 137.05691406 29.02632813 137.73882812 28.87890625 138.44140625 C28.19998951 141.77133121 27.8125 144.70832551 27.8125 148.125 C35.70881556 152.03821833 43.37456043 153.75653263 52.09375 151.546875 C54.21815717 150.7911533 54.21815717 150.7911533 56.8125 149.125 C57.93268319 145.76445043 57.71431274 145.10776729 56.59765625 141.89453125 C56.32373047 141.09208984 56.04980469 140.28964844 55.76757812 139.46289062 C55.32575195 138.21282227 55.32575195 138.21282227 54.875 136.9375 C54.43897461 135.6700293 54.43897461 135.6700293 53.99414062 134.37695312 C53.27492463 132.29004771 52.5474657 130.20640006 51.8125 128.125 C52.72773438 128.01285156 53.64296875 127.90070313 54.5859375 127.78515625 C57.73916405 127.14000457 59.0659433 126.62496756 61.4375 124.5625 C61.98664063 124.10746094 62.53578125 123.65242188 63.1015625 123.18359375 C73.7488619 110.37280201 75.70812134 87.99932921 74.67236328 71.95410156 C72.9882637 53.69665031 64.74682254 39.76741638 50.8125 28.125 C24.12994828 6.30272669 -9.5913182 -1.0362654 -41.1875 15.125 Z " fill="#FAFAFA" transform="translate(98.1875,14.875)"/>
<path d="M0 0 C9.38782167 0.95469373 9.38782167 0.95469373 13 3 C14.22265625 5.75 14.22265625 5.75 15.0625 9 C16.02879709 13.42251478 16.02879709 13.42251478 19.12109375 16.375 C20.05115234 16.684375 20.05115234 16.684375 21 17 C21.20496094 16.28972656 21.40992188 15.57945313 21.62109375 14.84765625 C21.89050781 13.92855469 22.15992188 13.00945312 22.4375 12.0625 C22.70433594 11.14597656 22.97117188 10.22945312 23.24609375 9.28515625 C24 7 24 7 25 6 C28.3 6 31.6 6 35 6 C35.33 12.6 35.66 19.2 36 26 C42.31089013 21.58559304 42.31089013 21.58559304 46.9375 16.1875 C47.948125 14.805625 48.95875 13.42375 50 12 C54.29 12.99 58.58 13.98 63 15 C62.67 18.3 62.34 21.6 62 25 C66.29 27.64 70.58 30.28 75 33 C75.99 28.05 76.98 23.1 78 18 C81.63 17.01 85.26 16.02 89 15 C91 17 91 17 91.265625 18.92578125 C91.21879121 26.07964252 90.23579255 32.96039599 89 40 C91.97 40 94.94 40 98 40 C98 42.64 98 45.28 98 48 C83.25839904 45.07227686 68.62012183 41.78975507 54 38.3125 C53.16780945 38.11463898 52.3356189 37.91677795 51.47821045 37.71292114 C43.64208282 35.84740176 35.81223309 33.96345853 28 32 C28 30.02 28 28.04 28 26 C23.74885402 26.02313364 19.50028922 26.10089536 15.25 26.1875 C14.06277344 26.19330078 12.87554687 26.19910156 11.65234375 26.20507812 C4.02186122 26.39271294 -1.71838461 27.64962442 -8.58300781 31.0324707 C-11 32 -11 32 -14 31 C-15.64820195 28.39757586 -16 27.13751221 -16 24 C-15.33613281 23.68546875 -14.67226563 23.3709375 -13.98828125 23.046875 C-6.87946603 19.86430502 -6.87946603 19.86430502 -1 15 C0.23349812 10.12207562 0.1282807 5.00294736 0 0 Z " fill="#FAFAFA" transform="translate(50,72)"/>
<path d="M0 0 C2.64 0 5.28 0 8 0 C9.98 4.95 11.96 9.9 14 15 C15.65 15 17.3 15 19 15 C20.98 11.37 22.96 7.74 25 4 C27.64 4 30.28 4 33 4 C34.98 7.63 36.96 11.26 39 15 C40.65 15 42.3 15 44 15 C45.485 9.555 45.485 9.555 47 4 C54.98614319 4.92147806 54.98614319 4.92147806 58 7 C58.84675029 10.0070491 58.82045013 12.85787732 59 16 C63.95 16.99 63.95 16.99 69 18 C69.99 14.37 70.98 10.74 72 7 C80.40882917 7.97024952 80.40882917 7.97024952 83 10 C83.78841542 12.78298876 84.33350841 15.28795726 84.75 18.125 C84.87503906 18.87910156 85.00007813 19.63320313 85.12890625 20.41015625 C85.43510476 22.27090102 85.71964088 24.13518704 86 26 C87.98 26.66 89.96 27.32 92 28 C92 31.63 92 35.26 92 39 C89.1776174 37.87104696 86.35637309 36.73920761 83.5390625 35.59765625 C82.23469171 35.08513076 80.92999638 34.57343053 79.625 34.0625 C79.01011719 33.81048828 78.39523438 33.55847656 77.76171875 33.29882812 C62.79352969 27.50421236 47.65453662 27.5517736 31.87475586 27.48876953 C9.21112438 27.35828016 9.21112438 27.35828016 1.1875 22.1875 C-4.17586387 20.18938405 -9.51064639 21.86792262 -15 23 C-15 20.69 -15 18.38 -15 16 C-14.16855469 15.85046875 -13.33710937 15.7009375 -12.48046875 15.546875 C-8.95138976 14.692863 -6.1384255 13.8446256 -3 12 C-1.05384242 8.09730534 -0.40753626 4.31988435 0 0 Z " fill="#FAFAFA" transform="translate(65,43)"/>
<path d="M0 0 C1.134375 0.020625 2.26875 0.04125 3.4375 0.0625 C4.4275 3.0325 5.4175 6.0025 6.4375 9.0625 C7.45070313 8.50369141 7.45070313 8.50369141 8.484375 7.93359375 C9.37640625 7.46050781 10.2684375 6.98742187 11.1875 6.5 C12.06921875 6.02433594 12.9509375 5.54867187 13.859375 5.05859375 C16.4375 4.0625 16.4375 4.0625 18.59375 4.09375 C21.3054437 5.51853821 21.93431967 7.37496539 23.1875 10.125 C23.61546875 11.04410156 24.0434375 11.96320313 24.484375 12.91015625 C24.79890625 13.62042969 25.1134375 14.33070313 25.4375 15.0625 C25.98051758 14.82015625 26.52353516 14.5778125 27.08300781 14.328125 C47.04642675 5.54185513 47.04642675 5.54185513 57.4375 7.0625 C57.4375 9.0425 57.4375 11.0225 57.4375 13.0625 C62.3875 13.0625 67.3375 13.0625 72.4375 13.0625 C70.6875 21.8125 70.6875 21.8125 68.4375 24.0625 C60.20909009 26.75543415 52.30825644 26.77185239 43.875 24.9375 C39.05013604 23.94637245 35.46364295 24.39093803 30.71484375 25.53125 C27.47488585 26.28705493 24.74508004 26.43694302 21.4375 26.0625 C19.74821179 25.01067904 18.0591123 23.95852605 16.375 22.8984375 C11.07316602 20.61095268 4.87377399 22.85366176 -0.3125 24.625 C-6.63273875 26.70482298 -12.9833541 26.31846101 -19.5625 26.0625 C-4.96317253 0.0870732 -4.96317253 0.0870732 0 0 Z " fill="#FAFAFA" transform="translate(62.5625,114.9375)"/>
</svg>
