<?xml version="1.0" encoding="UTF-8"?>
<svg version="1.1" xmlns="http://www.w3.org/2000/svg" width="60" height="60">
<path d="M0 0 C0 0.66 0 1.32 0 2 C1.32 1.67 2.64 1.34 4 1 C4.495 2.485 4.495 2.485 5 4 C6.33035817 4.34501597 7.66435237 4.67606437 9 5 C14.66617584 9.02622547 19.31709064 13.14815475 21 20 C21.150011 26.56298136 19.51883028 33.9720301 17 40 C16.01 40.33 15.02 40.66 14 41 C14.63979849 43.03241727 14.63979849 43.03241727 16 45 C18.55519921 45.81171228 18.55519921 45.81171228 21 46 C20 49 20 49 18.36328125 49.984375 C13.83996846 51.67307844 10.77565279 52.45345954 6 51 C5.13117187 50.47535156 4.26234375 49.95070312 3.3671875 49.41015625 C-1.00488008 47.57916275 -4.134146 48.03500148 -8.75 48.5625 C-15.93294867 49.16920237 -21.7771781 49.16167625 -28 45 C-32.74170986 40.37683289 -34.30112115 35.40514043 -34.4375 28.875 C-34.28638962 19.96956188 -30.93160137 11.93952073 -24.7734375 5.4375 C-17.4046506 -0.5354374 -9.08717076 -0.51275572 0 0 Z M-26.78515625 11.02734375 C-31.2570545 18.28878625 -33.08045522 24.39541082 -32 33 C-30.82754822 37.56328356 -28.7687191 41.13209669 -25 44 C-22.12363983 44.32288698 -19.67029134 44.42740793 -16.8125 44.3125 C-16.05308105 44.29558105 -15.29366211 44.27866211 -14.51123047 44.26123047 C-4.78522151 44.34090122 -4.78522151 44.34090122 4 41 C3.67 42.98 3.34 44.96 3 47 C7.12148343 48.82660197 7.12148343 48.82660197 11.375 48.125 C11.91125 47.75375 12.4475 47.3825 13 47 C12.34 45.02 11.68 43.04 11 41 C11.62390625 40.76410156 12.2478125 40.52820312 12.890625 40.28515625 C16.27505447 38.22316126 16.4953177 35.40865118 17.4609375 31.7265625 C18.82298749 24.83735315 18.66395747 19.18292824 15 13 C9.35653709 6.73390151 2.21997961 1.9749454 -6.375 1.5 C-14.32342385 1.93152564 -21.97488661 4.46027999 -26.78515625 11.02734375 Z " fill="#000000" transform="translate(37,5)"/>
<path d="M0 0 C1.32 0.33 2.64 0.66 4 1 C4.12375 1.639375 4.2475 2.27875 4.375 2.9375 C4.58125 3.618125 4.7875 4.29875 5 5 C5.66 5.33 6.32 5.66 7 6 C7.33 4.68 7.66 3.36 8 2 C8.99 2 9.98 2 11 2 C11 4.31 11 6.62 11 9 C13.99397838 6.94388244 13.99397838 6.94388244 16 4 C17.32 4.33 18.64 4.66 20 5 C19.67 5.99 19.34 6.98 19 8 C20.65 8.99 22.3 9.98 24 11 C24.33 9.35 24.66 7.7 25 6 C25.99 5.67 26.98 5.34 28 5 C28.495 5.495 28.495 5.495 29 6 C28.71269945 8.33944736 28.38063221 10.6739143 28 13 C28.99 13 29.98 13 31 13 C31 13.66 31 14.32 31 15 C26.61841038 14.17845195 22.31791556 13.09879362 18 12 C15.01346955 11.2407126 12.02541098 10.58827436 9 10 C9 9.34 9 8.68 9 8 C8.236875 8 7.47375 8 6.6875 8 C4.79166667 8 2.89583333 8 1 8 C-0.68236471 8.62599617 -2.3523962 9.28752268 -4 10 C-4.33 9.34 -4.66 8.68 -5 8 C-4.175 7.608125 -3.35 7.21625 -2.5 6.8125 C-1.675 6.214375 -0.85 5.61625 0 5 C0.41780879 2.37305578 0.41780879 2.37305578 0 0 Z " fill="#000000" transform="translate(16,23)"/>
<path d="M0 0 C0.66 0 1.32 0 2 0 C2.66 1.65 3.32 3.3 4 5 C4.66 5 5.32 5 6 5 C6.66 3.68 7.32 2.36 8 1 C8.66 1 9.32 1 10 1 C10.66 2.32 11.32 3.64 12 5 C12.66 5 13.32 5 14 5 C14.33 3.68 14.66 2.36 15 1 C15.99 1.33 16.98 1.66 18 2 C18 2.99 18 3.98 18 5 C19.32 5.33 20.64 5.66 22 6 C22.33 4.68 22.66 3.36 23 2 C23.99 2.33 24.98 2.66 26 3 C26.12375 3.804375 26.2475 4.60875 26.375 5.4375 C26.58125 6.283125 26.7875 7.12875 27 8 C27.66 8.33 28.32 8.66 29 9 C29 9.99 29 10.98 29 12 C28.505 11.71125 28.01 11.4225 27.5 11.125 C22.22118663 8.74953398 17.20122205 7.91202749 11.44140625 8.0703125 C10.49136719 8.08835937 9.54132812 8.10640625 8.5625 8.125 C7.61503906 8.14820313 6.66757812 8.17140625 5.69140625 8.1953125 C2.91001928 7.99347019 1.41547889 7.30509535 -1 6 C-3.19747131 6.29805007 -3.19747131 6.29805007 -5 7 C-5 6.34 -5 5.68 -5 5 C-3.68 4.67 -2.36 4.34 -1 4 C-0.67 2.68 -0.34 1.36 0 0 Z " fill="#000000" transform="translate(21,14)"/>
<path d="M0 0 C0.66 0 1.32 0 2 0 C2.33 0.99 2.66 1.98 3 3 C4.32 2.34 5.64 1.68 7 1 C7.66 2.32 8.32 3.64 9 5 C10.093125 4.505 11.18625 4.01 12.3125 3.5 C16 2 16 2 19 2 C19 2.66 19 3.32 19 4 C20.65 4 22.3 4 24 4 C23.67 4.99 23.34 5.98 23 7 C18.49206349 8.12698413 18.49206349 8.12698413 16.0625 7.5 C13.84354091 6.81383653 13.84354091 6.81383653 10.9375 7.5625 C8 8 8 8 5 6 C2.645752 6.588562 0.31029085 7.25740651 -2 8 C-2.99 8 -3.98 8 -5 8 C-4.21718695 6.66144944 -3.42348123 5.32926356 -2.625 4 C-2.18414063 3.2575 -1.74328125 2.515 -1.2890625 1.75 C-0.86367188 1.1725 -0.43828125 0.595 0 0 Z " fill="#000000" transform="translate(19,37)"/>
<path d="" fill="#000000" transform="translate(0,0)"/>
<path d="" fill="#000000" transform="translate(0,0)"/>
</svg>
