<?xml version="1.0" encoding="UTF-8"?>
<svg version="1.1" xmlns="http://www.w3.org/2000/svg" width="37" height="58">
<path d="M0 0 C1.75 1.625 1.75 1.625 3 3 C3.53625 2.731875 4.0725 2.46375 4.625 2.1875 C5.40875 1.795625 6.1925 1.40375 7 1 C7.9075 0.46375 8.815 -0.0725 9.75 -0.625 C13.8362213 -2.35378593 16.59940452 -2.22761701 21 -2 C21.66 -0.68 22.32 0.64 23 2 C22.34 2.99 21.68 3.98 21 5 C18.525 4.505 18.525 4.505 16 4 C15.7525 4.680625 15.505 5.36125 15.25 6.0625 C14 9 14 9 12 12.375 C7.60998207 20.04115072 7.76649077 27.37313128 8 36 C8.62841797 35.26330078 8.62841797 35.26330078 9.26953125 34.51171875 C11.96397985 32.15787765 14.5667097 32.80566281 18 33 C17.46669906 37.40968242 15.88106526 39.88685798 13.1875 43.375 C10.10454229 47.46531553 7.40802459 51.48495389 5 56 C4.01 56 3.02 56 2 56 C1.78085938 55.443125 1.56171875 54.88625 1.3359375 54.3125 C-0.8019946 49.1675577 -3.26455202 45.01343495 -6.828125 40.7265625 C-8 39 -8 39 -8 36 C-5.36 36 -2.72 36 0 36 C-0.96354742 22.87509798 -0.96354742 22.87509798 -7 12 C-7.28875 11.195625 -7.5775 10.39125 -7.875 9.5625 C-9.28477464 6.35134666 -11.17714301 5.00571417 -14 3 C-13.67 2.01 -13.34 1.02 -13 0 C-11.25 -0.625 -11.25 -0.625 -9 -1 C-8.175 -1.226875 -7.35 -1.45375 -6.5 -1.6875 C-3.52714693 -2.05910663 -2.46536996 -1.64357997 0 0 Z " fill="#0E050A" transform="translate(14,2)"/>
<path d="M0 0 C0 0.66 0 1.32 0 2 C-1.32 2 -2.64 2 -4 2 C-4.226875 2.66 -4.45375 3.32 -4.6875 4 C-5.8000409 6.54295064 -6.95745417 8.47485866 -8.5 10.75 C-14.15041035 19.75065365 -13.22628475 29.75432926 -13 40 C-12.44570313 39.62746094 -11.89140625 39.25492188 -11.3203125 38.87109375 C-10.59585937 38.39800781 -9.87140625 37.92492188 -9.125 37.4375 C-8.04605469 36.72400391 -8.04605469 36.72400391 -6.9453125 35.99609375 C-5.98238281 35.50302734 -5.98238281 35.50302734 -5 35 C-4.34 35.33 -3.68 35.66 -3 36 C-3.58523437 36.70511719 -4.17046875 37.41023438 -4.7734375 38.13671875 C-7.64642527 41.83128022 -9.99398494 45.76953406 -12.4140625 49.76953125 C-12.93742187 50.50558594 -13.46078125 51.24164063 -14 52 C-14.66 52 -15.32 52 -16 52 C-16.24234375 51.46890625 -16.4846875 50.9378125 -16.734375 50.390625 C-18.69412559 46.26007376 -20.46628972 43.02889453 -24 40 C-23.67 39.01 -23.34 38.02 -23 37 C-21.02 37.99 -19.04 38.98 -17 40 C-17.77520728 22.32102747 -17.77520728 22.32102747 -24 6 C-27.05039221 4.09793151 -27.05039221 4.09793151 -30 3 C-29.67 2.34 -29.34 1.68 -29 1 C-27.60190528 1.25890643 -26.20657858 1.53277461 -24.8125 1.8125 C-24.03519531 1.96332031 -23.25789063 2.11414063 -22.45703125 2.26953125 C-19.64016966 3.10697659 -17.45741449 4.4068272 -15 6 C-14.33613281 5.566875 -13.67226563 5.13375 -12.98828125 4.6875 C-12.10527344 4.130625 -11.22226562 3.57375 -10.3125 3 C-9.44238281 2.443125 -8.57226562 1.88625 -7.67578125 1.3125 C-4.83026663 -0.08325608 -3.1211406 -0.26993648 0 0 Z " fill="#BB3364" transform="translate(33,2)"/>
<path d="M0 0 C0.33 0 0.66 0 1 0 C1 4.62 1 9.24 1 14 C-3 13 -3 13 -5 12 C-3.88323912 14.51271199 -2.72986081 16.3192554 -0.9375 18.4375 C1.06707735 21.08871521 1.62776506 22.74294429 2 26 C4.78993417 23.47536632 6.63500313 20.61726096 8.625 17.4375 C9.23601563 16.46683594 9.84703125 15.49617188 10.4765625 14.49609375 C11.97618958 12.11781413 11.97618958 12.11781413 13 10 C10.03 11.65 7.06 13.3 4 15 C5.16405397 10.34378411 5.98114344 9.44626051 10 7 C13.8125 6.75 13.8125 6.75 17 7 C16.46669906 11.40968242 14.88106526 13.88685798 12.1875 17.375 C9.10454229 21.46531553 6.40802459 25.48495389 4 30 C3.01 30 2.02 30 1 30 C0.78085938 29.443125 0.56171875 28.88625 0.3359375 28.3125 C-1.8019946 23.1675577 -4.26455202 19.01343495 -7.828125 14.7265625 C-9 13 -9 13 -9 10 C-6.36 10 -3.72 10 -1 10 C-1.020625 8.906875 -1.04125 7.81375 -1.0625 6.6875 C-1 3 -1 3 0 0 Z " fill="#130E15" transform="translate(15,28)"/>
<path d="M0 0 C0 0.33 0 0.66 0 1 C-1.65 1.33 -3.3 1.66 -5 2 C-4.071875 2.53625 -3.14375 3.0725 -2.1875 3.625 C3.38615068 7.77791619 4.46026262 12.96474044 5.66015625 19.51953125 C6.10076232 22.73544912 6.14087175 25.75994984 6 29 C2.90785395 25.90785395 2.77051458 22.04076286 1.87890625 17.84765625 C0.97890597 14.93165535 0.23506594 13.95343564 -2 12 C-2.28875 11.195625 -2.5775 10.39125 -2.875 9.5625 C-4.28477464 6.35134666 -6.17714301 5.00571417 -9 3 C-8.67 2.01 -8.34 1.02 -8 0 C-5.13822943 -1.43088528 -3.06624227 -0.59991697 0 0 Z " fill="#040204" transform="translate(9,2)"/>
<path d="M0 0 C2.88437779 1.29299694 4.87219421 2.65941363 7 5 C7.53625 4.731875 8.0725 4.46375 8.625 4.1875 C9.40875 3.795625 10.1925 3.40375 11 3 C11.969375 2.46375 12.93875 1.9275 13.9375 1.375 C16.97317175 0.01204533 18.73230026 -0.28832645 22 0 C22 0.66 22 1.32 22 2 C21.33613281 2.25394531 20.67226563 2.50789062 19.98828125 2.76953125 C15.42732859 4.54730404 11.0946559 6.2702294 7 9 C6.0925 8.38125 5.185 7.7625 4.25 7.125 C1.85051183 5.55610389 -0.40961612 4.19556179 -3 3 C-2.34 3 -1.68 3 -1 3 C-0.67 2.01 -0.34 1.02 0 0 Z " fill="#070205" transform="translate(10,0)"/>
<path d="M0 0 C-0.1875 2.3125 -0.1875 2.3125 -1 5 C-3.5625 6.8125 -3.5625 6.8125 -6 8 C-5.34 6.68 -4.68 5.36 -4 4 C-7.181798 5.06059933 -10.0173094 6.47551369 -13 8 C-12.68151851 5.02750614 -11.96374181 3.96160897 -9.875 1.75 C-6.3474968 -0.39717586 -4.0589816 -0.3183515 0 0 Z " fill="#09050A" transform="translate(32,35)"/>
<path d="M0 0 C0 4.0116196 -1.90487068 6.42093858 -4 9.6875 C-4.3815625 10.29400391 -4.763125 10.90050781 -5.15625 11.52539062 C-6.09818472 13.02071199 -7.04831375 14.51086593 -8 16 C-8.99 15.67 -9.98 15.34 -11 15 C-10.40251953 14.11248047 -10.40251953 14.11248047 -9.79296875 13.20703125 C-6.41436054 8.17131523 -6.41436054 8.17131523 -3.25 3 C-2 1 -2 1 0 0 Z " fill="#030102" transform="translate(27,42)"/>
<path d="M0 0 C3.62765884 3.25559127 5.3283732 5.16428704 6 10 C6.66 10.33 7.32 10.66 8 11 C7.01 11.66 6.02 12.32 5 13 C0.59225513 4.738041 0.59225513 4.738041 0 0 Z " fill="#0C070D" transform="translate(11,44)"/>
<path d="M0 0 C1.32 0.33 2.64 0.66 4 1 C4.625 2.875 4.625 2.875 5 5 C4.34 5.66 3.68 6.32 3 7 C0.375 6.625 0.375 6.625 -2 6 C-0.68 5.67 0.64 5.34 2 5 C2 4.01 2 3.02 2 2 C1.34 2 0.68 2 0 2 C0 1.34 0 0.68 0 0 Z " fill="#000000" transform="translate(32,0)"/>
<path d="M0 0 C0.99 0.33 1.98 0.66 3 1 C0.53058944 3.59937954 -2.18060883 5.79020692 -5 8 C-5.33 7.34 -5.66 6.68 -6 6 C-4 4 -2 2 0 0 Z " fill="#282536" transform="translate(25,35)"/>
<path d="M0 0 C1.32 0.66 2.64 1.32 4 2 C4 2.66 4 3.32 4 4 C1 5 1 5 -1.1875 4.0625 C-1.785625 3.711875 -2.38375 3.36125 -3 3 C-2.34 3 -1.68 3 -1 3 C-0.67 2.01 -0.34 1.02 0 0 Z " fill="#1F2243" transform="translate(10,0)"/>
</svg>
