<?xml version="1.0" encoding="UTF-8"?>
<svg version="1.1" xmlns="http://www.w3.org/2000/svg" width="60" height="60">
<path d="M0 0 C4.99810891 1.278586 7.68620448 3.04185535 11 7 C14.33717827 12.84006198 14.59031151 19.418371 13.12109375 25.84375 C12.72065678 27.19202372 12.30517564 28.53591796 11.875 29.875 C11.67511475 30.51743652 11.47522949 31.15987305 11.26928711 31.82177734 C9.25997187 37.54655794 6.07439594 39.7899357 1 42.75 C-2.57838207 44.24756078 -5.78532419 44.02234648 -9.625 43.875 C-14.79010566 43.65358512 -14.79010566 43.65358512 -19.125 46.375 C-19.74375 47.24125 -20.3625 48.1075 -21 49 C-24 51 -24 51 -26.25 50.9375 C-29.46252083 49.84232244 -31.69055648 48.22725921 -34.3515625 46.15625 C-36.11311936 44.803469 -36.11311936 44.803469 -39 44 C-38 41 -38 41 -34.5078125 39.0625 C-33.05161513 38.36501607 -31.5904112 37.67791197 -30.125 37 C-28.66658724 36.31821126 -27.21074729 35.630886 -25.7578125 34.9375 C-25.1095752 34.63714844 -24.46133789 34.33679687 -23.79345703 34.02734375 C-21.91232887 33.05516178 -21.91232887 33.05516178 -20.39013672 31.37890625 C-19 30 -19 30 -17 30 C-16.67 29.01 -16.34 28.02 -16 27 C-15.34 27 -14.68 27 -14 27 C-14.52268466 29.76276177 -15.10869587 32.3260876 -16 35 C-15.16855469 34.855625 -14.33710938 34.71125 -13.48046875 34.5625 C-12.39378906 34.376875 -11.30710937 34.19125 -10.1875 34 C-9.10855469 33.814375 -8.02960937 33.62875 -6.91796875 33.4375 C-4 33 -4 33 -1 33 C0.65 27.39 2.3 21.78 4 16 C-3.07887883 15.53576432 -3.07887883 15.53576432 -8 18.375 C-11.93978479 21.13362643 -15.32415489 21.96972904 -20 23 C-20.99 23.66 -21.98 24.32 -23 25 C-25.1875 24.625 -25.1875 24.625 -27 24 C-29.05795989 16.95871576 -30.09874587 9.59687994 -26.953125 2.70703125 C-26.63859375 2.14371094 -26.3240625 1.58039062 -26 1 C-25.34 1 -24.68 1 -24 1 C-22.88671875 2.6796875 -22.88671875 2.6796875 -21.6875 4.875 C-19.94454536 7.81104859 -19.27572756 8.8529453 -16.1875 10.5 C-15.465625 10.665 -14.74375 10.83 -14 11 C-14 10.34 -14 9.68 -14 9 C-12.7625 8.5875 -11.525 8.175 -10.25 7.75 C-6.65694414 6.42323556 -4.57891175 4.87647849 -2 2 C-1.34 2 -0.68 2 0 2 C0 1.34 0 0.68 0 0 Z " fill="#030C10" transform="translate(39,8)"/>
</svg>
