<?xml version="1.0" encoding="UTF-8"?>
<svg version="1.1" xmlns="http://www.w3.org/2000/svg" width="188" height="188">
<path d="M0 0 C13.60610546 1.1831396 25.28643438 9.02327872 34 19.3125 C45.18457969 34.9931142 45.93890172 56.17301382 43.67919922 74.61865234 C42.83216786 79.53102256 41.4978351 84.25180211 40 89 C39.61018429 90.32667822 39.22086339 91.65350193 38.83203125 92.98046875 C32.67430569 113.26444489 22.20401252 124.6326912 3.765625 134.80859375 C-2.69972583 137.59380844 -8.66666664 138.26472494 -15.6015625 138.16796875 C-17.24349537 138.17365014 -18.88542353 138.18086114 -20.52734375 138.18945312 C-23.06815156 138.19360079 -25.60733939 138.18773071 -28.14794922 138.15454102 C-39.93386769 138.02470978 -49.13407872 139.01338465 -59 146 C-61.04327341 148.21544041 -62.74019036 150.42833257 -64.44140625 152.91015625 C-67.52580933 157.04588469 -71.24783387 159.33237157 -76.23828125 160.54296875 C-88.17313017 161.57823388 -98.78646501 152.6414433 -107.71191406 145.79248047 C-112.28975267 142.33908712 -116.35176704 140.28819348 -122 139 C-121.65586122 133.26435365 -120.19930239 129.84551501 -116 126 C-112.98113318 123.98596531 -109.80760956 122.36761755 -106.5625 120.75 C-105.64815186 120.27965332 -104.73380371 119.80930664 -103.79174805 119.32470703 C-98.0007009 116.38361376 -92.12426208 113.70699764 -86.16894531 111.11816406 C-76.91789012 107.09197833 -69.97962299 103.41085827 -63 96 C-59.81237635 93.87491756 -57.73487777 93.4979837 -54 93 C-53.01 90.03 -52.02 87.06 -51 84 C-48.36 84 -45.72 84 -43 84 C-44.18360253 92.64341319 -46.25048805 100.72476987 -49 109 C-48.42668945 108.88930176 -47.85337891 108.77860352 -47.26269531 108.66455078 C-41.70159116 107.5927054 -36.13807016 106.53446942 -30.57226562 105.48730469 C-28.51004473 105.09662579 -26.449958 104.6946887 -24.390625 104.2890625 C-17.22158944 102.95213425 -10.28313877 102.78855404 -3 103 C-2.83251755 102.09025925 -2.83251755 102.09025925 -2.66165161 101.16213989 C-1.48665388 95.01203702 0.03101239 89.05215505 1.8203125 83.0546875 C2.08383514 82.15879913 2.34735779 81.26291077 2.61886597 80.33987427 C3.45019395 77.51703569 4.28748314 74.6960078 5.125 71.875 C5.69440794 69.94542976 6.26342194 68.01574323 6.83203125 66.0859375 C8.21680936 61.38926994 9.60693148 56.69421491 11 52 C8.88941739 49.88941739 4.46438157 50.7099751 1.5625 50.6875 C-7.75226698 50.70382419 -13.784972 52.41119482 -21.74609375 57.28125 C-23.16339509 58.14692697 -24.58138945 59.01147014 -26 59.875 C-26.72002197 60.31440918 -27.44004395 60.75381836 -28.18188477 61.20654297 C-37.34026501 66.62859357 -47.34596029 69.89922326 -57.76171875 71.953125 C-61.35587508 72.72169648 -63.52445937 73.77943811 -66.3125 76.25 C-69.21089743 78.36490838 -70.52908778 79.00290687 -74.1640625 78.98046875 C-77.95149576 78.35224295 -81.5496719 77.72516405 -85 76 C-92.18480286 55.00690413 -94.98383491 29.70918622 -85.62109375 8.94140625 C-84.49477548 6.88451164 -83.3376629 4.92426097 -82 3 C-77.13269142 1.87008908 -77.13269142 1.87008908 -74 3 C-71.16624859 6.48728198 -69.08057597 10.33999443 -66.94824219 14.27685547 C-61.90117714 23.44837584 -56.30806866 29.56530683 -46.4375 33.375 C-45.633125 33.58125 -44.82875 33.7875 -44 34 C-44 32.02 -44 30.04 -44 28 C-43.46375 27.8040625 -42.9275 27.608125 -42.375 27.40625 C-29.42198503 22.46365218 -17.72719612 17.08011026 -8 7 C-7 6 -7 6 -3.4375 5.9375 C-2.303125 5.958125 -1.16875 5.97875 0 6 C0 4.02 0 2.04 0 0 Z " fill="#FAFAFA" transform="translate(122,25)"/>
</svg>
