<?xml version="1.0" encoding="UTF-8"?>
<svg version="1.1" xmlns="http://www.w3.org/2000/svg" width="970" height="1890">
<path d="M0 0 C12.2811637 9.56720225 23.2228817 20.78287929 34.20239258 31.7800293 C35.64085669 33.21713507 37.07953272 34.65402875 38.5184021 36.09072876 C42.39019878 39.95800422 46.25887113 43.82839053 50.12681413 47.69951987 C54.1912475 51.76650253 58.25814005 55.83102493 62.32463074 59.89595032 C69.14587133 66.7153775 75.96501396 73.53689722 82.78295898 80.35961914 C90.65190298 88.2340129 98.52445455 96.10478615 106.3988722 103.97370595 C113.18063112 110.75092051 119.96043147 117.53008976 126.7386114 124.31088382 C130.77800986 128.35183664 134.81806992 132.39212179 138.85990334 136.43063927 C142.65679875 140.22463643 146.45122118 144.02108993 150.24378586 147.81941605 C151.63162374 149.20857068 153.02030308 150.59688528 154.40990639 151.98427391 C156.31404086 153.88565425 158.21503436 155.79012307 160.11531067 157.69535828 C160.65870474 158.23652163 161.20209881 158.77768498 161.76195937 159.33524722 C164.47971181 162.06666581 167.07427736 164.85573622 169.57778627 167.78534126 C173.73539424 172.55192439 178.16899939 177.01060351 182.64851952 181.47301197 C183.55717998 182.38222708 184.46584044 183.2914422 185.40203607 184.22820929 C187.91563511 186.74320765 190.43233237 189.25508521 192.94955817 191.76645289 C195.69090996 194.5025474 198.42932145 197.24158212 201.16810572 199.98024625 C205.96583519 204.77697002 210.76540553 209.57184555 215.56619072 214.36551094 C222.70527466 221.49403733 229.84145469 228.62546542 236.97700207 235.75753164 C248.98346748 247.75801609 260.99211929 259.7563103 273.00187302 271.7535038 C290.16161374 288.89540341 307.3171314 306.0415256 324.47178039 323.18852053 C331.35738565 330.07101647 338.24312725 336.953376 345.12887001 343.83573437 C345.8938574 344.60034699 346.65884479 345.36495961 347.44701362 346.15274231 C365.65276894 364.34952672 383.85986883 382.54496555 402.06738281 400.73999023 C402.86396662 401.53602964 403.66055042 402.33206904 404.48127313 403.15223084 C423.06718171 421.72541458 441.65373298 440.29795487 460.24139404 458.86938477 C461.04088652 459.66818006 461.840379 460.46697535 462.66409853 461.28997656 C466.6955637 465.31792408 470.72703346 469.34586702 474.75850351 473.37380966 C475.55527718 474.16988654 476.35205084 474.96596343 477.17296916 475.78616385 C478.78118175 477.39296968 480.3893951 478.99977476 481.9976092 480.60657908 C508.56966985 507.15538846 535.13833095 533.70759613 561.70325411 560.26354739 C565.45490539 564.0139221 569.20660275 567.7642507 572.95833206 571.51454735 C573.69668526 572.2526192 574.43503846 572.99069105 575.19576599 573.75112871 C587.07670196 585.62730876 598.96133598 597.49978148 610.84745026 609.37077865 C622.79285764 621.30110904 634.73472312 633.23497504 646.67294954 645.17249123 C653.76426636 652.26315462 660.85837951 659.35099343 667.95652335 666.43482272 C672.70018397 671.16946414 677.44019028 675.90774326 682.17727356 680.64896535 C684.87466189 683.34850032 687.5735869 686.04644648 690.27700274 688.7399464 C693.19475297 691.64706594 696.10462712 694.56194727 699.0138607 697.47758961 C700.26288184 698.71830093 700.26288184 698.71830093 701.53713572 699.98407713 C707.25712339 705.73493587 712.40339415 711.82417725 717.45703125 718.1640625 C718.50533512 719.44214019 719.55550916 720.71869217 720.609375 721.9921875 C727.46260417 730.37461004 733.67737958 739.00991056 739.45703125 748.1640625 C739.8236084 748.74027344 740.19018555 749.31648437 740.56787109 749.91015625 C766.73175819 791.32163839 782.16748255 837.55146268 787.45703125 886.1640625 C787.55274414 887.040625 787.64845703 887.9171875 787.74707031 888.8203125 C788.64014338 898.09034695 788.70040432 907.35906231 788.70703125 916.6640625 C788.70804337 917.94946426 788.70804337 917.94946426 788.70907593 919.26083374 C788.66825265 952.12280753 783.47948681 983.86451686 773.45703125 1015.1640625 C773.18665039 1016.02161133 772.91626953 1016.87916016 772.63769531 1017.76269531 C755.95581235 1070.09521187 723.53395114 1113.27701837 685.13704967 1151.61826515 C683.93871108 1152.81856281 682.74058869 1154.01907634 681.54265985 1155.21978295 C678.27406133 1158.49471518 675.0024188 1161.76659101 671.73022998 1165.03793541 C668.16174489 1168.60659132 664.59613689 1172.17812006 661.03014213 1175.74926412 C653.96798042 1182.82071403 646.90315288 1189.88949498 639.83748441 1196.9574408 C631.37015336 1205.42774364 622.90568988 1213.90090993 614.44124386 1222.37409564 C593.99120634 1242.84493395 573.53602228 1263.31062648 553.07999262 1283.77547649 C546.30504831 1290.55335808 539.5303206 1297.33145611 532.75573754 1304.10969877 C532.27729693 1304.58839767 531.79885632 1305.06709658 531.30591751 1305.56030151 C529.37000651 1307.49725883 527.43409656 1309.4342172 525.49818794 1311.3711769 C492.3919846 1344.49533797 459.28449132 1377.61820936 426.17301967 1410.7371042 C423.57501903 1413.3356888 420.97702505 1415.93428004 418.37903063 1418.53287085 C417.86369203 1419.04832757 417.34835343 1419.56378429 416.81739851 1420.09486091 C411.59663693 1425.31681982 406.37588108 1430.53878445 401.15513405 1435.76075791 C400.10839115 1436.80774604 399.06164756 1437.85473349 398.01490328 1438.90172025 C364.38695835 1472.53745727 330.76632267 1506.1804861 297.1507311 1539.82856886 C272.98187518 1564.02077735 248.81211845 1588.21208156 224.6351366 1612.39616966 C224.13773931 1612.89371398 223.64034201 1613.3912583 223.12787207 1613.90387972 C212.20788926 1624.82704758 201.28733931 1635.74964827 190.36625974 1646.67171959 C185.97204899 1651.06634505 181.57790834 1655.4610406 177.18378639 1659.85575485 C176.70290167 1660.33670025 176.22201694 1660.81764564 175.72655995 1661.31316514 C160.2528973 1676.78884165 144.78534912 1692.270612 129.3209457 1707.75554055 C113.30987795 1723.78778367 97.29160843 1739.81280475 81.26504906 1755.82956339 C72.03024577 1765.05915078 62.80103293 1774.2942467 53.57977723 1783.5373699 C47.41646128 1789.71419551 41.24587863 1795.88369804 35.06939182 1802.04735335 C31.55274076 1805.55710934 28.03927753 1809.06989656 24.53464659 1812.59165867 C21.33949525 1815.80230041 18.13508991 1819.0034068 14.92339648 1822.1974985 C13.7770214 1823.34075201 12.63390626 1824.48728746 11.49470108 1825.63768564 C1.0780552 1836.14989011 -10.40690765 1846.03499997 -24.04296875 1852.1015625 C-25.22862427 1852.64683594 -25.22862427 1852.64683594 -26.43823242 1853.203125 C-51.9636985 1864.57400305 -82.11165548 1864.52972862 -108.11547852 1854.8371582 C-134.62638949 1844.35941841 -155.17280472 1823.17095703 -166.54296875 1797.1640625 C-177.00632218 1769.99402873 -176.57066551 1740.39749448 -165.171875 1713.62890625 C-155.94379148 1693.99986529 -140.5541683 1679.01050265 -125.38615799 1663.89258385 C-124.19337994 1662.69997684 -123.00082384 1661.5071478 -121.80846685 1660.31411982 C-118.55074962 1657.05583099 -115.28993273 1653.80066021 -112.02857961 1650.54601125 C-108.47364996 1646.99725466 -104.92168232 1643.44553538 -101.36933875 1639.89419043 C-95.14944088 1633.67683379 -88.9277065 1627.4613198 -82.70475578 1621.24701881 C-73.4510839 1612.0061726 -64.20033847 1602.76240098 -54.95024897 1593.51796897 C-40.34004724 1578.91680078 -25.72812092 1564.31735986 -11.11498399 1549.71912933 C11.58555387 1527.04172943 34.28166842 1504.359907 56.97615025 1481.67644666 C65.88959721 1472.76733403 74.80318551 1463.85836283 83.71676189 1454.94937969 C85.21818499 1453.4487296 86.71960676 1451.94807818 88.22102838 1450.4474266 C111.28677855 1427.39352334 134.35358481 1404.34067691 157.42099149 1381.28843114 C158.98428005 1379.72616943 160.54756671 1378.16390583 162.11085315 1376.60164201 C186.19543536 1352.53283973 210.28109456 1328.46511601 234.36907959 1304.39971924 C234.88743581 1303.88184859 235.40579203 1303.36397793 235.93985602 1302.83041423 C241.69058925 1297.08507072 247.44134439 1291.33974915 253.1921083 1285.59443636 C253.70876182 1285.07827257 254.22541533 1284.56210877 254.75772501 1284.03030365 C257.3647449 1281.42575544 259.97176614 1278.82120859 262.57878899 1276.21666334 C286.13621342 1252.6816034 309.69258249 1229.14548944 333.24422073 1205.60463905 C333.98676418 1204.8624372 333.98676418 1204.8624372 334.7443085 1204.10524136 C345.12313414 1193.73116774 355.50164883 1183.3567831 365.87975599 1172.98199072 C370.73946926 1168.12383234 375.59925517 1163.26574662 380.45908356 1158.4077034 C381.17676986 1157.69027708 381.17676986 1157.69027708 381.90895488 1156.9583573 C397.31693413 1141.55603368 412.72990214 1126.15871374 428.14558051 1110.76409621 C444.10014738 1094.83129741 460.04953528 1078.89332957 475.99283209 1062.94925259 C485.1848062 1053.75717134 494.38097772 1044.56933581 503.58315473 1035.38746845 C509.72711254 1029.25625315 515.86562561 1023.11962266 521.99972282 1016.9785422 C525.49624023 1013.47835946 528.99509764 1009.98060675 532.50062189 1006.48944263 C535.69126325 1003.31178106 538.87488062 1000.12725251 542.0531021 996.93717025 C543.19526515 995.7931617 544.33993602 994.65164986 545.48744441 993.51300308 C566.43942008 972.71292257 578.35593501 947.31623953 578.83203125 917.6015625 C578.78219307 886.74000365 565.21412643 860.54852802 543.71443227 839.03614652 C542.62123563 837.95179718 541.5279004 836.86758753 540.43444157 835.78350258 C539.24361436 834.59166745 538.05344915 833.39917059 536.8638784 832.20608139 C533.61251846 828.94888508 530.35194427 825.70105573 527.08971375 822.45475187 C523.53487574 818.9139021 519.98886448 815.36423044 516.44171375 811.81568277 C510.22999347 805.60390376 504.01276383 799.39768274 497.79185677 793.1951046 C488.54100698 783.97143388 479.29886725 774.73907237 470.05855721 765.50484435 C454.98661038 750.44321476 439.90860396 735.38766548 424.82673388 720.33597316 C408.93823932 704.47925261 393.05357969 688.61870616 377.17445183 672.75260544 C376.69548095 672.27402877 376.21651008 671.79545211 375.72302493 671.30237312 C370.37074761 665.95447719 365.01860254 660.60644891 359.66651522 655.25836281 C349.76830526 645.36755578 339.86960106 635.4772434 329.97080135 625.5870266 C329.47556788 625.09222093 328.98033441 624.59741526 328.47009387 624.08761549 C304.91262819 600.55053856 281.35085434 577.01777617 257.78786921 553.48622491 C256.2249451 551.92538508 254.66202383 550.3645424 253.09910309 548.80369919 C230.07290853 525.8081364 207.04579511 502.81349395 184.01770152 479.81983287 C175.1390076 470.95441341 166.26036749 462.08894005 157.38175452 453.22343952 C155.81950322 451.66349675 154.25724945 450.10355646 152.69499547 448.54361637 C129.15360313 425.03705357 105.61387667 401.52882646 82.08005428 378.01468468 C81.58517234 377.52021823 81.0902904 377.02575179 80.58041204 376.51630152 C70.69194961 366.63612008 60.80377575 356.75564991 50.91616968 346.87461147 C45.56869265 341.53068722 40.22111353 336.18686514 34.87342644 330.84315109 C34.15583114 330.12608504 34.15583114 330.12608504 33.42373896 329.3945328 C18.02979941 314.01207185 2.62882094 298.63668098 -12.77612551 283.26524358 C-28.72632011 267.34973129 -44.66977824 251.42749985 -60.60525089 235.49724628 C-69.78808398 226.31789423 -78.976517 217.14423101 -88.17303885 207.97859296 C-94.31885003 201.85233019 -100.45734495 195.71880065 -106.5900089 189.5793771 C-110.08208341 186.08387665 -113.57720696 182.59158745 -117.08134788 179.10817976 C-120.27602444 175.93228723 -123.46114316 172.74711161 -126.63923837 169.5546288 C-127.77670274 168.41520447 -128.91745807 167.27905219 -130.06208893 166.14682731 C-140.56064115 155.75531499 -150.43071831 144.27713958 -156.48046875 130.6640625 C-156.84470947 129.86492432 -157.2089502 129.06578613 -157.58422852 128.24243164 C-169.2309088 101.91867779 -169.17431948 72.24503118 -158.85546875 45.5390625 C-153.35622884 32.17972646 -145.64596546 21.38823458 -135.54296875 11.1640625 C-134.89972656 10.44863281 -134.25648438 9.73320313 -133.59375 8.99609375 C-100.30937875 -27.17629236 -38.26458713 -27.62573879 0 0 Z " fill="#F2F2F2" transform="translate(177.54296875,23.8359375)"/>
</svg>
