<?xml version="1.0" encoding="UTF-8"?>
<svg version="1.1" xmlns="http://www.w3.org/2000/svg" width="970" height="1890">
<path d="M0 0 C2.47579546 2.18631784 4.85720452 4.44144807 7.2265625 6.7421875 C7.97292969 7.41507813 8.71929688 8.08796875 9.48828125 8.78125 C28.55519779 26.55041829 38.09772283 53.14075201 39.2265625 78.7421875 C39.5797166 97.16968886 35.5218294 114.33499923 27.2265625 130.7421875 C26.69160156 131.80050781 26.15664063 132.85882813 25.60546875 133.94921875 C22.65692533 139.34427542 19.23436844 144.16140883 15.24951226 148.83346134 C14.76985276 149.39713473 14.29019326 149.96080811 13.79599863 150.5415625 C8.51372721 156.67429591 2.8471803 162.39148685 -2.89063358 168.09430599 C-4.07930576 169.28324455 -5.26753548 170.47262559 -6.45536855 171.66240248 C-9.69888649 174.90871018 -12.94856778 178.14878406 -16.19934414 181.38782108 C-19.74317656 184.92111391 -23.28110346 188.46031206 -26.81978935 191.9987579 C-33.01543742 198.19239704 -39.214758 204.38234079 -45.41652489 210.56985283 C-54.63886294 219.77105345 -63.85537197 228.97807627 -73.07062522 238.18637186 C-88.1016481 253.20580666 -103.13663203 268.22126973 -118.17404589 283.23430566 C-134.01442478 299.04903741 -149.85195082 314.866618 -165.68546867 330.68821907 C-166.16309227 331.16548287 -166.64071586 331.64274666 -167.1328129 332.13447299 C-172.95802639 337.95532271 -178.78310623 343.77630617 -184.608147 349.59732874 C-193.49198067 358.47501629 -202.37610101 367.35241696 -211.26024236 376.2297966 C-212.25747968 377.22627496 -213.25471633 378.222754 -214.2519523 379.21923371 C-237.74033935 402.68979671 -261.23127975 426.15780339 -284.72323639 449.62479351 C-286.2814008 451.18130272 -287.83956256 452.73781459 -289.39772392 454.29432685 C-313.39908294 478.27025355 -337.40174583 502.24487404 -361.40661621 526.21728516 C-362.44981709 527.25907744 -363.4930179 528.30086979 -364.53621864 529.34266221 C-369.22402074 534.02413305 -373.91183147 538.70559525 -378.59964317 543.38705647 C-380.67905467 545.46365132 -382.75846534 547.54024701 -384.8378761 549.6168426 C-386.39582973 551.17268575 -387.95378526 552.728527 -389.51174088 554.28436815 C-412.98692543 577.72772608 -436.46059706 601.17259484 -459.92812252 624.62362003 C-460.42155901 625.11670814 -460.9149955 625.60979625 -461.42338461 626.11782643 C-471.76968227 636.45684625 -482.11558148 646.79626466 -492.46094507 657.13621913 C-497.30561412 661.97834948 -502.15038631 666.82037663 -506.99522209 671.66234016 C-507.47219552 672.13903381 -507.94916895 672.61572745 -508.44059612 673.10686635 C-523.79106612 688.44822254 -539.14833928 703.78274709 -554.50937498 719.11352347 C-570.41230202 734.98515207 -586.30837656 750.863612 -602.19639463 766.75016551 C-611.35280234 775.90526596 -620.51479183 785.05469717 -629.68484451 794.19613074 C-635.81171344 800.30497048 -641.93127582 806.42106532 -648.04499453 812.54306561 C-651.52705912 816.02942632 -655.01218025 819.51256904 -658.50628824 822.98686307 C-661.69067851 826.15331583 -664.86554787 829.32901169 -668.03336722 832.51203997 C-669.16823377 833.64916011 -670.30640149 834.78299874 -671.44842144 835.91293445 C-681.22389132 845.59123829 -690.40162841 856.26236374 -696.0859375 868.9296875 C-696.4044165 869.6211084 -696.72289551 870.3125293 -697.05102539 871.02490234 C-707.79502586 895.41712817 -709.28221005 923.78672092 -700.0859375 948.8671875 C-692.86166468 967.38892067 -681.77375476 981.05990509 -667.79580879 994.95753193 C-666.5978328 996.15607815 -665.40029808 997.35506556 -664.2031607 998.55444941 C-660.92447899 1001.83675507 -657.63961987 1005.1128157 -654.35369016 1008.38786315 C-650.77521918 1011.95672208 -647.20262042 1015.53145148 -643.62927234 1019.10543841 C-637.36964553 1025.36459182 -631.10633724 1031.62004204 -624.84059143 1037.87306976 C-615.52305566 1047.17174652 -606.2113169 1056.47621221 -596.90081504 1065.78193117 C-581.71534753 1080.95933952 -566.52585746 1096.13271638 -551.33383522 1111.30356321 C-535.32782493 1127.28728054 -519.32444016 1143.27361941 -503.32482529 1159.26373863 C-502.84235596 1159.7459209 -502.35988664 1160.22810317 -501.86279704 1160.72489702 C-496.47150494 1166.11299891 -491.08030548 1171.50119349 -485.68914758 1176.88942965 C-475.71835519 1186.85481816 -465.74723508 1196.81987875 -455.7760601 1206.78488445 C-455.27719104 1207.28344599 -454.77832198 1207.78200753 -454.26433567 1208.29567699 C-430.53011562 1232.01524403 -406.79310408 1255.73201673 -383.05523384 1279.44793071 C-381.48055837 1281.02115024 -379.90588498 1282.59437186 -378.33121196 1284.16759384 C-354.60560153 1307.87132181 -330.87919853 1331.57425623 -307.15175795 1355.27615221 C-304.51747566 1357.90759974 -301.88319769 1360.53905159 -299.24891984 1363.17050357 C-298.46710774 1363.95147692 -298.46710774 1363.95147692 -297.66950146 1364.74822752 C-292.41327621 1369.99881503 -287.15705736 1375.24940895 -281.90084394 1380.50000832 C-280.32707316 1382.07209721 -278.75330067 1383.64418438 -277.17952805 1385.21627144 C-253.4655155 1408.90491311 -229.75271351 1432.59476437 -206.04440117 1456.28911114 C-205.54587244 1456.78734502 -205.04734371 1457.28557891 -204.53370805 1457.79891079 C-194.08044109 1468.24601329 -183.62746071 1478.69340246 -173.17487624 1489.14118781 C-168.27988356 1494.03392726 -163.38480884 1498.92658461 -158.48968124 1503.81918907 C-158.00775178 1504.30087218 -157.52582231 1504.78255528 -157.02928892 1505.27883484 C-141.51935922 1520.78074594 -126.00420612 1536.27741677 -110.48613153 1551.77117417 C-94.41863874 1567.81350233 -78.35622339 1583.86089984 -62.2998196 1599.91432766 C-53.0465072 1609.1655724 -43.78898986 1618.41256292 -34.52542101 1627.65353778 C-28.33537561 1633.82930391 -22.1508076 1640.01051948 -15.97062376 1646.19615413 C-12.45103673 1649.71852861 -8.92914282 1653.23850588 -5.40051128 1656.75182173 C-2.18419002 1659.95427199 1.02500571 1663.16369394 4.22889379 1666.37858152 C5.37586083 1667.52709251 6.52529942 1668.67314261 7.6776394 1669.81626266 C31.31742544 1693.27821183 46.37918781 1719.24897243 46.6015625 1753.2421875 C46.53711112 1763.09989113 46.06311047 1772.24777976 43.2265625 1781.7421875 C43.02788574 1782.41362793 42.82920898 1783.08506836 42.62451172 1783.77685547 C34.5319651 1810.45498106 16.84870743 1832.46044251 -7.69921875 1845.9375 C-31.42773356 1858.49310108 -60.67907063 1862.42012965 -86.76953125 1855.0703125 C-93.70025946 1852.87008132 -100.28996387 1850.02014977 -106.7734375 1846.7421875 C-108.36091797 1845.93974609 -108.36091797 1845.93974609 -109.98046875 1845.12109375 C-115.37087113 1842.17509402 -120.18547864 1838.75646244 -124.85372841 1834.77524728 C-125.41713076 1834.29583707 -125.98053311 1833.81642687 -126.56100825 1833.32248909 C-132.75752079 1827.9850479 -138.53494066 1822.25679849 -144.30128288 1816.46323109 C-145.50939839 1815.25690317 -146.71795186 1814.05101374 -147.92689729 1812.84551755 C-151.22636409 1809.55296081 -154.51963747 1806.25427152 -157.81187268 1802.95448607 C-161.40276423 1799.35758991 -164.9994911 1795.76653637 -168.59546101 1792.17471856 C-174.88994884 1785.88590254 -181.1807293 1779.59339722 -187.46906471 1773.29842949 C-196.81993103 1763.93772808 -206.17653546 1754.58277797 -215.53428563 1745.22895887 C-231.27903025 1729.49048436 -247.01906719 1713.74730876 -262.75631332 1698.00133705 C-278.34007178 1682.4089537 -293.92568768 1666.81843115 -309.5138588 1651.23045921 C-310.49357567 1650.25075026 -311.47329244 1649.27104122 -312.45300911 1648.29133207 C-316.39021777 1644.35416078 -320.32744096 1640.41700402 -324.26468193 1636.47986506 C-335.26987821 1625.47494637 -346.27474137 1614.46969461 -357.27935982 1603.46419811 C-357.78043283 1602.96308543 -358.28150584 1602.46197275 -358.79776288 1601.94567483 C-374.75834858 1585.98378165 -390.7175027 1570.02045794 -406.6756115 1554.05608845 C-407.19302768 1553.53846932 -407.71044387 1553.0208502 -408.24353933 1552.48754564 C-416.64564239 1544.08213399 -425.04765204 1535.67662897 -433.449657 1527.27111926 C-466.78278697 1493.92409632 -500.11954158 1460.5807018 -533.45996094 1427.2409668 C-534.51414477 1426.18680335 -535.56832852 1425.13263981 -536.62251218 1424.07847619 C-538.72838741 1421.97264115 -540.83426293 1419.8668064 -542.94013864 1417.76097184 C-547.66200363 1413.03919827 -552.38386508 1408.31742118 -557.10571976 1403.59563731 C-558.15155073 1402.54982211 -559.19738204 1401.50400724 -560.24321369 1400.45819271 C-588.18123423 1372.52061744 -616.11679807 1344.580586 -644.05143082 1316.63962334 C-644.78293372 1315.90795519 -644.78293372 1315.90795519 -645.52921445 1315.16150586 C-654.41230897 1306.27640407 -654.41230897 1306.27640407 -658.76685632 1301.9208394 C-669.49062439 1291.19457612 -680.21466926 1280.4685898 -690.93949652 1269.74338555 C-691.42269814 1269.2601664 -691.90589977 1268.77694724 -692.40374387 1268.27908508 C-694.3510953 1266.33166445 -696.29844871 1264.38424578 -698.24580323 1262.43682824 C-716.31186394 1244.37018154 -734.37632924 1226.30194216 -752.43762307 1208.2305297 C-761.73505153 1198.92798252 -771.03383495 1189.62679471 -780.33458275 1180.3275662 C-786.54320814 1174.11967439 -792.75001638 1167.90996973 -798.95533381 1161.69877134 C-802.49321909 1158.15763169 -806.03188806 1154.61728499 -809.5727471 1151.07911865 C-812.79427032 1147.86000974 -816.01348391 1144.63860971 -819.23087581 1141.41537182 C-820.38753077 1140.25741746 -821.54502016 1139.10029582 -822.70344859 1137.94411564 C-828.60497023 1132.05312543 -834.40575369 1126.13262294 -839.7734375 1119.7421875 C-840.58648469 1118.77964881 -840.58648469 1118.77964881 -841.41595709 1117.7976649 C-882.60003363 1068.84036612 -908.07233164 1009.43343223 -914.7734375 945.7421875 C-914.8677002 944.87142578 -914.96196289 944.00066406 -915.05908203 943.10351562 C-915.95376593 933.826972 -916.01680586 924.55379712 -916.0234375 915.2421875 C-916.02411224 914.38525299 -916.02478699 913.52831848 -916.02548218 912.64541626 C-915.93290681 838.12397258 -889.27850989 764.39060584 -839.45214152 708.62127321 C-838.24560353 707.27071452 -837.04264874 705.91695158 -835.84201176 704.56114424 C-830.51800074 698.58543704 -825.01423597 692.84286431 -819.34588432 687.19437981 C-818.43600535 686.28364659 -817.52612638 685.37291337 -816.58867532 684.43458217 C-814.08098961 681.92467875 -811.57022453 679.41787638 -809.05891468 676.91159985 C-806.32053558 674.17758505 -803.58509798 671.44062975 -800.84927952 668.70405304 C-796.05993088 663.9141729 -791.26874142 659.12614041 -786.47632599 654.33932877 C-779.34985042 647.22116268 -772.22627422 640.10010028 -765.10330179 632.9784289 C-753.11784429 620.99530355 -741.13013228 609.01443604 -729.14120102 597.03478622 C-712.76952579 580.6757246 -696.40114079 564.31337386 -680.0336286 547.95014717 C-672.40536347 540.32388814 -664.77693767 532.69778983 -657.14846992 525.07173347 C-656.38486307 524.30836763 -655.62125621 523.54500178 -654.83450975 522.75850364 C-636.66733985 504.59714247 -618.49859634 486.4373558 -600.32958984 468.27783203 C-599.13741278 467.08627544 -599.13741278 467.08627544 -597.92115133 465.87064699 C-585.83030742 453.78609977 -573.73938146 441.70163463 -561.6484375 429.6171875 C-548.75109241 416.7267722 -535.85377809 403.83632611 -522.95654297 390.94580078 C-522.16188229 390.15155469 -521.36722161 389.3573086 -520.54848031 388.53899445 C-502.40648965 370.40645178 -484.2649488 352.27345938 -466.1248188 334.13905525 C-464.98132523 332.99592317 -464.98132523 332.99592317 -463.81473078 331.82969752 C-456.20437451 324.22172654 -448.5940969 316.61367688 -440.98393674 309.00550972 C-424.63393625 292.65982591 -408.28255804 276.31552371 -391.92838936 259.97401019 C-380.0097419 248.06454389 -368.09280669 236.15336665 -356.17765985 224.24039803 C-349.09765022 217.16180381 -342.01622352 210.08463399 -334.93278582 203.00947016 C-330.20205913 198.28399841 -325.47314634 193.55671664 -320.74570278 188.82796042 C-318.05186506 186.13348152 -315.35723978 183.4398034 -312.66038726 180.74834166 C-309.75397717 177.84770722 -306.85146505 174.94320302 -303.9493084 172.03831291 C-303.11354965 171.20546703 -302.27779091 170.37262115 -301.41670614 169.51453751 C-297.21161635 165.29869801 -293.15881372 161.0129904 -289.28963898 156.48574602 C-286.77738456 153.59677469 -284.07745368 150.90149376 -281.36924744 148.19755554 C-280.46241891 147.28627033 -280.46241891 147.28627033 -279.53727061 146.35657531 C-277.53492115 144.34563685 -275.52909119 142.33820905 -273.52319336 140.33081055 C-272.07672419 138.87970625 -270.63045055 137.42840702 -269.18435669 135.97692871 C-265.27119471 132.05070761 -261.35475601 128.12777178 -257.43728709 124.20584846 C-254.98418313 121.74980322 -252.53166304 119.29317638 -250.07931709 116.83637428 C-242.38972586 109.13312513 -234.69814578 101.4318701 -227.00365728 93.73351258 C-218.15235959 84.87773841 -209.30763045 76.01547304 -200.46860021 67.14745492 C-193.61503433 60.27220185 -186.7556458 53.40279307 -179.8918944 46.53770858 C-175.80226397 42.44703516 -171.71504831 38.35401985 -167.63389397 34.25488853 C-163.79013682 30.39452864 -159.93912902 26.54154612 -156.08270645 22.69384003 C-154.67819183 21.29008929 -153.27618017 19.88382844 -151.87704277 18.47471809 C-110.75276111 -22.92516077 -49.17836544 -40.03534538 0 0 Z " fill="#F2F2F2" transform="translate(919.7734375,27.2578125)"/>
</svg>
