<?xml version="1.0" encoding="UTF-8"?>
<svg version="1.1" xmlns="http://www.w3.org/2000/svg" width="37" height="59">
<path d="M0 0 C0.99 0 1.98 0 3 0 C3.21914063 0.556875 3.43828125 1.11375 3.6640625 1.6875 C5.8019946 6.8324423 8.26455202 10.98656505 11.828125 15.2734375 C13 17 13 17 13 20 C10.36 20 7.72 20 5 20 C5.96354742 33.12490202 5.96354742 33.12490202 12 44 C12.28875 44.804375 12.5775 45.60875 12.875 46.4375 C14.28477464 49.64865334 16.17714301 50.99428583 19 53 C18.67 53.99 18.34 54.98 18 56 C16.375 56.625 16.375 56.625 14 57 C12.865625 57.28875 11.73125 57.5775 10.5625 57.875 C7 58 7 58 4.0625 55.5625 C3.381875 54.716875 2.70125 53.87125 2 53 C1.46375 53.268125 0.9275 53.53625 0.375 53.8125 C-0.40875 54.204375 -1.1925 54.59625 -2 55 C-2.9075 55.53625 -3.815 56.0725 -4.75 56.625 C-8.8362213 58.35378593 -11.59940452 58.22761701 -16 58 C-16.66 56.68 -17.32 55.36 -18 54 C-17.34 53.01 -16.68 52.02 -16 51 C-14.35 51.33 -12.7 51.66 -11 52 C-10.7525 51.319375 -10.505 50.63875 -10.25 49.9375 C-9 47 -9 47 -7 43.625 C-2.60998207 35.95884928 -2.76649077 28.62686872 -3 20 C-3.41894531 20.49113281 -3.83789062 20.98226563 -4.26953125 21.48828125 C-6.96397985 23.84212235 -9.5667097 23.19433719 -13 23 C-12.46669906 18.59031758 -10.88106526 16.11314202 -8.1875 12.625 C-5.10454229 8.53468447 -2.40802459 4.51504611 0 0 Z " fill="#070A08" transform="translate(18,0)"/>
<path d="M0 0 C0.66 0 1.32 0 2 0 C2.24234375 0.53109375 2.4846875 1.0621875 2.734375 1.609375 C4.69412559 5.73992624 6.46628972 8.97110547 10 12 C9.67 12.99 9.34 13.98 9 15 C7.02 14.01 5.04 13.02 3 12 C3.15002596 20.36053736 4.25761147 28.10318675 6.3125 36.1875 C6.61353638 37.42560425 6.61353638 37.42560425 6.9206543 38.6887207 C8.11755104 43.26886714 8.11755104 43.26886714 10.98046875 46.92578125 C11.64691406 47.28027344 12.31335938 47.63476562 13 48 C13.99 48.66 14.98 49.32 16 50 C12.87725512 51.37400775 11.79099641 50.92162365 8.5 49.6875 C5 48 5 48 3.08984375 46.71484375 C0.91598993 45.70186143 0.91598993 45.70186143 -1.40234375 47.1171875 C-2.65724609 47.98730469 -2.65724609 47.98730469 -3.9375 48.875 C-7.52583631 51.34856723 -9.60621887 52.39300368 -14 52 C-14 51.34 -14 50.68 -14 50 C-12.68 50 -11.36 50 -10 50 C-9.7525 49.29875 -9.505 48.5975 -9.25 47.875 C-8 45 -8 45 -6.0625 42.375 C-0.26324577 32.88531126 -0.63650949 22.7297014 -1 12 C-1.83144531 12.55880859 -1.83144531 12.55880859 -2.6796875 13.12890625 C-3.40414063 13.60199219 -4.12859375 14.07507812 -4.875 14.5625 C-5.59429687 15.03816406 -6.31359375 15.51382812 -7.0546875 16.00390625 C-7.69664063 16.33261719 -8.33859375 16.66132813 -9 17 C-9.66 16.67 -10.32 16.34 -11 16 C-10.41476563 15.29488281 -9.82953125 14.58976562 -9.2265625 13.86328125 C-6.35357473 10.16871978 -4.00601506 6.23046594 -1.5859375 2.23046875 C-1.06257813 1.49441406 -0.53921875 0.75835937 0 0 Z " fill="#70B152" transform="translate(18,4)"/>
<path d="M0 0 C0.99 0.495 0.99 0.495 2 1 C2.85902832 4.01334542 3.47476089 7.05172309 4.12109375 10.1171875 C5.01881378 13.06170921 5.74465782 14.03488952 8 16 C8.28875 16.804375 8.5775 17.60875 8.875 18.4375 C10.28477464 21.64865334 12.17714301 22.99428583 15 25 C14.67 25.99 14.34 26.98 14 28 C11.9375 28.6875 11.9375 28.6875 10 29 C9.67 28.34 9.34 27.68 9 27 C9.66 26.67 10.32 26.34 11 26 C10.071875 25.484375 9.14375 24.96875 8.1875 24.4375 C2.68237975 20.7328779 1.61456709 14.30863372 0.33984375 8.15625 C-0.09216273 5.41524338 -0.14194685 2.76796354 0 0 Z " fill="#020303" transform="translate(22,28)"/>
<path d="M0 0 C0.99 0.33 1.98 0.66 3 1 C1.6875 2.96875 1.6875 2.96875 0.375 4.9375 C-0.16640625 5.75089844 -0.7078125 6.56429688 -1.265625 7.40234375 C-2.41706901 9.12691643 -3.57328787 10.84831111 -4.734375 12.56640625 C-5.27578125 13.36949219 -5.8171875 14.17257812 -6.375 15 C-7.12910156 16.11375 -7.12910156 16.11375 -7.8984375 17.25 C-9.08878551 18.79641022 -9.08878551 18.79641022 -9 20 C-8.34 20 -7.68 20 -7 20 C-7 20.66 -7 21.32 -7 22 C-8.98 22.33 -10.96 22.66 -13 23 C-12.46669906 18.59031758 -10.88106526 16.11314202 -8.1875 12.625 C-5.10454229 8.53468447 -2.40802459 4.51504611 0 0 Z " fill="#020302" transform="translate(18,0)"/>
<path d="M0 0 C2.76921611 1.38460805 2.96692585 3.32534593 4.0703125 6.078125 C5.56635429 9.17078282 7.70610383 11.45811506 10 14 C9.34 15.32 8.68 16.64 8 18 C7.38125 16.9171875 7.38125 16.9171875 6.75 15.8125 C5.06865391 12.95634723 5.06865391 12.95634723 2.875 10.5 C0.89707572 7.86276763 0.53109485 6.1865691 0 3 C-0.66 2.67 -1.32 2.34 -2 2 C-1.34 1.34 -0.68 0.68 0 0 Z " fill="#0F1516" transform="translate(20,1)"/>
<path d="M0 0 C0 3.96 0 7.92 0 12 C-0.66 12 -1.32 12 -2 12 C-2.33 9.69 -2.66 7.38 -3 5 C-3.99 5.99 -4.98 6.98 -6 8 C-6.99 7.67 -7.98 7.34 -9 7 C-8.34 7 -7.68 7 -7 7 C-6.9071875 6.1028125 -6.9071875 6.1028125 -6.8125 5.1875 C-5.78539135 2.42220748 -3.17879223 0 0 0 Z " fill="#14191D" transform="translate(18,15)"/>
<path d="M0 0 C0.66 0.33 1.32 0.66 2 1 C0.68 2.65 -0.64 4.3 -2 6 C-1.01 6 -0.02 6 1 6 C1 6.66 1 7.32 1 8 C-0.98 8.33 -2.96 8.66 -5 9 C-4.5206753 4.68607774 -3.2542015 2.83430453 0 0 Z " fill="#060A09" transform="translate(10,14)"/>
<path d="M0 0 C2.31 0.66 4.62 1.32 7 2 C5.68 2.99 4.36 3.98 3 5 C1.68 4.34 0.36 3.68 -1 3 C-0.67 2.01 -0.34 1.02 0 0 Z " fill="#172339" transform="translate(24,53)"/>
</svg>
